%TF.GenerationSoftware,KiCad,Pcbnew,8.0.1-8.0.1-1~ubuntu22.04.1*%
%TF.CreationDate,2024-05-16T15:07:56-04:00*%
%TF.ProjectId,block-diagram-alex,626c6f63-6b2d-4646-9961-6772616d2d61,rev?*%
%TF.SameCoordinates,Original*%
%TF.FileFunction,Copper,L1,Top*%
%TF.FilePolarity,Positive*%
%FSLAX46Y46*%
G04 Gerber Fmt 4.6, Leading zero omitted, Abs format (unit mm)*
G04 Created by KiCad (PCBNEW 8.0.1-8.0.1-1~ubuntu22.04.1) date 2024-05-16 15:07:56*
%MOMM*%
%LPD*%
G01*
G04 APERTURE LIST*
G04 Aperture macros list*
%AMRoundRect*
0 Rectangle with rounded corners*
0 $1 Rounding radius*
0 $2 $3 $4 $5 $6 $7 $8 $9 X,Y pos of 4 corners*
0 Add a 4 corners polygon primitive as box body*
4,1,4,$2,$3,$4,$5,$6,$7,$8,$9,$2,$3,0*
0 Add four circle primitives for the rounded corners*
1,1,$1+$1,$2,$3*
1,1,$1+$1,$4,$5*
1,1,$1+$1,$6,$7*
1,1,$1+$1,$8,$9*
0 Add four rect primitives between the rounded corners*
20,1,$1+$1,$2,$3,$4,$5,0*
20,1,$1+$1,$4,$5,$6,$7,0*
20,1,$1+$1,$6,$7,$8,$9,0*
20,1,$1+$1,$8,$9,$2,$3,0*%
G04 Aperture macros list end*
%TA.AperFunction,ComponentPad*%
%ADD10C,6.350000*%
%TD*%
%TA.AperFunction,SMDPad,CuDef*%
%ADD11RoundRect,0.250000X-0.450000X0.350000X-0.450000X-0.350000X0.450000X-0.350000X0.450000X0.350000X0*%
%TD*%
%TA.AperFunction,SMDPad,CuDef*%
%ADD12RoundRect,0.250000X-0.450000X0.325000X-0.450000X-0.325000X0.450000X-0.325000X0.450000X0.325000X0*%
%TD*%
%TA.AperFunction,SMDPad,CuDef*%
%ADD13RoundRect,0.150000X-0.825000X-0.150000X0.825000X-0.150000X0.825000X0.150000X-0.825000X0.150000X0*%
%TD*%
%TA.AperFunction,SMDPad,CuDef*%
%ADD14RoundRect,0.250000X0.450000X-0.350000X0.450000X0.350000X-0.450000X0.350000X-0.450000X-0.350000X0*%
%TD*%
%TA.AperFunction,SMDPad,CuDef*%
%ADD15RoundRect,0.250000X-0.350000X-0.450000X0.350000X-0.450000X0.350000X0.450000X-0.350000X0.450000X0*%
%TD*%
%TA.AperFunction,SMDPad,CuDef*%
%ADD16RoundRect,0.250000X0.337500X0.475000X-0.337500X0.475000X-0.337500X-0.475000X0.337500X-0.475000X0*%
%TD*%
%TA.AperFunction,SMDPad,CuDef*%
%ADD17RoundRect,0.150000X-0.150000X0.587500X-0.150000X-0.587500X0.150000X-0.587500X0.150000X0.587500X0*%
%TD*%
%TA.AperFunction,ComponentPad*%
%ADD18R,1.700000X1.700000*%
%TD*%
%TA.AperFunction,ComponentPad*%
%ADD19O,1.700000X1.700000*%
%TD*%
%TA.AperFunction,SMDPad,CuDef*%
%ADD20RoundRect,0.250000X-0.337500X-0.475000X0.337500X-0.475000X0.337500X0.475000X-0.337500X0.475000X0*%
%TD*%
%TA.AperFunction,ComponentPad*%
%ADD21C,1.620000*%
%TD*%
%TA.AperFunction,ViaPad*%
%ADD22C,0.914400*%
%TD*%
%TA.AperFunction,Conductor*%
%ADD23C,0.254000*%
%TD*%
G04 APERTURE END LIST*
D10*
%TO.P,H3,1,1*%
%TO.N,GND*%
X123190000Y-105410000D03*
%TD*%
%TO.P,H2,1,1*%
%TO.N,GND*%
X166370000Y-74930000D03*
%TD*%
D11*
%TO.P,R4,1*%
%TO.N,/WD_PHOTODIODE*%
X146685000Y-87900000D03*
%TO.P,R4,2*%
%TO.N,Net-(D3-A)*%
X146685000Y-89900000D03*
%TD*%
D12*
%TO.P,D8,1,K*%
%TO.N,GND*%
X133985000Y-83430000D03*
%TO.P,D8,2,A*%
%TO.N,Net-(D8-A)*%
X133985000Y-85480000D03*
%TD*%
D10*
%TO.P,H4,1,1*%
%TO.N,GND*%
X166370000Y-105410000D03*
%TD*%
D12*
%TO.P,D2,1,K*%
%TO.N,GND*%
X151765000Y-83430000D03*
%TO.P,D2,2,A*%
%TO.N,Net-(D2-A)*%
X151765000Y-85480000D03*
%TD*%
D13*
%TO.P,U3,1*%
%TO.N,/WDT_OUT*%
X157545000Y-85090000D03*
%TO.P,U3,2*%
%TO.N,/MCU_ENA*%
X157545000Y-86360000D03*
%TO.P,U3,3*%
%TO.N,GND*%
X157545000Y-87630000D03*
%TO.P,U3,4*%
X157545000Y-88900000D03*
%TO.P,U3,5*%
X157545000Y-90170000D03*
%TO.P,U3,6*%
%TO.N,unconnected-(U3-Pad6)*%
X157545000Y-91440000D03*
%TO.P,U3,7,GND*%
%TO.N,GND*%
X157545000Y-92710000D03*
%TO.P,U3,8*%
%TO.N,unconnected-(U3-Pad8)*%
X162495000Y-92710000D03*
%TO.P,U3,9*%
%TO.N,GND*%
X162495000Y-91440000D03*
%TO.P,U3,10*%
X162495000Y-90170000D03*
%TO.P,U3,11*%
X162495000Y-88900000D03*
%TO.P,U3,12*%
%TO.N,/LASER_ENA*%
X162495000Y-87630000D03*
%TO.P,U3,13*%
%TO.N,Net-(U1-Pad10)*%
X162495000Y-86360000D03*
%TO.P,U3,14,VCC*%
%TO.N,+5V*%
X162495000Y-85090000D03*
%TD*%
D14*
%TO.P,R9,1*%
%TO.N,/LASER_ENA*%
X133985000Y-89900000D03*
%TO.P,R9,2*%
%TO.N,Net-(D8-A)*%
X133985000Y-87900000D03*
%TD*%
D11*
%TO.P,R5,1*%
%TO.N,/MCU_ENA*%
X144145000Y-87900000D03*
%TO.P,R5,2*%
%TO.N,Net-(D4-A)*%
X144145000Y-89900000D03*
%TD*%
D15*
%TO.P,R2,1*%
%TO.N,Net-(R2-Pad1)*%
X150700000Y-103505000D03*
%TO.P,R2,2*%
%TO.N,Net-(Q3-D)*%
X152700000Y-103505000D03*
%TD*%
D12*
%TO.P,D4,1,K*%
%TO.N,GND*%
X144145000Y-83430000D03*
%TO.P,D4,2,A*%
%TO.N,Net-(D4-A)*%
X144145000Y-85480000D03*
%TD*%
D16*
%TO.P,C1,1*%
%TO.N,+5V*%
X162327500Y-82550000D03*
%TO.P,C1,2*%
%TO.N,GND*%
X160252500Y-82550000D03*
%TD*%
D14*
%TO.P,R7,1*%
%TO.N,/KEY_SW*%
X139065000Y-89900000D03*
%TO.P,R7,2*%
%TO.N,Net-(D6-A)*%
X139065000Y-87900000D03*
%TD*%
D16*
%TO.P,C4,1*%
%TO.N,Net-(Q3-D)*%
X152737500Y-106045000D03*
%TO.P,C4,2*%
%TO.N,GND*%
X150662500Y-106045000D03*
%TD*%
D12*
%TO.P,D1,1,K*%
%TO.N,GND*%
X149225000Y-83430000D03*
%TO.P,D1,2,A*%
%TO.N,Net-(D1-A)*%
X149225000Y-85480000D03*
%TD*%
D11*
%TO.P,R1,1*%
%TO.N,/LC_HIGH*%
X149225000Y-87900000D03*
%TO.P,R1,2*%
%TO.N,Net-(D1-A)*%
X149225000Y-89900000D03*
%TD*%
D17*
%TO.P,Q3,1,D*%
%TO.N,Net-(Q3-D)*%
X136840000Y-103837500D03*
%TO.P,Q3,2,G*%
%TO.N,Net-(Q3-G)*%
X134940000Y-103837500D03*
%TO.P,Q3,3,S*%
%TO.N,GND*%
X135890000Y-105712500D03*
%TD*%
%TO.P,Q4,1,D*%
%TO.N,Net-(Q3-D)*%
X132330000Y-103837500D03*
%TO.P,Q4,2,G*%
%TO.N,/WD_PHOTODIODE*%
X130430000Y-103837500D03*
%TO.P,Q4,3,S*%
%TO.N,GND*%
X131380000Y-105712500D03*
%TD*%
D18*
%TO.P,J3,1,Pin_1*%
%TO.N,/LASER_ENA*%
X133985000Y-80010000D03*
D19*
%TO.P,J3,2,Pin_2*%
%TO.N,/WDT_OUT*%
X136525000Y-80010000D03*
%TO.P,J3,3,Pin_3*%
%TO.N,/KEY_SW*%
X139065000Y-80010000D03*
%TO.P,J3,4,Pin_4*%
%TO.N,/INTERLOCK*%
X141605000Y-80010000D03*
%TO.P,J3,5,Pin_5*%
%TO.N,/MCU_ENA*%
X144145000Y-80010000D03*
%TO.P,J3,6,Pin_6*%
%TO.N,/WD_PHOTODIODE*%
X146685000Y-80010000D03*
%TO.P,J3,7,Pin_7*%
%TO.N,/LC_HIGH*%
X149225000Y-80010000D03*
%TO.P,J3,8,Pin_8*%
%TO.N,/OVERRIDE*%
X151765000Y-80010000D03*
%TO.P,J3,9,Pin_9*%
%TO.N,GND*%
X154305000Y-80010000D03*
%TO.P,J3,10,Pin_10*%
X156845000Y-80010000D03*
%TD*%
D20*
%TO.P,C5,1*%
%TO.N,Net-(U6-CV)*%
X157712500Y-100330000D03*
%TO.P,C5,2*%
%TO.N,GND*%
X159787500Y-100330000D03*
%TD*%
D14*
%TO.P,R8,1*%
%TO.N,/WDT_OUT*%
X136525000Y-89900000D03*
%TO.P,R8,2*%
%TO.N,Net-(D7-A)*%
X136525000Y-87900000D03*
%TD*%
D16*
%TO.P,C2,1*%
%TO.N,+5V*%
X130577500Y-90170000D03*
%TO.P,C2,2*%
%TO.N,GND*%
X128502500Y-90170000D03*
%TD*%
D12*
%TO.P,D6,1,K*%
%TO.N,GND*%
X139065000Y-83430000D03*
%TO.P,D6,2,A*%
%TO.N,Net-(D6-A)*%
X139065000Y-85480000D03*
%TD*%
D16*
%TO.P,C3,1*%
%TO.N,+5V*%
X153437500Y-93980000D03*
%TO.P,C3,2*%
%TO.N,GND*%
X151362500Y-93980000D03*
%TD*%
D10*
%TO.P,H1,1,1*%
%TO.N,GND*%
X123190000Y-74930000D03*
%TD*%
D11*
%TO.P,R6,1*%
%TO.N,/INTERLOCK*%
X141605000Y-87900000D03*
%TO.P,R6,2*%
%TO.N,Net-(D5-A)*%
X141605000Y-89900000D03*
%TD*%
D12*
%TO.P,D5,1,K*%
%TO.N,GND*%
X141605000Y-83430000D03*
%TO.P,D5,2,A*%
%TO.N,Net-(D5-A)*%
X141605000Y-85480000D03*
%TD*%
%TO.P,D7,1,K*%
%TO.N,GND*%
X136525000Y-83430000D03*
%TO.P,D7,2,A*%
%TO.N,Net-(D7-A)*%
X136525000Y-85480000D03*
%TD*%
D11*
%TO.P,R3,1*%
%TO.N,/OVERRIDE*%
X151765000Y-87900000D03*
%TO.P,R3,2*%
%TO.N,Net-(D2-A)*%
X151765000Y-89900000D03*
%TD*%
D12*
%TO.P,D3,1,K*%
%TO.N,GND*%
X146685000Y-83430000D03*
%TO.P,D3,2,A*%
%TO.N,Net-(D3-A)*%
X146685000Y-85480000D03*
%TD*%
D13*
%TO.P,U6,1,GND*%
%TO.N,GND*%
X149860000Y-96520000D03*
%TO.P,U6,2,TR*%
%TO.N,Net-(U6-TR)*%
X149860000Y-97790000D03*
%TO.P,U6,3,Q*%
%TO.N,/WDT_OUT*%
X149860000Y-99060000D03*
%TO.P,U6,4,R*%
%TO.N,+5V*%
X149860000Y-100330000D03*
%TO.P,U6,5,CV*%
%TO.N,Net-(U6-CV)*%
X154810000Y-100330000D03*
%TO.P,U6,6,THR*%
%TO.N,Net-(Q3-D)*%
X154810000Y-99060000D03*
%TO.P,U6,7,DIS*%
X154810000Y-97790000D03*
%TO.P,U6,8,VCC*%
%TO.N,+5V*%
X154810000Y-96520000D03*
%TD*%
%TO.P,U1,1*%
%TO.N,Net-(Q3-G)*%
X131510000Y-93345000D03*
%TO.P,U1,2*%
%TO.N,/OVERRIDE*%
X131510000Y-94615000D03*
%TO.P,U1,3*%
%TO.N,/LC_HIGH*%
X131510000Y-95885000D03*
%TO.P,U1,4*%
%TO.N,Net-(U6-TR)*%
X131510000Y-97155000D03*
%TO.P,U1,5*%
%TO.N,GND*%
X131510000Y-98425000D03*
%TO.P,U1,6*%
%TO.N,Net-(Q3-G)*%
X131510000Y-99695000D03*
%TO.P,U1,7,GND*%
%TO.N,GND*%
X131510000Y-100965000D03*
%TO.P,U1,8*%
%TO.N,/INTERLOCK*%
X136460000Y-100965000D03*
%TO.P,U1,9*%
%TO.N,/KEY_SW*%
X136460000Y-99695000D03*
%TO.P,U1,10*%
%TO.N,Net-(U1-Pad10)*%
X136460000Y-98425000D03*
%TO.P,U1,11*%
%TO.N,GND*%
X136460000Y-97155000D03*
%TO.P,U1,12*%
X136460000Y-95885000D03*
%TO.P,U1,13*%
%TO.N,unconnected-(U1-Pad13)*%
X136460000Y-94615000D03*
%TO.P,U1,14,VCC*%
%TO.N,+5V*%
X136460000Y-93345000D03*
%TD*%
D21*
%TO.P,RV1,1,1*%
%TO.N,Net-(R2-Pad1)*%
X146065000Y-97695000D03*
%TO.P,RV1,2,2*%
%TO.N,+5V*%
X143565000Y-100195000D03*
%TO.P,RV1,3,3*%
X141065000Y-97695000D03*
%TD*%
D18*
%TO.P,J2,1,Pin_1*%
%TO.N,/LASER_ENA*%
X167640000Y-82550000D03*
D19*
%TO.P,J2,2,Pin_2*%
%TO.N,unconnected-(J2-Pin_2-Pad2)*%
X167640000Y-85090000D03*
%TO.P,J2,3,Pin_3*%
%TO.N,unconnected-(J2-Pin_3-Pad3)*%
X167640000Y-87630000D03*
%TO.P,J2,4,Pin_4*%
%TO.N,+5V*%
X167640000Y-90170000D03*
%TO.P,J2,5,Pin_5*%
X167640000Y-92710000D03*
%TO.P,J2,6,Pin_6*%
%TO.N,GND*%
X167640000Y-95250000D03*
%TO.P,J2,7,Pin_7*%
X167640000Y-97790000D03*
%TO.P,J2,8,Pin_8*%
X167640000Y-100330000D03*
%TD*%
D18*
%TO.P,J1,1,Pin_1*%
%TO.N,/OVERRIDE*%
X121920000Y-81280000D03*
D19*
%TO.P,J1,2,Pin_2*%
%TO.N,/LC_HIGH*%
X121920000Y-83820000D03*
%TO.P,J1,3,Pin_3*%
%TO.N,/WD_PHOTODIODE*%
X121920000Y-86360000D03*
%TO.P,J1,4,Pin_4*%
%TO.N,/MCU_ENA*%
X121920000Y-88900000D03*
%TO.P,J1,5,Pin_5*%
%TO.N,/INTERLOCK*%
X121920000Y-91440000D03*
%TO.P,J1,6,Pin_6*%
%TO.N,/KEY_SW*%
X121920000Y-93980000D03*
%TO.P,J1,7,Pin_7*%
%TO.N,unconnected-(J1-Pin_7-Pad7)*%
X121920000Y-96520000D03*
%TO.P,J1,8,Pin_8*%
%TO.N,unconnected-(J1-Pin_8-Pad8)*%
X121920000Y-99060000D03*
%TD*%
D22*
%TO.N,GND*%
X133985000Y-82296000D03*
X156057600Y-88900000D03*
X144145000Y-82296000D03*
X139065000Y-82296000D03*
X161036000Y-100330000D03*
X157607000Y-93599000D03*
X163957000Y-90170000D03*
X131318000Y-107188000D03*
X136525000Y-82296000D03*
X146685000Y-82296000D03*
X149225000Y-82296000D03*
X149961600Y-93980000D03*
X148336000Y-96520000D03*
X153035000Y-83312000D03*
X135890000Y-107188000D03*
X141605000Y-82296000D03*
X149352000Y-106045000D03*
X158877000Y-82423000D03*
X127381000Y-90170000D03*
X129921000Y-100965000D03*
%TO.N,+5V*%
X154838400Y-93980000D03*
X143510000Y-102108000D03*
X164084000Y-85090000D03*
X131699000Y-90170000D03*
X148333000Y-100203000D03*
X137922000Y-93345000D03*
X163779200Y-82600800D03*
X156337000Y-96520000D03*
X140970000Y-95758000D03*
%TO.N,Net-(Q3-D)*%
X137160000Y-107696000D03*
X132334000Y-104902000D03*
X152654000Y-107696000D03*
X136906000Y-104902000D03*
%TO.N,Net-(Q3-G)*%
X128651000Y-101854000D03*
X133988694Y-101856268D03*
%TO.N,Net-(U1-Pad10)*%
X160147000Y-98809800D03*
X138049000Y-98425000D03*
%TO.N,Net-(U6-TR)*%
X129667000Y-97155000D03*
X148209000Y-97663000D03*
%TO.N,/LC_HIGH*%
X129540000Y-96012000D03*
X123571000Y-83820000D03*
X126619000Y-83820000D03*
X134112000Y-91186000D03*
X126619000Y-96012000D03*
X147955000Y-91186000D03*
%TO.N,/WD_PHOTODIODE*%
X123698000Y-86360000D03*
X146431000Y-86690000D03*
%TO.N,/OVERRIDE*%
X123952000Y-81280000D03*
X133223000Y-91948000D03*
X131699000Y-81280000D03*
X150241000Y-91948000D03*
%TO.N,/KEY_SW*%
X134874000Y-99695000D03*
%TO.N,/MCU_ENA*%
X143891000Y-77851000D03*
X126619000Y-77851000D03*
X157861000Y-77724000D03*
%TO.N,/INTERLOCK*%
X141732000Y-100838000D03*
X124206000Y-100076000D03*
X134620000Y-100965000D03*
X138049000Y-100965000D03*
%TO.N,/LASER_ENA*%
X135128000Y-89916000D03*
X160929363Y-88481671D03*
%TO.N,/WDT_OUT*%
X134776224Y-94631430D03*
X149352000Y-94996000D03*
%TD*%
D23*
%TO.N,GND*%
X144145000Y-82296000D02*
X144145000Y-83430000D01*
X134747000Y-95885000D02*
X134112000Y-96520000D01*
X149225000Y-82296000D02*
X149225000Y-83430000D01*
X157327600Y-87630000D02*
X156057600Y-88900000D01*
X163957000Y-90170000D02*
X162495000Y-90170000D01*
X162495000Y-91440000D02*
X162687000Y-91440000D01*
X149352000Y-106045000D02*
X150662500Y-106045000D01*
X128502500Y-90170000D02*
X127381000Y-90170000D01*
X141605000Y-82296000D02*
X141605000Y-83430000D01*
X134747000Y-97155000D02*
X136460000Y-97155000D01*
X148336000Y-96520000D02*
X149860000Y-96520000D01*
X131510000Y-98425000D02*
X132207000Y-98425000D01*
X162687000Y-88900000D02*
X163957000Y-90170000D01*
X151765000Y-83430000D02*
X152917000Y-83430000D01*
X136525000Y-82296000D02*
X136525000Y-83430000D01*
X132207000Y-98425000D02*
X134112000Y-96520000D01*
X139065000Y-82296000D02*
X139065000Y-83430000D01*
X160252500Y-82550000D02*
X159004000Y-82550000D01*
X129413000Y-98425000D02*
X129159000Y-98679000D01*
X156845000Y-80010000D02*
X156845000Y-80391000D01*
X134112000Y-96520000D02*
X134747000Y-97155000D01*
X149961600Y-93980000D02*
X151362500Y-93980000D01*
X136460000Y-95885000D02*
X134747000Y-95885000D01*
X131510000Y-98425000D02*
X129413000Y-98425000D01*
X157545000Y-92710000D02*
X157545000Y-93537000D01*
X133985000Y-83430000D02*
X133985000Y-82296000D01*
X157545000Y-90170000D02*
X157327600Y-90170000D01*
X162687000Y-91440000D02*
X163957000Y-90170000D01*
X157545000Y-93537000D02*
X157607000Y-93599000D01*
X131380000Y-107126000D02*
X131318000Y-107188000D01*
X152917000Y-83430000D02*
X153035000Y-83312000D01*
X154305000Y-80010000D02*
X154305000Y-80391000D01*
X157545000Y-88900000D02*
X156057600Y-88900000D01*
X162495000Y-88900000D02*
X162687000Y-88900000D01*
X159004000Y-82550000D02*
X158877000Y-82423000D01*
X146685000Y-82296000D02*
X146685000Y-83430000D01*
X131380000Y-105712500D02*
X131380000Y-107126000D01*
X129159000Y-98679000D02*
X129159000Y-100203000D01*
X129159000Y-100203000D02*
X129921000Y-100965000D01*
X131510000Y-100965000D02*
X129921000Y-100965000D01*
X157545000Y-87630000D02*
X157327600Y-87630000D01*
X135890000Y-105712500D02*
X135890000Y-107188000D01*
X157327600Y-90170000D02*
X156057600Y-88900000D01*
X159787500Y-100330000D02*
X161036000Y-100330000D01*
%TO.N,+5V*%
X131699000Y-90170000D02*
X130577500Y-90170000D01*
X143565000Y-100275000D02*
X143510000Y-100330000D01*
X164084000Y-85090000D02*
X162495000Y-85090000D01*
X143565000Y-100195000D02*
X143565000Y-100275000D01*
X137922000Y-93345000D02*
X136460000Y-93345000D01*
X140970000Y-95758000D02*
X140970000Y-97600000D01*
X163779200Y-82600800D02*
X162378300Y-82600800D01*
X140970000Y-97600000D02*
X141065000Y-97695000D01*
X149860000Y-100330000D02*
X148460000Y-100330000D01*
X162378300Y-82600800D02*
X162327500Y-82550000D01*
X156337000Y-96520000D02*
X154810000Y-96520000D01*
X154838400Y-93980000D02*
X153437500Y-93980000D01*
X143510000Y-100330000D02*
X143510000Y-102108000D01*
%TO.N,Net-(Q3-D)*%
X132330000Y-104898000D02*
X132334000Y-104902000D01*
X136840000Y-103837500D02*
X136840000Y-104836000D01*
X152700000Y-103505000D02*
X152700000Y-103627200D01*
X154025600Y-99060000D02*
X152700000Y-100385600D01*
X152737500Y-107612500D02*
X152654000Y-107696000D01*
X137160000Y-107696000D02*
X137160000Y-105156000D01*
X152737500Y-103664700D02*
X152737500Y-106045000D01*
X152700000Y-103627200D02*
X152737500Y-103664700D01*
X154810000Y-99060000D02*
X154810000Y-97790000D01*
X154810000Y-99060000D02*
X154025600Y-99060000D01*
X152700000Y-100385600D02*
X152700000Y-103505000D01*
X152737500Y-106045000D02*
X152737500Y-107612500D01*
X137160000Y-105156000D02*
X136906000Y-104902000D01*
X136840000Y-104836000D02*
X136906000Y-104902000D01*
X132330000Y-103837500D02*
X132330000Y-104898000D01*
%TO.N,Net-(Q3-G)*%
X130302000Y-93345000D02*
X128651000Y-94996000D01*
X131862342Y-99695000D02*
X131510000Y-99695000D01*
X128651000Y-94996000D02*
X128651000Y-101854000D01*
X131510000Y-93345000D02*
X130302000Y-93345000D01*
X134940000Y-103837500D02*
X134940000Y-102772658D01*
X134940000Y-102772658D02*
X131862342Y-99695000D01*
X128651000Y-101854000D02*
X128651000Y-101727000D01*
%TO.N,Net-(U1-Pad10)*%
X136460000Y-98425000D02*
X138049000Y-98425000D01*
X160147000Y-87733001D02*
X161520001Y-86360000D01*
X161520001Y-86360000D02*
X162495000Y-86360000D01*
X160147000Y-98809800D02*
X160147000Y-87733001D01*
%TO.N,Net-(U6-TR)*%
X131510000Y-97155000D02*
X129667000Y-97155000D01*
X148209000Y-97663000D02*
X149733000Y-97663000D01*
X149733000Y-97663000D02*
X149860000Y-97790000D01*
%TO.N,Net-(D1-A)*%
X149225000Y-85480000D02*
X150229800Y-86484800D01*
X150229800Y-88784200D02*
X149225000Y-89789000D01*
X150229800Y-86484800D02*
X150229800Y-88784200D01*
X149225000Y-89789000D02*
X149225000Y-89900000D01*
%TO.N,Net-(D2-A)*%
X152769800Y-86484800D02*
X152769800Y-88895200D01*
X152769800Y-88895200D02*
X151765000Y-89900000D01*
X151765000Y-85480000D02*
X152769800Y-86484800D01*
%TO.N,Net-(D3-A)*%
X145669000Y-88884000D02*
X146685000Y-89900000D01*
X145985000Y-85480000D02*
X145669000Y-85796000D01*
X146685000Y-85480000D02*
X145985000Y-85480000D01*
X145669000Y-85796000D02*
X145669000Y-88884000D01*
%TO.N,Net-(D4-A)*%
X144145000Y-85480000D02*
X143140200Y-86484800D01*
X143140200Y-86484800D02*
X143140200Y-88895200D01*
X143140200Y-88895200D02*
X144145000Y-89900000D01*
%TO.N,Net-(D5-A)*%
X140600200Y-88895200D02*
X141605000Y-89900000D01*
X140600200Y-86484800D02*
X140600200Y-88895200D01*
X141605000Y-85480000D02*
X140600200Y-86484800D01*
%TO.N,Net-(D6-A)*%
X139065000Y-85480000D02*
X139065000Y-87900000D01*
%TO.N,Net-(D7-A)*%
X136525000Y-85480000D02*
X136525000Y-87900000D01*
%TO.N,Net-(D8-A)*%
X133985000Y-85480000D02*
X133985000Y-87900000D01*
%TO.N,/LC_HIGH*%
X148220200Y-81014800D02*
X148220200Y-86895200D01*
X121920000Y-83820000D02*
X123571000Y-83820000D01*
X149225000Y-80010000D02*
X148220200Y-81014800D01*
X132484999Y-95885000D02*
X134112000Y-94257999D01*
X147955000Y-91186000D02*
X147955000Y-89170000D01*
X126619000Y-95885000D02*
X126619000Y-96012000D01*
X131383000Y-96012000D02*
X131510000Y-95885000D01*
X134112000Y-94257999D02*
X134112000Y-91186000D01*
X131510000Y-95885000D02*
X132484999Y-95885000D01*
X129540000Y-96012000D02*
X131383000Y-96012000D01*
X147955000Y-89170000D02*
X149225000Y-87900000D01*
X126619000Y-83820000D02*
X126619000Y-95885000D01*
X148220200Y-86895200D02*
X149225000Y-87900000D01*
%TO.N,/WD_PHOTODIODE*%
X146685000Y-87900000D02*
X147689800Y-86895200D01*
X146431000Y-86690000D02*
X146431000Y-87646000D01*
X147689800Y-81014800D02*
X146685000Y-80010000D01*
X147689800Y-86895200D02*
X147689800Y-81014800D01*
X127840500Y-103837500D02*
X125857000Y-101854000D01*
X130430000Y-103837500D02*
X127840500Y-103837500D01*
X125857000Y-101854000D02*
X125857000Y-88773000D01*
X125857000Y-88773000D02*
X123444000Y-86360000D01*
X146431000Y-87646000D02*
X146685000Y-87900000D01*
X123444000Y-86360000D02*
X121920000Y-86360000D01*
%TO.N,/OVERRIDE*%
X132980200Y-90308200D02*
X132980200Y-91705200D01*
X150749000Y-86884000D02*
X150749000Y-81026000D01*
X131699000Y-81280000D02*
X131699000Y-89027000D01*
X132715000Y-94615000D02*
X133223000Y-94107000D01*
X131510000Y-94615000D02*
X132715000Y-94615000D01*
X150368000Y-89297000D02*
X150368000Y-91821000D01*
X150368000Y-89297000D02*
X151765000Y-87900000D01*
X131699000Y-89027000D02*
X132980200Y-90308200D01*
X132980200Y-91705200D02*
X133223000Y-91948000D01*
X151765000Y-87900000D02*
X150749000Y-86884000D01*
X133223000Y-94107000D02*
X133223000Y-91948000D01*
X150749000Y-81026000D02*
X151765000Y-80010000D01*
X150368000Y-91821000D02*
X150241000Y-91948000D01*
X121920000Y-81280000D02*
X123952000Y-81280000D01*
%TO.N,/KEY_SW*%
X136460000Y-99695000D02*
X137856631Y-99695000D01*
X136460000Y-99695000D02*
X134874000Y-99695000D01*
X138060200Y-88895200D02*
X139065000Y-89900000D01*
X139065000Y-80010000D02*
X138060200Y-81014800D01*
X137856631Y-99695000D02*
X139065000Y-98486631D01*
X139065000Y-98486631D02*
X139065000Y-89900000D01*
X138060200Y-81014800D02*
X138060200Y-88895200D01*
%TO.N,/MCU_ENA*%
X143891000Y-79883000D02*
X143891000Y-77851000D01*
X145149800Y-86895200D02*
X145149800Y-81014800D01*
X158824800Y-86055199D02*
X158519999Y-86360000D01*
X144018000Y-80010000D02*
X143891000Y-79883000D01*
X126619000Y-77851000D02*
X125579400Y-78890600D01*
X158519999Y-86360000D02*
X157545000Y-86360000D01*
X120765200Y-80275800D02*
X120765200Y-87745200D01*
X158115000Y-77978000D02*
X158115000Y-84037658D01*
X125579400Y-78890600D02*
X122150400Y-78890600D01*
X144145000Y-80010000D02*
X144018000Y-80010000D01*
X158115000Y-84037658D02*
X158824800Y-84747458D01*
X157861000Y-77724000D02*
X158115000Y-77978000D01*
X122150400Y-78890600D02*
X120765200Y-80275800D01*
X158824800Y-84747458D02*
X158824800Y-86055199D01*
X120765200Y-87745200D02*
X121920000Y-88900000D01*
X145149800Y-81014800D02*
X144145000Y-80010000D01*
X144145000Y-87900000D02*
X145149800Y-86895200D01*
%TO.N,/INTERLOCK*%
X142609800Y-90695600D02*
X142609800Y-88904800D01*
X142179800Y-100390200D02*
X142179800Y-91125600D01*
X142609800Y-88904800D02*
X141605000Y-87900000D01*
X136460000Y-100965000D02*
X134620000Y-100965000D01*
X142609800Y-81014800D02*
X142609800Y-86895200D01*
X141732000Y-100838000D02*
X142179800Y-100390200D01*
X142179800Y-91125600D02*
X142609800Y-90695600D01*
X124206000Y-93726000D02*
X121920000Y-91440000D01*
X136460000Y-100965000D02*
X138049000Y-100965000D01*
X141605000Y-80010000D02*
X142609800Y-81014800D01*
X142609800Y-86895200D02*
X141605000Y-87900000D01*
X124206000Y-100076000D02*
X124206000Y-93726000D01*
%TO.N,/LASER_ENA*%
X161036000Y-88011000D02*
X161036000Y-88519000D01*
X165481000Y-85618999D02*
X165481000Y-84201000D01*
X167132000Y-82550000D02*
X167640000Y-82550000D01*
X165481000Y-84201000D02*
X167132000Y-82550000D01*
X161417000Y-87630000D02*
X161036000Y-88011000D01*
X133985000Y-89900000D02*
X135112000Y-89900000D01*
X132980200Y-88895200D02*
X133985000Y-89900000D01*
X161036000Y-88519000D02*
X160966692Y-88519000D01*
X162495000Y-87630000D02*
X161417000Y-87630000D01*
X160966692Y-88519000D02*
X160929363Y-88481671D01*
X132980200Y-81014800D02*
X132980200Y-88895200D01*
X163469999Y-87630000D02*
X165481000Y-85618999D01*
X162495000Y-87630000D02*
X163469999Y-87630000D01*
X135112000Y-89900000D02*
X135128000Y-89916000D01*
X133985000Y-80010000D02*
X132980200Y-81014800D01*
%TO.N,/WDT_OUT*%
X135520200Y-81014800D02*
X135520200Y-88895200D01*
X135520200Y-88895200D02*
X136525000Y-89900000D01*
X155194000Y-86466001D02*
X155194000Y-89535000D01*
X152527000Y-97367999D02*
X150834999Y-99060000D01*
X156570001Y-85090000D02*
X155194000Y-86466001D01*
X149352000Y-94996000D02*
X149987000Y-95631000D01*
X134776224Y-93406434D02*
X136525000Y-91657658D01*
X149987000Y-95631000D02*
X152527000Y-95631000D01*
X152527000Y-92202000D02*
X152527000Y-95631000D01*
X150834999Y-99060000D02*
X149860000Y-99060000D01*
X136525000Y-91657658D02*
X136525000Y-89900000D01*
X136525000Y-80010000D02*
X135520200Y-81014800D01*
X134776224Y-94631430D02*
X134776224Y-93406434D01*
X155194000Y-89535000D02*
X152527000Y-92202000D01*
X157545000Y-85090000D02*
X156570001Y-85090000D01*
X152527000Y-95631000D02*
X152527000Y-97367999D01*
%TO.N,Net-(R2-Pad1)*%
X146065000Y-97695000D02*
X146065000Y-100156000D01*
X150700000Y-103505000D02*
X149414000Y-103505000D01*
X146065000Y-100156000D02*
X149414000Y-103505000D01*
%TO.N,Net-(U6-CV)*%
X157712500Y-100330000D02*
X154810000Y-100330000D01*
%TD*%
M02*
