%TF.GenerationSoftware,KiCad,Pcbnew,8.0.1-8.0.1-1~ubuntu22.04.1*%
%TF.CreationDate,2024-05-16T15:07:57-04:00*%
%TF.ProjectId,block-diagram-alex,626c6f63-6b2d-4646-9961-6772616d2d61,rev?*%
%TF.SameCoordinates,Original*%
%TF.FileFunction,Soldermask,Top*%
%TF.FilePolarity,Negative*%
%FSLAX46Y46*%
G04 Gerber Fmt 4.6, Leading zero omitted, Abs format (unit mm)*
G04 Created by KiCad (PCBNEW 8.0.1-8.0.1-1~ubuntu22.04.1) date 2024-05-16 15:07:57*
%MOMM*%
%LPD*%
G01*
G04 APERTURE LIST*
G04 Aperture macros list*
%AMRoundRect*
0 Rectangle with rounded corners*
0 $1 Rounding radius*
0 $2 $3 $4 $5 $6 $7 $8 $9 X,Y pos of 4 corners*
0 Add a 4 corners polygon primitive as box body*
4,1,4,$2,$3,$4,$5,$6,$7,$8,$9,$2,$3,0*
0 Add four circle primitives for the rounded corners*
1,1,$1+$1,$2,$3*
1,1,$1+$1,$4,$5*
1,1,$1+$1,$6,$7*
1,1,$1+$1,$8,$9*
0 Add four rect primitives between the rounded corners*
20,1,$1+$1,$2,$3,$4,$5,0*
20,1,$1+$1,$4,$5,$6,$7,0*
20,1,$1+$1,$6,$7,$8,$9,0*
20,1,$1+$1,$8,$9,$2,$3,0*%
G04 Aperture macros list end*
%ADD10C,6.350000*%
%ADD11RoundRect,0.250000X-0.450000X0.350000X-0.450000X-0.350000X0.450000X-0.350000X0.450000X0.350000X0*%
%ADD12RoundRect,0.250000X-0.450000X0.325000X-0.450000X-0.325000X0.450000X-0.325000X0.450000X0.325000X0*%
%ADD13RoundRect,0.150000X-0.825000X-0.150000X0.825000X-0.150000X0.825000X0.150000X-0.825000X0.150000X0*%
%ADD14RoundRect,0.250000X0.450000X-0.350000X0.450000X0.350000X-0.450000X0.350000X-0.450000X-0.350000X0*%
%ADD15RoundRect,0.250000X-0.350000X-0.450000X0.350000X-0.450000X0.350000X0.450000X-0.350000X0.450000X0*%
%ADD16RoundRect,0.250000X0.337500X0.475000X-0.337500X0.475000X-0.337500X-0.475000X0.337500X-0.475000X0*%
%ADD17RoundRect,0.150000X-0.150000X0.587500X-0.150000X-0.587500X0.150000X-0.587500X0.150000X0.587500X0*%
%ADD18R,1.700000X1.700000*%
%ADD19O,1.700000X1.700000*%
%ADD20RoundRect,0.250000X-0.337500X-0.475000X0.337500X-0.475000X0.337500X0.475000X-0.337500X0.475000X0*%
%ADD21C,1.620000*%
G04 APERTURE END LIST*
D10*
%TO.C,H3*%
X123190000Y-105410000D03*
%TD*%
%TO.C,H2*%
X166370000Y-74930000D03*
%TD*%
D11*
%TO.C,R4*%
X146685000Y-87900000D03*
X146685000Y-89900000D03*
%TD*%
D12*
%TO.C,D8*%
X133985000Y-83430000D03*
X133985000Y-85480000D03*
%TD*%
D10*
%TO.C,H4*%
X166370000Y-105410000D03*
%TD*%
D12*
%TO.C,D2*%
X151765000Y-83430000D03*
X151765000Y-85480000D03*
%TD*%
D13*
%TO.C,U3*%
X157545000Y-85090000D03*
X157545000Y-86360000D03*
X157545000Y-87630000D03*
X157545000Y-88900000D03*
X157545000Y-90170000D03*
X157545000Y-91440000D03*
X157545000Y-92710000D03*
X162495000Y-92710000D03*
X162495000Y-91440000D03*
X162495000Y-90170000D03*
X162495000Y-88900000D03*
X162495000Y-87630000D03*
X162495000Y-86360000D03*
X162495000Y-85090000D03*
%TD*%
D14*
%TO.C,R9*%
X133985000Y-89900000D03*
X133985000Y-87900000D03*
%TD*%
D11*
%TO.C,R5*%
X144145000Y-87900000D03*
X144145000Y-89900000D03*
%TD*%
D15*
%TO.C,R2*%
X150700000Y-103505000D03*
X152700000Y-103505000D03*
%TD*%
D12*
%TO.C,D4*%
X144145000Y-83430000D03*
X144145000Y-85480000D03*
%TD*%
D16*
%TO.C,C1*%
X162327500Y-82550000D03*
X160252500Y-82550000D03*
%TD*%
D14*
%TO.C,R7*%
X139065000Y-89900000D03*
X139065000Y-87900000D03*
%TD*%
D16*
%TO.C,C4*%
X152737500Y-106045000D03*
X150662500Y-106045000D03*
%TD*%
D12*
%TO.C,D1*%
X149225000Y-83430000D03*
X149225000Y-85480000D03*
%TD*%
D11*
%TO.C,R1*%
X149225000Y-87900000D03*
X149225000Y-89900000D03*
%TD*%
D17*
%TO.C,Q3*%
X136840000Y-103837500D03*
X134940000Y-103837500D03*
X135890000Y-105712500D03*
%TD*%
%TO.C,Q4*%
X132330000Y-103837500D03*
X130430000Y-103837500D03*
X131380000Y-105712500D03*
%TD*%
D18*
%TO.C,J3*%
X133985000Y-80010000D03*
D19*
X136525000Y-80010000D03*
X139065000Y-80010000D03*
X141605000Y-80010000D03*
X144145000Y-80010000D03*
X146685000Y-80010000D03*
X149225000Y-80010000D03*
X151765000Y-80010000D03*
X154305000Y-80010000D03*
X156845000Y-80010000D03*
%TD*%
D20*
%TO.C,C5*%
X157712500Y-100330000D03*
X159787500Y-100330000D03*
%TD*%
D14*
%TO.C,R8*%
X136525000Y-89900000D03*
X136525000Y-87900000D03*
%TD*%
D16*
%TO.C,C2*%
X130577500Y-90170000D03*
X128502500Y-90170000D03*
%TD*%
D12*
%TO.C,D6*%
X139065000Y-83430000D03*
X139065000Y-85480000D03*
%TD*%
D16*
%TO.C,C3*%
X153437500Y-93980000D03*
X151362500Y-93980000D03*
%TD*%
D10*
%TO.C,H1*%
X123190000Y-74930000D03*
%TD*%
D11*
%TO.C,R6*%
X141605000Y-87900000D03*
X141605000Y-89900000D03*
%TD*%
D12*
%TO.C,D5*%
X141605000Y-83430000D03*
X141605000Y-85480000D03*
%TD*%
%TO.C,D7*%
X136525000Y-83430000D03*
X136525000Y-85480000D03*
%TD*%
D11*
%TO.C,R3*%
X151765000Y-87900000D03*
X151765000Y-89900000D03*
%TD*%
D12*
%TO.C,D3*%
X146685000Y-83430000D03*
X146685000Y-85480000D03*
%TD*%
D13*
%TO.C,U6*%
X149860000Y-96520000D03*
X149860000Y-97790000D03*
X149860000Y-99060000D03*
X149860000Y-100330000D03*
X154810000Y-100330000D03*
X154810000Y-99060000D03*
X154810000Y-97790000D03*
X154810000Y-96520000D03*
%TD*%
%TO.C,U1*%
X131510000Y-93345000D03*
X131510000Y-94615000D03*
X131510000Y-95885000D03*
X131510000Y-97155000D03*
X131510000Y-98425000D03*
X131510000Y-99695000D03*
X131510000Y-100965000D03*
X136460000Y-100965000D03*
X136460000Y-99695000D03*
X136460000Y-98425000D03*
X136460000Y-97155000D03*
X136460000Y-95885000D03*
X136460000Y-94615000D03*
X136460000Y-93345000D03*
%TD*%
D21*
%TO.C,RV1*%
X146065000Y-97695000D03*
X143565000Y-100195000D03*
X141065000Y-97695000D03*
%TD*%
D18*
%TO.C,J2*%
X167640000Y-82550000D03*
D19*
X167640000Y-85090000D03*
X167640000Y-87630000D03*
X167640000Y-90170000D03*
X167640000Y-92710000D03*
X167640000Y-95250000D03*
X167640000Y-97790000D03*
X167640000Y-100330000D03*
%TD*%
D18*
%TO.C,J1*%
X121920000Y-81280000D03*
D19*
X121920000Y-83820000D03*
X121920000Y-86360000D03*
X121920000Y-88900000D03*
X121920000Y-91440000D03*
X121920000Y-93980000D03*
X121920000Y-96520000D03*
X121920000Y-99060000D03*
%TD*%
M02*
