%TF.GenerationSoftware,KiCad,Pcbnew,8.0.1-8.0.1-1~ubuntu22.04.1*%
%TF.CreationDate,2024-05-16T15:07:57-04:00*%
%TF.ProjectId,block-diagram-alex,626c6f63-6b2d-4646-9961-6772616d2d61,rev?*%
%TF.SameCoordinates,Original*%
%TF.FileFunction,Copper,L4,Bot*%
%TF.FilePolarity,Positive*%
%FSLAX46Y46*%
G04 Gerber Fmt 4.6, Leading zero omitted, Abs format (unit mm)*
G04 Created by KiCad (PCBNEW 8.0.1-8.0.1-1~ubuntu22.04.1) date 2024-05-16 15:07:57*
%MOMM*%
%LPD*%
G01*
G04 APERTURE LIST*
%TA.AperFunction,ComponentPad*%
%ADD10C,6.350000*%
%TD*%
%TA.AperFunction,ComponentPad*%
%ADD11R,1.700000X1.700000*%
%TD*%
%TA.AperFunction,ComponentPad*%
%ADD12O,1.700000X1.700000*%
%TD*%
%TA.AperFunction,ComponentPad*%
%ADD13C,1.620000*%
%TD*%
%TA.AperFunction,ViaPad*%
%ADD14C,0.914400*%
%TD*%
%TA.AperFunction,Conductor*%
%ADD15C,0.254000*%
%TD*%
G04 APERTURE END LIST*
D10*
%TO.P,H3,1,1*%
%TO.N,GND*%
X123190000Y-105410000D03*
%TD*%
%TO.P,H2,1,1*%
%TO.N,GND*%
X166370000Y-74930000D03*
%TD*%
%TO.P,H4,1,1*%
%TO.N,GND*%
X166370000Y-105410000D03*
%TD*%
D11*
%TO.P,J3,1,Pin_1*%
%TO.N,/LASER_ENA*%
X133985000Y-80010000D03*
D12*
%TO.P,J3,2,Pin_2*%
%TO.N,/WDT_OUT*%
X136525000Y-80010000D03*
%TO.P,J3,3,Pin_3*%
%TO.N,/KEY_SW*%
X139065000Y-80010000D03*
%TO.P,J3,4,Pin_4*%
%TO.N,/INTERLOCK*%
X141605000Y-80010000D03*
%TO.P,J3,5,Pin_5*%
%TO.N,/MCU_ENA*%
X144145000Y-80010000D03*
%TO.P,J3,6,Pin_6*%
%TO.N,/WD_PHOTODIODE*%
X146685000Y-80010000D03*
%TO.P,J3,7,Pin_7*%
%TO.N,/LC_HIGH*%
X149225000Y-80010000D03*
%TO.P,J3,8,Pin_8*%
%TO.N,/OVERRIDE*%
X151765000Y-80010000D03*
%TO.P,J3,9,Pin_9*%
%TO.N,GND*%
X154305000Y-80010000D03*
%TO.P,J3,10,Pin_10*%
X156845000Y-80010000D03*
%TD*%
D10*
%TO.P,H1,1,1*%
%TO.N,GND*%
X123190000Y-74930000D03*
%TD*%
D13*
%TO.P,RV1,1,1*%
%TO.N,Net-(R2-Pad1)*%
X146065000Y-97695000D03*
%TO.P,RV1,2,2*%
%TO.N,+5V*%
X143565000Y-100195000D03*
%TO.P,RV1,3,3*%
X141065000Y-97695000D03*
%TD*%
D11*
%TO.P,J2,1,Pin_1*%
%TO.N,/LASER_ENA*%
X167640000Y-82550000D03*
D12*
%TO.P,J2,2,Pin_2*%
%TO.N,unconnected-(J2-Pin_2-Pad2)*%
X167640000Y-85090000D03*
%TO.P,J2,3,Pin_3*%
%TO.N,unconnected-(J2-Pin_3-Pad3)*%
X167640000Y-87630000D03*
%TO.P,J2,4,Pin_4*%
%TO.N,+5V*%
X167640000Y-90170000D03*
%TO.P,J2,5,Pin_5*%
X167640000Y-92710000D03*
%TO.P,J2,6,Pin_6*%
%TO.N,GND*%
X167640000Y-95250000D03*
%TO.P,J2,7,Pin_7*%
X167640000Y-97790000D03*
%TO.P,J2,8,Pin_8*%
X167640000Y-100330000D03*
%TD*%
D11*
%TO.P,J1,1,Pin_1*%
%TO.N,/OVERRIDE*%
X121920000Y-81280000D03*
D12*
%TO.P,J1,2,Pin_2*%
%TO.N,/LC_HIGH*%
X121920000Y-83820000D03*
%TO.P,J1,3,Pin_3*%
%TO.N,/WD_PHOTODIODE*%
X121920000Y-86360000D03*
%TO.P,J1,4,Pin_4*%
%TO.N,/MCU_ENA*%
X121920000Y-88900000D03*
%TO.P,J1,5,Pin_5*%
%TO.N,/INTERLOCK*%
X121920000Y-91440000D03*
%TO.P,J1,6,Pin_6*%
%TO.N,/KEY_SW*%
X121920000Y-93980000D03*
%TO.P,J1,7,Pin_7*%
%TO.N,unconnected-(J1-Pin_7-Pad7)*%
X121920000Y-96520000D03*
%TO.P,J1,8,Pin_8*%
%TO.N,unconnected-(J1-Pin_8-Pad8)*%
X121920000Y-99060000D03*
%TD*%
D14*
%TO.N,GND*%
X133985000Y-82296000D03*
X156057600Y-88900000D03*
X144145000Y-82296000D03*
X139065000Y-82296000D03*
X161036000Y-100330000D03*
X157607000Y-93599000D03*
X163957000Y-90170000D03*
X131318000Y-107188000D03*
X136525000Y-82296000D03*
X146685000Y-82296000D03*
X149225000Y-82296000D03*
X149961600Y-93980000D03*
X148336000Y-96520000D03*
X153035000Y-83312000D03*
X135890000Y-107188000D03*
X141605000Y-82296000D03*
X149352000Y-106045000D03*
X158877000Y-82423000D03*
X127381000Y-90170000D03*
X129921000Y-100965000D03*
%TO.N,+5V*%
X154838400Y-93980000D03*
X143510000Y-102108000D03*
X164084000Y-85090000D03*
X131699000Y-90170000D03*
X148333000Y-100203000D03*
X137922000Y-93345000D03*
X163779200Y-82600800D03*
X156337000Y-96520000D03*
X140970000Y-95758000D03*
%TO.N,Net-(Q3-D)*%
X137160000Y-107696000D03*
X132334000Y-104902000D03*
X152654000Y-107696000D03*
X136906000Y-104902000D03*
%TO.N,Net-(Q3-G)*%
X128651000Y-101854000D03*
X133988694Y-101856268D03*
%TO.N,Net-(U1-Pad10)*%
X160147000Y-98809800D03*
X138049000Y-98425000D03*
%TO.N,Net-(U6-TR)*%
X129667000Y-97155000D03*
X148209000Y-97663000D03*
%TO.N,/LC_HIGH*%
X129540000Y-96012000D03*
X123571000Y-83820000D03*
X126619000Y-83820000D03*
X134112000Y-91186000D03*
X126619000Y-96012000D03*
X147955000Y-91186000D03*
%TO.N,/WD_PHOTODIODE*%
X123698000Y-86360000D03*
X146431000Y-86690000D03*
%TO.N,/OVERRIDE*%
X123952000Y-81280000D03*
X133223000Y-91948000D03*
X131699000Y-81280000D03*
X150241000Y-91948000D03*
%TO.N,/KEY_SW*%
X134874000Y-99695000D03*
%TO.N,/MCU_ENA*%
X143891000Y-77851000D03*
X126619000Y-77851000D03*
X157861000Y-77724000D03*
%TO.N,/INTERLOCK*%
X141732000Y-100838000D03*
X124206000Y-100076000D03*
X134620000Y-100965000D03*
X138049000Y-100965000D03*
%TO.N,/LASER_ENA*%
X135128000Y-89916000D03*
X160929363Y-88481671D03*
%TO.N,/WDT_OUT*%
X134776224Y-94631430D03*
X149352000Y-94996000D03*
%TD*%
D15*
%TO.N,Net-(Q3-D)*%
X136906000Y-104902000D02*
X132334000Y-104902000D01*
X152654000Y-107696000D02*
X137160000Y-107696000D01*
%TO.N,Net-(Q3-G)*%
X133986426Y-101854000D02*
X133988694Y-101856268D01*
X128651000Y-101854000D02*
X133986426Y-101854000D01*
%TO.N,Net-(U1-Pad10)*%
X160270200Y-98809800D02*
X160274000Y-98806000D01*
X138433800Y-98809800D02*
X160147000Y-98809800D01*
X138049000Y-98425000D02*
X138433800Y-98809800D01*
X160270200Y-98809800D02*
X160147000Y-98809800D01*
%TO.N,Net-(U6-TR)*%
X130241800Y-96580200D02*
X147126200Y-96580200D01*
X147126200Y-96580200D02*
X148209000Y-97663000D01*
X129667000Y-97155000D02*
X130241800Y-96580200D01*
%TO.N,/LC_HIGH*%
X123571000Y-83820000D02*
X126619000Y-83820000D01*
X134112000Y-91186000D02*
X147955000Y-91186000D01*
X126619000Y-96012000D02*
X129540000Y-96012000D01*
%TO.N,/WD_PHOTODIODE*%
X146431000Y-86360000D02*
X146494500Y-86423500D01*
X146431000Y-86487000D02*
X146431000Y-86690000D01*
X146494500Y-86423500D02*
X146431000Y-86487000D01*
X123698000Y-86360000D02*
X146431000Y-86360000D01*
%TO.N,/OVERRIDE*%
X133223000Y-91948000D02*
X150241000Y-91948000D01*
X123952000Y-81280000D02*
X131699000Y-81280000D01*
%TO.N,/KEY_SW*%
X127635000Y-99695000D02*
X121920000Y-93980000D01*
X134874000Y-99695000D02*
X127635000Y-99695000D01*
%TO.N,/MCU_ENA*%
X143891000Y-77851000D02*
X126619000Y-77851000D01*
X157734000Y-77851000D02*
X157861000Y-77724000D01*
X143891000Y-77851000D02*
X157734000Y-77851000D01*
%TO.N,/INTERLOCK*%
X124333000Y-100203000D02*
X124206000Y-100076000D01*
X141605000Y-100965000D02*
X141732000Y-100838000D01*
X133858000Y-100203000D02*
X124333000Y-100203000D01*
X134620000Y-100965000D02*
X133858000Y-100203000D01*
X138049000Y-100965000D02*
X141605000Y-100965000D01*
%TO.N,/LASER_ENA*%
X158987034Y-90424000D02*
X135636000Y-90424000D01*
X160929363Y-88481671D02*
X158987034Y-90424000D01*
X135636000Y-90424000D02*
X135128000Y-89916000D01*
%TO.N,/WDT_OUT*%
X134776224Y-94631430D02*
X135140794Y-94996000D01*
X135140794Y-94996000D02*
X149352000Y-94996000D01*
%TD*%
M02*
