M48
; DRILL file {KiCad 8.0.1-8.0.1-1~ubuntu22.04.1} date 2024-05-14T08:48:36-0400
; FORMAT={-:-/ absolute / inch / decimal}
; #@! TF.CreationDate,2024-05-14T08:48:36-04:00
; #@! TF.GenerationSoftware,Kicad,Pcbnew,8.0.1-8.0.1-1~ubuntu22.04.1
; #@! TF.FileFunction,Plated,1,4,PTH
FMAT,2
INCH
; #@! TA.AperFunction,Plated,PTH,ViaDrill
T1C0.0140
; #@! TA.AperFunction,Plated,PTH,ComponentDrill
T2C0.0354
; #@! TA.AperFunction,Plated,PTH,ComponentDrill
T3C0.0394
; #@! TA.AperFunction,Plated,PTH,ComponentDrill
T4C0.1500
%
G90
G05
T1
X4.865Y-3.3
X4.87Y-3.4
X4.88Y-3.2
X4.89Y-3.94
X4.985Y-3.065
X4.985Y-3.3
X4.985Y-3.78
X5.015Y-3.55
X5.065Y-4.01
X5.1Y-3.78
X5.105Y-3.825
X5.115Y-3.975
X5.17Y-4.22
X5.185Y-3.2
X5.185Y-3.55
X5.21Y-4.13
X5.245Y-3.62
X5.275Y-3.24
X5.2751Y-4.0101
X5.28Y-3.59
X5.3Y-3.975
X5.3062Y-3.7256
X5.31Y-3.925
X5.32Y-3.54
X5.35Y-4.22
X5.375Y-3.24
X5.39Y-4.13
X5.4Y-4.24
X5.43Y-3.675
X5.435Y-3.875
X5.435Y-3.975
X5.475Y-3.24
X5.55Y-3.77
X5.575Y-3.24
X5.58Y-3.97
X5.65Y-4.02
X5.665Y-3.065
X5.675Y-3.24
X5.765Y-3.413
X5.775Y-3.24
X5.825Y-3.59
X5.835Y-3.845
X5.8399Y-3.945
X5.84Y-3.8
X5.875Y-3.24
X5.88Y-3.74
X5.88Y-4.175
X5.904Y-3.7
X5.915Y-3.62
X6.01Y-4.24
X6.025Y-3.28
X6.096Y-3.7
X6.144Y-3.5
X6.155Y-3.8
X6.205Y-3.685
X6.215Y-3.06
X6.255Y-3.245
X6.305Y-3.8901
X6.3358Y-3.4835
X6.34Y-3.95
X6.448Y-3.252
X6.455Y-3.55
X6.46Y-3.35
T2
X5.5537Y-3.8463
X5.6522Y-3.9447
X5.7506Y-3.8463
T3
X4.8Y-3.2
X4.8Y-3.3
X4.8Y-3.4
X4.8Y-3.5
X4.8Y-3.6
X4.8Y-3.7
X4.8Y-3.8
X4.8Y-3.9
X5.275Y-3.15
X5.375Y-3.15
X5.475Y-3.15
X5.575Y-3.15
X5.675Y-3.15
X5.775Y-3.15
X5.875Y-3.15
X5.975Y-3.15
X6.075Y-3.15
X6.175Y-3.15
X6.6Y-3.25
X6.6Y-3.35
X6.6Y-3.45
X6.6Y-3.55
X6.6Y-3.65
X6.6Y-3.75
X6.6Y-3.85
X6.6Y-3.95
T4
X4.85Y-2.95
X4.85Y-4.15
X6.55Y-2.95
X6.55Y-4.15
M30
