  0
SECTION
  2
HEADER
  9
$ANGBASE
  50
0.0
  9
$ANGDIR
  70
1
  9
$MEASUREMENT
  70
0
  0
ENDSEC
  0
SECTION
  2
TABLES
  0
TABLE
  2
LTYPE
  70
4
  0
LTYPE
  5
40F
  2
CONTINUOUS
  70
0
  3
Solid line
  72
65
  73
0
  40
0.0
  0
LTYPE
  5
410
  2
DASHDOT
 70
0
  3
Dash Dot ____ _ ____ _
 72
65
 73
4
 40
2.0
 49
1.25
 49
-0.25
 49
0.25
 49
-0.25
  0
LTYPE
  5
411
  2
DASHED
 70
0
  3
Dashed __ __ __ __ __
 72
65
 73
2
 40
0.75
 49
0.5
 49
-0.25
  0
LTYPE
  5
43B
  2
DOTTED
 70
0
  3
Dotted .  .  .  .
 72
65
 73
2
 40
0.2
 49
0.0
 49
-0.2
  0
ENDTAB
  0
TABLE
  2
STYLE
  70
4
  0
STYLE
  2
KICAD
  70
0
  40
0
  41
1
  42
1
  50
0
  71
0
  3
isocp.shx
  0
STYLE
  2
KICADB
  70
0
  40
0
  41
1
  42
1
  50
0
  71
0
  3
isocp.shx
  0
STYLE
  2
KICADI
  70
0
  40
0
  41
1
  42
1
  50
15
  71
0
  3
isocp.shx
  0
STYLE
  2
KICADBI
  70
0
  40
0
  41
1
  42
1
  50
15
  71
0
  3
isocp.shx
  0
ENDTAB
  0
TABLE
  2
LAYER
  70
1
  0
LAYER
  2
BLACK
  70
0
  62
7
  6
CONTINUOUS
  0
ENDTAB
  0
ENDSEC
  0
SECTION
  2
ENTITIES
0
LINE
8
BLACK
6
CONTINUOUS
10
6.7000000000000002
20
-4.2999999999999998
11
4.7000000000000002
21
-4.2999999999999998
0
LINE
8
BLACK
6
CONTINUOUS
10
4.7000000000000002
20
-4.2999999999999998
11
4.7000000000000002
21
-2.7999999999999998
0
LINE
8
BLACK
6
CONTINUOUS
10
6.7000000000000002
20
-2.7999999999999998
11
6.7000000000000002
21
-4.2999999999999998
0
LINE
8
BLACK
6
CONTINUOUS
10
4.7000000000000002
20
-2.7999999999999998
11
6.7000000000000002
21
-2.7999999999999998
0
LINE
8
BLACK
6
CONTINUOUS
10
4.8016837795275586
20
-4.4236156692913386
11
4.8016837795275586
21
-4.3448755118110238
0
LINE
8
BLACK
6
CONTINUOUS
10
4.8016837795275586
20
-4.3448755118110238
11
4.8204314173228342
21
-4.3448755118110238
0
LINE
8
BLACK
6
CONTINUOUS
10
4.8204314173228342
20
-4.3448755118110238
11
4.8316800393700783
21
-4.3486250393700789
0
LINE
8
BLACK
6
CONTINUOUS
10
4.8316800393700783
20
-4.3486250393700789
11
4.8391790944881885
21
-4.3561240944881892
0
LINE
8
BLACK
6
CONTINUOUS
10
4.8391790944881885
20
-4.3561240944881892
11
4.8429286220472436
21
-4.3636231496062994
0
LINE
8
BLACK
6
CONTINUOUS
10
4.8429286220472436
20
-4.3636231496062994
11
4.8466781496062987
21
-4.3786212598425198
0
LINE
8
BLACK
6
CONTINUOUS
10
4.8466781496062987
20
-4.3786212598425198
11
4.8466781496062987
21
-4.3898698818897639
0
LINE
8
BLACK
6
CONTINUOUS
10
4.8466781496062987
20
-4.3898698818897639
11
4.8429286220472436
21
-4.4048679921259843
0
LINE
8
BLACK
6
CONTINUOUS
10
4.8429286220472436
20
-4.4048679921259843
11
4.8391790944881885
21
-4.4123670472440946
0
LINE
8
BLACK
6
CONTINUOUS
10
4.8391790944881885
20
-4.4123670472440946
11
4.8316800393700783
21
-4.4198661417322835
0
LINE
8
BLACK
6
CONTINUOUS
10
4.8316800393700783
20
-4.4198661417322835
11
4.8204314173228342
21
-4.4236156692913386
0
LINE
8
BLACK
6
CONTINUOUS
10
4.8204314173228342
20
-4.4236156692913386
11
4.8016837795275586
21
-4.4236156692913386
0
LINE
8
BLACK
6
CONTINUOUS
10
4.8804239370078735
20
-4.4236156692913386
11
4.8804239370078735
21
-4.3711222047244096
0
LINE
8
BLACK
6
CONTINUOUS
10
4.8804239370078735
20
-4.3861203543307088
11
4.8841734645669286
21
-4.3786212598425198
0
LINE
8
BLACK
6
CONTINUOUS
10
4.8841734645669286
20
-4.3786212598425198
11
4.8879229921259846
21
-4.3748717322834647
0
LINE
8
BLACK
6
CONTINUOUS
10
4.8879229921259846
20
-4.3748717322834647
11
4.8954220472440948
21
-4.3711222047244096
0
LINE
8
BLACK
6
CONTINUOUS
10
4.8954220472440948
20
-4.3711222047244096
11
4.9029211417322838
21
-4.3711222047244096
0
LINE
8
BLACK
6
CONTINUOUS
10
4.9291678346456695
20
-4.4236156692913386
11
4.9291678346456695
21
-4.3711222047244096
0
LINE
8
BLACK
6
CONTINUOUS
10
4.9291678346456695
20
-4.3448755118110238
11
4.9254183070866144
21
-4.3486250393700789
0
LINE
8
BLACK
6
CONTINUOUS
10
4.9254183070866144
20
-4.3486250393700789
11
4.9291678346456695
21
-4.352374566929134
0
LINE
8
BLACK
6
CONTINUOUS
10
4.9291678346456695
20
-4.352374566929134
11
4.9329173622047247
21
-4.3486250393700789
0
LINE
8
BLACK
6
CONTINUOUS
10
4.9329173622047247
20
-4.3486250393700789
11
4.9291678346456695
21
-4.3448755118110238
0
LINE
8
BLACK
6
CONTINUOUS
10
4.9291678346456695
20
-4.3448755118110238
11
4.9291678346456695
21
-4.352374566929134
0
LINE
8
BLACK
6
CONTINUOUS
10
4.9779117322834647
20
-4.4236156692913386
11
4.9704126771653545
21
-4.4198661417322835
0
LINE
8
BLACK
6
CONTINUOUS
10
4.9704126771653545
20
-4.4198661417322835
11
4.9666631496062994
21
-4.4123670472440946
0
LINE
8
BLACK
6
CONTINUOUS
10
4.9666631496062994
20
-4.4123670472440946
11
4.9666631496062994
21
-4.3448755118110238
0
LINE
8
BLACK
6
CONTINUOUS
10
5.0191565748031497
20
-4.4236156692913386
11
5.0116575196850395
21
-4.4198661417322835
0
LINE
8
BLACK
6
CONTINUOUS
10
5.0116575196850395
20
-4.4198661417322835
11
5.0079079921259844
21
-4.4123670472440946
0
LINE
8
BLACK
6
CONTINUOUS
10
5.0079079921259844
20
-4.4123670472440946
11
5.0079079921259844
21
-4.3448755118110238
0
LINE
8
BLACK
6
CONTINUOUS
10
5.1091453543307086
20
-4.4236156692913386
11
5.1091453543307086
21
-4.3448755118110238
0
LINE
8
BLACK
6
CONTINUOUS
10
5.1091453543307086
20
-4.3448755118110238
11
5.1353920866141731
21
-4.4011184645669292
0
LINE
8
BLACK
6
CONTINUOUS
10
5.1353920866141731
20
-4.4011184645669292
11
5.1616387795275589
21
-4.3448755118110238
0
LINE
8
BLACK
6
CONTINUOUS
10
5.1616387795275589
20
-4.3448755118110238
11
5.1616387795275589
21
-4.4236156692913386
0
LINE
8
BLACK
6
CONTINUOUS
10
5.2328798818897635
20
-4.4236156692913386
11
5.2328798818897635
21
-4.3823708267716537
0
LINE
8
BLACK
6
CONTINUOUS
10
5.2328798818897635
20
-4.3823708267716537
11
5.2291303543307084
21
-4.3748717322834647
0
LINE
8
BLACK
6
CONTINUOUS
10
5.2291303543307084
20
-4.3748717322834647
11
5.2216312992125982
21
-4.3711222047244096
0
LINE
8
BLACK
6
CONTINUOUS
10
5.2216312992125982
20
-4.3711222047244096
11
5.206633149606299
21
-4.3711222047244096
0
LINE
8
BLACK
6
CONTINUOUS
10
5.206633149606299
20
-4.3711222047244096
11
5.1991340944881888
21
-4.3748717322834647
0
LINE
8
BLACK
6
CONTINUOUS
10
5.2328798818897635
20
-4.4198661417322835
11
5.2253808267716533
21
-4.4236156692913386
0
LINE
8
BLACK
6
CONTINUOUS
10
5.2253808267716533
20
-4.4236156692913386
11
5.206633149606299
21
-4.4236156692913386
0
LINE
8
BLACK
6
CONTINUOUS
10
5.206633149606299
20
-4.4236156692913386
11
5.1991340944881888
21
-4.4198661417322835
0
LINE
8
BLACK
6
CONTINUOUS
10
5.1991340944881888
20
-4.4198661417322835
11
5.1953845669291336
21
-4.4123670472440946
0
LINE
8
BLACK
6
CONTINUOUS
10
5.1953845669291336
20
-4.4123670472440946
11
5.1953845669291336
21
-4.4048679921259843
0
LINE
8
BLACK
6
CONTINUOUS
10
5.1953845669291336
20
-4.4048679921259843
11
5.1991340944881888
21
-4.3973689370078741
0
LINE
8
BLACK
6
CONTINUOUS
10
5.1991340944881888
20
-4.3973689370078741
11
5.206633149606299
21
-4.393619409448819
0
LINE
8
BLACK
6
CONTINUOUS
10
5.206633149606299
20
-4.393619409448819
11
5.2253808267716533
21
-4.393619409448819
0
LINE
8
BLACK
6
CONTINUOUS
10
5.2253808267716533
20
-4.393619409448819
11
5.2328798818897635
21
-4.3898698818897639
0
LINE
8
BLACK
6
CONTINUOUS
10
5.2703751968503934
20
-4.3711222047244096
11
5.2703751968503934
21
-4.4498623622047244
0
LINE
8
BLACK
6
CONTINUOUS
10
5.2703751968503934
20
-4.3748717322834647
11
5.2778742519685036
21
-4.3711222047244096
0
LINE
8
BLACK
6
CONTINUOUS
10
5.2778742519685036
20
-4.3711222047244096
11
5.2928724015748028
21
-4.3711222047244096
0
LINE
8
BLACK
6
CONTINUOUS
10
5.2928724015748028
20
-4.3711222047244096
11
5.300371456692913
21
-4.3748717322834647
0
LINE
8
BLACK
6
CONTINUOUS
10
5.300371456692913
20
-4.3748717322834647
11
5.3041209842519681
21
-4.3786212598425198
0
LINE
8
BLACK
6
CONTINUOUS
10
5.3041209842519681
20
-4.3786212598425198
11
5.3078705118110232
21
-4.3861203543307088
0
LINE
8
BLACK
6
CONTINUOUS
10
5.3078705118110232
20
-4.3861203543307088
11
5.3078705118110232
21
-4.4086175196850395
0
LINE
8
BLACK
6
CONTINUOUS
10
5.3078705118110232
20
-4.4086175196850395
11
5.3041209842519681
21
-4.4161165748031497
0
LINE
8
BLACK
6
CONTINUOUS
10
5.3041209842519681
20
-4.4161165748031497
11
5.300371456692913
21
-4.4198661417322835
0
LINE
8
BLACK
6
CONTINUOUS
10
5.300371456692913
20
-4.4198661417322835
11
5.2928724015748028
21
-4.4236156692913386
0
LINE
8
BLACK
6
CONTINUOUS
10
5.2928724015748028
20
-4.4236156692913386
11
5.2778742519685036
21
-4.4236156692913386
0
LINE
8
BLACK
6
CONTINUOUS
10
5.2778742519685036
20
-4.4236156692913386
11
5.2703751968503934
21
-4.4198661417322835
0
LINE
8
BLACK
6
CONTINUOUS
10
5.341616299212598
20
-4.4161165748031497
11
5.3453658267716531
21
-4.4198661417322835
0
LINE
8
BLACK
6
CONTINUOUS
10
5.3453658267716531
20
-4.4198661417322835
11
5.341616299212598
21
-4.4236156692913386
0
LINE
8
BLACK
6
CONTINUOUS
10
5.341616299212598
20
-4.4236156692913386
11
5.3378667716535428
21
-4.4198661417322835
0
LINE
8
BLACK
6
CONTINUOUS
10
5.3378667716535428
20
-4.4198661417322835
11
5.341616299212598
21
-4.4161165748031497
0
LINE
8
BLACK
6
CONTINUOUS
10
5.341616299212598
20
-4.4161165748031497
11
5.341616299212598
21
-4.4236156692913386
0
LINE
8
BLACK
6
CONTINUOUS
10
5.341616299212598
20
-4.3748717322834647
11
5.3453658267716531
21
-4.3786212598425198
0
LINE
8
BLACK
6
CONTINUOUS
10
5.3453658267716531
20
-4.3786212598425198
11
5.341616299212598
21
-4.3823708267716537
0
LINE
8
BLACK
6
CONTINUOUS
10
5.341616299212598
20
-4.3823708267716537
11
5.3378667716535428
21
-4.3786212598425198
0
LINE
8
BLACK
6
CONTINUOUS
10
5.3378667716535428
20
-4.3786212598425198
11
5.341616299212598
21
-4.3748717322834647
0
LINE
8
BLACK
6
CONTINUOUS
10
5.341616299212598
20
-4.3748717322834647
11
5.341616299212598
21
-4.3823708267716537
  0
ENDSEC
  0
EOF
