  0
SECTION
  2
HEADER
  9
$ANGBASE
  50
0.0
  9
$ANGDIR
  70
1
  9
$MEASUREMENT
  70
0
  0
ENDSEC
  0
SECTION
  2
TABLES
  0
TABLE
  2
LTYPE
  70
4
  0
LTYPE
  5
40F
  2
CONTINUOUS
  70
0
  3
Solid line
  72
65
  73
0
  40
0.0
  0
LTYPE
  5
410
  2
DASHDOT
 70
0
  3
Dash Dot ____ _ ____ _
 72
65
 73
4
 40
2.0
 49
1.25
 49
-0.25
 49
0.25
 49
-0.25
  0
LTYPE
  5
411
  2
DASHED
 70
0
  3
Dashed __ __ __ __ __
 72
65
 73
2
 40
0.75
 49
0.5
 49
-0.25
  0
LTYPE
  5
43B
  2
DOTTED
 70
0
  3
Dotted .  .  .  .
 72
65
 73
2
 40
0.2
 49
0.0
 49
-0.2
  0
ENDTAB
  0
TABLE
  2
STYLE
  70
4
  0
STYLE
  2
KICAD
  70
0
  40
0
  41
1
  42
1
  50
0
  71
0
  3
isocp.shx
  0
STYLE
  2
KICADB
  70
0
  40
0
  41
1
  42
1
  50
0
  71
0
  3
isocp.shx
  0
STYLE
  2
KICADI
  70
0
  40
0
  41
1
  42
1
  50
15
  71
0
  3
isocp.shx
  0
STYLE
  2
KICADBI
  70
0
  40
0
  41
1
  42
1
  50
15
  71
0
  3
isocp.shx
  0
ENDTAB
  0
TABLE
  2
LAYER
  70
1
  0
LAYER
  2
BLACK
  70
0
  62
7
  6
CONTINUOUS
  0
ENDTAB
  0
ENDSEC
  0
SECTION
  2
ENTITIES
0
LINE
8
BLACK
6
CONTINUOUS
10
4.8639955511811026
20
-4.0257859842519688
11
4.8778151181102363
21
-4.028134015748031
0
LINE
8
BLACK
6
CONTINUOUS
10
4.8778151181102363
20
-4.028134015748031
11
4.8912848818897636
21
-4.0320145669291341
0
LINE
8
BLACK
6
CONTINUOUS
10
4.8912848818897636
20
-4.0320145669291341
11
4.9042354724409449
21
-4.0373788976377956
0
LINE
8
BLACK
6
CONTINUOUS
10
4.9042354724409449
20
-4.0373788976377956
11
4.9165040157480311
21
-4.044159488188976
0
LINE
8
BLACK
6
CONTINUOUS
10
4.9165040157480311
20
-4.044159488188976
11
4.9279362204724411
21
-4.0522710629921255
0
LINE
8
BLACK
6
CONTINUOUS
10
4.9279362204724411
20
-4.0522710629921255
11
4.9383883464566924
21
-4.0616116535433067
0
LINE
8
BLACK
6
CONTINUOUS
10
4.9383883464566924
20
-4.0616116535433067
11
4.9477289370078736
21
-4.0720637795275589
0
LINE
8
BLACK
6
CONTINUOUS
10
4.9477289370078736
20
-4.0720637795275589
11
4.9558405118110231
21
-4.083495984251968
0
LINE
8
BLACK
6
CONTINUOUS
10
4.9558405118110231
20
-4.083495984251968
11
4.9626211023622044
21
-4.0957645275590551
0
LINE
8
BLACK
6
CONTINUOUS
10
4.9626211023622044
20
-4.0957645275590551
11
4.9679854330708659
21
-4.1087151181102364
0
LINE
8
BLACK
6
CONTINUOUS
10
4.9679854330708659
20
-4.1087151181102364
11
4.9718659842519681
21
-4.1221848818897637
0
LINE
8
BLACK
6
CONTINUOUS
10
4.9718659842519681
20
-4.1221848818897637
11
4.9742140157480312
21
-4.1360044488188974
0
LINE
8
BLACK
6
CONTINUOUS
10
4.9742140157480312
20
-4.1360044488188974
11
4.9749999999999996
21
-4.1499999999999995
0
LINE
8
BLACK
6
CONTINUOUS
10
4.9749999999999996
20
-4.1499999999999995
11
4.9742140157480312
21
-4.1639955511811024
0
LINE
8
BLACK
6
CONTINUOUS
10
4.9742140157480312
20
-4.1639955511811024
11
4.9718659842519681
21
-4.1778151181102361
0
LINE
8
BLACK
6
CONTINUOUS
10
4.9718659842519681
20
-4.1778151181102361
11
4.9679854330708659
21
-4.1912848818897634
0
LINE
8
BLACK
6
CONTINUOUS
10
4.9679854330708659
20
-4.1912848818897634
11
4.9626211023622044
21
-4.2042354724409448
0
LINE
8
BLACK
6
CONTINUOUS
10
4.9626211023622044
20
-4.2042354724409448
11
4.9558405118110231
21
-4.2165040157480318
0
LINE
8
BLACK
6
CONTINUOUS
10
4.9558405118110231
20
-4.2165040157480318
11
4.9477289370078736
21
-4.2279362204724409
0
LINE
8
BLACK
6
CONTINUOUS
10
4.9477289370078736
20
-4.2279362204724409
11
4.9383883464566924
21
-4.2383883464566932
0
LINE
8
BLACK
6
CONTINUOUS
10
4.9383883464566924
20
-4.2383883464566932
11
4.9279362204724411
21
-4.2477289370078744
0
LINE
8
BLACK
6
CONTINUOUS
10
4.9279362204724411
20
-4.2477289370078744
11
4.9165040157480311
21
-4.2558405118110239
0
LINE
8
BLACK
6
CONTINUOUS
10
4.9165040157480311
20
-4.2558405118110239
11
4.9042354724409449
21
-4.2626211023622043
0
LINE
8
BLACK
6
CONTINUOUS
10
4.9042354724409449
20
-4.2626211023622043
11
4.8912848818897636
21
-4.2679854330708658
0
LINE
8
BLACK
6
CONTINUOUS
10
4.8912848818897636
20
-4.2679854330708658
11
4.8778151181102363
21
-4.2718659842519688
0
LINE
8
BLACK
6
CONTINUOUS
10
4.8778151181102363
20
-4.2718659842519688
11
4.8639955511811026
21
-4.2742140157480311
0
LINE
8
BLACK
6
CONTINUOUS
10
4.8639955511811026
20
-4.2742140157480311
11
4.8499999999999996
21
-4.2749999999999995
0
LINE
8
BLACK
6
CONTINUOUS
10
4.8499999999999996
20
-4.2749999999999995
11
4.8360044488188976
21
-4.2742140157480311
0
LINE
8
BLACK
6
CONTINUOUS
10
4.8360044488188976
20
-4.2742140157480311
11
4.8221848818897639
21
-4.2718659842519688
0
LINE
8
BLACK
6
CONTINUOUS
10
4.8221848818897639
20
-4.2718659842519688
11
4.8087151181102366
21
-4.2679854330708658
0
LINE
8
BLACK
6
CONTINUOUS
10
4.8087151181102366
20
-4.2679854330708658
11
4.7957645275590552
21
-4.2626211023622043
0
LINE
8
BLACK
6
CONTINUOUS
10
4.7957645275590552
20
-4.2626211023622043
11
4.7834959842519682
21
-4.2558405118110239
0
LINE
8
BLACK
6
CONTINUOUS
10
4.7834959842519682
20
-4.2558405118110239
11
4.7720637795275591
21
-4.2477289370078744
0
LINE
8
BLACK
6
CONTINUOUS
10
4.7720637795275591
20
-4.2477289370078744
11
4.7616116535433068
21
-4.2383883464566932
0
LINE
8
BLACK
6
CONTINUOUS
10
4.7616116535433068
20
-4.2383883464566932
11
4.7522710629921256
21
-4.2279362204724409
0
LINE
8
BLACK
6
CONTINUOUS
10
4.7522710629921256
20
-4.2279362204724409
11
4.7441594881889761
21
-4.2165040157480318
0
LINE
8
BLACK
6
CONTINUOUS
10
4.7441594881889761
20
-4.2165040157480318
11
4.7373788976377949
21
-4.2042354724409448
0
LINE
8
BLACK
6
CONTINUOUS
10
4.7373788976377949
20
-4.2042354724409448
11
4.7320145669291334
21
-4.1912848818897634
0
LINE
8
BLACK
6
CONTINUOUS
10
4.7320145669291334
20
-4.1912848818897634
11
4.7281340157480312
21
-4.1778151181102361
0
LINE
8
BLACK
6
CONTINUOUS
10
4.7281340157480312
20
-4.1778151181102361
11
4.7257859842519681
21
-4.1639955511811024
0
LINE
8
BLACK
6
CONTINUOUS
10
4.7257859842519681
20
-4.1639955511811024
11
4.7249999999999996
21
-4.1499999999999995
0
LINE
8
BLACK
6
CONTINUOUS
10
4.7249999999999996
20
-4.1499999999999995
11
4.7257859842519681
21
-4.1360044488188974
0
LINE
8
BLACK
6
CONTINUOUS
10
4.7257859842519681
20
-4.1360044488188974
11
4.7281340157480312
21
-4.1221848818897637
0
LINE
8
BLACK
6
CONTINUOUS
10
4.7281340157480312
20
-4.1221848818897637
11
4.7320145669291334
21
-4.1087151181102364
0
LINE
8
BLACK
6
CONTINUOUS
10
4.7320145669291334
20
-4.1087151181102364
11
4.7373788976377949
21
-4.0957645275590551
0
LINE
8
BLACK
6
CONTINUOUS
10
4.7373788976377949
20
-4.0957645275590551
11
4.7441594881889761
21
-4.083495984251968
0
LINE
8
BLACK
6
CONTINUOUS
10
4.7441594881889761
20
-4.083495984251968
11
4.7522710629921256
21
-4.0720637795275589
0
LINE
8
BLACK
6
CONTINUOUS
10
4.7522710629921256
20
-4.0720637795275589
11
4.7616116535433068
21
-4.0616116535433067
0
LINE
8
BLACK
6
CONTINUOUS
10
4.7616116535433068
20
-4.0616116535433067
11
4.7720637795275591
21
-4.0522710629921255
0
LINE
8
BLACK
6
CONTINUOUS
10
4.7720637795275591
20
-4.0522710629921255
11
4.7834959842519682
21
-4.044159488188976
0
LINE
8
BLACK
6
CONTINUOUS
10
4.7834959842519682
20
-4.044159488188976
11
4.7957645275590552
21
-4.0373788976377956
0
LINE
8
BLACK
6
CONTINUOUS
10
4.7957645275590552
20
-4.0373788976377956
11
4.8087151181102366
21
-4.0320145669291341
0
LINE
8
BLACK
6
CONTINUOUS
10
4.8087151181102366
20
-4.0320145669291341
11
4.8221848818897639
21
-4.028134015748031
0
LINE
8
BLACK
6
CONTINUOUS
10
4.8221848818897639
20
-4.028134015748031
11
4.8360044488188976
21
-4.0257859842519688
0
LINE
8
BLACK
6
CONTINUOUS
10
4.8360044488188976
20
-4.0257859842519688
11
4.8499999999999996
21
-4.0249999999999995
0
LINE
8
BLACK
6
CONTINUOUS
10
4.8499999999999996
20
-4.0249999999999995
11
4.8639955511811026
21
-4.0257859842519688
0
LINE
8
BLACK
6
CONTINUOUS
10
6.5639955511811019
20
-4.0257859842519688
11
6.5778151181102364
21
-4.028134015748031
0
LINE
8
BLACK
6
CONTINUOUS
10
6.5778151181102364
20
-4.028134015748031
11
6.5912848818897638
21
-4.0320145669291341
0
LINE
8
BLACK
6
CONTINUOUS
10
6.5912848818897638
20
-4.0320145669291341
11
6.6042354724409451
21
-4.0373788976377956
0
LINE
8
BLACK
6
CONTINUOUS
10
6.6042354724409451
20
-4.0373788976377956
11
6.6165040157480313
21
-4.044159488188976
0
LINE
8
BLACK
6
CONTINUOUS
10
6.6165040157480313
20
-4.044159488188976
11
6.6279362204724404
21
-4.0522710629921255
0
LINE
8
BLACK
6
CONTINUOUS
10
6.6279362204724404
20
-4.0522710629921255
11
6.6383883464566926
21
-4.0616116535433067
0
LINE
8
BLACK
6
CONTINUOUS
10
6.6383883464566926
20
-4.0616116535433067
11
6.6477289370078738
21
-4.0720637795275589
0
LINE
8
BLACK
6
CONTINUOUS
10
6.6477289370078738
20
-4.0720637795275589
11
6.6558405118110233
21
-4.083495984251968
0
LINE
8
BLACK
6
CONTINUOUS
10
6.6558405118110233
20
-4.083495984251968
11
6.6626211023622046
21
-4.0957645275590551
0
LINE
8
BLACK
6
CONTINUOUS
10
6.6626211023622046
20
-4.0957645275590551
11
6.6679854330708661
21
-4.1087151181102364
0
LINE
8
BLACK
6
CONTINUOUS
10
6.6679854330708661
20
-4.1087151181102364
11
6.6718659842519683
21
-4.1221848818897637
0
LINE
8
BLACK
6
CONTINUOUS
10
6.6718659842519683
20
-4.1221848818897637
11
6.6742140157480314
21
-4.1360044488188974
0
LINE
8
BLACK
6
CONTINUOUS
10
6.6742140157480314
20
-4.1360044488188974
11
6.6749999999999998
21
-4.1499999999999995
0
LINE
8
BLACK
6
CONTINUOUS
10
6.6749999999999998
20
-4.1499999999999995
11
6.6742140157480314
21
-4.1639955511811024
0
LINE
8
BLACK
6
CONTINUOUS
10
6.6742140157480314
20
-4.1639955511811024
11
6.6718659842519683
21
-4.1778151181102361
0
LINE
8
BLACK
6
CONTINUOUS
10
6.6718659842519683
20
-4.1778151181102361
11
6.6679854330708661
21
-4.1912848818897634
0
LINE
8
BLACK
6
CONTINUOUS
10
6.6679854330708661
20
-4.1912848818897634
11
6.6626211023622046
21
-4.2042354724409448
0
LINE
8
BLACK
6
CONTINUOUS
10
6.6626211023622046
20
-4.2042354724409448
11
6.6558405118110233
21
-4.2165040157480318
0
LINE
8
BLACK
6
CONTINUOUS
10
6.6558405118110233
20
-4.2165040157480318
11
6.6477289370078738
21
-4.2279362204724409
0
LINE
8
BLACK
6
CONTINUOUS
10
6.6477289370078738
20
-4.2279362204724409
11
6.6383883464566926
21
-4.2383883464566932
0
LINE
8
BLACK
6
CONTINUOUS
10
6.6383883464566926
20
-4.2383883464566932
11
6.6279362204724404
21
-4.2477289370078744
0
LINE
8
BLACK
6
CONTINUOUS
10
6.6279362204724404
20
-4.2477289370078744
11
6.6165040157480313
21
-4.2558405118110239
0
LINE
8
BLACK
6
CONTINUOUS
10
6.6165040157480313
20
-4.2558405118110239
11
6.6042354724409451
21
-4.2626211023622043
0
LINE
8
BLACK
6
CONTINUOUS
10
6.6042354724409451
20
-4.2626211023622043
11
6.5912848818897638
21
-4.2679854330708658
0
LINE
8
BLACK
6
CONTINUOUS
10
6.5912848818897638
20
-4.2679854330708658
11
6.5778151181102364
21
-4.2718659842519688
0
LINE
8
BLACK
6
CONTINUOUS
10
6.5778151181102364
20
-4.2718659842519688
11
6.5639955511811019
21
-4.2742140157480311
0
LINE
8
BLACK
6
CONTINUOUS
10
6.5639955511811019
20
-4.2742140157480311
11
6.5499999999999998
21
-4.2749999999999995
0
LINE
8
BLACK
6
CONTINUOUS
10
6.5499999999999998
20
-4.2749999999999995
11
6.5360044488188977
21
-4.2742140157480311
0
LINE
8
BLACK
6
CONTINUOUS
10
6.5360044488188977
20
-4.2742140157480311
11
6.5221848818897632
21
-4.2718659842519688
0
LINE
8
BLACK
6
CONTINUOUS
10
6.5221848818897632
20
-4.2718659842519688
11
6.5087151181102358
21
-4.2679854330708658
0
LINE
8
BLACK
6
CONTINUOUS
10
6.5087151181102358
20
-4.2679854330708658
11
6.4957645275590545
21
-4.2626211023622043
0
LINE
8
BLACK
6
CONTINUOUS
10
6.4957645275590545
20
-4.2626211023622043
11
6.4834959842519684
21
-4.2558405118110239
0
LINE
8
BLACK
6
CONTINUOUS
10
6.4834959842519684
20
-4.2558405118110239
11
6.4720637795275593
21
-4.2477289370078744
0
LINE
8
BLACK
6
CONTINUOUS
10
6.4720637795275593
20
-4.2477289370078744
11
6.461611653543307
21
-4.2383883464566932
0
LINE
8
BLACK
6
CONTINUOUS
10
6.461611653543307
20
-4.2383883464566932
11
6.4522710629921258
21
-4.2279362204724409
0
LINE
8
BLACK
6
CONTINUOUS
10
6.4522710629921258
20
-4.2279362204724409
11
6.4441594881889763
21
-4.2165040157480318
0
LINE
8
BLACK
6
CONTINUOUS
10
6.4441594881889763
20
-4.2165040157480318
11
6.437378897637795
21
-4.2042354724409448
0
LINE
8
BLACK
6
CONTINUOUS
10
6.437378897637795
20
-4.2042354724409448
11
6.4320145669291335
21
-4.1912848818897634
0
LINE
8
BLACK
6
CONTINUOUS
10
6.4320145669291335
20
-4.1912848818897634
11
6.4281340157480313
21
-4.1778151181102361
0
LINE
8
BLACK
6
CONTINUOUS
10
6.4281340157480313
20
-4.1778151181102361
11
6.4257859842519682
21
-4.1639955511811024
0
LINE
8
BLACK
6
CONTINUOUS
10
6.4257859842519682
20
-4.1639955511811024
11
6.4249999999999998
21
-4.1499999999999995
0
LINE
8
BLACK
6
CONTINUOUS
10
6.4249999999999998
20
-4.1499999999999995
11
6.4257859842519682
21
-4.1360044488188974
0
LINE
8
BLACK
6
CONTINUOUS
10
6.4257859842519682
20
-4.1360044488188974
11
6.4281340157480313
21
-4.1221848818897637
0
LINE
8
BLACK
6
CONTINUOUS
10
6.4281340157480313
20
-4.1221848818897637
11
6.4320145669291335
21
-4.1087151181102364
0
LINE
8
BLACK
6
CONTINUOUS
10
6.4320145669291335
20
-4.1087151181102364
11
6.437378897637795
21
-4.0957645275590551
0
LINE
8
BLACK
6
CONTINUOUS
10
6.437378897637795
20
-4.0957645275590551
11
6.4441594881889763
21
-4.083495984251968
0
LINE
8
BLACK
6
CONTINUOUS
10
6.4441594881889763
20
-4.083495984251968
11
6.4522710629921258
21
-4.0720637795275589
0
LINE
8
BLACK
6
CONTINUOUS
10
6.4522710629921258
20
-4.0720637795275589
11
6.461611653543307
21
-4.0616116535433067
0
LINE
8
BLACK
6
CONTINUOUS
10
6.461611653543307
20
-4.0616116535433067
11
6.4720637795275593
21
-4.0522710629921255
0
LINE
8
BLACK
6
CONTINUOUS
10
6.4720637795275593
20
-4.0522710629921255
11
6.4834959842519684
21
-4.044159488188976
0
LINE
8
BLACK
6
CONTINUOUS
10
6.4834959842519684
20
-4.044159488188976
11
6.4957645275590545
21
-4.0373788976377956
0
LINE
8
BLACK
6
CONTINUOUS
10
6.4957645275590545
20
-4.0373788976377956
11
6.5087151181102358
21
-4.0320145669291341
0
LINE
8
BLACK
6
CONTINUOUS
10
6.5087151181102358
20
-4.0320145669291341
11
6.5221848818897632
21
-4.028134015748031
0
LINE
8
BLACK
6
CONTINUOUS
10
6.5221848818897632
20
-4.028134015748031
11
6.5360044488188977
21
-4.0257859842519688
0
LINE
8
BLACK
6
CONTINUOUS
10
6.5360044488188977
20
-4.0257859842519688
11
6.5499999999999998
21
-4.0249999999999995
0
LINE
8
BLACK
6
CONTINUOUS
10
6.5499999999999998
20
-4.0249999999999995
11
6.5639955511811019
21
-4.0257859842519688
0
LINE
8
BLACK
6
CONTINUOUS
10
6.610341102362205
20
-3.9181733070866143
11
6.6167322834645672
21
-3.9210188188976378
0
LINE
8
BLACK
6
CONTINUOUS
10
6.6167322834645672
20
-3.9210188188976378
11
6.6223921653543307
21
-3.9251309842519686
0
LINE
8
BLACK
6
CONTINUOUS
10
6.6223921653543307
20
-3.9251309842519686
11
6.6270733858267716
21
-3.9303300393700789
0
LINE
8
BLACK
6
CONTINUOUS
10
6.6270733858267716
20
-3.9303300393700789
11
6.6305714173228347
21
-3.9363887401574802
0
LINE
8
BLACK
6
CONTINUOUS
10
6.6305714173228347
20
-3.9363887401574802
11
6.6327332677165352
21
-3.9430423228346454
0
LINE
8
BLACK
6
CONTINUOUS
10
6.6327332677165352
20
-3.9430423228346454
11
6.6334645669291339
21
-3.9499999999999997
0
LINE
8
BLACK
6
CONTINUOUS
10
6.6334645669291339
20
-3.9499999999999997
11
6.6327332677165352
21
-3.9569576771653541
0
LINE
8
BLACK
6
CONTINUOUS
10
6.6327332677165352
20
-3.9569576771653541
11
6.6305714173228347
21
-3.9636112598425197
0
LINE
8
BLACK
6
CONTINUOUS
10
6.6305714173228347
20
-3.9636112598425197
11
6.6270733858267716
21
-3.9696699606299211
0
LINE
8
BLACK
6
CONTINUOUS
10
6.6270733858267716
20
-3.9696699606299211
11
6.6223921653543307
21
-3.9748690157480313
0
LINE
8
BLACK
6
CONTINUOUS
10
6.6223921653543307
20
-3.9748690157480313
11
6.6167322834645672
21
-3.9789811811023621
0
LINE
8
BLACK
6
CONTINUOUS
10
6.6167322834645672
20
-3.9789811811023621
11
6.610341102362205
21
-3.9818266929133856
0
LINE
8
BLACK
6
CONTINUOUS
10
6.610341102362205
20
-3.9818266929133856
11
6.603497992125984
21
-3.9832812598425198
0
LINE
8
BLACK
6
CONTINUOUS
10
6.603497992125984
20
-3.9832812598425198
11
6.5965020078740153
21
-3.9832812598425198
0
LINE
8
BLACK
6
CONTINUOUS
10
6.5965020078740153
20
-3.9832812598425198
11
6.5896588976377952
21
-3.9818266929133856
0
LINE
8
BLACK
6
CONTINUOUS
10
6.5896588976377952
20
-3.9818266929133856
11
6.583267716535433
21
-3.9789811811023621
0
LINE
8
BLACK
6
CONTINUOUS
10
6.583267716535433
20
-3.9789811811023621
11
6.5776078346456694
21
-3.9748690157480313
0
LINE
8
BLACK
6
CONTINUOUS
10
6.5776078346456694
20
-3.9748690157480313
11
6.5729266141732285
21
-3.9696699606299211
0
LINE
8
BLACK
6
CONTINUOUS
10
6.5729266141732285
20
-3.9696699606299211
11
6.5694285826771655
21
-3.9636112598425197
0
LINE
8
BLACK
6
CONTINUOUS
10
6.5694285826771655
20
-3.9636112598425197
11
6.5672667322834641
21
-3.9569576771653541
0
LINE
8
BLACK
6
CONTINUOUS
10
6.5672667322834641
20
-3.9569576771653541
11
6.5665354330708663
21
-3.9499999999999997
0
LINE
8
BLACK
6
CONTINUOUS
10
6.5665354330708663
20
-3.9499999999999997
11
6.5672667322834641
21
-3.9430423228346454
0
LINE
8
BLACK
6
CONTINUOUS
10
6.5672667322834641
20
-3.9430423228346454
11
6.5694285826771655
21
-3.9363887401574802
0
LINE
8
BLACK
6
CONTINUOUS
10
6.5694285826771655
20
-3.9363887401574802
11
6.5729266141732285
21
-3.9303300393700789
0
LINE
8
BLACK
6
CONTINUOUS
10
6.5729266141732285
20
-3.9303300393700789
11
6.5776078346456694
21
-3.9251309842519686
0
LINE
8
BLACK
6
CONTINUOUS
10
6.5776078346456694
20
-3.9251309842519686
11
6.583267716535433
21
-3.9210188188976378
0
LINE
8
BLACK
6
CONTINUOUS
10
6.583267716535433
20
-3.9210188188976378
11
6.5896588976377952
21
-3.9181733070866143
0
LINE
8
BLACK
6
CONTINUOUS
10
6.5896588976377952
20
-3.9181733070866143
11
6.5965020078740153
21
-3.9167187401574801
0
LINE
8
BLACK
6
CONTINUOUS
10
6.5965020078740153
20
-3.9167187401574801
11
6.603497992125984
21
-3.9167187401574801
0
LINE
8
BLACK
6
CONTINUOUS
10
6.603497992125984
20
-3.9167187401574801
11
6.610341102362205
21
-3.9181733070866143
0
LINE
8
BLACK
6
CONTINUOUS
10
5.6592614960629923
20
-3.9135948031496062
11
5.6660018110236221
21
-3.9159533464566927
0
LINE
8
BLACK
6
CONTINUOUS
10
5.6660018110236221
20
-3.9159533464566927
11
5.6720483070866141
21
-3.9197525984251969
0
LINE
8
BLACK
6
CONTINUOUS
10
5.6720483070866141
20
-3.9197525984251969
11
5.6770977952755901
21
-3.9248020866141733
0
LINE
8
BLACK
6
CONTINUOUS
10
5.6770977952755901
20
-3.9248020866141733
11
5.6808970472440947
21
-3.9308485826771653
0
LINE
8
BLACK
6
CONTINUOUS
10
5.6808970472440947
20
-3.9308485826771653
11
5.6832555905511812
21
-3.9375888976377951
0
LINE
8
BLACK
6
CONTINUOUS
10
5.6832555905511812
20
-3.9375888976377951
11
5.6840551181102361
21
-3.9446850393700785
0
LINE
8
BLACK
6
CONTINUOUS
10
5.6840551181102361
20
-3.9446850393700785
11
5.6832555905511812
21
-3.951781181102362
0
LINE
8
BLACK
6
CONTINUOUS
10
5.6832555905511812
20
-3.951781181102362
11
5.6808970472440947
21
-3.9585214960629922
0
LINE
8
BLACK
6
CONTINUOUS
10
5.6808970472440947
20
-3.9585214960629922
11
5.6770977952755901
21
-3.9645679921259842
0
LINE
8
BLACK
6
CONTINUOUS
10
5.6770977952755901
20
-3.9645679921259842
11
5.6720483070866141
21
-3.9696174803149606
0
LINE
8
BLACK
6
CONTINUOUS
10
5.6720483070866141
20
-3.9696174803149606
11
5.6660018110236221
21
-3.9734167322834644
0
LINE
8
BLACK
6
CONTINUOUS
10
5.6660018110236221
20
-3.9734167322834644
11
5.6592614960629923
21
-3.9757752755905509
0
LINE
8
BLACK
6
CONTINUOUS
10
5.6592614960629923
20
-3.9757752755905509
11
5.6521653543307089
21
-3.9765748031496062
0
LINE
8
BLACK
6
CONTINUOUS
10
5.6521653543307089
20
-3.9765748031496062
11
5.6450692125984254
21
-3.9757752755905509
0
LINE
8
BLACK
6
CONTINUOUS
10
5.6450692125984254
20
-3.9757752755905509
11
5.6383288976377948
21
-3.9734167322834644
0
LINE
8
BLACK
6
CONTINUOUS
10
5.6383288976377948
20
-3.9734167322834644
11
5.6322824015748028
21
-3.9696174803149606
0
LINE
8
BLACK
6
CONTINUOUS
10
5.6322824015748028
20
-3.9696174803149606
11
5.6272329133858268
21
-3.9645679921259842
0
LINE
8
BLACK
6
CONTINUOUS
10
5.6272329133858268
20
-3.9645679921259842
11
5.623433661417323
21
-3.9585214960629922
0
LINE
8
BLACK
6
CONTINUOUS
10
5.623433661417323
20
-3.9585214960629922
11
5.6210751181102365
21
-3.951781181102362
0
LINE
8
BLACK
6
CONTINUOUS
10
5.6210751181102365
20
-3.951781181102362
11
5.6202755905511808
21
-3.9446850393700785
0
LINE
8
BLACK
6
CONTINUOUS
10
5.6202755905511808
20
-3.9446850393700785
11
5.6210751181102365
21
-3.9375888976377951
0
LINE
8
BLACK
6
CONTINUOUS
10
5.6210751181102365
20
-3.9375888976377951
11
5.623433661417323
21
-3.9308485826771653
0
LINE
8
BLACK
6
CONTINUOUS
10
5.623433661417323
20
-3.9308485826771653
11
5.6272329133858268
21
-3.9248020866141733
0
LINE
8
BLACK
6
CONTINUOUS
10
5.6272329133858268
20
-3.9248020866141733
11
5.6322824015748028
21
-3.9197525984251969
0
LINE
8
BLACK
6
CONTINUOUS
10
5.6322824015748028
20
-3.9197525984251969
11
5.6383288976377948
21
-3.9159533464566927
0
LINE
8
BLACK
6
CONTINUOUS
10
5.6383288976377948
20
-3.9159533464566927
11
5.6450692125984254
21
-3.9135948031496062
0
LINE
8
BLACK
6
CONTINUOUS
10
5.6450692125984254
20
-3.9135948031496062
11
5.6521653543307089
21
-3.9127952755905513
0
LINE
8
BLACK
6
CONTINUOUS
10
5.6521653543307089
20
-3.9127952755905513
11
5.6592614960629923
21
-3.9135948031496062
0
LINE
8
BLACK
6
CONTINUOUS
10
4.8103411023622042
20
-3.868173307086614
11
4.8167322834645665
21
-3.8710188188976375
0
LINE
8
BLACK
6
CONTINUOUS
10
4.8167322834645665
20
-3.8710188188976375
11
4.8223921653543309
21
-3.8751309842519683
0
LINE
8
BLACK
6
CONTINUOUS
10
4.8223921653543309
20
-3.8751309842519683
11
4.8270733858267718
21
-3.8803300393700786
0
LINE
8
BLACK
6
CONTINUOUS
10
4.8270733858267718
20
-3.8803300393700786
11
4.8305714173228349
21
-3.8863887401574804
0
LINE
8
BLACK
6
CONTINUOUS
10
4.8305714173228349
20
-3.8863887401574804
11
4.8327332677165353
21
-3.8930423228346456
0
LINE
8
BLACK
6
CONTINUOUS
10
4.8327332677165353
20
-3.8930423228346456
11
4.8334645669291341
21
-3.8999999999999999
0
LINE
8
BLACK
6
CONTINUOUS
10
4.8334645669291341
20
-3.8999999999999999
11
4.8327332677165353
21
-3.9069576771653542
0
LINE
8
BLACK
6
CONTINUOUS
10
4.8327332677165353
20
-3.9069576771653542
11
4.8305714173228349
21
-3.9136112598425195
0
LINE
8
BLACK
6
CONTINUOUS
10
4.8305714173228349
20
-3.9136112598425195
11
4.8270733858267718
21
-3.9196699606299212
0
LINE
8
BLACK
6
CONTINUOUS
10
4.8270733858267718
20
-3.9196699606299212
11
4.8223921653543309
21
-3.9248690157480315
0
LINE
8
BLACK
6
CONTINUOUS
10
4.8223921653543309
20
-3.9248690157480315
11
4.8167322834645665
21
-3.9289811811023623
0
LINE
8
BLACK
6
CONTINUOUS
10
4.8167322834645665
20
-3.9289811811023623
11
4.8103411023622042
21
-3.9318266929133858
0
LINE
8
BLACK
6
CONTINUOUS
10
4.8103411023622042
20
-3.9318266929133858
11
4.8034979921259842
21
-3.9332812598425195
0
LINE
8
BLACK
6
CONTINUOUS
10
4.8034979921259842
20
-3.9332812598425195
11
4.7965020078740155
21
-3.9332812598425195
0
LINE
8
BLACK
6
CONTINUOUS
10
4.7965020078740155
20
-3.9332812598425195
11
4.7896588976377954
21
-3.9318266929133858
0
LINE
8
BLACK
6
CONTINUOUS
10
4.7896588976377954
20
-3.9318266929133858
11
4.7832677165354331
21
-3.9289811811023623
0
LINE
8
BLACK
6
CONTINUOUS
10
4.7832677165354331
20
-3.9289811811023623
11
4.7776078346456696
21
-3.9248690157480315
0
LINE
8
BLACK
6
CONTINUOUS
10
4.7776078346456696
20
-3.9248690157480315
11
4.7729266141732278
21
-3.9196699606299212
0
LINE
8
BLACK
6
CONTINUOUS
10
4.7729266141732278
20
-3.9196699606299212
11
4.7694285826771656
21
-3.9136112598425195
0
LINE
8
BLACK
6
CONTINUOUS
10
4.7694285826771656
20
-3.9136112598425195
11
4.7672667322834643
21
-3.9069576771653542
0
LINE
8
BLACK
6
CONTINUOUS
10
4.7672667322834643
20
-3.9069576771653542
11
4.7665354330708665
21
-3.8999999999999999
0
LINE
8
BLACK
6
CONTINUOUS
10
4.7665354330708665
20
-3.8999999999999999
11
4.7672667322834643
21
-3.8930423228346456
0
LINE
8
BLACK
6
CONTINUOUS
10
4.7672667322834643
20
-3.8930423228346456
11
4.7694285826771656
21
-3.8863887401574804
0
LINE
8
BLACK
6
CONTINUOUS
10
4.7694285826771656
20
-3.8863887401574804
11
4.7729266141732278
21
-3.8803300393700786
0
LINE
8
BLACK
6
CONTINUOUS
10
4.7729266141732278
20
-3.8803300393700786
11
4.7776078346456696
21
-3.8751309842519683
0
LINE
8
BLACK
6
CONTINUOUS
10
4.7776078346456696
20
-3.8751309842519683
11
4.7832677165354331
21
-3.8710188188976375
0
LINE
8
BLACK
6
CONTINUOUS
10
4.7832677165354331
20
-3.8710188188976375
11
4.7896588976377954
21
-3.868173307086614
0
LINE
8
BLACK
6
CONTINUOUS
10
4.7896588976377954
20
-3.868173307086614
11
4.7965020078740155
21
-3.8667187401574803
0
LINE
8
BLACK
6
CONTINUOUS
10
4.7965020078740155
20
-3.8667187401574803
11
4.8034979921259842
21
-3.8667187401574803
0
LINE
8
BLACK
6
CONTINUOUS
10
4.8034979921259842
20
-3.8667187401574803
11
4.8103411023622042
21
-3.868173307086614
0
LINE
8
BLACK
6
CONTINUOUS
10
6.610341102362205
20
-3.8181733070866142
11
6.6167322834645672
21
-3.8210188188976377
0
LINE
8
BLACK
6
CONTINUOUS
10
6.6167322834645672
20
-3.8210188188976377
11
6.6223921653543307
21
-3.8251309842519685
0
LINE
8
BLACK
6
CONTINUOUS
10
6.6223921653543307
20
-3.8251309842519685
11
6.6270733858267716
21
-3.8303300393700788
0
LINE
8
BLACK
6
CONTINUOUS
10
6.6270733858267716
20
-3.8303300393700788
11
6.6305714173228347
21
-3.8363887401574801
0
LINE
8
BLACK
6
CONTINUOUS
10
6.6305714173228347
20
-3.8363887401574801
11
6.6327332677165352
21
-3.8430423228346458
0
LINE
8
BLACK
6
CONTINUOUS
10
6.6327332677165352
20
-3.8430423228346458
11
6.6334645669291339
21
-3.8500000000000001
0
LINE
8
BLACK
6
CONTINUOUS
10
6.6334645669291339
20
-3.8500000000000001
11
6.6327332677165352
21
-3.8569576771653544
0
LINE
8
BLACK
6
CONTINUOUS
10
6.6327332677165352
20
-3.8569576771653544
11
6.6305714173228347
21
-3.8636112598425196
0
LINE
8
BLACK
6
CONTINUOUS
10
6.6305714173228347
20
-3.8636112598425196
11
6.6270733858267716
21
-3.869669960629921
0
LINE
8
BLACK
6
CONTINUOUS
10
6.6270733858267716
20
-3.869669960629921
11
6.6223921653543307
21
-3.8748690157480312
0
LINE
8
BLACK
6
CONTINUOUS
10
6.6223921653543307
20
-3.8748690157480312
11
6.6167322834645672
21
-3.878981181102362
0
LINE
8
BLACK
6
CONTINUOUS
10
6.6167322834645672
20
-3.878981181102362
11
6.610341102362205
21
-3.8818266929133856
0
LINE
8
BLACK
6
CONTINUOUS
10
6.610341102362205
20
-3.8818266929133856
11
6.603497992125984
21
-3.8832812598425197
0
LINE
8
BLACK
6
CONTINUOUS
10
6.603497992125984
20
-3.8832812598425197
11
6.5965020078740153
21
-3.8832812598425197
0
LINE
8
BLACK
6
CONTINUOUS
10
6.5965020078740153
20
-3.8832812598425197
11
6.5896588976377952
21
-3.8818266929133856
0
LINE
8
BLACK
6
CONTINUOUS
10
6.5896588976377952
20
-3.8818266929133856
11
6.583267716535433
21
-3.878981181102362
0
LINE
8
BLACK
6
CONTINUOUS
10
6.583267716535433
20
-3.878981181102362
11
6.5776078346456694
21
-3.8748690157480312
0
LINE
8
BLACK
6
CONTINUOUS
10
6.5776078346456694
20
-3.8748690157480312
11
6.5729266141732285
21
-3.869669960629921
0
LINE
8
BLACK
6
CONTINUOUS
10
6.5729266141732285
20
-3.869669960629921
11
6.5694285826771655
21
-3.8636112598425196
0
LINE
8
BLACK
6
CONTINUOUS
10
6.5694285826771655
20
-3.8636112598425196
11
6.5672667322834641
21
-3.8569576771653544
0
LINE
8
BLACK
6
CONTINUOUS
10
6.5672667322834641
20
-3.8569576771653544
11
6.5665354330708663
21
-3.8500000000000001
0
LINE
8
BLACK
6
CONTINUOUS
10
6.5665354330708663
20
-3.8500000000000001
11
6.5672667322834641
21
-3.8430423228346458
0
LINE
8
BLACK
6
CONTINUOUS
10
6.5672667322834641
20
-3.8430423228346458
11
6.5694285826771655
21
-3.8363887401574801
0
LINE
8
BLACK
6
CONTINUOUS
10
6.5694285826771655
20
-3.8363887401574801
11
6.5729266141732285
21
-3.8303300393700788
0
LINE
8
BLACK
6
CONTINUOUS
10
6.5729266141732285
20
-3.8303300393700788
11
6.5776078346456694
21
-3.8251309842519685
0
LINE
8
BLACK
6
CONTINUOUS
10
6.5776078346456694
20
-3.8251309842519685
11
6.583267716535433
21
-3.8210188188976377
0
LINE
8
BLACK
6
CONTINUOUS
10
6.583267716535433
20
-3.8210188188976377
11
6.5896588976377952
21
-3.8181733070866142
0
LINE
8
BLACK
6
CONTINUOUS
10
6.5896588976377952
20
-3.8181733070866142
11
6.5965020078740153
21
-3.81671874015748
0
LINE
8
BLACK
6
CONTINUOUS
10
6.5965020078740153
20
-3.81671874015748
11
6.603497992125984
21
-3.81671874015748
0
LINE
8
BLACK
6
CONTINUOUS
10
6.603497992125984
20
-3.81671874015748
11
6.610341102362205
21
-3.8181733070866142
0
LINE
8
BLACK
6
CONTINUOUS
10
5.5608362992125979
20
-3.8151696062992126
11
5.5675766141732286
21
-3.8175281496062992
0
LINE
8
BLACK
6
CONTINUOUS
10
5.5675766141732286
20
-3.8175281496062992
11
5.5736231102362206
21
-3.8213274015748029
0
LINE
8
BLACK
6
CONTINUOUS
10
5.5736231102362206
20
-3.8213274015748029
11
5.5786725984251966
21
-3.8263768897637793
0
LINE
8
BLACK
6
CONTINUOUS
10
5.5786725984251966
20
-3.8263768897637793
11
5.5824718503937003
21
-3.8324233858267718
0
LINE
8
BLACK
6
CONTINUOUS
10
5.5824718503937003
20
-3.8324233858267718
11
5.5848303937007877
21
-3.8391637007874015
0
LINE
8
BLACK
6
CONTINUOUS
10
5.5848303937007877
20
-3.8391637007874015
11
5.5856299212598426
21
-3.846259842519685
0
LINE
8
BLACK
6
CONTINUOUS
10
5.5856299212598426
20
-3.846259842519685
11
5.5848303937007877
21
-3.8533559842519685
0
LINE
8
BLACK
6
CONTINUOUS
10
5.5848303937007877
20
-3.8533559842519685
11
5.5824718503937003
21
-3.8600962992125982
0
LINE
8
BLACK
6
CONTINUOUS
10
5.5824718503937003
20
-3.8600962992125982
11
5.5786725984251966
21
-3.8661427952755907
0
LINE
8
BLACK
6
CONTINUOUS
10
5.5786725984251966
20
-3.8661427952755907
11
5.5736231102362206
21
-3.8711922834645667
0
LINE
8
BLACK
6
CONTINUOUS
10
5.5736231102362206
20
-3.8711922834645667
11
5.5675766141732286
21
-3.8749915354330708
0
LINE
8
BLACK
6
CONTINUOUS
10
5.5675766141732286
20
-3.8749915354330708
11
5.5608362992125979
21
-3.8773500787401574
0
LINE
8
BLACK
6
CONTINUOUS
10
5.5608362992125979
20
-3.8773500787401574
11
5.5537401574803145
21
-3.8781496062992127
0
LINE
8
BLACK
6
CONTINUOUS
10
5.5537401574803145
20
-3.8781496062992127
11
5.546644015748031
21
-3.8773500787401574
0
LINE
8
BLACK
6
CONTINUOUS
10
5.546644015748031
20
-3.8773500787401574
11
5.5399037007874012
21
-3.8749915354330708
0
LINE
8
BLACK
6
CONTINUOUS
10
5.5399037007874012
20
-3.8749915354330708
11
5.5338572047244092
21
-3.8711922834645667
0
LINE
8
BLACK
6
CONTINUOUS
10
5.5338572047244092
20
-3.8711922834645667
11
5.5288077165354332
21
-3.8661427952755907
0
LINE
8
BLACK
6
CONTINUOUS
10
5.5288077165354332
20
-3.8661427952755907
11
5.5250084645669286
21
-3.8600962992125982
0
LINE
8
BLACK
6
CONTINUOUS
10
5.5250084645669286
20
-3.8600962992125982
11
5.5226499212598421
21
-3.8533559842519685
0
LINE
8
BLACK
6
CONTINUOUS
10
5.5226499212598421
20
-3.8533559842519685
11
5.5218503937007872
21
-3.846259842519685
0
LINE
8
BLACK
6
CONTINUOUS
10
5.5218503937007872
20
-3.846259842519685
11
5.5226499212598421
21
-3.8391637007874015
0
LINE
8
BLACK
6
CONTINUOUS
10
5.5226499212598421
20
-3.8391637007874015
11
5.5250084645669286
21
-3.8324233858267718
0
LINE
8
BLACK
6
CONTINUOUS
10
5.5250084645669286
20
-3.8324233858267718
11
5.5288077165354332
21
-3.8263768897637793
0
LINE
8
BLACK
6
CONTINUOUS
10
5.5288077165354332
20
-3.8263768897637793
11
5.5338572047244092
21
-3.8213274015748029
0
LINE
8
BLACK
6
CONTINUOUS
10
5.5338572047244092
20
-3.8213274015748029
11
5.5399037007874012
21
-3.8175281496062992
0
LINE
8
BLACK
6
CONTINUOUS
10
5.5399037007874012
20
-3.8175281496062992
11
5.546644015748031
21
-3.8151696062992126
0
LINE
8
BLACK
6
CONTINUOUS
10
5.546644015748031
20
-3.8151696062992126
11
5.5537401574803145
21
-3.8143700787401573
0
LINE
8
BLACK
6
CONTINUOUS
10
5.5537401574803145
20
-3.8143700787401573
11
5.5608362992125979
21
-3.8151696062992126
0
LINE
8
BLACK
6
CONTINUOUS
10
5.7576866929133859
20
-3.8151696062992126
11
5.7644270078740156
21
-3.8175281496062992
0
LINE
8
BLACK
6
CONTINUOUS
10
5.7644270078740156
20
-3.8175281496062992
11
5.7704735039370076
21
-3.8213274015748029
0
LINE
8
BLACK
6
CONTINUOUS
10
5.7704735039370076
20
-3.8213274015748029
11
5.7755229921259845
21
-3.8263768897637793
0
LINE
8
BLACK
6
CONTINUOUS
10
5.7755229921259845
20
-3.8263768897637793
11
5.7793222440944882
21
-3.8324233858267718
0
LINE
8
BLACK
6
CONTINUOUS
10
5.7793222440944882
20
-3.8324233858267718
11
5.7816807874015748
21
-3.8391637007874015
0
LINE
8
BLACK
6
CONTINUOUS
10
5.7816807874015748
20
-3.8391637007874015
11
5.7824803149606296
21
-3.846259842519685
0
LINE
8
BLACK
6
CONTINUOUS
10
5.7824803149606296
20
-3.846259842519685
11
5.7816807874015748
21
-3.8533559842519685
0
LINE
8
BLACK
6
CONTINUOUS
10
5.7816807874015748
20
-3.8533559842519685
11
5.7793222440944882
21
-3.8600962992125982
0
LINE
8
BLACK
6
CONTINUOUS
10
5.7793222440944882
20
-3.8600962992125982
11
5.7755229921259845
21
-3.8661427952755907
0
LINE
8
BLACK
6
CONTINUOUS
10
5.7755229921259845
20
-3.8661427952755907
11
5.7704735039370076
21
-3.8711922834645667
0
LINE
8
BLACK
6
CONTINUOUS
10
5.7704735039370076
20
-3.8711922834645667
11
5.7644270078740156
21
-3.8749915354330708
0
LINE
8
BLACK
6
CONTINUOUS
10
5.7644270078740156
20
-3.8749915354330708
11
5.7576866929133859
21
-3.8773500787401574
0
LINE
8
BLACK
6
CONTINUOUS
10
5.7576866929133859
20
-3.8773500787401574
11
5.7505905511811024
21
-3.8781496062992127
0
LINE
8
BLACK
6
CONTINUOUS
10
5.7505905511811024
20
-3.8781496062992127
11
5.7434944094488189
21
-3.8773500787401574
0
LINE
8
BLACK
6
CONTINUOUS
10
5.7434944094488189
20
-3.8773500787401574
11
5.7367540944881892
21
-3.8749915354330708
0
LINE
8
BLACK
6
CONTINUOUS
10
5.7367540944881892
20
-3.8749915354330708
11
5.7307075984251963
21
-3.8711922834645667
0
LINE
8
BLACK
6
CONTINUOUS
10
5.7307075984251963
20
-3.8711922834645667
11
5.7256581102362203
21
-3.8661427952755907
0
LINE
8
BLACK
6
CONTINUOUS
10
5.7256581102362203
20
-3.8661427952755907
11
5.7218588582677166
21
-3.8600962992125982
0
LINE
8
BLACK
6
CONTINUOUS
10
5.7218588582677166
20
-3.8600962992125982
11
5.71950031496063
21
-3.8533559842519685
0
LINE
8
BLACK
6
CONTINUOUS
10
5.71950031496063
20
-3.8533559842519685
11
5.7187007874015743
21
-3.846259842519685
0
LINE
8
BLACK
6
CONTINUOUS
10
5.7187007874015743
20
-3.846259842519685
11
5.71950031496063
21
-3.8391637007874015
0
LINE
8
BLACK
6
CONTINUOUS
10
5.71950031496063
20
-3.8391637007874015
11
5.7218588582677166
21
-3.8324233858267718
0
LINE
8
BLACK
6
CONTINUOUS
10
5.7218588582677166
20
-3.8324233858267718
11
5.7256581102362203
21
-3.8263768897637793
0
LINE
8
BLACK
6
CONTINUOUS
10
5.7256581102362203
20
-3.8263768897637793
11
5.7307075984251963
21
-3.8213274015748029
0
LINE
8
BLACK
6
CONTINUOUS
10
5.7307075984251963
20
-3.8213274015748029
11
5.7367540944881892
21
-3.8175281496062992
0
LINE
8
BLACK
6
CONTINUOUS
10
5.7367540944881892
20
-3.8175281496062992
11
5.7434944094488189
21
-3.8151696062992126
0
LINE
8
BLACK
6
CONTINUOUS
10
5.7434944094488189
20
-3.8151696062992126
11
5.7505905511811024
21
-3.8143700787401573
0
LINE
8
BLACK
6
CONTINUOUS
10
5.7505905511811024
20
-3.8143700787401573
11
5.7576866929133859
21
-3.8151696062992126
0
LINE
8
BLACK
6
CONTINUOUS
10
4.8103411023622042
20
-3.7681733070866139
11
4.8167322834645665
21
-3.7710188188976379
0
LINE
8
BLACK
6
CONTINUOUS
10
4.8167322834645665
20
-3.7710188188976379
11
4.8223921653543309
21
-3.7751309842519682
0
LINE
8
BLACK
6
CONTINUOUS
10
4.8223921653543309
20
-3.7751309842519682
11
4.8270733858267718
21
-3.7803300393700785
0
LINE
8
BLACK
6
CONTINUOUS
10
4.8270733858267718
20
-3.7803300393700785
11
4.8305714173228349
21
-3.7863887401574803
0
LINE
8
BLACK
6
CONTINUOUS
10
4.8305714173228349
20
-3.7863887401574803
11
4.8327332677165353
21
-3.7930423228346455
0
LINE
8
BLACK
6
CONTINUOUS
10
4.8327332677165353
20
-3.7930423228346455
11
4.8334645669291341
21
-3.7999999999999998
0
LINE
8
BLACK
6
CONTINUOUS
10
4.8334645669291341
20
-3.7999999999999998
11
4.8327332677165353
21
-3.8069576771653542
0
LINE
8
BLACK
6
CONTINUOUS
10
4.8327332677165353
20
-3.8069576771653542
11
4.8305714173228349
21
-3.8136112598425198
0
LINE
8
BLACK
6
CONTINUOUS
10
4.8305714173228349
20
-3.8136112598425198
11
4.8270733858267718
21
-3.8196699606299211
0
LINE
8
BLACK
6
CONTINUOUS
10
4.8270733858267718
20
-3.8196699606299211
11
4.8223921653543309
21
-3.8248690157480314
0
LINE
8
BLACK
6
CONTINUOUS
10
4.8223921653543309
20
-3.8248690157480314
11
4.8167322834645665
21
-3.8289811811023622
0
LINE
8
BLACK
6
CONTINUOUS
10
4.8167322834645665
20
-3.8289811811023622
11
4.8103411023622042
21
-3.8318266929133857
0
LINE
8
BLACK
6
CONTINUOUS
10
4.8103411023622042
20
-3.8318266929133857
11
4.8034979921259842
21
-3.8332812598425194
0
LINE
8
BLACK
6
CONTINUOUS
10
4.8034979921259842
20
-3.8332812598425194
11
4.7965020078740155
21
-3.8332812598425194
0
LINE
8
BLACK
6
CONTINUOUS
10
4.7965020078740155
20
-3.8332812598425194
11
4.7896588976377954
21
-3.8318266929133857
0
LINE
8
BLACK
6
CONTINUOUS
10
4.7896588976377954
20
-3.8318266929133857
11
4.7832677165354331
21
-3.8289811811023622
0
LINE
8
BLACK
6
CONTINUOUS
10
4.7832677165354331
20
-3.8289811811023622
11
4.7776078346456696
21
-3.8248690157480314
0
LINE
8
BLACK
6
CONTINUOUS
10
4.7776078346456696
20
-3.8248690157480314
11
4.7729266141732278
21
-3.8196699606299211
0
LINE
8
BLACK
6
CONTINUOUS
10
4.7729266141732278
20
-3.8196699606299211
11
4.7694285826771656
21
-3.8136112598425198
0
LINE
8
BLACK
6
CONTINUOUS
10
4.7694285826771656
20
-3.8136112598425198
11
4.7672667322834643
21
-3.8069576771653542
0
LINE
8
BLACK
6
CONTINUOUS
10
4.7672667322834643
20
-3.8069576771653542
11
4.7665354330708665
21
-3.7999999999999998
0
LINE
8
BLACK
6
CONTINUOUS
10
4.7665354330708665
20
-3.7999999999999998
11
4.7672667322834643
21
-3.7930423228346455
0
LINE
8
BLACK
6
CONTINUOUS
10
4.7672667322834643
20
-3.7930423228346455
11
4.7694285826771656
21
-3.7863887401574803
0
LINE
8
BLACK
6
CONTINUOUS
10
4.7694285826771656
20
-3.7863887401574803
11
4.7729266141732278
21
-3.7803300393700785
0
LINE
8
BLACK
6
CONTINUOUS
10
4.7729266141732278
20
-3.7803300393700785
11
4.7776078346456696
21
-3.7751309842519682
0
LINE
8
BLACK
6
CONTINUOUS
10
4.7776078346456696
20
-3.7751309842519682
11
4.7832677165354331
21
-3.7710188188976379
0
LINE
8
BLACK
6
CONTINUOUS
10
4.7832677165354331
20
-3.7710188188976379
11
4.7896588976377954
21
-3.7681733070866139
0
LINE
8
BLACK
6
CONTINUOUS
10
4.7896588976377954
20
-3.7681733070866139
11
4.7965020078740155
21
-3.7667187401574802
0
LINE
8
BLACK
6
CONTINUOUS
10
4.7965020078740155
20
-3.7667187401574802
11
4.8034979921259842
21
-3.7667187401574802
0
LINE
8
BLACK
6
CONTINUOUS
10
4.8034979921259842
20
-3.7667187401574802
11
4.8103411023622042
21
-3.7681733070866139
0
LINE
8
BLACK
6
CONTINUOUS
10
6.610341102362205
20
-3.7181733070866141
11
6.6167322834645672
21
-3.7210188188976376
0
LINE
8
BLACK
6
CONTINUOUS
10
6.6167322834645672
20
-3.7210188188976376
11
6.6223921653543307
21
-3.7251309842519684
0
LINE
8
BLACK
6
CONTINUOUS
10
6.6223921653543307
20
-3.7251309842519684
11
6.6270733858267716
21
-3.7303300393700787
0
LINE
8
BLACK
6
CONTINUOUS
10
6.6270733858267716
20
-3.7303300393700787
11
6.6305714173228347
21
-3.73638874015748
0
LINE
8
BLACK
6
CONTINUOUS
10
6.6305714173228347
20
-3.73638874015748
11
6.6327332677165352
21
-3.7430423228346457
0
LINE
8
BLACK
6
CONTINUOUS
10
6.6327332677165352
20
-3.7430423228346457
11
6.6334645669291339
21
-3.75
0
LINE
8
BLACK
6
CONTINUOUS
10
6.6334645669291339
20
-3.75
11
6.6327332677165352
21
-3.7569576771653543
0
LINE
8
BLACK
6
CONTINUOUS
10
6.6327332677165352
20
-3.7569576771653543
11
6.6305714173228347
21
-3.7636112598425195
0
LINE
8
BLACK
6
CONTINUOUS
10
6.6305714173228347
20
-3.7636112598425195
11
6.6270733858267716
21
-3.7696699606299213
0
LINE
8
BLACK
6
CONTINUOUS
10
6.6270733858267716
20
-3.7696699606299213
11
6.6223921653543307
21
-3.7748690157480316
0
LINE
8
BLACK
6
CONTINUOUS
10
6.6223921653543307
20
-3.7748690157480316
11
6.6167322834645672
21
-3.7789811811023619
0
LINE
8
BLACK
6
CONTINUOUS
10
6.6167322834645672
20
-3.7789811811023619
11
6.610341102362205
21
-3.7818266929133859
0
LINE
8
BLACK
6
CONTINUOUS
10
6.610341102362205
20
-3.7818266929133859
11
6.603497992125984
21
-3.7832812598425196
0
LINE
8
BLACK
6
CONTINUOUS
10
6.603497992125984
20
-3.7832812598425196
11
6.5965020078740153
21
-3.7832812598425196
0
LINE
8
BLACK
6
CONTINUOUS
10
6.5965020078740153
20
-3.7832812598425196
11
6.5896588976377952
21
-3.7818266929133859
0
LINE
8
BLACK
6
CONTINUOUS
10
6.5896588976377952
20
-3.7818266929133859
11
6.583267716535433
21
-3.7789811811023619
0
LINE
8
BLACK
6
CONTINUOUS
10
6.583267716535433
20
-3.7789811811023619
11
6.5776078346456694
21
-3.7748690157480316
0
LINE
8
BLACK
6
CONTINUOUS
10
6.5776078346456694
20
-3.7748690157480316
11
6.5729266141732285
21
-3.7696699606299213
0
LINE
8
BLACK
6
CONTINUOUS
10
6.5729266141732285
20
-3.7696699606299213
11
6.5694285826771655
21
-3.7636112598425195
0
LINE
8
BLACK
6
CONTINUOUS
10
6.5694285826771655
20
-3.7636112598425195
11
6.5672667322834641
21
-3.7569576771653543
0
LINE
8
BLACK
6
CONTINUOUS
10
6.5672667322834641
20
-3.7569576771653543
11
6.5665354330708663
21
-3.75
0
LINE
8
BLACK
6
CONTINUOUS
10
6.5665354330708663
20
-3.75
11
6.5672667322834641
21
-3.7430423228346457
0
LINE
8
BLACK
6
CONTINUOUS
10
6.5672667322834641
20
-3.7430423228346457
11
6.5694285826771655
21
-3.73638874015748
0
LINE
8
BLACK
6
CONTINUOUS
10
6.5694285826771655
20
-3.73638874015748
11
6.5729266141732285
21
-3.7303300393700787
0
LINE
8
BLACK
6
CONTINUOUS
10
6.5729266141732285
20
-3.7303300393700787
11
6.5776078346456694
21
-3.7251309842519684
0
LINE
8
BLACK
6
CONTINUOUS
10
6.5776078346456694
20
-3.7251309842519684
11
6.583267716535433
21
-3.7210188188976376
0
LINE
8
BLACK
6
CONTINUOUS
10
6.583267716535433
20
-3.7210188188976376
11
6.5896588976377952
21
-3.7181733070866141
0
LINE
8
BLACK
6
CONTINUOUS
10
6.5896588976377952
20
-3.7181733070866141
11
6.5965020078740153
21
-3.7167187401574804
0
LINE
8
BLACK
6
CONTINUOUS
10
6.5965020078740153
20
-3.7167187401574804
11
6.603497992125984
21
-3.7167187401574804
0
LINE
8
BLACK
6
CONTINUOUS
10
6.603497992125984
20
-3.7167187401574804
11
6.610341102362205
21
-3.7181733070866141
0
LINE
8
BLACK
6
CONTINUOUS
10
4.8103411023622042
20
-3.6681733070866143
11
4.8167322834645665
21
-3.6710188188976378
0
LINE
8
BLACK
6
CONTINUOUS
10
4.8167322834645665
20
-3.6710188188976378
11
4.8223921653543309
21
-3.6751309842519686
0
LINE
8
BLACK
6
CONTINUOUS
10
4.8223921653543309
20
-3.6751309842519686
11
4.8270733858267718
21
-3.6803300393700789
0
LINE
8
BLACK
6
CONTINUOUS
10
4.8270733858267718
20
-3.6803300393700789
11
4.8305714173228349
21
-3.6863887401574802
0
LINE
8
BLACK
6
CONTINUOUS
10
4.8305714173228349
20
-3.6863887401574802
11
4.8327332677165353
21
-3.6930423228346454
0
LINE
8
BLACK
6
CONTINUOUS
10
4.8327332677165353
20
-3.6930423228346454
11
4.8334645669291341
21
-3.6999999999999997
0
LINE
8
BLACK
6
CONTINUOUS
10
4.8334645669291341
20
-3.6999999999999997
11
4.8327332677165353
21
-3.7069576771653541
0
LINE
8
BLACK
6
CONTINUOUS
10
4.8327332677165353
20
-3.7069576771653541
11
4.8305714173228349
21
-3.7136112598425197
0
LINE
8
BLACK
6
CONTINUOUS
10
4.8305714173228349
20
-3.7136112598425197
11
4.8270733858267718
21
-3.7196699606299211
0
LINE
8
BLACK
6
CONTINUOUS
10
4.8270733858267718
20
-3.7196699606299211
11
4.8223921653543309
21
-3.7248690157480313
0
LINE
8
BLACK
6
CONTINUOUS
10
4.8223921653543309
20
-3.7248690157480313
11
4.8167322834645665
21
-3.7289811811023621
0
LINE
8
BLACK
6
CONTINUOUS
10
4.8167322834645665
20
-3.7289811811023621
11
4.8103411023622042
21
-3.7318266929133856
0
LINE
8
BLACK
6
CONTINUOUS
10
4.8103411023622042
20
-3.7318266929133856
11
4.8034979921259842
21
-3.7332812598425198
0
LINE
8
BLACK
6
CONTINUOUS
10
4.8034979921259842
20
-3.7332812598425198
11
4.7965020078740155
21
-3.7332812598425198
0
LINE
8
BLACK
6
CONTINUOUS
10
4.7965020078740155
20
-3.7332812598425198
11
4.7896588976377954
21
-3.7318266929133856
0
LINE
8
BLACK
6
CONTINUOUS
10
4.7896588976377954
20
-3.7318266929133856
11
4.7832677165354331
21
-3.7289811811023621
0
LINE
8
BLACK
6
CONTINUOUS
10
4.7832677165354331
20
-3.7289811811023621
11
4.7776078346456696
21
-3.7248690157480313
0
LINE
8
BLACK
6
CONTINUOUS
10
4.7776078346456696
20
-3.7248690157480313
11
4.7729266141732278
21
-3.7196699606299211
0
LINE
8
BLACK
6
CONTINUOUS
10
4.7729266141732278
20
-3.7196699606299211
11
4.7694285826771656
21
-3.7136112598425197
0
LINE
8
BLACK
6
CONTINUOUS
10
4.7694285826771656
20
-3.7136112598425197
11
4.7672667322834643
21
-3.7069576771653541
0
LINE
8
BLACK
6
CONTINUOUS
10
4.7672667322834643
20
-3.7069576771653541
11
4.7665354330708665
21
-3.6999999999999997
0
LINE
8
BLACK
6
CONTINUOUS
10
4.7665354330708665
20
-3.6999999999999997
11
4.7672667322834643
21
-3.6930423228346454
0
LINE
8
BLACK
6
CONTINUOUS
10
4.7672667322834643
20
-3.6930423228346454
11
4.7694285826771656
21
-3.6863887401574802
0
LINE
8
BLACK
6
CONTINUOUS
10
4.7694285826771656
20
-3.6863887401574802
11
4.7729266141732278
21
-3.6803300393700789
0
LINE
8
BLACK
6
CONTINUOUS
10
4.7729266141732278
20
-3.6803300393700789
11
4.7776078346456696
21
-3.6751309842519686
0
LINE
8
BLACK
6
CONTINUOUS
10
4.7776078346456696
20
-3.6751309842519686
11
4.7832677165354331
21
-3.6710188188976378
0
LINE
8
BLACK
6
CONTINUOUS
10
4.7832677165354331
20
-3.6710188188976378
11
4.7896588976377954
21
-3.6681733070866143
0
LINE
8
BLACK
6
CONTINUOUS
10
4.7896588976377954
20
-3.6681733070866143
11
4.7965020078740155
21
-3.6667187401574801
0
LINE
8
BLACK
6
CONTINUOUS
10
4.7965020078740155
20
-3.6667187401574801
11
4.8034979921259842
21
-3.6667187401574801
0
LINE
8
BLACK
6
CONTINUOUS
10
4.8034979921259842
20
-3.6667187401574801
11
4.8103411023622042
21
-3.6681733070866143
0
LINE
8
BLACK
6
CONTINUOUS
10
6.610341102362205
20
-3.618173307086614
11
6.6167322834645672
21
-3.6210188188976375
0
LINE
8
BLACK
6
CONTINUOUS
10
6.6167322834645672
20
-3.6210188188976375
11
6.6223921653543307
21
-3.6251309842519683
0
LINE
8
BLACK
6
CONTINUOUS
10
6.6223921653543307
20
-3.6251309842519683
11
6.6270733858267716
21
-3.6303300393700786
0
LINE
8
BLACK
6
CONTINUOUS
10
6.6270733858267716
20
-3.6303300393700786
11
6.6305714173228347
21
-3.6363887401574804
0
LINE
8
BLACK
6
CONTINUOUS
10
6.6305714173228347
20
-3.6363887401574804
11
6.6327332677165352
21
-3.6430423228346456
0
LINE
8
BLACK
6
CONTINUOUS
10
6.6327332677165352
20
-3.6430423228346456
11
6.6334645669291339
21
-3.6499999999999999
0
LINE
8
BLACK
6
CONTINUOUS
10
6.6334645669291339
20
-3.6499999999999999
11
6.6327332677165352
21
-3.6569576771653542
0
LINE
8
BLACK
6
CONTINUOUS
10
6.6327332677165352
20
-3.6569576771653542
11
6.6305714173228347
21
-3.6636112598425195
0
LINE
8
BLACK
6
CONTINUOUS
10
6.6305714173228347
20
-3.6636112598425195
11
6.6270733858267716
21
-3.6696699606299212
0
LINE
8
BLACK
6
CONTINUOUS
10
6.6270733858267716
20
-3.6696699606299212
11
6.6223921653543307
21
-3.6748690157480315
0
LINE
8
BLACK
6
CONTINUOUS
10
6.6223921653543307
20
-3.6748690157480315
11
6.6167322834645672
21
-3.6789811811023623
0
LINE
8
BLACK
6
CONTINUOUS
10
6.6167322834645672
20
-3.6789811811023623
11
6.610341102362205
21
-3.6818266929133858
0
LINE
8
BLACK
6
CONTINUOUS
10
6.610341102362205
20
-3.6818266929133858
11
6.603497992125984
21
-3.6832812598425195
0
LINE
8
BLACK
6
CONTINUOUS
10
6.603497992125984
20
-3.6832812598425195
11
6.5965020078740153
21
-3.6832812598425195
0
LINE
8
BLACK
6
CONTINUOUS
10
6.5965020078740153
20
-3.6832812598425195
11
6.5896588976377952
21
-3.6818266929133858
0
LINE
8
BLACK
6
CONTINUOUS
10
6.5896588976377952
20
-3.6818266929133858
11
6.583267716535433
21
-3.6789811811023623
0
LINE
8
BLACK
6
CONTINUOUS
10
6.583267716535433
20
-3.6789811811023623
11
6.5776078346456694
21
-3.6748690157480315
0
LINE
8
BLACK
6
CONTINUOUS
10
6.5776078346456694
20
-3.6748690157480315
11
6.5729266141732285
21
-3.6696699606299212
0
LINE
8
BLACK
6
CONTINUOUS
10
6.5729266141732285
20
-3.6696699606299212
11
6.5694285826771655
21
-3.6636112598425195
0
LINE
8
BLACK
6
CONTINUOUS
10
6.5694285826771655
20
-3.6636112598425195
11
6.5672667322834641
21
-3.6569576771653542
0
LINE
8
BLACK
6
CONTINUOUS
10
6.5672667322834641
20
-3.6569576771653542
11
6.5665354330708663
21
-3.6499999999999999
0
LINE
8
BLACK
6
CONTINUOUS
10
6.5665354330708663
20
-3.6499999999999999
11
6.5672667322834641
21
-3.6430423228346456
0
LINE
8
BLACK
6
CONTINUOUS
10
6.5672667322834641
20
-3.6430423228346456
11
6.5694285826771655
21
-3.6363887401574804
0
LINE
8
BLACK
6
CONTINUOUS
10
6.5694285826771655
20
-3.6363887401574804
11
6.5729266141732285
21
-3.6303300393700786
0
LINE
8
BLACK
6
CONTINUOUS
10
6.5729266141732285
20
-3.6303300393700786
11
6.5776078346456694
21
-3.6251309842519683
0
LINE
8
BLACK
6
CONTINUOUS
10
6.5776078346456694
20
-3.6251309842519683
11
6.583267716535433
21
-3.6210188188976375
0
LINE
8
BLACK
6
CONTINUOUS
10
6.583267716535433
20
-3.6210188188976375
11
6.5896588976377952
21
-3.618173307086614
0
LINE
8
BLACK
6
CONTINUOUS
10
6.5896588976377952
20
-3.618173307086614
11
6.5965020078740153
21
-3.6167187401574803
0
LINE
8
BLACK
6
CONTINUOUS
10
6.5965020078740153
20
-3.6167187401574803
11
6.603497992125984
21
-3.6167187401574803
0
LINE
8
BLACK
6
CONTINUOUS
10
6.603497992125984
20
-3.6167187401574803
11
6.610341102362205
21
-3.618173307086614
0
LINE
8
BLACK
6
CONTINUOUS
10
4.8103411023622042
20
-3.5681733070866142
11
4.8167322834645665
21
-3.5710188188976377
0
LINE
8
BLACK
6
CONTINUOUS
10
4.8167322834645665
20
-3.5710188188976377
11
4.8223921653543309
21
-3.5751309842519685
0
LINE
8
BLACK
6
CONTINUOUS
10
4.8223921653543309
20
-3.5751309842519685
11
4.8270733858267718
21
-3.5803300393700788
0
LINE
8
BLACK
6
CONTINUOUS
10
4.8270733858267718
20
-3.5803300393700788
11
4.8305714173228349
21
-3.5863887401574801
0
LINE
8
BLACK
6
CONTINUOUS
10
4.8305714173228349
20
-3.5863887401574801
11
4.8327332677165353
21
-3.5930423228346458
0
LINE
8
BLACK
6
CONTINUOUS
10
4.8327332677165353
20
-3.5930423228346458
11
4.8334645669291341
21
-3.6000000000000001
0
LINE
8
BLACK
6
CONTINUOUS
10
4.8334645669291341
20
-3.6000000000000001
11
4.8327332677165353
21
-3.6069576771653544
0
LINE
8
BLACK
6
CONTINUOUS
10
4.8327332677165353
20
-3.6069576771653544
11
4.8305714173228349
21
-3.6136112598425196
0
LINE
8
BLACK
6
CONTINUOUS
10
4.8305714173228349
20
-3.6136112598425196
11
4.8270733858267718
21
-3.619669960629921
0
LINE
8
BLACK
6
CONTINUOUS
10
4.8270733858267718
20
-3.619669960629921
11
4.8223921653543309
21
-3.6248690157480312
0
LINE
8
BLACK
6
CONTINUOUS
10
4.8223921653543309
20
-3.6248690157480312
11
4.8167322834645665
21
-3.628981181102362
0
LINE
8
BLACK
6
CONTINUOUS
10
4.8167322834645665
20
-3.628981181102362
11
4.8103411023622042
21
-3.6318266929133856
0
LINE
8
BLACK
6
CONTINUOUS
10
4.8103411023622042
20
-3.6318266929133856
11
4.8034979921259842
21
-3.6332812598425197
0
LINE
8
BLACK
6
CONTINUOUS
10
4.8034979921259842
20
-3.6332812598425197
11
4.7965020078740155
21
-3.6332812598425197
0
LINE
8
BLACK
6
CONTINUOUS
10
4.7965020078740155
20
-3.6332812598425197
11
4.7896588976377954
21
-3.6318266929133856
0
LINE
8
BLACK
6
CONTINUOUS
10
4.7896588976377954
20
-3.6318266929133856
11
4.7832677165354331
21
-3.628981181102362
0
LINE
8
BLACK
6
CONTINUOUS
10
4.7832677165354331
20
-3.628981181102362
11
4.7776078346456696
21
-3.6248690157480312
0
LINE
8
BLACK
6
CONTINUOUS
10
4.7776078346456696
20
-3.6248690157480312
11
4.7729266141732278
21
-3.619669960629921
0
LINE
8
BLACK
6
CONTINUOUS
10
4.7729266141732278
20
-3.619669960629921
11
4.7694285826771656
21
-3.6136112598425196
0
LINE
8
BLACK
6
CONTINUOUS
10
4.7694285826771656
20
-3.6136112598425196
11
4.7672667322834643
21
-3.6069576771653544
0
LINE
8
BLACK
6
CONTINUOUS
10
4.7672667322834643
20
-3.6069576771653544
11
4.7665354330708665
21
-3.6000000000000001
0
LINE
8
BLACK
6
CONTINUOUS
10
4.7665354330708665
20
-3.6000000000000001
11
4.7672667322834643
21
-3.5930423228346458
0
LINE
8
BLACK
6
CONTINUOUS
10
4.7672667322834643
20
-3.5930423228346458
11
4.7694285826771656
21
-3.5863887401574801
0
LINE
8
BLACK
6
CONTINUOUS
10
4.7694285826771656
20
-3.5863887401574801
11
4.7729266141732278
21
-3.5803300393700788
0
LINE
8
BLACK
6
CONTINUOUS
10
4.7729266141732278
20
-3.5803300393700788
11
4.7776078346456696
21
-3.5751309842519685
0
LINE
8
BLACK
6
CONTINUOUS
10
4.7776078346456696
20
-3.5751309842519685
11
4.7832677165354331
21
-3.5710188188976377
0
LINE
8
BLACK
6
CONTINUOUS
10
4.7832677165354331
20
-3.5710188188976377
11
4.7896588976377954
21
-3.5681733070866142
0
LINE
8
BLACK
6
CONTINUOUS
10
4.7896588976377954
20
-3.5681733070866142
11
4.7965020078740155
21
-3.56671874015748
0
LINE
8
BLACK
6
CONTINUOUS
10
4.7965020078740155
20
-3.56671874015748
11
4.8034979921259842
21
-3.56671874015748
0
LINE
8
BLACK
6
CONTINUOUS
10
4.8034979921259842
20
-3.56671874015748
11
4.8103411023622042
21
-3.5681733070866142
0
LINE
8
BLACK
6
CONTINUOUS
10
6.610341102362205
20
-3.5181733070866139
11
6.6167322834645672
21
-3.5210188188976379
0
LINE
8
BLACK
6
CONTINUOUS
10
6.6167322834645672
20
-3.5210188188976379
11
6.6223921653543307
21
-3.5251309842519682
0
LINE
8
BLACK
6
CONTINUOUS
10
6.6223921653543307
20
-3.5251309842519682
11
6.6270733858267716
21
-3.5303300393700785
0
LINE
8
BLACK
6
CONTINUOUS
10
6.6270733858267716
20
-3.5303300393700785
11
6.6305714173228347
21
-3.5363887401574803
0
LINE
8
BLACK
6
CONTINUOUS
10
6.6305714173228347
20
-3.5363887401574803
11
6.6327332677165352
21
-3.5430423228346455
0
LINE
8
BLACK
6
CONTINUOUS
10
6.6327332677165352
20
-3.5430423228346455
11
6.6334645669291339
21
-3.5499999999999998
0
LINE
8
BLACK
6
CONTINUOUS
10
6.6334645669291339
20
-3.5499999999999998
11
6.6327332677165352
21
-3.5569576771653542
0
LINE
8
BLACK
6
CONTINUOUS
10
6.6327332677165352
20
-3.5569576771653542
11
6.6305714173228347
21
-3.5636112598425198
0
LINE
8
BLACK
6
CONTINUOUS
10
6.6305714173228347
20
-3.5636112598425198
11
6.6270733858267716
21
-3.5696699606299211
0
LINE
8
BLACK
6
CONTINUOUS
10
6.6270733858267716
20
-3.5696699606299211
11
6.6223921653543307
21
-3.5748690157480314
0
LINE
8
BLACK
6
CONTINUOUS
10
6.6223921653543307
20
-3.5748690157480314
11
6.6167322834645672
21
-3.5789811811023622
0
LINE
8
BLACK
6
CONTINUOUS
10
6.6167322834645672
20
-3.5789811811023622
11
6.610341102362205
21
-3.5818266929133857
0
LINE
8
BLACK
6
CONTINUOUS
10
6.610341102362205
20
-3.5818266929133857
11
6.603497992125984
21
-3.5832812598425194
0
LINE
8
BLACK
6
CONTINUOUS
10
6.603497992125984
20
-3.5832812598425194
11
6.5965020078740153
21
-3.5832812598425194
0
LINE
8
BLACK
6
CONTINUOUS
10
6.5965020078740153
20
-3.5832812598425194
11
6.5896588976377952
21
-3.5818266929133857
0
LINE
8
BLACK
6
CONTINUOUS
10
6.5896588976377952
20
-3.5818266929133857
11
6.583267716535433
21
-3.5789811811023622
0
LINE
8
BLACK
6
CONTINUOUS
10
6.583267716535433
20
-3.5789811811023622
11
6.5776078346456694
21
-3.5748690157480314
0
LINE
8
BLACK
6
CONTINUOUS
10
6.5776078346456694
20
-3.5748690157480314
11
6.5729266141732285
21
-3.5696699606299211
0
LINE
8
BLACK
6
CONTINUOUS
10
6.5729266141732285
20
-3.5696699606299211
11
6.5694285826771655
21
-3.5636112598425198
0
LINE
8
BLACK
6
CONTINUOUS
10
6.5694285826771655
20
-3.5636112598425198
11
6.5672667322834641
21
-3.5569576771653542
0
LINE
8
BLACK
6
CONTINUOUS
10
6.5672667322834641
20
-3.5569576771653542
11
6.5665354330708663
21
-3.5499999999999998
0
LINE
8
BLACK
6
CONTINUOUS
10
6.5665354330708663
20
-3.5499999999999998
11
6.5672667322834641
21
-3.5430423228346455
0
LINE
8
BLACK
6
CONTINUOUS
10
6.5672667322834641
20
-3.5430423228346455
11
6.5694285826771655
21
-3.5363887401574803
0
LINE
8
BLACK
6
CONTINUOUS
10
6.5694285826771655
20
-3.5363887401574803
11
6.5729266141732285
21
-3.5303300393700785
0
LINE
8
BLACK
6
CONTINUOUS
10
6.5729266141732285
20
-3.5303300393700785
11
6.5776078346456694
21
-3.5251309842519682
0
LINE
8
BLACK
6
CONTINUOUS
10
6.5776078346456694
20
-3.5251309842519682
11
6.583267716535433
21
-3.5210188188976379
0
LINE
8
BLACK
6
CONTINUOUS
10
6.583267716535433
20
-3.5210188188976379
11
6.5896588976377952
21
-3.5181733070866139
0
LINE
8
BLACK
6
CONTINUOUS
10
6.5896588976377952
20
-3.5181733070866139
11
6.5965020078740153
21
-3.5167187401574802
0
LINE
8
BLACK
6
CONTINUOUS
10
6.5965020078740153
20
-3.5167187401574802
11
6.603497992125984
21
-3.5167187401574802
0
LINE
8
BLACK
6
CONTINUOUS
10
6.603497992125984
20
-3.5167187401574802
11
6.610341102362205
21
-3.5181733070866139
0
LINE
8
BLACK
6
CONTINUOUS
10
4.8103411023622042
20
-3.4681733070866141
11
4.8167322834645665
21
-3.4710188188976376
0
LINE
8
BLACK
6
CONTINUOUS
10
4.8167322834645665
20
-3.4710188188976376
11
4.8223921653543309
21
-3.4751309842519684
0
LINE
8
BLACK
6
CONTINUOUS
10
4.8223921653543309
20
-3.4751309842519684
11
4.8270733858267718
21
-3.4803300393700787
0
LINE
8
BLACK
6
CONTINUOUS
10
4.8270733858267718
20
-3.4803300393700787
11
4.8305714173228349
21
-3.48638874015748
0
LINE
8
BLACK
6
CONTINUOUS
10
4.8305714173228349
20
-3.48638874015748
11
4.8327332677165353
21
-3.4930423228346457
0
LINE
8
BLACK
6
CONTINUOUS
10
4.8327332677165353
20
-3.4930423228346457
11
4.8334645669291341
21
-3.5
0
LINE
8
BLACK
6
CONTINUOUS
10
4.8334645669291341
20
-3.5
11
4.8327332677165353
21
-3.5069576771653543
0
LINE
8
BLACK
6
CONTINUOUS
10
4.8327332677165353
20
-3.5069576771653543
11
4.8305714173228349
21
-3.5136112598425195
0
LINE
8
BLACK
6
CONTINUOUS
10
4.8305714173228349
20
-3.5136112598425195
11
4.8270733858267718
21
-3.5196699606299213
0
LINE
8
BLACK
6
CONTINUOUS
10
4.8270733858267718
20
-3.5196699606299213
11
4.8223921653543309
21
-3.5248690157480316
0
LINE
8
BLACK
6
CONTINUOUS
10
4.8223921653543309
20
-3.5248690157480316
11
4.8167322834645665
21
-3.5289811811023619
0
LINE
8
BLACK
6
CONTINUOUS
10
4.8167322834645665
20
-3.5289811811023619
11
4.8103411023622042
21
-3.5318266929133859
0
LINE
8
BLACK
6
CONTINUOUS
10
4.8103411023622042
20
-3.5318266929133859
11
4.8034979921259842
21
-3.5332812598425196
0
LINE
8
BLACK
6
CONTINUOUS
10
4.8034979921259842
20
-3.5332812598425196
11
4.7965020078740155
21
-3.5332812598425196
0
LINE
8
BLACK
6
CONTINUOUS
10
4.7965020078740155
20
-3.5332812598425196
11
4.7896588976377954
21
-3.5318266929133859
0
LINE
8
BLACK
6
CONTINUOUS
10
4.7896588976377954
20
-3.5318266929133859
11
4.7832677165354331
21
-3.5289811811023619
0
LINE
8
BLACK
6
CONTINUOUS
10
4.7832677165354331
20
-3.5289811811023619
11
4.7776078346456696
21
-3.5248690157480316
0
LINE
8
BLACK
6
CONTINUOUS
10
4.7776078346456696
20
-3.5248690157480316
11
4.7729266141732278
21
-3.5196699606299213
0
LINE
8
BLACK
6
CONTINUOUS
10
4.7729266141732278
20
-3.5196699606299213
11
4.7694285826771656
21
-3.5136112598425195
0
LINE
8
BLACK
6
CONTINUOUS
10
4.7694285826771656
20
-3.5136112598425195
11
4.7672667322834643
21
-3.5069576771653543
0
LINE
8
BLACK
6
CONTINUOUS
10
4.7672667322834643
20
-3.5069576771653543
11
4.7665354330708665
21
-3.5
0
LINE
8
BLACK
6
CONTINUOUS
10
4.7665354330708665
20
-3.5
11
4.7672667322834643
21
-3.4930423228346457
0
LINE
8
BLACK
6
CONTINUOUS
10
4.7672667322834643
20
-3.4930423228346457
11
4.7694285826771656
21
-3.48638874015748
0
LINE
8
BLACK
6
CONTINUOUS
10
4.7694285826771656
20
-3.48638874015748
11
4.7729266141732278
21
-3.4803300393700787
0
LINE
8
BLACK
6
CONTINUOUS
10
4.7729266141732278
20
-3.4803300393700787
11
4.7776078346456696
21
-3.4751309842519684
0
LINE
8
BLACK
6
CONTINUOUS
10
4.7776078346456696
20
-3.4751309842519684
11
4.7832677165354331
21
-3.4710188188976376
0
LINE
8
BLACK
6
CONTINUOUS
10
4.7832677165354331
20
-3.4710188188976376
11
4.7896588976377954
21
-3.4681733070866141
0
LINE
8
BLACK
6
CONTINUOUS
10
4.7896588976377954
20
-3.4681733070866141
11
4.7965020078740155
21
-3.4667187401574804
0
LINE
8
BLACK
6
CONTINUOUS
10
4.7965020078740155
20
-3.4667187401574804
11
4.8034979921259842
21
-3.4667187401574804
0
LINE
8
BLACK
6
CONTINUOUS
10
4.8034979921259842
20
-3.4667187401574804
11
4.8103411023622042
21
-3.4681733070866141
0
LINE
8
BLACK
6
CONTINUOUS
10
6.610341102362205
20
-3.4181733070866143
11
6.6167322834645672
21
-3.4210188188976378
0
LINE
8
BLACK
6
CONTINUOUS
10
6.6167322834645672
20
-3.4210188188976378
11
6.6223921653543307
21
-3.4251309842519686
0
LINE
8
BLACK
6
CONTINUOUS
10
6.6223921653543307
20
-3.4251309842519686
11
6.6270733858267716
21
-3.4303300393700789
0
LINE
8
BLACK
6
CONTINUOUS
10
6.6270733858267716
20
-3.4303300393700789
11
6.6305714173228347
21
-3.4363887401574802
0
LINE
8
BLACK
6
CONTINUOUS
10
6.6305714173228347
20
-3.4363887401574802
11
6.6327332677165352
21
-3.4430423228346454
0
LINE
8
BLACK
6
CONTINUOUS
10
6.6327332677165352
20
-3.4430423228346454
11
6.6334645669291339
21
-3.4499999999999997
0
LINE
8
BLACK
6
CONTINUOUS
10
6.6334645669291339
20
-3.4499999999999997
11
6.6327332677165352
21
-3.4569576771653541
0
LINE
8
BLACK
6
CONTINUOUS
10
6.6327332677165352
20
-3.4569576771653541
11
6.6305714173228347
21
-3.4636112598425197
0
LINE
8
BLACK
6
CONTINUOUS
10
6.6305714173228347
20
-3.4636112598425197
11
6.6270733858267716
21
-3.4696699606299211
0
LINE
8
BLACK
6
CONTINUOUS
10
6.6270733858267716
20
-3.4696699606299211
11
6.6223921653543307
21
-3.4748690157480313
0
LINE
8
BLACK
6
CONTINUOUS
10
6.6223921653543307
20
-3.4748690157480313
11
6.6167322834645672
21
-3.4789811811023621
0
LINE
8
BLACK
6
CONTINUOUS
10
6.6167322834645672
20
-3.4789811811023621
11
6.610341102362205
21
-3.4818266929133856
0
LINE
8
BLACK
6
CONTINUOUS
10
6.610341102362205
20
-3.4818266929133856
11
6.603497992125984
21
-3.4832812598425198
0
LINE
8
BLACK
6
CONTINUOUS
10
6.603497992125984
20
-3.4832812598425198
11
6.5965020078740153
21
-3.4832812598425198
0
LINE
8
BLACK
6
CONTINUOUS
10
6.5965020078740153
20
-3.4832812598425198
11
6.5896588976377952
21
-3.4818266929133856
0
LINE
8
BLACK
6
CONTINUOUS
10
6.5896588976377952
20
-3.4818266929133856
11
6.583267716535433
21
-3.4789811811023621
0
LINE
8
BLACK
6
CONTINUOUS
10
6.583267716535433
20
-3.4789811811023621
11
6.5776078346456694
21
-3.4748690157480313
0
LINE
8
BLACK
6
CONTINUOUS
10
6.5776078346456694
20
-3.4748690157480313
11
6.5729266141732285
21
-3.4696699606299211
0
LINE
8
BLACK
6
CONTINUOUS
10
6.5729266141732285
20
-3.4696699606299211
11
6.5694285826771655
21
-3.4636112598425197
0
LINE
8
BLACK
6
CONTINUOUS
10
6.5694285826771655
20
-3.4636112598425197
11
6.5672667322834641
21
-3.4569576771653541
0
LINE
8
BLACK
6
CONTINUOUS
10
6.5672667322834641
20
-3.4569576771653541
11
6.5665354330708663
21
-3.4499999999999997
0
LINE
8
BLACK
6
CONTINUOUS
10
6.5665354330708663
20
-3.4499999999999997
11
6.5672667322834641
21
-3.4430423228346454
0
LINE
8
BLACK
6
CONTINUOUS
10
6.5672667322834641
20
-3.4430423228346454
11
6.5694285826771655
21
-3.4363887401574802
0
LINE
8
BLACK
6
CONTINUOUS
10
6.5694285826771655
20
-3.4363887401574802
11
6.5729266141732285
21
-3.4303300393700789
0
LINE
8
BLACK
6
CONTINUOUS
10
6.5729266141732285
20
-3.4303300393700789
11
6.5776078346456694
21
-3.4251309842519686
0
LINE
8
BLACK
6
CONTINUOUS
10
6.5776078346456694
20
-3.4251309842519686
11
6.583267716535433
21
-3.4210188188976378
0
LINE
8
BLACK
6
CONTINUOUS
10
6.583267716535433
20
-3.4210188188976378
11
6.5896588976377952
21
-3.4181733070866143
0
LINE
8
BLACK
6
CONTINUOUS
10
6.5896588976377952
20
-3.4181733070866143
11
6.5965020078740153
21
-3.4167187401574801
0
LINE
8
BLACK
6
CONTINUOUS
10
6.5965020078740153
20
-3.4167187401574801
11
6.603497992125984
21
-3.4167187401574801
0
LINE
8
BLACK
6
CONTINUOUS
10
6.603497992125984
20
-3.4167187401574801
11
6.610341102362205
21
-3.4181733070866143
0
LINE
8
BLACK
6
CONTINUOUS
10
4.8103411023622042
20
-3.368173307086614
11
4.8167322834645665
21
-3.3710188188976375
0
LINE
8
BLACK
6
CONTINUOUS
10
4.8167322834645665
20
-3.3710188188976375
11
4.8223921653543309
21
-3.3751309842519683
0
LINE
8
BLACK
6
CONTINUOUS
10
4.8223921653543309
20
-3.3751309842519683
11
4.8270733858267718
21
-3.3803300393700786
0
LINE
8
BLACK
6
CONTINUOUS
10
4.8270733858267718
20
-3.3803300393700786
11
4.8305714173228349
21
-3.3863887401574804
0
LINE
8
BLACK
6
CONTINUOUS
10
4.8305714173228349
20
-3.3863887401574804
11
4.8327332677165353
21
-3.3930423228346456
0
LINE
8
BLACK
6
CONTINUOUS
10
4.8327332677165353
20
-3.3930423228346456
11
4.8334645669291341
21
-3.3999999999999999
0
LINE
8
BLACK
6
CONTINUOUS
10
4.8334645669291341
20
-3.3999999999999999
11
4.8327332677165353
21
-3.4069576771653542
0
LINE
8
BLACK
6
CONTINUOUS
10
4.8327332677165353
20
-3.4069576771653542
11
4.8305714173228349
21
-3.4136112598425195
0
LINE
8
BLACK
6
CONTINUOUS
10
4.8305714173228349
20
-3.4136112598425195
11
4.8270733858267718
21
-3.4196699606299212
0
LINE
8
BLACK
6
CONTINUOUS
10
4.8270733858267718
20
-3.4196699606299212
11
4.8223921653543309
21
-3.4248690157480315
0
LINE
8
BLACK
6
CONTINUOUS
10
4.8223921653543309
20
-3.4248690157480315
11
4.8167322834645665
21
-3.4289811811023623
0
LINE
8
BLACK
6
CONTINUOUS
10
4.8167322834645665
20
-3.4289811811023623
11
4.8103411023622042
21
-3.4318266929133858
0
LINE
8
BLACK
6
CONTINUOUS
10
4.8103411023622042
20
-3.4318266929133858
11
4.8034979921259842
21
-3.4332812598425195
0
LINE
8
BLACK
6
CONTINUOUS
10
4.8034979921259842
20
-3.4332812598425195
11
4.7965020078740155
21
-3.4332812598425195
0
LINE
8
BLACK
6
CONTINUOUS
10
4.7965020078740155
20
-3.4332812598425195
11
4.7896588976377954
21
-3.4318266929133858
0
LINE
8
BLACK
6
CONTINUOUS
10
4.7896588976377954
20
-3.4318266929133858
11
4.7832677165354331
21
-3.4289811811023623
0
LINE
8
BLACK
6
CONTINUOUS
10
4.7832677165354331
20
-3.4289811811023623
11
4.7776078346456696
21
-3.4248690157480315
0
LINE
8
BLACK
6
CONTINUOUS
10
4.7776078346456696
20
-3.4248690157480315
11
4.7729266141732278
21
-3.4196699606299212
0
LINE
8
BLACK
6
CONTINUOUS
10
4.7729266141732278
20
-3.4196699606299212
11
4.7694285826771656
21
-3.4136112598425195
0
LINE
8
BLACK
6
CONTINUOUS
10
4.7694285826771656
20
-3.4136112598425195
11
4.7672667322834643
21
-3.4069576771653542
0
LINE
8
BLACK
6
CONTINUOUS
10
4.7672667322834643
20
-3.4069576771653542
11
4.7665354330708665
21
-3.3999999999999999
0
LINE
8
BLACK
6
CONTINUOUS
10
4.7665354330708665
20
-3.3999999999999999
11
4.7672667322834643
21
-3.3930423228346456
0
LINE
8
BLACK
6
CONTINUOUS
10
4.7672667322834643
20
-3.3930423228346456
11
4.7694285826771656
21
-3.3863887401574804
0
LINE
8
BLACK
6
CONTINUOUS
10
4.7694285826771656
20
-3.3863887401574804
11
4.7729266141732278
21
-3.3803300393700786
0
LINE
8
BLACK
6
CONTINUOUS
10
4.7729266141732278
20
-3.3803300393700786
11
4.7776078346456696
21
-3.3751309842519683
0
LINE
8
BLACK
6
CONTINUOUS
10
4.7776078346456696
20
-3.3751309842519683
11
4.7832677165354331
21
-3.3710188188976375
0
LINE
8
BLACK
6
CONTINUOUS
10
4.7832677165354331
20
-3.3710188188976375
11
4.7896588976377954
21
-3.368173307086614
0
LINE
8
BLACK
6
CONTINUOUS
10
4.7896588976377954
20
-3.368173307086614
11
4.7965020078740155
21
-3.3667187401574803
0
LINE
8
BLACK
6
CONTINUOUS
10
4.7965020078740155
20
-3.3667187401574803
11
4.8034979921259842
21
-3.3667187401574803
0
LINE
8
BLACK
6
CONTINUOUS
10
4.8034979921259842
20
-3.3667187401574803
11
4.8103411023622042
21
-3.368173307086614
0
LINE
8
BLACK
6
CONTINUOUS
10
6.610341102362205
20
-3.3181733070866142
11
6.6167322834645672
21
-3.3210188188976377
0
LINE
8
BLACK
6
CONTINUOUS
10
6.6167322834645672
20
-3.3210188188976377
11
6.6223921653543307
21
-3.3251309842519685
0
LINE
8
BLACK
6
CONTINUOUS
10
6.6223921653543307
20
-3.3251309842519685
11
6.6270733858267716
21
-3.3303300393700788
0
LINE
8
BLACK
6
CONTINUOUS
10
6.6270733858267716
20
-3.3303300393700788
11
6.6305714173228347
21
-3.3363887401574801
0
LINE
8
BLACK
6
CONTINUOUS
10
6.6305714173228347
20
-3.3363887401574801
11
6.6327332677165352
21
-3.3430423228346458
0
LINE
8
BLACK
6
CONTINUOUS
10
6.6327332677165352
20
-3.3430423228346458
11
6.6334645669291339
21
-3.3500000000000001
0
LINE
8
BLACK
6
CONTINUOUS
10
6.6334645669291339
20
-3.3500000000000001
11
6.6327332677165352
21
-3.3569576771653544
0
LINE
8
BLACK
6
CONTINUOUS
10
6.6327332677165352
20
-3.3569576771653544
11
6.6305714173228347
21
-3.3636112598425196
0
LINE
8
BLACK
6
CONTINUOUS
10
6.6305714173228347
20
-3.3636112598425196
11
6.6270733858267716
21
-3.369669960629921
0
LINE
8
BLACK
6
CONTINUOUS
10
6.6270733858267716
20
-3.369669960629921
11
6.6223921653543307
21
-3.3748690157480312
0
LINE
8
BLACK
6
CONTINUOUS
10
6.6223921653543307
20
-3.3748690157480312
11
6.6167322834645672
21
-3.378981181102362
0
LINE
8
BLACK
6
CONTINUOUS
10
6.6167322834645672
20
-3.378981181102362
11
6.610341102362205
21
-3.3818266929133856
0
LINE
8
BLACK
6
CONTINUOUS
10
6.610341102362205
20
-3.3818266929133856
11
6.603497992125984
21
-3.3832812598425197
0
LINE
8
BLACK
6
CONTINUOUS
10
6.603497992125984
20
-3.3832812598425197
11
6.5965020078740153
21
-3.3832812598425197
0
LINE
8
BLACK
6
CONTINUOUS
10
6.5965020078740153
20
-3.3832812598425197
11
6.5896588976377952
21
-3.3818266929133856
0
LINE
8
BLACK
6
CONTINUOUS
10
6.5896588976377952
20
-3.3818266929133856
11
6.583267716535433
21
-3.378981181102362
0
LINE
8
BLACK
6
CONTINUOUS
10
6.583267716535433
20
-3.378981181102362
11
6.5776078346456694
21
-3.3748690157480312
0
LINE
8
BLACK
6
CONTINUOUS
10
6.5776078346456694
20
-3.3748690157480312
11
6.5729266141732285
21
-3.369669960629921
0
LINE
8
BLACK
6
CONTINUOUS
10
6.5729266141732285
20
-3.369669960629921
11
6.5694285826771655
21
-3.3636112598425196
0
LINE
8
BLACK
6
CONTINUOUS
10
6.5694285826771655
20
-3.3636112598425196
11
6.5672667322834641
21
-3.3569576771653544
0
LINE
8
BLACK
6
CONTINUOUS
10
6.5672667322834641
20
-3.3569576771653544
11
6.5665354330708663
21
-3.3500000000000001
0
LINE
8
BLACK
6
CONTINUOUS
10
6.5665354330708663
20
-3.3500000000000001
11
6.5672667322834641
21
-3.3430423228346458
0
LINE
8
BLACK
6
CONTINUOUS
10
6.5672667322834641
20
-3.3430423228346458
11
6.5694285826771655
21
-3.3363887401574801
0
LINE
8
BLACK
6
CONTINUOUS
10
6.5694285826771655
20
-3.3363887401574801
11
6.5729266141732285
21
-3.3303300393700788
0
LINE
8
BLACK
6
CONTINUOUS
10
6.5729266141732285
20
-3.3303300393700788
11
6.5776078346456694
21
-3.3251309842519685
0
LINE
8
BLACK
6
CONTINUOUS
10
6.5776078346456694
20
-3.3251309842519685
11
6.583267716535433
21
-3.3210188188976377
0
LINE
8
BLACK
6
CONTINUOUS
10
6.583267716535433
20
-3.3210188188976377
11
6.5896588976377952
21
-3.3181733070866142
0
LINE
8
BLACK
6
CONTINUOUS
10
6.5896588976377952
20
-3.3181733070866142
11
6.5965020078740153
21
-3.31671874015748
0
LINE
8
BLACK
6
CONTINUOUS
10
6.5965020078740153
20
-3.31671874015748
11
6.603497992125984
21
-3.31671874015748
0
LINE
8
BLACK
6
CONTINUOUS
10
6.603497992125984
20
-3.31671874015748
11
6.610341102362205
21
-3.3181733070866142
0
LINE
8
BLACK
6
CONTINUOUS
10
4.8103411023622042
20
-3.2681733070866139
11
4.8167322834645665
21
-3.2710188188976379
0
LINE
8
BLACK
6
CONTINUOUS
10
4.8167322834645665
20
-3.2710188188976379
11
4.8223921653543309
21
-3.2751309842519682
0
LINE
8
BLACK
6
CONTINUOUS
10
4.8223921653543309
20
-3.2751309842519682
11
4.8270733858267718
21
-3.2803300393700785
0
LINE
8
BLACK
6
CONTINUOUS
10
4.8270733858267718
20
-3.2803300393700785
11
4.8305714173228349
21
-3.2863887401574803
0
LINE
8
BLACK
6
CONTINUOUS
10
4.8305714173228349
20
-3.2863887401574803
11
4.8327332677165353
21
-3.2930423228346455
0
LINE
8
BLACK
6
CONTINUOUS
10
4.8327332677165353
20
-3.2930423228346455
11
4.8334645669291341
21
-3.2999999999999998
0
LINE
8
BLACK
6
CONTINUOUS
10
4.8334645669291341
20
-3.2999999999999998
11
4.8327332677165353
21
-3.3069576771653542
0
LINE
8
BLACK
6
CONTINUOUS
10
4.8327332677165353
20
-3.3069576771653542
11
4.8305714173228349
21
-3.3136112598425198
0
LINE
8
BLACK
6
CONTINUOUS
10
4.8305714173228349
20
-3.3136112598425198
11
4.8270733858267718
21
-3.3196699606299211
0
LINE
8
BLACK
6
CONTINUOUS
10
4.8270733858267718
20
-3.3196699606299211
11
4.8223921653543309
21
-3.3248690157480314
0
LINE
8
BLACK
6
CONTINUOUS
10
4.8223921653543309
20
-3.3248690157480314
11
4.8167322834645665
21
-3.3289811811023622
0
LINE
8
BLACK
6
CONTINUOUS
10
4.8167322834645665
20
-3.3289811811023622
11
4.8103411023622042
21
-3.3318266929133857
0
LINE
8
BLACK
6
CONTINUOUS
10
4.8103411023622042
20
-3.3318266929133857
11
4.8034979921259842
21
-3.3332812598425194
0
LINE
8
BLACK
6
CONTINUOUS
10
4.8034979921259842
20
-3.3332812598425194
11
4.7965020078740155
21
-3.3332812598425194
0
LINE
8
BLACK
6
CONTINUOUS
10
4.7965020078740155
20
-3.3332812598425194
11
4.7896588976377954
21
-3.3318266929133857
0
LINE
8
BLACK
6
CONTINUOUS
10
4.7896588976377954
20
-3.3318266929133857
11
4.7832677165354331
21
-3.3289811811023622
0
LINE
8
BLACK
6
CONTINUOUS
10
4.7832677165354331
20
-3.3289811811023622
11
4.7776078346456696
21
-3.3248690157480314
0
LINE
8
BLACK
6
CONTINUOUS
10
4.7776078346456696
20
-3.3248690157480314
11
4.7729266141732278
21
-3.3196699606299211
0
LINE
8
BLACK
6
CONTINUOUS
10
4.7729266141732278
20
-3.3196699606299211
11
4.7694285826771656
21
-3.3136112598425198
0
LINE
8
BLACK
6
CONTINUOUS
10
4.7694285826771656
20
-3.3136112598425198
11
4.7672667322834643
21
-3.3069576771653542
0
LINE
8
BLACK
6
CONTINUOUS
10
4.7672667322834643
20
-3.3069576771653542
11
4.7665354330708665
21
-3.2999999999999998
0
LINE
8
BLACK
6
CONTINUOUS
10
4.7665354330708665
20
-3.2999999999999998
11
4.7672667322834643
21
-3.2930423228346455
0
LINE
8
BLACK
6
CONTINUOUS
10
4.7672667322834643
20
-3.2930423228346455
11
4.7694285826771656
21
-3.2863887401574803
0
LINE
8
BLACK
6
CONTINUOUS
10
4.7694285826771656
20
-3.2863887401574803
11
4.7729266141732278
21
-3.2803300393700785
0
LINE
8
BLACK
6
CONTINUOUS
10
4.7729266141732278
20
-3.2803300393700785
11
4.7776078346456696
21
-3.2751309842519682
0
LINE
8
BLACK
6
CONTINUOUS
10
4.7776078346456696
20
-3.2751309842519682
11
4.7832677165354331
21
-3.2710188188976379
0
LINE
8
BLACK
6
CONTINUOUS
10
4.7832677165354331
20
-3.2710188188976379
11
4.7896588976377954
21
-3.2681733070866139
0
LINE
8
BLACK
6
CONTINUOUS
10
4.7896588976377954
20
-3.2681733070866139
11
4.7965020078740155
21
-3.2667187401574802
0
LINE
8
BLACK
6
CONTINUOUS
10
4.7965020078740155
20
-3.2667187401574802
11
4.8034979921259842
21
-3.2667187401574802
0
LINE
8
BLACK
6
CONTINUOUS
10
4.8034979921259842
20
-3.2667187401574802
11
4.8103411023622042
21
-3.2681733070866139
0
LINE
8
BLACK
6
CONTINUOUS
10
6.6334645669291339
20
-3.2834645669291338
11
6.5665354330708663
21
-3.2834645669291338
0
LINE
8
BLACK
6
CONTINUOUS
10
6.5665354330708663
20
-3.2834645669291338
11
6.5665354330708663
21
-3.2165354330708662
0
LINE
8
BLACK
6
CONTINUOUS
10
6.5665354330708663
20
-3.2165354330708662
11
6.6334645669291339
21
-3.2165354330708662
0
LINE
8
BLACK
6
CONTINUOUS
10
6.6334645669291339
20
-3.2165354330708662
11
6.6334645669291339
21
-3.2834645669291338
0
LINE
8
BLACK
6
CONTINUOUS
10
4.8334645669291341
20
-3.233464566929134
11
4.7665354330708665
21
-3.233464566929134
0
LINE
8
BLACK
6
CONTINUOUS
10
4.7665354330708665
20
-3.233464566929134
11
4.7665354330708665
21
-3.1665354330708659
0
LINE
8
BLACK
6
CONTINUOUS
10
4.7665354330708665
20
-3.1665354330708659
11
4.8334645669291341
21
-3.1665354330708659
0
LINE
8
BLACK
6
CONTINUOUS
10
4.8334645669291341
20
-3.1665354330708659
11
4.8334645669291341
21
-3.233464566929134
0
LINE
8
BLACK
6
CONTINUOUS
10
5.3084645669291337
20
-3.1834645669291337
11
5.2415354330708661
21
-3.1834645669291337
0
LINE
8
BLACK
6
CONTINUOUS
10
5.2415354330708661
20
-3.1834645669291337
11
5.2415354330708661
21
-3.1165354330708661
0
LINE
8
BLACK
6
CONTINUOUS
10
5.2415354330708661
20
-3.1165354330708661
11
5.3084645669291337
21
-3.1165354330708661
0
LINE
8
BLACK
6
CONTINUOUS
10
5.3084645669291337
20
-3.1165354330708661
11
5.3084645669291337
21
-3.1834645669291337
0
LINE
8
BLACK
6
CONTINUOUS
10
5.3853411023622044
20
-3.118173307086614
11
5.3917322834645667
21
-3.1210188188976375
0
LINE
8
BLACK
6
CONTINUOUS
10
5.3917322834645667
20
-3.1210188188976375
11
5.3973921653543302
21
-3.1251309842519683
0
LINE
8
BLACK
6
CONTINUOUS
10
5.3973921653543302
20
-3.1251309842519683
11
5.4020733858267711
21
-3.1303300393700786
0
LINE
8
BLACK
6
CONTINUOUS
10
5.4020733858267711
20
-3.1303300393700786
11
5.4055714173228342
21
-3.1363887401574804
0
LINE
8
BLACK
6
CONTINUOUS
10
5.4055714173228342
20
-3.1363887401574804
11
5.4077332677165355
21
-3.1430423228346456
0
LINE
8
BLACK
6
CONTINUOUS
10
5.4077332677165355
20
-3.1430423228346456
11
5.4084645669291334
21
-3.1499999999999999
0
LINE
8
BLACK
6
CONTINUOUS
10
5.4084645669291334
20
-3.1499999999999999
11
5.4077332677165355
21
-3.1569576771653542
0
LINE
8
BLACK
6
CONTINUOUS
10
5.4077332677165355
20
-3.1569576771653542
11
5.4055714173228342
21
-3.1636112598425195
0
LINE
8
BLACK
6
CONTINUOUS
10
5.4055714173228342
20
-3.1636112598425195
11
5.4020733858267711
21
-3.1696699606299212
0
LINE
8
BLACK
6
CONTINUOUS
10
5.4020733858267711
20
-3.1696699606299212
11
5.3973921653543302
21
-3.1748690157480315
0
LINE
8
BLACK
6
CONTINUOUS
10
5.3973921653543302
20
-3.1748690157480315
11
5.3917322834645667
21
-3.1789811811023623
0
LINE
8
BLACK
6
CONTINUOUS
10
5.3917322834645667
20
-3.1789811811023623
11
5.3853411023622044
21
-3.1818266929133858
0
LINE
8
BLACK
6
CONTINUOUS
10
5.3853411023622044
20
-3.1818266929133858
11
5.3784979921259843
21
-3.1832812598425195
0
LINE
8
BLACK
6
CONTINUOUS
10
5.3784979921259843
20
-3.1832812598425195
11
5.3715020078740157
21
-3.1832812598425195
0
LINE
8
BLACK
6
CONTINUOUS
10
5.3715020078740157
20
-3.1832812598425195
11
5.3646588976377956
21
-3.1818266929133858
0
LINE
8
BLACK
6
CONTINUOUS
10
5.3646588976377956
20
-3.1818266929133858
11
5.3582677165354333
21
-3.1789811811023623
0
LINE
8
BLACK
6
CONTINUOUS
10
5.3582677165354333
20
-3.1789811811023623
11
5.3526078346456689
21
-3.1748690157480315
0
LINE
8
BLACK
6
CONTINUOUS
10
5.3526078346456689
20
-3.1748690157480315
11
5.347926614173228
21
-3.1696699606299212
0
LINE
8
BLACK
6
CONTINUOUS
10
5.347926614173228
20
-3.1696699606299212
11
5.3444285826771649
21
-3.1636112598425195
0
LINE
8
BLACK
6
CONTINUOUS
10
5.3444285826771649
20
-3.1636112598425195
11
5.3422667322834645
21
-3.1569576771653542
0
LINE
8
BLACK
6
CONTINUOUS
10
5.3422667322834645
20
-3.1569576771653542
11
5.3415354330708658
21
-3.1499999999999999
0
LINE
8
BLACK
6
CONTINUOUS
10
5.3415354330708658
20
-3.1499999999999999
11
5.3422667322834645
21
-3.1430423228346456
0
LINE
8
BLACK
6
CONTINUOUS
10
5.3422667322834645
20
-3.1430423228346456
11
5.3444285826771649
21
-3.1363887401574804
0
LINE
8
BLACK
6
CONTINUOUS
10
5.3444285826771649
20
-3.1363887401574804
11
5.347926614173228
21
-3.1303300393700786
0
LINE
8
BLACK
6
CONTINUOUS
10
5.347926614173228
20
-3.1303300393700786
11
5.3526078346456689
21
-3.1251309842519683
0
LINE
8
BLACK
6
CONTINUOUS
10
5.3526078346456689
20
-3.1251309842519683
11
5.3582677165354333
21
-3.1210188188976375
0
LINE
8
BLACK
6
CONTINUOUS
10
5.3582677165354333
20
-3.1210188188976375
11
5.3646588976377956
21
-3.118173307086614
0
LINE
8
BLACK
6
CONTINUOUS
10
5.3646588976377956
20
-3.118173307086614
11
5.3715020078740157
21
-3.1167187401574803
0
LINE
8
BLACK
6
CONTINUOUS
10
5.3715020078740157
20
-3.1167187401574803
11
5.3784979921259843
21
-3.1167187401574803
0
LINE
8
BLACK
6
CONTINUOUS
10
5.3784979921259843
20
-3.1167187401574803
11
5.3853411023622044
21
-3.118173307086614
0
LINE
8
BLACK
6
CONTINUOUS
10
5.485341102362205
20
-3.118173307086614
11
5.4917322834645672
21
-3.1210188188976375
0
LINE
8
BLACK
6
CONTINUOUS
10
5.4917322834645672
20
-3.1210188188976375
11
5.4973921653543307
21
-3.1251309842519683
0
LINE
8
BLACK
6
CONTINUOUS
10
5.4973921653543307
20
-3.1251309842519683
11
5.5020733858267716
21
-3.1303300393700786
0
LINE
8
BLACK
6
CONTINUOUS
10
5.5020733858267716
20
-3.1303300393700786
11
5.5055714173228347
21
-3.1363887401574804
0
LINE
8
BLACK
6
CONTINUOUS
10
5.5055714173228347
20
-3.1363887401574804
11
5.5077332677165352
21
-3.1430423228346456
0
LINE
8
BLACK
6
CONTINUOUS
10
5.5077332677165352
20
-3.1430423228346456
11
5.5084645669291339
21
-3.1499999999999999
0
LINE
8
BLACK
6
CONTINUOUS
10
5.5084645669291339
20
-3.1499999999999999
11
5.5077332677165352
21
-3.1569576771653542
0
LINE
8
BLACK
6
CONTINUOUS
10
5.5077332677165352
20
-3.1569576771653542
11
5.5055714173228347
21
-3.1636112598425195
0
LINE
8
BLACK
6
CONTINUOUS
10
5.5055714173228347
20
-3.1636112598425195
11
5.5020733858267716
21
-3.1696699606299212
0
LINE
8
BLACK
6
CONTINUOUS
10
5.5020733858267716
20
-3.1696699606299212
11
5.4973921653543307
21
-3.1748690157480315
0
LINE
8
BLACK
6
CONTINUOUS
10
5.4973921653543307
20
-3.1748690157480315
11
5.4917322834645672
21
-3.1789811811023623
0
LINE
8
BLACK
6
CONTINUOUS
10
5.4917322834645672
20
-3.1789811811023623
11
5.485341102362205
21
-3.1818266929133858
0
LINE
8
BLACK
6
CONTINUOUS
10
5.485341102362205
20
-3.1818266929133858
11
5.478497992125984
21
-3.1832812598425195
0
LINE
8
BLACK
6
CONTINUOUS
10
5.478497992125984
20
-3.1832812598425195
11
5.4715020078740153
21
-3.1832812598425195
0
LINE
8
BLACK
6
CONTINUOUS
10
5.4715020078740153
20
-3.1832812598425195
11
5.4646588976377952
21
-3.1818266929133858
0
LINE
8
BLACK
6
CONTINUOUS
10
5.4646588976377952
20
-3.1818266929133858
11
5.458267716535433
21
-3.1789811811023623
0
LINE
8
BLACK
6
CONTINUOUS
10
5.458267716535433
20
-3.1789811811023623
11
5.4526078346456694
21
-3.1748690157480315
0
LINE
8
BLACK
6
CONTINUOUS
10
5.4526078346456694
20
-3.1748690157480315
11
5.4479266141732285
21
-3.1696699606299212
0
LINE
8
BLACK
6
CONTINUOUS
10
5.4479266141732285
20
-3.1696699606299212
11
5.4444285826771655
21
-3.1636112598425195
0
LINE
8
BLACK
6
CONTINUOUS
10
5.4444285826771655
20
-3.1636112598425195
11
5.4422667322834641
21
-3.1569576771653542
0
LINE
8
BLACK
6
CONTINUOUS
10
5.4422667322834641
20
-3.1569576771653542
11
5.4415354330708663
21
-3.1499999999999999
0
LINE
8
BLACK
6
CONTINUOUS
10
5.4415354330708663
20
-3.1499999999999999
11
5.4422667322834641
21
-3.1430423228346456
0
LINE
8
BLACK
6
CONTINUOUS
10
5.4422667322834641
20
-3.1430423228346456
11
5.4444285826771655
21
-3.1363887401574804
0
LINE
8
BLACK
6
CONTINUOUS
10
5.4444285826771655
20
-3.1363887401574804
11
5.4479266141732285
21
-3.1303300393700786
0
LINE
8
BLACK
6
CONTINUOUS
10
5.4479266141732285
20
-3.1303300393700786
11
5.4526078346456694
21
-3.1251309842519683
0
LINE
8
BLACK
6
CONTINUOUS
10
5.4526078346456694
20
-3.1251309842519683
11
5.458267716535433
21
-3.1210188188976375
0
LINE
8
BLACK
6
CONTINUOUS
10
5.458267716535433
20
-3.1210188188976375
11
5.4646588976377952
21
-3.118173307086614
0
LINE
8
BLACK
6
CONTINUOUS
10
5.4646588976377952
20
-3.118173307086614
11
5.4715020078740153
21
-3.1167187401574803
0
LINE
8
BLACK
6
CONTINUOUS
10
5.4715020078740153
20
-3.1167187401574803
11
5.478497992125984
21
-3.1167187401574803
0
LINE
8
BLACK
6
CONTINUOUS
10
5.478497992125984
20
-3.1167187401574803
11
5.485341102362205
21
-3.118173307086614
0
LINE
8
BLACK
6
CONTINUOUS
10
5.5853411023622046
20
-3.118173307086614
11
5.5917322834645669
21
-3.1210188188976375
0
LINE
8
BLACK
6
CONTINUOUS
10
5.5917322834645669
20
-3.1210188188976375
11
5.5973921653543304
21
-3.1251309842519683
0
LINE
8
BLACK
6
CONTINUOUS
10
5.5973921653543304
20
-3.1251309842519683
11
5.6020733858267713
21
-3.1303300393700786
0
LINE
8
BLACK
6
CONTINUOUS
10
5.6020733858267713
20
-3.1303300393700786
11
5.6055714173228344
21
-3.1363887401574804
0
LINE
8
BLACK
6
CONTINUOUS
10
5.6055714173228344
20
-3.1363887401574804
11
5.6077332677165357
21
-3.1430423228346456
0
LINE
8
BLACK
6
CONTINUOUS
10
5.6077332677165357
20
-3.1430423228346456
11
5.6084645669291335
21
-3.1499999999999999
0
LINE
8
BLACK
6
CONTINUOUS
10
5.6084645669291335
20
-3.1499999999999999
11
5.6077332677165357
21
-3.1569576771653542
0
LINE
8
BLACK
6
CONTINUOUS
10
5.6077332677165357
20
-3.1569576771653542
11
5.6055714173228344
21
-3.1636112598425195
0
LINE
8
BLACK
6
CONTINUOUS
10
5.6055714173228344
20
-3.1636112598425195
11
5.6020733858267713
21
-3.1696699606299212
0
LINE
8
BLACK
6
CONTINUOUS
10
5.6020733858267713
20
-3.1696699606299212
11
5.5973921653543304
21
-3.1748690157480315
0
LINE
8
BLACK
6
CONTINUOUS
10
5.5973921653543304
20
-3.1748690157480315
11
5.5917322834645669
21
-3.1789811811023623
0
LINE
8
BLACK
6
CONTINUOUS
10
5.5917322834645669
20
-3.1789811811023623
11
5.5853411023622046
21
-3.1818266929133858
0
LINE
8
BLACK
6
CONTINUOUS
10
5.5853411023622046
20
-3.1818266929133858
11
5.5784979921259845
21
-3.1832812598425195
0
LINE
8
BLACK
6
CONTINUOUS
10
5.5784979921259845
20
-3.1832812598425195
11
5.5715020078740158
21
-3.1832812598425195
0
LINE
8
BLACK
6
CONTINUOUS
10
5.5715020078740158
20
-3.1832812598425195
11
5.5646588976377949
21
-3.1818266929133858
0
LINE
8
BLACK
6
CONTINUOUS
10
5.5646588976377949
20
-3.1818266929133858
11
5.5582677165354326
21
-3.1789811811023623
0
LINE
8
BLACK
6
CONTINUOUS
10
5.5582677165354326
20
-3.1789811811023623
11
5.5526078346456691
21
-3.1748690157480315
0
LINE
8
BLACK
6
CONTINUOUS
10
5.5526078346456691
20
-3.1748690157480315
11
5.5479266141732282
21
-3.1696699606299212
0
LINE
8
BLACK
6
CONTINUOUS
10
5.5479266141732282
20
-3.1696699606299212
11
5.5444285826771651
21
-3.1636112598425195
0
LINE
8
BLACK
6
CONTINUOUS
10
5.5444285826771651
20
-3.1636112598425195
11
5.5422667322834647
21
-3.1569576771653542
0
LINE
8
BLACK
6
CONTINUOUS
10
5.5422667322834647
20
-3.1569576771653542
11
5.5415354330708659
21
-3.1499999999999999
0
LINE
8
BLACK
6
CONTINUOUS
10
5.5415354330708659
20
-3.1499999999999999
11
5.5422667322834647
21
-3.1430423228346456
0
LINE
8
BLACK
6
CONTINUOUS
10
5.5422667322834647
20
-3.1430423228346456
11
5.5444285826771651
21
-3.1363887401574804
0
LINE
8
BLACK
6
CONTINUOUS
10
5.5444285826771651
20
-3.1363887401574804
11
5.5479266141732282
21
-3.1303300393700786
0
LINE
8
BLACK
6
CONTINUOUS
10
5.5479266141732282
20
-3.1303300393700786
11
5.5526078346456691
21
-3.1251309842519683
0
LINE
8
BLACK
6
CONTINUOUS
10
5.5526078346456691
20
-3.1251309842519683
11
5.5582677165354326
21
-3.1210188188976375
0
LINE
8
BLACK
6
CONTINUOUS
10
5.5582677165354326
20
-3.1210188188976375
11
5.5646588976377949
21
-3.118173307086614
0
LINE
8
BLACK
6
CONTINUOUS
10
5.5646588976377949
20
-3.118173307086614
11
5.5715020078740158
21
-3.1167187401574803
0
LINE
8
BLACK
6
CONTINUOUS
10
5.5715020078740158
20
-3.1167187401574803
11
5.5784979921259845
21
-3.1167187401574803
0
LINE
8
BLACK
6
CONTINUOUS
10
5.5784979921259845
20
-3.1167187401574803
11
5.5853411023622046
21
-3.118173307086614
0
LINE
8
BLACK
6
CONTINUOUS
10
5.6853411023622042
20
-3.118173307086614
11
5.6917322834645665
21
-3.1210188188976375
0
LINE
8
BLACK
6
CONTINUOUS
10
5.6917322834645665
20
-3.1210188188976375
11
5.6973921653543309
21
-3.1251309842519683
0
LINE
8
BLACK
6
CONTINUOUS
10
5.6973921653543309
20
-3.1251309842519683
11
5.7020733858267718
21
-3.1303300393700786
0
LINE
8
BLACK
6
CONTINUOUS
10
5.7020733858267718
20
-3.1303300393700786
11
5.7055714173228349
21
-3.1363887401574804
0
LINE
8
BLACK
6
CONTINUOUS
10
5.7055714173228349
20
-3.1363887401574804
11
5.7077332677165353
21
-3.1430423228346456
0
LINE
8
BLACK
6
CONTINUOUS
10
5.7077332677165353
20
-3.1430423228346456
11
5.7084645669291341
21
-3.1499999999999999
0
LINE
8
BLACK
6
CONTINUOUS
10
5.7084645669291341
20
-3.1499999999999999
11
5.7077332677165353
21
-3.1569576771653542
0
LINE
8
BLACK
6
CONTINUOUS
10
5.7077332677165353
20
-3.1569576771653542
11
5.7055714173228349
21
-3.1636112598425195
0
LINE
8
BLACK
6
CONTINUOUS
10
5.7055714173228349
20
-3.1636112598425195
11
5.7020733858267718
21
-3.1696699606299212
0
LINE
8
BLACK
6
CONTINUOUS
10
5.7020733858267718
20
-3.1696699606299212
11
5.6973921653543309
21
-3.1748690157480315
0
LINE
8
BLACK
6
CONTINUOUS
10
5.6973921653543309
20
-3.1748690157480315
11
5.6917322834645665
21
-3.1789811811023623
0
LINE
8
BLACK
6
CONTINUOUS
10
5.6917322834645665
20
-3.1789811811023623
11
5.6853411023622042
21
-3.1818266929133858
0
LINE
8
BLACK
6
CONTINUOUS
10
5.6853411023622042
20
-3.1818266929133858
11
5.6784979921259842
21
-3.1832812598425195
0
LINE
8
BLACK
6
CONTINUOUS
10
5.6784979921259842
20
-3.1832812598425195
11
5.6715020078740155
21
-3.1832812598425195
0
LINE
8
BLACK
6
CONTINUOUS
10
5.6715020078740155
20
-3.1832812598425195
11
5.6646588976377954
21
-3.1818266929133858
0
LINE
8
BLACK
6
CONTINUOUS
10
5.6646588976377954
20
-3.1818266929133858
11
5.6582677165354331
21
-3.1789811811023623
0
LINE
8
BLACK
6
CONTINUOUS
10
5.6582677165354331
20
-3.1789811811023623
11
5.6526078346456687
21
-3.1748690157480315
0
LINE
8
BLACK
6
CONTINUOUS
10
5.6526078346456687
20
-3.1748690157480315
11
5.6479266141732278
21
-3.1696699606299212
0
LINE
8
BLACK
6
CONTINUOUS
10
5.6479266141732278
20
-3.1696699606299212
11
5.6444285826771656
21
-3.1636112598425195
0
LINE
8
BLACK
6
CONTINUOUS
10
5.6444285826771656
20
-3.1636112598425195
11
5.6422667322834643
21
-3.1569576771653542
0
LINE
8
BLACK
6
CONTINUOUS
10
5.6422667322834643
20
-3.1569576771653542
11
5.6415354330708656
21
-3.1499999999999999
0
LINE
8
BLACK
6
CONTINUOUS
10
5.6415354330708656
20
-3.1499999999999999
11
5.6422667322834643
21
-3.1430423228346456
0
LINE
8
BLACK
6
CONTINUOUS
10
5.6422667322834643
20
-3.1430423228346456
11
5.6444285826771656
21
-3.1363887401574804
0
LINE
8
BLACK
6
CONTINUOUS
10
5.6444285826771656
20
-3.1363887401574804
11
5.6479266141732278
21
-3.1303300393700786
0
LINE
8
BLACK
6
CONTINUOUS
10
5.6479266141732278
20
-3.1303300393700786
11
5.6526078346456687
21
-3.1251309842519683
0
LINE
8
BLACK
6
CONTINUOUS
10
5.6526078346456687
20
-3.1251309842519683
11
5.6582677165354331
21
-3.1210188188976375
0
LINE
8
BLACK
6
CONTINUOUS
10
5.6582677165354331
20
-3.1210188188976375
11
5.6646588976377954
21
-3.118173307086614
0
LINE
8
BLACK
6
CONTINUOUS
10
5.6646588976377954
20
-3.118173307086614
11
5.6715020078740155
21
-3.1167187401574803
0
LINE
8
BLACK
6
CONTINUOUS
10
5.6715020078740155
20
-3.1167187401574803
11
5.6784979921259842
21
-3.1167187401574803
0
LINE
8
BLACK
6
CONTINUOUS
10
5.6784979921259842
20
-3.1167187401574803
11
5.6853411023622042
21
-3.118173307086614
0
LINE
8
BLACK
6
CONTINUOUS
10
5.7853411023622048
20
-3.118173307086614
11
5.791732283464567
21
-3.1210188188976375
0
LINE
8
BLACK
6
CONTINUOUS
10
5.791732283464567
20
-3.1210188188976375
11
5.7973921653543306
21
-3.1251309842519683
0
LINE
8
BLACK
6
CONTINUOUS
10
5.7973921653543306
20
-3.1251309842519683
11
5.8020733858267715
21
-3.1303300393700786
0
LINE
8
BLACK
6
CONTINUOUS
10
5.8020733858267715
20
-3.1303300393700786
11
5.8055714173228345
21
-3.1363887401574804
0
LINE
8
BLACK
6
CONTINUOUS
10
5.8055714173228345
20
-3.1363887401574804
11
5.807733267716535
21
-3.1430423228346456
0
LINE
8
BLACK
6
CONTINUOUS
10
5.807733267716535
20
-3.1430423228346456
11
5.8084645669291337
21
-3.1499999999999999
0
LINE
8
BLACK
6
CONTINUOUS
10
5.8084645669291337
20
-3.1499999999999999
11
5.807733267716535
21
-3.1569576771653542
0
LINE
8
BLACK
6
CONTINUOUS
10
5.807733267716535
20
-3.1569576771653542
11
5.8055714173228345
21
-3.1636112598425195
0
LINE
8
BLACK
6
CONTINUOUS
10
5.8055714173228345
20
-3.1636112598425195
11
5.8020733858267715
21
-3.1696699606299212
0
LINE
8
BLACK
6
CONTINUOUS
10
5.8020733858267715
20
-3.1696699606299212
11
5.7973921653543306
21
-3.1748690157480315
0
LINE
8
BLACK
6
CONTINUOUS
10
5.7973921653543306
20
-3.1748690157480315
11
5.791732283464567
21
-3.1789811811023623
0
LINE
8
BLACK
6
CONTINUOUS
10
5.791732283464567
20
-3.1789811811023623
11
5.7853411023622048
21
-3.1818266929133858
0
LINE
8
BLACK
6
CONTINUOUS
10
5.7853411023622048
20
-3.1818266929133858
11
5.7784979921259838
21
-3.1832812598425195
0
LINE
8
BLACK
6
CONTINUOUS
10
5.7784979921259838
20
-3.1832812598425195
11
5.771502007874016
21
-3.1832812598425195
0
LINE
8
BLACK
6
CONTINUOUS
10
5.771502007874016
20
-3.1832812598425195
11
5.764658897637795
21
-3.1818266929133858
0
LINE
8
BLACK
6
CONTINUOUS
10
5.764658897637795
20
-3.1818266929133858
11
5.7582677165354328
21
-3.1789811811023623
0
LINE
8
BLACK
6
CONTINUOUS
10
5.7582677165354328
20
-3.1789811811023623
11
5.7526078346456693
21
-3.1748690157480315
0
LINE
8
BLACK
6
CONTINUOUS
10
5.7526078346456693
20
-3.1748690157480315
11
5.7479266141732284
21
-3.1696699606299212
0
LINE
8
BLACK
6
CONTINUOUS
10
5.7479266141732284
20
-3.1696699606299212
11
5.7444285826771653
21
-3.1636112598425195
0
LINE
8
BLACK
6
CONTINUOUS
10
5.7444285826771653
20
-3.1636112598425195
11
5.7422667322834648
21
-3.1569576771653542
0
LINE
8
BLACK
6
CONTINUOUS
10
5.7422667322834648
20
-3.1569576771653542
11
5.7415354330708661
21
-3.1499999999999999
0
LINE
8
BLACK
6
CONTINUOUS
10
5.7415354330708661
20
-3.1499999999999999
11
5.7422667322834648
21
-3.1430423228346456
0
LINE
8
BLACK
6
CONTINUOUS
10
5.7422667322834648
20
-3.1430423228346456
11
5.7444285826771653
21
-3.1363887401574804
0
LINE
8
BLACK
6
CONTINUOUS
10
5.7444285826771653
20
-3.1363887401574804
11
5.7479266141732284
21
-3.1303300393700786
0
LINE
8
BLACK
6
CONTINUOUS
10
5.7479266141732284
20
-3.1303300393700786
11
5.7526078346456693
21
-3.1251309842519683
0
LINE
8
BLACK
6
CONTINUOUS
10
5.7526078346456693
20
-3.1251309842519683
11
5.7582677165354328
21
-3.1210188188976375
0
LINE
8
BLACK
6
CONTINUOUS
10
5.7582677165354328
20
-3.1210188188976375
11
5.764658897637795
21
-3.118173307086614
0
LINE
8
BLACK
6
CONTINUOUS
10
5.764658897637795
20
-3.118173307086614
11
5.771502007874016
21
-3.1167187401574803
0
LINE
8
BLACK
6
CONTINUOUS
10
5.771502007874016
20
-3.1167187401574803
11
5.7784979921259838
21
-3.1167187401574803
0
LINE
8
BLACK
6
CONTINUOUS
10
5.7784979921259838
20
-3.1167187401574803
11
5.7853411023622048
21
-3.118173307086614
0
LINE
8
BLACK
6
CONTINUOUS
10
5.8853411023622044
20
-3.118173307086614
11
5.8917322834645667
21
-3.1210188188976375
0
LINE
8
BLACK
6
CONTINUOUS
10
5.8917322834645667
20
-3.1210188188976375
11
5.8973921653543302
21
-3.1251309842519683
0
LINE
8
BLACK
6
CONTINUOUS
10
5.8973921653543302
20
-3.1251309842519683
11
5.9020733858267711
21
-3.1303300393700786
0
LINE
8
BLACK
6
CONTINUOUS
10
5.9020733858267711
20
-3.1303300393700786
11
5.9055714173228342
21
-3.1363887401574804
0
LINE
8
BLACK
6
CONTINUOUS
10
5.9055714173228342
20
-3.1363887401574804
11
5.9077332677165355
21
-3.1430423228346456
0
LINE
8
BLACK
6
CONTINUOUS
10
5.9077332677165355
20
-3.1430423228346456
11
5.9084645669291334
21
-3.1499999999999999
0
LINE
8
BLACK
6
CONTINUOUS
10
5.9084645669291334
20
-3.1499999999999999
11
5.9077332677165355
21
-3.1569576771653542
0
LINE
8
BLACK
6
CONTINUOUS
10
5.9077332677165355
20
-3.1569576771653542
11
5.9055714173228342
21
-3.1636112598425195
0
LINE
8
BLACK
6
CONTINUOUS
10
5.9055714173228342
20
-3.1636112598425195
11
5.9020733858267711
21
-3.1696699606299212
0
LINE
8
BLACK
6
CONTINUOUS
10
5.9020733858267711
20
-3.1696699606299212
11
5.8973921653543302
21
-3.1748690157480315
0
LINE
8
BLACK
6
CONTINUOUS
10
5.8973921653543302
20
-3.1748690157480315
11
5.8917322834645667
21
-3.1789811811023623
0
LINE
8
BLACK
6
CONTINUOUS
10
5.8917322834645667
20
-3.1789811811023623
11
5.8853411023622044
21
-3.1818266929133858
0
LINE
8
BLACK
6
CONTINUOUS
10
5.8853411023622044
20
-3.1818266929133858
11
5.8784979921259843
21
-3.1832812598425195
0
LINE
8
BLACK
6
CONTINUOUS
10
5.8784979921259843
20
-3.1832812598425195
11
5.8715020078740157
21
-3.1832812598425195
0
LINE
8
BLACK
6
CONTINUOUS
10
5.8715020078740157
20
-3.1832812598425195
11
5.8646588976377956
21
-3.1818266929133858
0
LINE
8
BLACK
6
CONTINUOUS
10
5.8646588976377956
20
-3.1818266929133858
11
5.8582677165354333
21
-3.1789811811023623
0
LINE
8
BLACK
6
CONTINUOUS
10
5.8582677165354333
20
-3.1789811811023623
11
5.8526078346456689
21
-3.1748690157480315
0
LINE
8
BLACK
6
CONTINUOUS
10
5.8526078346456689
20
-3.1748690157480315
11
5.847926614173228
21
-3.1696699606299212
0
LINE
8
BLACK
6
CONTINUOUS
10
5.847926614173228
20
-3.1696699606299212
11
5.8444285826771649
21
-3.1636112598425195
0
LINE
8
BLACK
6
CONTINUOUS
10
5.8444285826771649
20
-3.1636112598425195
11
5.8422667322834645
21
-3.1569576771653542
0
LINE
8
BLACK
6
CONTINUOUS
10
5.8422667322834645
20
-3.1569576771653542
11
5.8415354330708658
21
-3.1499999999999999
0
LINE
8
BLACK
6
CONTINUOUS
10
5.8415354330708658
20
-3.1499999999999999
11
5.8422667322834645
21
-3.1430423228346456
0
LINE
8
BLACK
6
CONTINUOUS
10
5.8422667322834645
20
-3.1430423228346456
11
5.8444285826771649
21
-3.1363887401574804
0
LINE
8
BLACK
6
CONTINUOUS
10
5.8444285826771649
20
-3.1363887401574804
11
5.847926614173228
21
-3.1303300393700786
0
LINE
8
BLACK
6
CONTINUOUS
10
5.847926614173228
20
-3.1303300393700786
11
5.8526078346456689
21
-3.1251309842519683
0
LINE
8
BLACK
6
CONTINUOUS
10
5.8526078346456689
20
-3.1251309842519683
11
5.8582677165354333
21
-3.1210188188976375
0
LINE
8
BLACK
6
CONTINUOUS
10
5.8582677165354333
20
-3.1210188188976375
11
5.8646588976377956
21
-3.118173307086614
0
LINE
8
BLACK
6
CONTINUOUS
10
5.8646588976377956
20
-3.118173307086614
11
5.8715020078740157
21
-3.1167187401574803
0
LINE
8
BLACK
6
CONTINUOUS
10
5.8715020078740157
20
-3.1167187401574803
11
5.8784979921259843
21
-3.1167187401574803
0
LINE
8
BLACK
6
CONTINUOUS
10
5.8784979921259843
20
-3.1167187401574803
11
5.8853411023622044
21
-3.118173307086614
0
LINE
8
BLACK
6
CONTINUOUS
10
5.985341102362205
20
-3.118173307086614
11
5.9917322834645672
21
-3.1210188188976375
0
LINE
8
BLACK
6
CONTINUOUS
10
5.9917322834645672
20
-3.1210188188976375
11
5.9973921653543307
21
-3.1251309842519683
0
LINE
8
BLACK
6
CONTINUOUS
10
5.9973921653543307
20
-3.1251309842519683
11
6.0020733858267716
21
-3.1303300393700786
0
LINE
8
BLACK
6
CONTINUOUS
10
6.0020733858267716
20
-3.1303300393700786
11
6.0055714173228347
21
-3.1363887401574804
0
LINE
8
BLACK
6
CONTINUOUS
10
6.0055714173228347
20
-3.1363887401574804
11
6.0077332677165352
21
-3.1430423228346456
0
LINE
8
BLACK
6
CONTINUOUS
10
6.0077332677165352
20
-3.1430423228346456
11
6.0084645669291339
21
-3.1499999999999999
0
LINE
8
BLACK
6
CONTINUOUS
10
6.0084645669291339
20
-3.1499999999999999
11
6.0077332677165352
21
-3.1569576771653542
0
LINE
8
BLACK
6
CONTINUOUS
10
6.0077332677165352
20
-3.1569576771653542
11
6.0055714173228347
21
-3.1636112598425195
0
LINE
8
BLACK
6
CONTINUOUS
10
6.0055714173228347
20
-3.1636112598425195
11
6.0020733858267716
21
-3.1696699606299212
0
LINE
8
BLACK
6
CONTINUOUS
10
6.0020733858267716
20
-3.1696699606299212
11
5.9973921653543307
21
-3.1748690157480315
0
LINE
8
BLACK
6
CONTINUOUS
10
5.9973921653543307
20
-3.1748690157480315
11
5.9917322834645672
21
-3.1789811811023623
0
LINE
8
BLACK
6
CONTINUOUS
10
5.9917322834645672
20
-3.1789811811023623
11
5.985341102362205
21
-3.1818266929133858
0
LINE
8
BLACK
6
CONTINUOUS
10
5.985341102362205
20
-3.1818266929133858
11
5.978497992125984
21
-3.1832812598425195
0
LINE
8
BLACK
6
CONTINUOUS
10
5.978497992125984
20
-3.1832812598425195
11
5.9715020078740153
21
-3.1832812598425195
0
LINE
8
BLACK
6
CONTINUOUS
10
5.9715020078740153
20
-3.1832812598425195
11
5.9646588976377952
21
-3.1818266929133858
0
LINE
8
BLACK
6
CONTINUOUS
10
5.9646588976377952
20
-3.1818266929133858
11
5.958267716535433
21
-3.1789811811023623
0
LINE
8
BLACK
6
CONTINUOUS
10
5.958267716535433
20
-3.1789811811023623
11
5.9526078346456694
21
-3.1748690157480315
0
LINE
8
BLACK
6
CONTINUOUS
10
5.9526078346456694
20
-3.1748690157480315
11
5.9479266141732285
21
-3.1696699606299212
0
LINE
8
BLACK
6
CONTINUOUS
10
5.9479266141732285
20
-3.1696699606299212
11
5.9444285826771655
21
-3.1636112598425195
0
LINE
8
BLACK
6
CONTINUOUS
10
5.9444285826771655
20
-3.1636112598425195
11
5.9422667322834641
21
-3.1569576771653542
0
LINE
8
BLACK
6
CONTINUOUS
10
5.9422667322834641
20
-3.1569576771653542
11
5.9415354330708663
21
-3.1499999999999999
0
LINE
8
BLACK
6
CONTINUOUS
10
5.9415354330708663
20
-3.1499999999999999
11
5.9422667322834641
21
-3.1430423228346456
0
LINE
8
BLACK
6
CONTINUOUS
10
5.9422667322834641
20
-3.1430423228346456
11
5.9444285826771655
21
-3.1363887401574804
0
LINE
8
BLACK
6
CONTINUOUS
10
5.9444285826771655
20
-3.1363887401574804
11
5.9479266141732285
21
-3.1303300393700786
0
LINE
8
BLACK
6
CONTINUOUS
10
5.9479266141732285
20
-3.1303300393700786
11
5.9526078346456694
21
-3.1251309842519683
0
LINE
8
BLACK
6
CONTINUOUS
10
5.9526078346456694
20
-3.1251309842519683
11
5.958267716535433
21
-3.1210188188976375
0
LINE
8
BLACK
6
CONTINUOUS
10
5.958267716535433
20
-3.1210188188976375
11
5.9646588976377952
21
-3.118173307086614
0
LINE
8
BLACK
6
CONTINUOUS
10
5.9646588976377952
20
-3.118173307086614
11
5.9715020078740153
21
-3.1167187401574803
0
LINE
8
BLACK
6
CONTINUOUS
10
5.9715020078740153
20
-3.1167187401574803
11
5.978497992125984
21
-3.1167187401574803
0
LINE
8
BLACK
6
CONTINUOUS
10
5.978497992125984
20
-3.1167187401574803
11
5.985341102362205
21
-3.118173307086614
0
LINE
8
BLACK
6
CONTINUOUS
10
6.0853411023622046
20
-3.118173307086614
11
6.0917322834645669
21
-3.1210188188976375
0
LINE
8
BLACK
6
CONTINUOUS
10
6.0917322834645669
20
-3.1210188188976375
11
6.0973921653543304
21
-3.1251309842519683
0
LINE
8
BLACK
6
CONTINUOUS
10
6.0973921653543304
20
-3.1251309842519683
11
6.1020733858267713
21
-3.1303300393700786
0
LINE
8
BLACK
6
CONTINUOUS
10
6.1020733858267713
20
-3.1303300393700786
11
6.1055714173228344
21
-3.1363887401574804
0
LINE
8
BLACK
6
CONTINUOUS
10
6.1055714173228344
20
-3.1363887401574804
11
6.1077332677165357
21
-3.1430423228346456
0
LINE
8
BLACK
6
CONTINUOUS
10
6.1077332677165357
20
-3.1430423228346456
11
6.1084645669291335
21
-3.1499999999999999
0
LINE
8
BLACK
6
CONTINUOUS
10
6.1084645669291335
20
-3.1499999999999999
11
6.1077332677165357
21
-3.1569576771653542
0
LINE
8
BLACK
6
CONTINUOUS
10
6.1077332677165357
20
-3.1569576771653542
11
6.1055714173228344
21
-3.1636112598425195
0
LINE
8
BLACK
6
CONTINUOUS
10
6.1055714173228344
20
-3.1636112598425195
11
6.1020733858267713
21
-3.1696699606299212
0
LINE
8
BLACK
6
CONTINUOUS
10
6.1020733858267713
20
-3.1696699606299212
11
6.0973921653543304
21
-3.1748690157480315
0
LINE
8
BLACK
6
CONTINUOUS
10
6.0973921653543304
20
-3.1748690157480315
11
6.0917322834645669
21
-3.1789811811023623
0
LINE
8
BLACK
6
CONTINUOUS
10
6.0917322834645669
20
-3.1789811811023623
11
6.0853411023622046
21
-3.1818266929133858
0
LINE
8
BLACK
6
CONTINUOUS
10
6.0853411023622046
20
-3.1818266929133858
11
6.0784979921259845
21
-3.1832812598425195
0
LINE
8
BLACK
6
CONTINUOUS
10
6.0784979921259845
20
-3.1832812598425195
11
6.0715020078740158
21
-3.1832812598425195
0
LINE
8
BLACK
6
CONTINUOUS
10
6.0715020078740158
20
-3.1832812598425195
11
6.0646588976377949
21
-3.1818266929133858
0
LINE
8
BLACK
6
CONTINUOUS
10
6.0646588976377949
20
-3.1818266929133858
11
6.0582677165354326
21
-3.1789811811023623
0
LINE
8
BLACK
6
CONTINUOUS
10
6.0582677165354326
20
-3.1789811811023623
11
6.0526078346456691
21
-3.1748690157480315
0
LINE
8
BLACK
6
CONTINUOUS
10
6.0526078346456691
20
-3.1748690157480315
11
6.0479266141732282
21
-3.1696699606299212
0
LINE
8
BLACK
6
CONTINUOUS
10
6.0479266141732282
20
-3.1696699606299212
11
6.0444285826771651
21
-3.1636112598425195
0
LINE
8
BLACK
6
CONTINUOUS
10
6.0444285826771651
20
-3.1636112598425195
11
6.0422667322834647
21
-3.1569576771653542
0
LINE
8
BLACK
6
CONTINUOUS
10
6.0422667322834647
20
-3.1569576771653542
11
6.0415354330708659
21
-3.1499999999999999
0
LINE
8
BLACK
6
CONTINUOUS
10
6.0415354330708659
20
-3.1499999999999999
11
6.0422667322834647
21
-3.1430423228346456
0
LINE
8
BLACK
6
CONTINUOUS
10
6.0422667322834647
20
-3.1430423228346456
11
6.0444285826771651
21
-3.1363887401574804
0
LINE
8
BLACK
6
CONTINUOUS
10
6.0444285826771651
20
-3.1363887401574804
11
6.0479266141732282
21
-3.1303300393700786
0
LINE
8
BLACK
6
CONTINUOUS
10
6.0479266141732282
20
-3.1303300393700786
11
6.0526078346456691
21
-3.1251309842519683
0
LINE
8
BLACK
6
CONTINUOUS
10
6.0526078346456691
20
-3.1251309842519683
11
6.0582677165354326
21
-3.1210188188976375
0
LINE
8
BLACK
6
CONTINUOUS
10
6.0582677165354326
20
-3.1210188188976375
11
6.0646588976377949
21
-3.118173307086614
0
LINE
8
BLACK
6
CONTINUOUS
10
6.0646588976377949
20
-3.118173307086614
11
6.0715020078740158
21
-3.1167187401574803
0
LINE
8
BLACK
6
CONTINUOUS
10
6.0715020078740158
20
-3.1167187401574803
11
6.0784979921259845
21
-3.1167187401574803
0
LINE
8
BLACK
6
CONTINUOUS
10
6.0784979921259845
20
-3.1167187401574803
11
6.0853411023622046
21
-3.118173307086614
0
LINE
8
BLACK
6
CONTINUOUS
10
6.1853411023622042
20
-3.118173307086614
11
6.1917322834645665
21
-3.1210188188976375
0
LINE
8
BLACK
6
CONTINUOUS
10
6.1917322834645665
20
-3.1210188188976375
11
6.1973921653543309
21
-3.1251309842519683
0
LINE
8
BLACK
6
CONTINUOUS
10
6.1973921653543309
20
-3.1251309842519683
11
6.2020733858267718
21
-3.1303300393700786
0
LINE
8
BLACK
6
CONTINUOUS
10
6.2020733858267718
20
-3.1303300393700786
11
6.2055714173228349
21
-3.1363887401574804
0
LINE
8
BLACK
6
CONTINUOUS
10
6.2055714173228349
20
-3.1363887401574804
11
6.2077332677165353
21
-3.1430423228346456
0
LINE
8
BLACK
6
CONTINUOUS
10
6.2077332677165353
20
-3.1430423228346456
11
6.2084645669291341
21
-3.1499999999999999
0
LINE
8
BLACK
6
CONTINUOUS
10
6.2084645669291341
20
-3.1499999999999999
11
6.2077332677165353
21
-3.1569576771653542
0
LINE
8
BLACK
6
CONTINUOUS
10
6.2077332677165353
20
-3.1569576771653542
11
6.2055714173228349
21
-3.1636112598425195
0
LINE
8
BLACK
6
CONTINUOUS
10
6.2055714173228349
20
-3.1636112598425195
11
6.2020733858267718
21
-3.1696699606299212
0
LINE
8
BLACK
6
CONTINUOUS
10
6.2020733858267718
20
-3.1696699606299212
11
6.1973921653543309
21
-3.1748690157480315
0
LINE
8
BLACK
6
CONTINUOUS
10
6.1973921653543309
20
-3.1748690157480315
11
6.1917322834645665
21
-3.1789811811023623
0
LINE
8
BLACK
6
CONTINUOUS
10
6.1917322834645665
20
-3.1789811811023623
11
6.1853411023622042
21
-3.1818266929133858
0
LINE
8
BLACK
6
CONTINUOUS
10
6.1853411023622042
20
-3.1818266929133858
11
6.1784979921259842
21
-3.1832812598425195
0
LINE
8
BLACK
6
CONTINUOUS
10
6.1784979921259842
20
-3.1832812598425195
11
6.1715020078740155
21
-3.1832812598425195
0
LINE
8
BLACK
6
CONTINUOUS
10
6.1715020078740155
20
-3.1832812598425195
11
6.1646588976377954
21
-3.1818266929133858
0
LINE
8
BLACK
6
CONTINUOUS
10
6.1646588976377954
20
-3.1818266929133858
11
6.1582677165354331
21
-3.1789811811023623
0
LINE
8
BLACK
6
CONTINUOUS
10
6.1582677165354331
20
-3.1789811811023623
11
6.1526078346456687
21
-3.1748690157480315
0
LINE
8
BLACK
6
CONTINUOUS
10
6.1526078346456687
20
-3.1748690157480315
11
6.1479266141732278
21
-3.1696699606299212
0
LINE
8
BLACK
6
CONTINUOUS
10
6.1479266141732278
20
-3.1696699606299212
11
6.1444285826771656
21
-3.1636112598425195
0
LINE
8
BLACK
6
CONTINUOUS
10
6.1444285826771656
20
-3.1636112598425195
11
6.1422667322834643
21
-3.1569576771653542
0
LINE
8
BLACK
6
CONTINUOUS
10
6.1422667322834643
20
-3.1569576771653542
11
6.1415354330708656
21
-3.1499999999999999
0
LINE
8
BLACK
6
CONTINUOUS
10
6.1415354330708656
20
-3.1499999999999999
11
6.1422667322834643
21
-3.1430423228346456
0
LINE
8
BLACK
6
CONTINUOUS
10
6.1422667322834643
20
-3.1430423228346456
11
6.1444285826771656
21
-3.1363887401574804
0
LINE
8
BLACK
6
CONTINUOUS
10
6.1444285826771656
20
-3.1363887401574804
11
6.1479266141732278
21
-3.1303300393700786
0
LINE
8
BLACK
6
CONTINUOUS
10
6.1479266141732278
20
-3.1303300393700786
11
6.1526078346456687
21
-3.1251309842519683
0
LINE
8
BLACK
6
CONTINUOUS
10
6.1526078346456687
20
-3.1251309842519683
11
6.1582677165354331
21
-3.1210188188976375
0
LINE
8
BLACK
6
CONTINUOUS
10
6.1582677165354331
20
-3.1210188188976375
11
6.1646588976377954
21
-3.118173307086614
0
LINE
8
BLACK
6
CONTINUOUS
10
6.1646588976377954
20
-3.118173307086614
11
6.1715020078740155
21
-3.1167187401574803
0
LINE
8
BLACK
6
CONTINUOUS
10
6.1715020078740155
20
-3.1167187401574803
11
6.1784979921259842
21
-3.1167187401574803
0
LINE
8
BLACK
6
CONTINUOUS
10
6.1784979921259842
20
-3.1167187401574803
11
6.1853411023622042
21
-3.118173307086614
0
LINE
8
BLACK
6
CONTINUOUS
10
4.8639955511811026
20
-2.8257859842519686
11
4.8778151181102363
21
-2.8281340157480312
0
LINE
8
BLACK
6
CONTINUOUS
10
4.8778151181102363
20
-2.8281340157480312
11
4.8912848818897636
21
-2.8320145669291339
0
LINE
8
BLACK
6
CONTINUOUS
10
4.8912848818897636
20
-2.8320145669291339
11
4.9042354724409449
21
-2.8373788976377954
0
LINE
8
BLACK
6
CONTINUOUS
10
4.9042354724409449
20
-2.8373788976377954
11
4.9165040157480311
21
-2.8441594881889762
0
LINE
8
BLACK
6
CONTINUOUS
10
4.9165040157480311
20
-2.8441594881889762
11
4.9279362204724411
21
-2.8522710629921257
0
LINE
8
BLACK
6
CONTINUOUS
10
4.9279362204724411
20
-2.8522710629921257
11
4.9383883464566924
21
-2.8616116535433069
0
LINE
8
BLACK
6
CONTINUOUS
10
4.9383883464566924
20
-2.8616116535433069
11
4.9477289370078736
21
-2.8720637795275592
0
LINE
8
BLACK
6
CONTINUOUS
10
4.9477289370078736
20
-2.8720637795275592
11
4.9558405118110231
21
-2.8834959842519683
0
LINE
8
BLACK
6
CONTINUOUS
10
4.9558405118110231
20
-2.8834959842519683
11
4.9626211023622044
21
-2.8957645275590549
0
LINE
8
BLACK
6
CONTINUOUS
10
4.9626211023622044
20
-2.8957645275590549
11
4.9679854330708659
21
-2.9087151181102362
0
LINE
8
BLACK
6
CONTINUOUS
10
4.9679854330708659
20
-2.9087151181102362
11
4.9718659842519681
21
-2.9221848818897636
0
LINE
8
BLACK
6
CONTINUOUS
10
4.9718659842519681
20
-2.9221848818897636
11
4.9742140157480312
21
-2.9360044488188977
0
LINE
8
BLACK
6
CONTINUOUS
10
4.9742140157480312
20
-2.9360044488188977
11
4.9749999999999996
21
-2.9499999999999997
0
LINE
8
BLACK
6
CONTINUOUS
10
4.9749999999999996
20
-2.9499999999999997
11
4.9742140157480312
21
-2.9639955511811023
0
LINE
8
BLACK
6
CONTINUOUS
10
4.9742140157480312
20
-2.9639955511811023
11
4.9718659842519681
21
-2.9778151181102364
0
LINE
8
BLACK
6
CONTINUOUS
10
4.9718659842519681
20
-2.9778151181102364
11
4.9679854330708659
21
-2.9912848818897637
0
LINE
8
BLACK
6
CONTINUOUS
10
4.9679854330708659
20
-2.9912848818897637
11
4.9626211023622044
21
-3.004235472440945
0
LINE
8
BLACK
6
CONTINUOUS
10
4.9626211023622044
20
-3.004235472440945
11
4.9558405118110231
21
-3.0165040157480316
0
LINE
8
BLACK
6
CONTINUOUS
10
4.9558405118110231
20
-3.0165040157480316
11
4.9477289370078736
21
-3.0279362204724407
0
LINE
8
BLACK
6
CONTINUOUS
10
4.9477289370078736
20
-3.0279362204724407
11
4.9383883464566924
21
-3.038388346456693
0
LINE
8
BLACK
6
CONTINUOUS
10
4.9383883464566924
20
-3.038388346456693
11
4.9279362204724411
21
-3.0477289370078737
0
LINE
8
BLACK
6
CONTINUOUS
10
4.9279362204724411
20
-3.0477289370078737
11
4.9165040157480311
21
-3.0558405118110237
0
LINE
8
BLACK
6
CONTINUOUS
10
4.9165040157480311
20
-3.0558405118110237
11
4.9042354724409449
21
-3.0626211023622045
0
LINE
8
BLACK
6
CONTINUOUS
10
4.9042354724409449
20
-3.0626211023622045
11
4.8912848818897636
21
-3.067985433070866
0
LINE
8
BLACK
6
CONTINUOUS
10
4.8912848818897636
20
-3.067985433070866
11
4.8778151181102363
21
-3.0718659842519682
0
LINE
8
BLACK
6
CONTINUOUS
10
4.8778151181102363
20
-3.0718659842519682
11
4.8639955511811026
21
-3.0742140157480313
0
LINE
8
BLACK
6
CONTINUOUS
10
4.8639955511811026
20
-3.0742140157480313
11
4.8499999999999996
21
-3.0749999999999997
0
LINE
8
BLACK
6
CONTINUOUS
10
4.8499999999999996
20
-3.0749999999999997
11
4.8360044488188976
21
-3.0742140157480313
0
LINE
8
BLACK
6
CONTINUOUS
10
4.8360044488188976
20
-3.0742140157480313
11
4.8221848818897639
21
-3.0718659842519682
0
LINE
8
BLACK
6
CONTINUOUS
10
4.8221848818897639
20
-3.0718659842519682
11
4.8087151181102366
21
-3.067985433070866
0
LINE
8
BLACK
6
CONTINUOUS
10
4.8087151181102366
20
-3.067985433070866
11
4.7957645275590552
21
-3.0626211023622045
0
LINE
8
BLACK
6
CONTINUOUS
10
4.7957645275590552
20
-3.0626211023622045
11
4.7834959842519682
21
-3.0558405118110237
0
LINE
8
BLACK
6
CONTINUOUS
10
4.7834959842519682
20
-3.0558405118110237
11
4.7720637795275591
21
-3.0477289370078737
0
LINE
8
BLACK
6
CONTINUOUS
10
4.7720637795275591
20
-3.0477289370078737
11
4.7616116535433068
21
-3.038388346456693
0
LINE
8
BLACK
6
CONTINUOUS
10
4.7616116535433068
20
-3.038388346456693
11
4.7522710629921256
21
-3.0279362204724407
0
LINE
8
BLACK
6
CONTINUOUS
10
4.7522710629921256
20
-3.0279362204724407
11
4.7441594881889761
21
-3.0165040157480316
0
LINE
8
BLACK
6
CONTINUOUS
10
4.7441594881889761
20
-3.0165040157480316
11
4.7373788976377949
21
-3.004235472440945
0
LINE
8
BLACK
6
CONTINUOUS
10
4.7373788976377949
20
-3.004235472440945
11
4.7320145669291334
21
-2.9912848818897637
0
LINE
8
BLACK
6
CONTINUOUS
10
4.7320145669291334
20
-2.9912848818897637
11
4.7281340157480312
21
-2.9778151181102364
0
LINE
8
BLACK
6
CONTINUOUS
10
4.7281340157480312
20
-2.9778151181102364
11
4.7257859842519681
21
-2.9639955511811023
0
LINE
8
BLACK
6
CONTINUOUS
10
4.7257859842519681
20
-2.9639955511811023
11
4.7249999999999996
21
-2.9499999999999997
0
LINE
8
BLACK
6
CONTINUOUS
10
4.7249999999999996
20
-2.9499999999999997
11
4.7257859842519681
21
-2.9360044488188977
0
LINE
8
BLACK
6
CONTINUOUS
10
4.7257859842519681
20
-2.9360044488188977
11
4.7281340157480312
21
-2.9221848818897636
0
LINE
8
BLACK
6
CONTINUOUS
10
4.7281340157480312
20
-2.9221848818897636
11
4.7320145669291334
21
-2.9087151181102362
0
LINE
8
BLACK
6
CONTINUOUS
10
4.7320145669291334
20
-2.9087151181102362
11
4.7373788976377949
21
-2.8957645275590549
0
LINE
8
BLACK
6
CONTINUOUS
10
4.7373788976377949
20
-2.8957645275590549
11
4.7441594881889761
21
-2.8834959842519683
0
LINE
8
BLACK
6
CONTINUOUS
10
4.7441594881889761
20
-2.8834959842519683
11
4.7522710629921256
21
-2.8720637795275592
0
LINE
8
BLACK
6
CONTINUOUS
10
4.7522710629921256
20
-2.8720637795275592
11
4.7616116535433068
21
-2.8616116535433069
0
LINE
8
BLACK
6
CONTINUOUS
10
4.7616116535433068
20
-2.8616116535433069
11
4.7720637795275591
21
-2.8522710629921257
0
LINE
8
BLACK
6
CONTINUOUS
10
4.7720637795275591
20
-2.8522710629921257
11
4.7834959842519682
21
-2.8441594881889762
0
LINE
8
BLACK
6
CONTINUOUS
10
4.7834959842519682
20
-2.8441594881889762
11
4.7957645275590552
21
-2.8373788976377954
0
LINE
8
BLACK
6
CONTINUOUS
10
4.7957645275590552
20
-2.8373788976377954
11
4.8087151181102366
21
-2.8320145669291339
0
LINE
8
BLACK
6
CONTINUOUS
10
4.8087151181102366
20
-2.8320145669291339
11
4.8221848818897639
21
-2.8281340157480312
0
LINE
8
BLACK
6
CONTINUOUS
10
4.8221848818897639
20
-2.8281340157480312
11
4.8360044488188976
21
-2.8257859842519686
0
LINE
8
BLACK
6
CONTINUOUS
10
4.8360044488188976
20
-2.8257859842519686
11
4.8499999999999996
21
-2.8249999999999997
0
LINE
8
BLACK
6
CONTINUOUS
10
4.8499999999999996
20
-2.8249999999999997
11
4.8639955511811026
21
-2.8257859842519686
0
LINE
8
BLACK
6
CONTINUOUS
10
6.5639955511811019
20
-2.8257859842519686
11
6.5778151181102364
21
-2.8281340157480312
0
LINE
8
BLACK
6
CONTINUOUS
10
6.5778151181102364
20
-2.8281340157480312
11
6.5912848818897638
21
-2.8320145669291339
0
LINE
8
BLACK
6
CONTINUOUS
10
6.5912848818897638
20
-2.8320145669291339
11
6.6042354724409451
21
-2.8373788976377954
0
LINE
8
BLACK
6
CONTINUOUS
10
6.6042354724409451
20
-2.8373788976377954
11
6.6165040157480313
21
-2.8441594881889762
0
LINE
8
BLACK
6
CONTINUOUS
10
6.6165040157480313
20
-2.8441594881889762
11
6.6279362204724404
21
-2.8522710629921257
0
LINE
8
BLACK
6
CONTINUOUS
10
6.6279362204724404
20
-2.8522710629921257
11
6.6383883464566926
21
-2.8616116535433069
0
LINE
8
BLACK
6
CONTINUOUS
10
6.6383883464566926
20
-2.8616116535433069
11
6.6477289370078738
21
-2.8720637795275592
0
LINE
8
BLACK
6
CONTINUOUS
10
6.6477289370078738
20
-2.8720637795275592
11
6.6558405118110233
21
-2.8834959842519683
0
LINE
8
BLACK
6
CONTINUOUS
10
6.6558405118110233
20
-2.8834959842519683
11
6.6626211023622046
21
-2.8957645275590549
0
LINE
8
BLACK
6
CONTINUOUS
10
6.6626211023622046
20
-2.8957645275590549
11
6.6679854330708661
21
-2.9087151181102362
0
LINE
8
BLACK
6
CONTINUOUS
10
6.6679854330708661
20
-2.9087151181102362
11
6.6718659842519683
21
-2.9221848818897636
0
LINE
8
BLACK
6
CONTINUOUS
10
6.6718659842519683
20
-2.9221848818897636
11
6.6742140157480314
21
-2.9360044488188977
0
LINE
8
BLACK
6
CONTINUOUS
10
6.6742140157480314
20
-2.9360044488188977
11
6.6749999999999998
21
-2.9499999999999997
0
LINE
8
BLACK
6
CONTINUOUS
10
6.6749999999999998
20
-2.9499999999999997
11
6.6742140157480314
21
-2.9639955511811023
0
LINE
8
BLACK
6
CONTINUOUS
10
6.6742140157480314
20
-2.9639955511811023
11
6.6718659842519683
21
-2.9778151181102364
0
LINE
8
BLACK
6
CONTINUOUS
10
6.6718659842519683
20
-2.9778151181102364
11
6.6679854330708661
21
-2.9912848818897637
0
LINE
8
BLACK
6
CONTINUOUS
10
6.6679854330708661
20
-2.9912848818897637
11
6.6626211023622046
21
-3.004235472440945
0
LINE
8
BLACK
6
CONTINUOUS
10
6.6626211023622046
20
-3.004235472440945
11
6.6558405118110233
21
-3.0165040157480316
0
LINE
8
BLACK
6
CONTINUOUS
10
6.6558405118110233
20
-3.0165040157480316
11
6.6477289370078738
21
-3.0279362204724407
0
LINE
8
BLACK
6
CONTINUOUS
10
6.6477289370078738
20
-3.0279362204724407
11
6.6383883464566926
21
-3.038388346456693
0
LINE
8
BLACK
6
CONTINUOUS
10
6.6383883464566926
20
-3.038388346456693
11
6.6279362204724404
21
-3.0477289370078737
0
LINE
8
BLACK
6
CONTINUOUS
10
6.6279362204724404
20
-3.0477289370078737
11
6.6165040157480313
21
-3.0558405118110237
0
LINE
8
BLACK
6
CONTINUOUS
10
6.6165040157480313
20
-3.0558405118110237
11
6.6042354724409451
21
-3.0626211023622045
0
LINE
8
BLACK
6
CONTINUOUS
10
6.6042354724409451
20
-3.0626211023622045
11
6.5912848818897638
21
-3.067985433070866
0
LINE
8
BLACK
6
CONTINUOUS
10
6.5912848818897638
20
-3.067985433070866
11
6.5778151181102364
21
-3.0718659842519682
0
LINE
8
BLACK
6
CONTINUOUS
10
6.5778151181102364
20
-3.0718659842519682
11
6.5639955511811019
21
-3.0742140157480313
0
LINE
8
BLACK
6
CONTINUOUS
10
6.5639955511811019
20
-3.0742140157480313
11
6.5499999999999998
21
-3.0749999999999997
0
LINE
8
BLACK
6
CONTINUOUS
10
6.5499999999999998
20
-3.0749999999999997
11
6.5360044488188977
21
-3.0742140157480313
0
LINE
8
BLACK
6
CONTINUOUS
10
6.5360044488188977
20
-3.0742140157480313
11
6.5221848818897632
21
-3.0718659842519682
0
LINE
8
BLACK
6
CONTINUOUS
10
6.5221848818897632
20
-3.0718659842519682
11
6.5087151181102358
21
-3.067985433070866
0
LINE
8
BLACK
6
CONTINUOUS
10
6.5087151181102358
20
-3.067985433070866
11
6.4957645275590545
21
-3.0626211023622045
0
LINE
8
BLACK
6
CONTINUOUS
10
6.4957645275590545
20
-3.0626211023622045
11
6.4834959842519684
21
-3.0558405118110237
0
LINE
8
BLACK
6
CONTINUOUS
10
6.4834959842519684
20
-3.0558405118110237
11
6.4720637795275593
21
-3.0477289370078737
0
LINE
8
BLACK
6
CONTINUOUS
10
6.4720637795275593
20
-3.0477289370078737
11
6.461611653543307
21
-3.038388346456693
0
LINE
8
BLACK
6
CONTINUOUS
10
6.461611653543307
20
-3.038388346456693
11
6.4522710629921258
21
-3.0279362204724407
0
LINE
8
BLACK
6
CONTINUOUS
10
6.4522710629921258
20
-3.0279362204724407
11
6.4441594881889763
21
-3.0165040157480316
0
LINE
8
BLACK
6
CONTINUOUS
10
6.4441594881889763
20
-3.0165040157480316
11
6.437378897637795
21
-3.004235472440945
0
LINE
8
BLACK
6
CONTINUOUS
10
6.437378897637795
20
-3.004235472440945
11
6.4320145669291335
21
-2.9912848818897637
0
LINE
8
BLACK
6
CONTINUOUS
10
6.4320145669291335
20
-2.9912848818897637
11
6.4281340157480313
21
-2.9778151181102364
0
LINE
8
BLACK
6
CONTINUOUS
10
6.4281340157480313
20
-2.9778151181102364
11
6.4257859842519682
21
-2.9639955511811023
0
LINE
8
BLACK
6
CONTINUOUS
10
6.4257859842519682
20
-2.9639955511811023
11
6.4249999999999998
21
-2.9499999999999997
0
LINE
8
BLACK
6
CONTINUOUS
10
6.4249999999999998
20
-2.9499999999999997
11
6.4257859842519682
21
-2.9360044488188977
0
LINE
8
BLACK
6
CONTINUOUS
10
6.4257859842519682
20
-2.9360044488188977
11
6.4281340157480313
21
-2.9221848818897636
0
LINE
8
BLACK
6
CONTINUOUS
10
6.4281340157480313
20
-2.9221848818897636
11
6.4320145669291335
21
-2.9087151181102362
0
LINE
8
BLACK
6
CONTINUOUS
10
6.4320145669291335
20
-2.9087151181102362
11
6.437378897637795
21
-2.8957645275590549
0
LINE
8
BLACK
6
CONTINUOUS
10
6.437378897637795
20
-2.8957645275590549
11
6.4441594881889763
21
-2.8834959842519683
0
LINE
8
BLACK
6
CONTINUOUS
10
6.4441594881889763
20
-2.8834959842519683
11
6.4522710629921258
21
-2.8720637795275592
0
LINE
8
BLACK
6
CONTINUOUS
10
6.4522710629921258
20
-2.8720637795275592
11
6.461611653543307
21
-2.8616116535433069
0
LINE
8
BLACK
6
CONTINUOUS
10
6.461611653543307
20
-2.8616116535433069
11
6.4720637795275593
21
-2.8522710629921257
0
LINE
8
BLACK
6
CONTINUOUS
10
6.4720637795275593
20
-2.8522710629921257
11
6.4834959842519684
21
-2.8441594881889762
0
LINE
8
BLACK
6
CONTINUOUS
10
6.4834959842519684
20
-2.8441594881889762
11
6.4957645275590545
21
-2.8373788976377954
0
LINE
8
BLACK
6
CONTINUOUS
10
6.4957645275590545
20
-2.8373788976377954
11
6.5087151181102358
21
-2.8320145669291339
0
LINE
8
BLACK
6
CONTINUOUS
10
6.5087151181102358
20
-2.8320145669291339
11
6.5221848818897632
21
-2.8281340157480312
0
LINE
8
BLACK
6
CONTINUOUS
10
6.5221848818897632
20
-2.8281340157480312
11
6.5360044488188977
21
-2.8257859842519686
0
LINE
8
BLACK
6
CONTINUOUS
10
6.5360044488188977
20
-2.8257859842519686
11
6.5499999999999998
21
-2.8249999999999997
0
LINE
8
BLACK
6
CONTINUOUS
10
6.5499999999999998
20
-2.8249999999999997
11
6.5639955511811019
21
-2.8257859842519686
  0
ENDSEC
  0
EOF
