  0
SECTION
  2
HEADER
  9
$ANGBASE
  50
0.0
  9
$ANGDIR
  70
1
  9
$MEASUREMENT
  70
0
  0
ENDSEC
  0
SECTION
  2
TABLES
  0
TABLE
  2
LTYPE
  70
4
  0
LTYPE
  5
40F
  2
CONTINUOUS
  70
0
  3
Solid line
  72
65
  73
0
  40
0.0
  0
LTYPE
  5
410
  2
DASHDOT
 70
0
  3
Dash Dot ____ _ ____ _
 72
65
 73
4
 40
2.0
 49
1.25
 49
-0.25
 49
0.25
 49
-0.25
  0
LTYPE
  5
411
  2
DASHED
 70
0
  3
Dashed __ __ __ __ __
 72
65
 73
2
 40
0.75
 49
0.5
 49
-0.25
  0
LTYPE
  5
43B
  2
DOTTED
 70
0
  3
Dotted .  .  .  .
 72
65
 73
2
 40
0.2
 49
0.0
 49
-0.2
  0
ENDTAB
  0
TABLE
  2
STYLE
  70
4
  0
STYLE
  2
KICAD
  70
0
  40
0
  41
1
  42
1
  50
0
  71
0
  3
isocp.shx
  0
STYLE
  2
KICADB
  70
0
  40
0
  41
1
  42
1
  50
0
  71
0
  3
isocp.shx
  0
STYLE
  2
KICADI
  70
0
  40
0
  41
1
  42
1
  50
15
  71
0
  3
isocp.shx
  0
STYLE
  2
KICADBI
  70
0
  40
0
  41
1
  42
1
  50
15
  71
0
  3
isocp.shx
  0
ENDTAB
  0
TABLE
  2
LAYER
  70
1
  0
LAYER
  2
BLACK
  70
0
  62
7
  6
CONTINUOUS
  0
ENDTAB
  0
ENDSEC
  0
SECTION
  2
ENTITIES
0
LINE
8
BLACK
6
CONTINUOUS
10
6.7000000000000002
20
-4.2999999999999998
11
4.7000000000000002
21
-4.2999999999999998
0
LINE
8
BLACK
6
CONTINUOUS
10
4.7000000000000002
20
-4.2999999999999998
11
4.7000000000000002
21
-2.7999999999999998
0
LINE
8
BLACK
6
CONTINUOUS
10
6.7000000000000002
20
-2.7999999999999998
11
6.7000000000000002
21
-4.2999999999999998
0
LINE
8
BLACK
6
CONTINUOUS
10
4.7000000000000002
20
-2.7999999999999998
11
6.7000000000000002
21
-2.7999999999999998
0
LINE
8
BLACK
6
CONTINUOUS
10
4.8579999999999997
20
-3.2929999999999997
11
4.8719999999999999
21
-3.3069999999999999
0
LINE
8
BLACK
6
CONTINUOUS
10
4.8719999999999999
20
-3.2929999999999997
11
4.8579999999999997
21
-3.3069999999999999
0
LINE
8
BLACK
6
CONTINUOUS
10
4.8629999999999995
20
-3.3929999999999998
11
4.8769999999999998
21
-3.407
0
LINE
8
BLACK
6
CONTINUOUS
10
4.8769999999999998
20
-3.3929999999999998
11
4.8629999999999995
21
-3.407
0
LINE
8
BLACK
6
CONTINUOUS
10
4.8730000000000002
20
-3.1930000000000001
11
4.8869999999999996
21
-3.2069999999999999
0
LINE
8
BLACK
6
CONTINUOUS
10
4.8869999999999996
20
-3.1930000000000001
11
4.8730000000000002
21
-3.2069999999999999
0
LINE
8
BLACK
6
CONTINUOUS
10
4.883
20
-3.9329999999999998
11
4.8970000000000002
21
-3.9470000000000001
0
LINE
8
BLACK
6
CONTINUOUS
10
4.8970000000000002
20
-3.9329999999999998
11
4.883
21
-3.9470000000000001
0
LINE
8
BLACK
6
CONTINUOUS
10
4.9779999999999998
20
-3.0579999999999998
11
4.992
21
-3.0720000000000001
0
LINE
8
BLACK
6
CONTINUOUS
10
4.992
20
-3.0579999999999998
11
4.9779999999999998
21
-3.0720000000000001
0
LINE
8
BLACK
6
CONTINUOUS
10
4.9779999999999998
20
-3.2929999999999997
11
4.992
21
-3.3069999999999999
0
LINE
8
BLACK
6
CONTINUOUS
10
4.992
20
-3.2929999999999997
11
4.9779999999999998
21
-3.3069999999999999
0
LINE
8
BLACK
6
CONTINUOUS
10
4.9779999999999998
20
-3.7730000000000001
11
4.992
21
-3.7869999999999999
0
LINE
8
BLACK
6
CONTINUOUS
10
4.992
20
-3.7730000000000001
11
4.9779999999999998
21
-3.7869999999999999
0
LINE
8
BLACK
6
CONTINUOUS
10
5.008
20
-3.5429999999999997
11
5.0220000000000002
21
-3.5569999999999999
0
LINE
8
BLACK
6
CONTINUOUS
10
5.0220000000000002
20
-3.5429999999999997
11
5.008
21
-3.5569999999999999
0
LINE
8
BLACK
6
CONTINUOUS
10
5.0579999999999998
20
-4.0030000000000001
11
5.0720000000000001
21
-4.0170000000000003
0
LINE
8
BLACK
6
CONTINUOUS
10
5.0720000000000001
20
-4.0030000000000001
11
5.0579999999999998
21
-4.0170000000000003
0
LINE
8
BLACK
6
CONTINUOUS
10
5.093
20
-3.7730000000000001
11
5.1070000000000002
21
-3.7869999999999999
0
LINE
8
BLACK
6
CONTINUOUS
10
5.1070000000000002
20
-3.7730000000000001
11
5.093
21
-3.7869999999999999
0
LINE
8
BLACK
6
CONTINUOUS
10
5.0979999999999999
20
-3.8180000000000001
11
5.1120000000000001
21
-3.8319999999999999
0
LINE
8
BLACK
6
CONTINUOUS
10
5.1120000000000001
20
-3.8180000000000001
11
5.0979999999999999
21
-3.8319999999999999
0
LINE
8
BLACK
6
CONTINUOUS
10
5.1079999999999997
20
-3.968
11
5.1219999999999999
21
-3.9819999999999998
0
LINE
8
BLACK
6
CONTINUOUS
10
5.1219999999999999
20
-3.968
11
5.1079999999999997
21
-3.9819999999999998
0
LINE
8
BLACK
6
CONTINUOUS
10
5.1630000000000003
20
-4.2130000000000001
11
5.1769999999999996
21
-4.2270000000000003
0
LINE
8
BLACK
6
CONTINUOUS
10
5.1769999999999996
20
-4.2130000000000001
11
5.1630000000000003
21
-4.2270000000000003
0
LINE
8
BLACK
6
CONTINUOUS
10
5.1779999999999999
20
-3.1930000000000001
11
5.1920000000000002
21
-3.2069999999999999
0
LINE
8
BLACK
6
CONTINUOUS
10
5.1920000000000002
20
-3.1930000000000001
11
5.1779999999999999
21
-3.2069999999999999
0
LINE
8
BLACK
6
CONTINUOUS
10
5.1779999999999999
20
-3.5429999999999997
11
5.1920000000000002
21
-3.5569999999999999
0
LINE
8
BLACK
6
CONTINUOUS
10
5.1920000000000002
20
-3.5429999999999997
11
5.1779999999999999
21
-3.5569999999999999
0
LINE
8
BLACK
6
CONTINUOUS
10
5.2030000000000003
20
-4.1230000000000002
11
5.2169999999999996
21
-4.1369999999999996
0
LINE
8
BLACK
6
CONTINUOUS
10
5.2169999999999996
20
-4.1230000000000002
11
5.2030000000000003
21
-4.1369999999999996
0
LINE
8
BLACK
6
CONTINUOUS
10
5.2379999999999995
20
-3.613
11
5.2519999999999998
21
-3.6269999999999998
0
LINE
8
BLACK
6
CONTINUOUS
10
5.2519999999999998
20
-3.613
11
5.2379999999999995
21
-3.6269999999999998
0
LINE
8
BLACK
6
CONTINUOUS
10
5.2679999999999998
20
-3.2330000000000001
11
5.282
21
-3.2469999999999999
0
LINE
8
BLACK
6
CONTINUOUS
10
5.282
20
-3.2330000000000001
11
5.2679999999999998
21
-3.2469999999999999
0
LINE
8
BLACK
6
CONTINUOUS
10
5.2681454330708659
20
-4.0030892913385827
11
5.2821454330708661
21
-4.0170892913385829
0
LINE
8
BLACK
6
CONTINUOUS
10
5.2821454330708661
20
-4.0030892913385827
11
5.2681454330708659
21
-4.0170892913385829
0
LINE
8
BLACK
6
CONTINUOUS
10
5.2729999999999997
20
-3.5829999999999997
11
5.2869999999999999
21
-3.597
0
LINE
8
BLACK
6
CONTINUOUS
10
5.2869999999999999
20
-3.5829999999999997
11
5.2729999999999997
21
-3.597
0
LINE
8
BLACK
6
CONTINUOUS
10
5.2930000000000001
20
-3.968
11
5.3069999999999995
21
-3.9819999999999998
0
LINE
8
BLACK
6
CONTINUOUS
10
5.3069999999999995
20
-3.968
11
5.2930000000000001
21
-3.9819999999999998
0
LINE
8
BLACK
6
CONTINUOUS
10
5.2991505511811026
20
-3.7186468503937009
11
5.3131505511811019
21
-3.7326468503937007
0
LINE
8
BLACK
6
CONTINUOUS
10
5.3131505511811019
20
-3.7186468503937009
11
5.2991505511811026
21
-3.7326468503937007
0
LINE
8
BLACK
6
CONTINUOUS
10
5.3029999999999999
20
-3.9179999999999997
11
5.3170000000000002
21
-3.9319999999999999
0
LINE
8
BLACK
6
CONTINUOUS
10
5.3170000000000002
20
-3.9179999999999997
11
5.3029999999999999
21
-3.9319999999999999
0
LINE
8
BLACK
6
CONTINUOUS
10
5.3129999999999997
20
-3.5329999999999999
11
5.327
21
-3.5469999999999997
0
LINE
8
BLACK
6
CONTINUOUS
10
5.327
20
-3.5329999999999999
11
5.3129999999999997
21
-3.5469999999999997
0
LINE
8
BLACK
6
CONTINUOUS
10
5.343
20
-4.2130000000000001
11
5.3570000000000002
21
-4.2270000000000003
0
LINE
8
BLACK
6
CONTINUOUS
10
5.3570000000000002
20
-4.2130000000000001
11
5.343
21
-4.2270000000000003
0
LINE
8
BLACK
6
CONTINUOUS
10
5.3679999999999994
20
-3.2330000000000001
11
5.3819999999999997
21
-3.2469999999999999
0
LINE
8
BLACK
6
CONTINUOUS
10
5.3819999999999997
20
-3.2330000000000001
11
5.3679999999999994
21
-3.2469999999999999
0
LINE
8
BLACK
6
CONTINUOUS
10
5.383
20
-4.1230000000000002
11
5.3970000000000002
21
-4.1369999999999996
0
LINE
8
BLACK
6
CONTINUOUS
10
5.3970000000000002
20
-4.1230000000000002
11
5.383
21
-4.1369999999999996
0
LINE
8
BLACK
6
CONTINUOUS
10
5.3929999999999998
20
-4.2329999999999997
11
5.407
21
-4.2469999999999999
0
LINE
8
BLACK
6
CONTINUOUS
10
5.407
20
-4.2329999999999997
11
5.3929999999999998
21
-4.2469999999999999
0
LINE
8
BLACK
6
CONTINUOUS
10
5.423
20
-3.6679999999999997
11
5.4370000000000003
21
-3.6819999999999999
0
LINE
8
BLACK
6
CONTINUOUS
10
5.4370000000000003
20
-3.6679999999999997
11
5.423
21
-3.6819999999999999
0
LINE
8
BLACK
6
CONTINUOUS
10
5.4279999999999999
20
-3.8679999999999999
11
5.4420000000000002
21
-3.8820000000000001
0
LINE
8
BLACK
6
CONTINUOUS
10
5.4420000000000002
20
-3.8679999999999999
11
5.4279999999999999
21
-3.8820000000000001
0
LINE
8
BLACK
6
CONTINUOUS
10
5.4279999999999999
20
-3.968
11
5.4420000000000002
21
-3.9819999999999998
0
LINE
8
BLACK
6
CONTINUOUS
10
5.4420000000000002
20
-3.968
11
5.4279999999999999
21
-3.9819999999999998
0
LINE
8
BLACK
6
CONTINUOUS
10
5.468
20
-3.2330000000000001
11
5.4820000000000002
21
-3.2469999999999999
0
LINE
8
BLACK
6
CONTINUOUS
10
5.4820000000000002
20
-3.2330000000000001
11
5.468
21
-3.2469999999999999
0
LINE
8
BLACK
6
CONTINUOUS
10
5.5430000000000001
20
-3.7629999999999999
11
5.5569999999999995
21
-3.7770000000000001
0
LINE
8
BLACK
6
CONTINUOUS
10
5.5569999999999995
20
-3.7629999999999999
11
5.5430000000000001
21
-3.7770000000000001
0
LINE
8
BLACK
6
CONTINUOUS
10
5.5679999999999996
20
-3.2330000000000001
11
5.5819999999999999
21
-3.2469999999999999
0
LINE
8
BLACK
6
CONTINUOUS
10
5.5819999999999999
20
-3.2330000000000001
11
5.5679999999999996
21
-3.2469999999999999
0
LINE
8
BLACK
6
CONTINUOUS
10
5.5729999999999995
20
-3.9630000000000001
11
5.5869999999999997
21
-3.9769999999999999
0
LINE
8
BLACK
6
CONTINUOUS
10
5.5869999999999997
20
-3.9630000000000001
11
5.5729999999999995
21
-3.9769999999999999
0
LINE
8
BLACK
6
CONTINUOUS
10
5.6429999999999998
20
-4.0129999999999999
11
5.657
21
-4.0270000000000001
0
LINE
8
BLACK
6
CONTINUOUS
10
5.657
20
-4.0129999999999999
11
5.6429999999999998
21
-4.0270000000000001
0
LINE
8
BLACK
6
CONTINUOUS
10
5.6579999999999995
20
-3.0579999999999998
11
5.6719999999999997
21
-3.0720000000000001
0
LINE
8
BLACK
6
CONTINUOUS
10
5.6719999999999997
20
-3.0579999999999998
11
5.6579999999999995
21
-3.0720000000000001
0
LINE
8
BLACK
6
CONTINUOUS
10
5.6680000000000001
20
-3.2330000000000001
11
5.6819999999999995
21
-3.2469999999999999
0
LINE
8
BLACK
6
CONTINUOUS
10
5.6819999999999995
20
-3.2330000000000001
11
5.6680000000000001
21
-3.2469999999999999
0
LINE
8
BLACK
6
CONTINUOUS
10
5.758
20
-3.4059921259842518
11
5.7720000000000002
21
-3.4199921259842521
0
LINE
8
BLACK
6
CONTINUOUS
10
5.7720000000000002
20
-3.4059921259842518
11
5.758
21
-3.4199921259842521
0
LINE
8
BLACK
6
CONTINUOUS
10
5.7679999999999998
20
-3.2330000000000001
11
5.782
21
-3.2469999999999999
0
LINE
8
BLACK
6
CONTINUOUS
10
5.782
20
-3.2330000000000001
11
5.7679999999999998
21
-3.2469999999999999
0
LINE
8
BLACK
6
CONTINUOUS
10
5.8179999999999996
20
-3.5829999999999997
11
5.8319999999999999
21
-3.597
0
LINE
8
BLACK
6
CONTINUOUS
10
5.8319999999999999
20
-3.5829999999999997
11
5.8179999999999996
21
-3.597
0
LINE
8
BLACK
6
CONTINUOUS
10
5.8280000000000003
20
-3.8380000000000001
11
5.8419999999999996
21
-3.8519999999999999
0
LINE
8
BLACK
6
CONTINUOUS
10
5.8419999999999996
20
-3.8380000000000001
11
5.8280000000000003
21
-3.8519999999999999
0
LINE
8
BLACK
6
CONTINUOUS
10
5.8328818897637795
20
-3.9379999999999997
11
5.8468818897637798
21
-3.952
0
LINE
8
BLACK
6
CONTINUOUS
10
5.8468818897637798
20
-3.9379999999999997
11
5.8328818897637795
21
-3.952
0
LINE
8
BLACK
6
CONTINUOUS
10
5.8330000000000002
20
-3.7929999999999997
11
5.8469999999999995
21
-3.8069999999999999
0
LINE
8
BLACK
6
CONTINUOUS
10
5.8469999999999995
20
-3.7929999999999997
11
5.8330000000000002
21
-3.8069999999999999
0
LINE
8
BLACK
6
CONTINUOUS
10
5.8679999999999994
20
-3.2330000000000001
11
5.8819999999999997
21
-3.2469999999999999
0
LINE
8
BLACK
6
CONTINUOUS
10
5.8819999999999997
20
-3.2330000000000001
11
5.8679999999999994
21
-3.2469999999999999
0
LINE
8
BLACK
6
CONTINUOUS
10
5.8730000000000002
20
-3.7330000000000001
11
5.8869999999999996
21
-3.7469999999999999
0
LINE
8
BLACK
6
CONTINUOUS
10
5.8869999999999996
20
-3.7330000000000001
11
5.8730000000000002
21
-3.7469999999999999
0
LINE
8
BLACK
6
CONTINUOUS
10
5.8730000000000002
20
-4.1680000000000001
11
5.8869999999999996
21
-4.1819999999999995
0
LINE
8
BLACK
6
CONTINUOUS
10
5.8869999999999996
20
-4.1680000000000001
11
5.8730000000000002
21
-4.1819999999999995
0
LINE
8
BLACK
6
CONTINUOUS
10
5.8970000000000002
20
-3.6930000000000001
11
5.9109999999999996
21
-3.7069999999999999
0
LINE
8
BLACK
6
CONTINUOUS
10
5.9109999999999996
20
-3.6930000000000001
11
5.8970000000000002
21
-3.7069999999999999
0
LINE
8
BLACK
6
CONTINUOUS
10
5.9079999999999995
20
-3.613
11
5.9219999999999997
21
-3.6269999999999998
0
LINE
8
BLACK
6
CONTINUOUS
10
5.9219999999999997
20
-3.613
11
5.9079999999999995
21
-3.6269999999999998
0
LINE
8
BLACK
6
CONTINUOUS
10
6.0030000000000001
20
-4.2329999999999997
11
6.0169999999999995
21
-4.2469999999999999
0
LINE
8
BLACK
6
CONTINUOUS
10
6.0169999999999995
20
-4.2329999999999997
11
6.0030000000000001
21
-4.2469999999999999
0
LINE
8
BLACK
6
CONTINUOUS
10
6.0179999999999998
20
-3.2730000000000001
11
6.032
21
-3.2869999999999999
0
LINE
8
BLACK
6
CONTINUOUS
10
6.032
20
-3.2730000000000001
11
6.0179999999999998
21
-3.2869999999999999
0
LINE
8
BLACK
6
CONTINUOUS
10
6.0889999999999995
20
-3.6930000000000001
11
6.1029999999999998
21
-3.7069999999999999
0
LINE
8
BLACK
6
CONTINUOUS
10
6.1029999999999998
20
-3.6930000000000001
11
6.0889999999999995
21
-3.7069999999999999
0
LINE
8
BLACK
6
CONTINUOUS
10
6.1369999999999996
20
-3.4929999999999999
11
6.1509999999999998
21
-3.5070000000000001
0
LINE
8
BLACK
6
CONTINUOUS
10
6.1509999999999998
20
-3.4929999999999999
11
6.1369999999999996
21
-3.5070000000000001
0
LINE
8
BLACK
6
CONTINUOUS
10
6.1479999999999997
20
-3.7929999999999997
11
6.1619999999999999
21
-3.8069999999999999
0
LINE
8
BLACK
6
CONTINUOUS
10
6.1619999999999999
20
-3.7929999999999997
11
6.1479999999999997
21
-3.8069999999999999
0
LINE
8
BLACK
6
CONTINUOUS
10
6.1979999999999995
20
-3.6779999999999999
11
6.2119999999999997
21
-3.6919999999999997
0
LINE
8
BLACK
6
CONTINUOUS
10
6.2119999999999997
20
-3.6779999999999999
11
6.1979999999999995
21
-3.6919999999999997
0
LINE
8
BLACK
6
CONTINUOUS
10
6.2080000000000002
20
-3.0529999999999999
11
6.2219999999999995
21
-3.0669999999999997
0
LINE
8
BLACK
6
CONTINUOUS
10
6.2219999999999995
20
-3.0529999999999999
11
6.2080000000000002
21
-3.0669999999999997
0
LINE
8
BLACK
6
CONTINUOUS
10
6.2480000000000002
20
-3.238
11
6.2619999999999996
21
-3.2519999999999998
0
LINE
8
BLACK
6
CONTINUOUS
10
6.2619999999999996
20
-3.238
11
6.2480000000000002
21
-3.2519999999999998
0
LINE
8
BLACK
6
CONTINUOUS
10
6.298
20
-3.8831496062992126
11
6.3120000000000003
21
-3.8971496062992124
0
LINE
8
BLACK
6
CONTINUOUS
10
6.3120000000000003
20
-3.8831496062992126
11
6.298
21
-3.8971496062992124
0
LINE
8
BLACK
6
CONTINUOUS
10
6.3288016929133857
20
-3.4765303543307087
11
6.3428016929133859
21
-3.4905303543307085
0
LINE
8
BLACK
6
CONTINUOUS
10
6.3428016929133859
20
-3.4765303543307087
11
6.3288016929133857
21
-3.4905303543307085
0
LINE
8
BLACK
6
CONTINUOUS
10
6.3330000000000002
20
-3.9430000000000001
11
6.3469999999999995
21
-3.9569999999999999
0
LINE
8
BLACK
6
CONTINUOUS
10
6.3469999999999995
20
-3.9430000000000001
11
6.3330000000000002
21
-3.9569999999999999
0
LINE
8
BLACK
6
CONTINUOUS
10
6.4409999999999998
20
-3.2450000000000001
11
6.4550000000000001
21
-3.2589999999999999
0
LINE
8
BLACK
6
CONTINUOUS
10
6.4550000000000001
20
-3.2450000000000001
11
6.4409999999999998
21
-3.2589999999999999
0
LINE
8
BLACK
6
CONTINUOUS
10
6.4479999999999995
20
-3.5429999999999997
11
6.4619999999999997
21
-3.5569999999999999
0
LINE
8
BLACK
6
CONTINUOUS
10
6.4619999999999997
20
-3.5429999999999997
11
6.4479999999999995
21
-3.5569999999999999
0
LINE
8
BLACK
6
CONTINUOUS
10
6.4530000000000003
20
-3.343
11
6.4669999999999996
21
-3.3569999999999998
0
LINE
8
BLACK
6
CONTINUOUS
10
6.4669999999999996
20
-3.343
11
6.4530000000000003
21
-3.3569999999999998
0
CIRCLE
8
BLACK
10
5.5537401574803145
20
-3.846259842519685
40
0.0177165354330709
0
CIRCLE
8
BLACK
10
5.6521653543307089
20
-3.9446850393700785
40
0.0177165354330709
0
CIRCLE
8
BLACK
10
5.7505905511811024
20
-3.846259842519685
40
0.0177165354330709
0
LINE
8
BLACK
6
CONTINUOUS
10
4.7999999999999998
20
-3.180314960629921
11
4.7999999999999998
21
-3.2196850393700789
0
LINE
8
BLACK
6
CONTINUOUS
10
4.7803149606299211
20
-3.1999999999999997
11
4.8196850393700785
21
-3.1999999999999997
0
LINE
8
BLACK
6
CONTINUOUS
10
4.7999999999999998
20
-3.2803149606299211
11
4.7999999999999998
21
-3.3196850393700785
0
LINE
8
BLACK
6
CONTINUOUS
10
4.7803149606299211
20
-3.2999999999999998
11
4.8196850393700785
21
-3.2999999999999998
0
LINE
8
BLACK
6
CONTINUOUS
10
4.7999999999999998
20
-3.3803149606299212
11
4.7999999999999998
21
-3.4196850393700786
0
LINE
8
BLACK
6
CONTINUOUS
10
4.7803149606299211
20
-3.3999999999999999
11
4.8196850393700785
21
-3.3999999999999999
0
LINE
8
BLACK
6
CONTINUOUS
10
4.7999999999999998
20
-3.4803149606299213
11
4.7999999999999998
21
-3.5196850393700787
0
LINE
8
BLACK
6
CONTINUOUS
10
4.7803149606299211
20
-3.5
11
4.8196850393700785
21
-3.5
0
LINE
8
BLACK
6
CONTINUOUS
10
4.7999999999999998
20
-3.5803149606299214
11
4.7999999999999998
21
-3.6196850393700788
0
LINE
8
BLACK
6
CONTINUOUS
10
4.7803149606299211
20
-3.6000000000000001
11
4.8196850393700785
21
-3.6000000000000001
0
LINE
8
BLACK
6
CONTINUOUS
10
4.7999999999999998
20
-3.680314960629921
11
4.7999999999999998
21
-3.7196850393700784
0
LINE
8
BLACK
6
CONTINUOUS
10
4.7803149606299211
20
-3.6999999999999997
11
4.8196850393700785
21
-3.6999999999999997
0
LINE
8
BLACK
6
CONTINUOUS
10
4.7999999999999998
20
-3.7803149606299211
11
4.7999999999999998
21
-3.8196850393700785
0
LINE
8
BLACK
6
CONTINUOUS
10
4.7803149606299211
20
-3.7999999999999998
11
4.8196850393700785
21
-3.7999999999999998
0
LINE
8
BLACK
6
CONTINUOUS
10
4.7999999999999998
20
-3.8803149606299212
11
4.7999999999999998
21
-3.9196850393700786
0
LINE
8
BLACK
6
CONTINUOUS
10
4.7803149606299211
20
-3.8999999999999999
11
4.8196850393700785
21
-3.8999999999999999
0
LINE
8
BLACK
6
CONTINUOUS
10
5.2749999999999995
20
-3.1303149606299212
11
5.2749999999999995
21
-3.1696850393700786
0
LINE
8
BLACK
6
CONTINUOUS
10
5.2553149606299208
20
-3.1499999999999999
11
5.2946850393700791
21
-3.1499999999999999
0
LINE
8
BLACK
6
CONTINUOUS
10
5.375
20
-3.1303149606299212
11
5.375
21
-3.1696850393700786
0
LINE
8
BLACK
6
CONTINUOUS
10
5.3553149606299213
20
-3.1499999999999999
11
5.3946850393700787
21
-3.1499999999999999
0
LINE
8
BLACK
6
CONTINUOUS
10
5.4749999999999996
20
-3.1303149606299212
11
5.4749999999999996
21
-3.1696850393700786
0
LINE
8
BLACK
6
CONTINUOUS
10
5.4553149606299209
20
-3.1499999999999999
11
5.4946850393700783
21
-3.1499999999999999
0
LINE
8
BLACK
6
CONTINUOUS
10
5.5750000000000002
20
-3.1303149606299212
11
5.5750000000000002
21
-3.1696850393700786
0
LINE
8
BLACK
6
CONTINUOUS
10
5.5553149606299215
20
-3.1499999999999999
11
5.5946850393700789
21
-3.1499999999999999
0
LINE
8
BLACK
6
CONTINUOUS
10
5.6749999999999998
20
-3.1303149606299212
11
5.6749999999999998
21
-3.1696850393700786
0
LINE
8
BLACK
6
CONTINUOUS
10
5.6553149606299211
20
-3.1499999999999999
11
5.6946850393700785
21
-3.1499999999999999
0
LINE
8
BLACK
6
CONTINUOUS
10
5.7749999999999995
20
-3.1303149606299212
11
5.7749999999999995
21
-3.1696850393700786
0
LINE
8
BLACK
6
CONTINUOUS
10
5.7553149606299208
20
-3.1499999999999999
11
5.7946850393700782
21
-3.1499999999999999
0
LINE
8
BLACK
6
CONTINUOUS
10
5.875
20
-3.1303149606299212
11
5.875
21
-3.1696850393700786
0
LINE
8
BLACK
6
CONTINUOUS
10
5.8553149606299213
20
-3.1499999999999999
11
5.8946850393700787
21
-3.1499999999999999
0
LINE
8
BLACK
6
CONTINUOUS
10
5.9749999999999996
20
-3.1303149606299212
11
5.9749999999999996
21
-3.1696850393700786
0
LINE
8
BLACK
6
CONTINUOUS
10
5.9553149606299209
20
-3.1499999999999999
11
5.9946850393700783
21
-3.1499999999999999
0
LINE
8
BLACK
6
CONTINUOUS
10
6.0750000000000002
20
-3.1303149606299212
11
6.0750000000000002
21
-3.1696850393700786
0
LINE
8
BLACK
6
CONTINUOUS
10
6.0553149606299215
20
-3.1499999999999999
11
6.0946850393700789
21
-3.1499999999999999
0
LINE
8
BLACK
6
CONTINUOUS
10
6.1749999999999998
20
-3.1303149606299212
11
6.1749999999999998
21
-3.1696850393700786
0
LINE
8
BLACK
6
CONTINUOUS
10
6.1553149606299211
20
-3.1499999999999999
11
6.1946850393700785
21
-3.1499999999999999
0
LINE
8
BLACK
6
CONTINUOUS
10
6.5999999999999996
20
-3.2303149606299213
11
6.5999999999999996
21
-3.2696850393700787
0
LINE
8
BLACK
6
CONTINUOUS
10
6.5803149606299209
20
-3.25
11
6.6196850393700783
21
-3.25
0
LINE
8
BLACK
6
CONTINUOUS
10
6.5999999999999996
20
-3.3303149606299214
11
6.5999999999999996
21
-3.3696850393700788
0
LINE
8
BLACK
6
CONTINUOUS
10
6.5803149606299209
20
-3.3500000000000001
11
6.6196850393700783
21
-3.3500000000000001
0
LINE
8
BLACK
6
CONTINUOUS
10
6.5999999999999996
20
-3.430314960629921
11
6.5999999999999996
21
-3.4696850393700789
0
LINE
8
BLACK
6
CONTINUOUS
10
6.5803149606299209
20
-3.4499999999999997
11
6.6196850393700783
21
-3.4499999999999997
0
LINE
8
BLACK
6
CONTINUOUS
10
6.5999999999999996
20
-3.5303149606299211
11
6.5999999999999996
21
-3.5696850393700785
0
LINE
8
BLACK
6
CONTINUOUS
10
6.5803149606299209
20
-3.5499999999999998
11
6.6196850393700783
21
-3.5499999999999998
0
LINE
8
BLACK
6
CONTINUOUS
10
6.5999999999999996
20
-3.6303149606299212
11
6.5999999999999996
21
-3.6696850393700786
0
LINE
8
BLACK
6
CONTINUOUS
10
6.5803149606299209
20
-3.6499999999999999
11
6.6196850393700783
21
-3.6499999999999999
0
LINE
8
BLACK
6
CONTINUOUS
10
6.5999999999999996
20
-3.7303149606299213
11
6.5999999999999996
21
-3.7696850393700787
0
LINE
8
BLACK
6
CONTINUOUS
10
6.5803149606299209
20
-3.75
11
6.6196850393700783
21
-3.75
0
LINE
8
BLACK
6
CONTINUOUS
10
6.5999999999999996
20
-3.8303149606299214
11
6.5999999999999996
21
-3.8696850393700788
0
LINE
8
BLACK
6
CONTINUOUS
10
6.5803149606299209
20
-3.8500000000000001
11
6.6196850393700783
21
-3.8500000000000001
0
LINE
8
BLACK
6
CONTINUOUS
10
6.5999999999999996
20
-3.930314960629921
11
6.5999999999999996
21
-3.9696850393700784
0
LINE
8
BLACK
6
CONTINUOUS
10
6.5803149606299209
20
-3.9499999999999997
11
6.6196850393700783
21
-3.9499999999999997
0
LINE
8
BLACK
6
CONTINUOUS
10
4.9030335039370074
20
-3.003033503937008
11
4.9030335039370074
21
-2.8969664960629919
0
LINE
8
BLACK
6
CONTINUOUS
10
4.9030335039370074
20
-2.8969664960629919
11
4.7969664960629919
21
-2.8969664960629919
0
LINE
8
BLACK
6
CONTINUOUS
10
4.7969664960629919
20
-2.8969664960629919
11
4.7969664960629919
21
-3.003033503937008
0
LINE
8
BLACK
6
CONTINUOUS
10
4.7969664960629919
20
-3.003033503937008
11
4.9030335039370074
21
-3.003033503937008
0
LINE
8
BLACK
6
CONTINUOUS
10
4.9030335039370074
20
-4.2030335039370081
11
4.9030335039370074
21
-4.0969664960629917
0
LINE
8
BLACK
6
CONTINUOUS
10
4.9030335039370074
20
-4.0969664960629917
11
4.7969664960629919
21
-4.0969664960629917
0
LINE
8
BLACK
6
CONTINUOUS
10
4.7969664960629919
20
-4.0969664960629917
11
4.7969664960629919
21
-4.2030335039370081
0
LINE
8
BLACK
6
CONTINUOUS
10
4.7969664960629919
20
-4.2030335039370081
11
4.9030335039370074
21
-4.2030335039370081
0
LINE
8
BLACK
6
CONTINUOUS
10
6.6030335039370076
20
-3.003033503937008
11
6.6030335039370076
21
-2.8969664960629919
0
LINE
8
BLACK
6
CONTINUOUS
10
6.6030335039370076
20
-2.8969664960629919
11
6.496966496062992
21
-2.8969664960629919
0
LINE
8
BLACK
6
CONTINUOUS
10
6.496966496062992
20
-2.8969664960629919
11
6.496966496062992
21
-3.003033503937008
0
LINE
8
BLACK
6
CONTINUOUS
10
6.496966496062992
20
-3.003033503937008
11
6.6030335039370076
21
-3.003033503937008
0
LINE
8
BLACK
6
CONTINUOUS
10
6.6030335039370076
20
-4.2030335039370081
11
6.6030335039370076
21
-4.0969664960629917
0
LINE
8
BLACK
6
CONTINUOUS
10
6.6030335039370076
20
-4.0969664960629917
11
6.496966496062992
21
-4.0969664960629917
0
LINE
8
BLACK
6
CONTINUOUS
10
6.496966496062992
20
-4.0969664960629917
11
6.496966496062992
21
-4.2030335039370081
0
LINE
8
BLACK
6
CONTINUOUS
10
6.496966496062992
20
-4.2030335039370081
11
6.6030335039370076
21
-4.2030335039370081
0
LINE
8
BLACK
6
CONTINUOUS
10
4.8016837795275586
20
-4.4236156692913386
11
4.8016837795275586
21
-4.3448755118110238
0
LINE
8
BLACK
6
CONTINUOUS
10
4.8016837795275586
20
-4.3448755118110238
11
4.8204314173228342
21
-4.3448755118110238
0
LINE
8
BLACK
6
CONTINUOUS
10
4.8204314173228342
20
-4.3448755118110238
11
4.8316800393700783
21
-4.3486250393700789
0
LINE
8
BLACK
6
CONTINUOUS
10
4.8316800393700783
20
-4.3486250393700789
11
4.8391790944881885
21
-4.3561240944881892
0
LINE
8
BLACK
6
CONTINUOUS
10
4.8391790944881885
20
-4.3561240944881892
11
4.8429286220472436
21
-4.3636231496062994
0
LINE
8
BLACK
6
CONTINUOUS
10
4.8429286220472436
20
-4.3636231496062994
11
4.8466781496062987
21
-4.3786212598425198
0
LINE
8
BLACK
6
CONTINUOUS
10
4.8466781496062987
20
-4.3786212598425198
11
4.8466781496062987
21
-4.3898698818897639
0
LINE
8
BLACK
6
CONTINUOUS
10
4.8466781496062987
20
-4.3898698818897639
11
4.8429286220472436
21
-4.4048679921259843
0
LINE
8
BLACK
6
CONTINUOUS
10
4.8429286220472436
20
-4.4048679921259843
11
4.8391790944881885
21
-4.4123670472440946
0
LINE
8
BLACK
6
CONTINUOUS
10
4.8391790944881885
20
-4.4123670472440946
11
4.8316800393700783
21
-4.4198661417322835
0
LINE
8
BLACK
6
CONTINUOUS
10
4.8316800393700783
20
-4.4198661417322835
11
4.8204314173228342
21
-4.4236156692913386
0
LINE
8
BLACK
6
CONTINUOUS
10
4.8204314173228342
20
-4.4236156692913386
11
4.8016837795275586
21
-4.4236156692913386
0
LINE
8
BLACK
6
CONTINUOUS
10
4.8804239370078735
20
-4.4236156692913386
11
4.8804239370078735
21
-4.3711222047244096
0
LINE
8
BLACK
6
CONTINUOUS
10
4.8804239370078735
20
-4.3861203543307088
11
4.8841734645669286
21
-4.3786212598425198
0
LINE
8
BLACK
6
CONTINUOUS
10
4.8841734645669286
20
-4.3786212598425198
11
4.8879229921259846
21
-4.3748717322834647
0
LINE
8
BLACK
6
CONTINUOUS
10
4.8879229921259846
20
-4.3748717322834647
11
4.8954220472440948
21
-4.3711222047244096
0
LINE
8
BLACK
6
CONTINUOUS
10
4.8954220472440948
20
-4.3711222047244096
11
4.9029211417322838
21
-4.3711222047244096
0
LINE
8
BLACK
6
CONTINUOUS
10
4.9291678346456695
20
-4.4236156692913386
11
4.9291678346456695
21
-4.3711222047244096
0
LINE
8
BLACK
6
CONTINUOUS
10
4.9291678346456695
20
-4.3448755118110238
11
4.9254183070866144
21
-4.3486250393700789
0
LINE
8
BLACK
6
CONTINUOUS
10
4.9254183070866144
20
-4.3486250393700789
11
4.9291678346456695
21
-4.352374566929134
0
LINE
8
BLACK
6
CONTINUOUS
10
4.9291678346456695
20
-4.352374566929134
11
4.9329173622047247
21
-4.3486250393700789
0
LINE
8
BLACK
6
CONTINUOUS
10
4.9329173622047247
20
-4.3486250393700789
11
4.9291678346456695
21
-4.3448755118110238
0
LINE
8
BLACK
6
CONTINUOUS
10
4.9291678346456695
20
-4.3448755118110238
11
4.9291678346456695
21
-4.352374566929134
0
LINE
8
BLACK
6
CONTINUOUS
10
4.9779117322834647
20
-4.4236156692913386
11
4.9704126771653545
21
-4.4198661417322835
0
LINE
8
BLACK
6
CONTINUOUS
10
4.9704126771653545
20
-4.4198661417322835
11
4.9666631496062994
21
-4.4123670472440946
0
LINE
8
BLACK
6
CONTINUOUS
10
4.9666631496062994
20
-4.4123670472440946
11
4.9666631496062994
21
-4.3448755118110238
0
LINE
8
BLACK
6
CONTINUOUS
10
5.0191565748031497
20
-4.4236156692913386
11
5.0116575196850395
21
-4.4198661417322835
0
LINE
8
BLACK
6
CONTINUOUS
10
5.0116575196850395
20
-4.4198661417322835
11
5.0079079921259844
21
-4.4123670472440946
0
LINE
8
BLACK
6
CONTINUOUS
10
5.0079079921259844
20
-4.4123670472440946
11
5.0079079921259844
21
-4.3448755118110238
0
LINE
8
BLACK
6
CONTINUOUS
10
5.1091453543307086
20
-4.4236156692913386
11
5.1091453543307086
21
-4.3448755118110238
0
LINE
8
BLACK
6
CONTINUOUS
10
5.1091453543307086
20
-4.3448755118110238
11
5.1353920866141731
21
-4.4011184645669292
0
LINE
8
BLACK
6
CONTINUOUS
10
5.1353920866141731
20
-4.4011184645669292
11
5.1616387795275589
21
-4.3448755118110238
0
LINE
8
BLACK
6
CONTINUOUS
10
5.1616387795275589
20
-4.3448755118110238
11
5.1616387795275589
21
-4.4236156692913386
0
LINE
8
BLACK
6
CONTINUOUS
10
5.2328798818897635
20
-4.4236156692913386
11
5.2328798818897635
21
-4.3823708267716537
0
LINE
8
BLACK
6
CONTINUOUS
10
5.2328798818897635
20
-4.3823708267716537
11
5.2291303543307084
21
-4.3748717322834647
0
LINE
8
BLACK
6
CONTINUOUS
10
5.2291303543307084
20
-4.3748717322834647
11
5.2216312992125982
21
-4.3711222047244096
0
LINE
8
BLACK
6
CONTINUOUS
10
5.2216312992125982
20
-4.3711222047244096
11
5.206633149606299
21
-4.3711222047244096
0
LINE
8
BLACK
6
CONTINUOUS
10
5.206633149606299
20
-4.3711222047244096
11
5.1991340944881888
21
-4.3748717322834647
0
LINE
8
BLACK
6
CONTINUOUS
10
5.2328798818897635
20
-4.4198661417322835
11
5.2253808267716533
21
-4.4236156692913386
0
LINE
8
BLACK
6
CONTINUOUS
10
5.2253808267716533
20
-4.4236156692913386
11
5.206633149606299
21
-4.4236156692913386
0
LINE
8
BLACK
6
CONTINUOUS
10
5.206633149606299
20
-4.4236156692913386
11
5.1991340944881888
21
-4.4198661417322835
0
LINE
8
BLACK
6
CONTINUOUS
10
5.1991340944881888
20
-4.4198661417322835
11
5.1953845669291336
21
-4.4123670472440946
0
LINE
8
BLACK
6
CONTINUOUS
10
5.1953845669291336
20
-4.4123670472440946
11
5.1953845669291336
21
-4.4048679921259843
0
LINE
8
BLACK
6
CONTINUOUS
10
5.1953845669291336
20
-4.4048679921259843
11
5.1991340944881888
21
-4.3973689370078741
0
LINE
8
BLACK
6
CONTINUOUS
10
5.1991340944881888
20
-4.3973689370078741
11
5.206633149606299
21
-4.393619409448819
0
LINE
8
BLACK
6
CONTINUOUS
10
5.206633149606299
20
-4.393619409448819
11
5.2253808267716533
21
-4.393619409448819
0
LINE
8
BLACK
6
CONTINUOUS
10
5.2253808267716533
20
-4.393619409448819
11
5.2328798818897635
21
-4.3898698818897639
0
LINE
8
BLACK
6
CONTINUOUS
10
5.2703751968503934
20
-4.3711222047244096
11
5.2703751968503934
21
-4.4498623622047244
0
LINE
8
BLACK
6
CONTINUOUS
10
5.2703751968503934
20
-4.3748717322834647
11
5.2778742519685036
21
-4.3711222047244096
0
LINE
8
BLACK
6
CONTINUOUS
10
5.2778742519685036
20
-4.3711222047244096
11
5.2928724015748028
21
-4.3711222047244096
0
LINE
8
BLACK
6
CONTINUOUS
10
5.2928724015748028
20
-4.3711222047244096
11
5.300371456692913
21
-4.3748717322834647
0
LINE
8
BLACK
6
CONTINUOUS
10
5.300371456692913
20
-4.3748717322834647
11
5.3041209842519681
21
-4.3786212598425198
0
LINE
8
BLACK
6
CONTINUOUS
10
5.3041209842519681
20
-4.3786212598425198
11
5.3078705118110232
21
-4.3861203543307088
0
LINE
8
BLACK
6
CONTINUOUS
10
5.3078705118110232
20
-4.3861203543307088
11
5.3078705118110232
21
-4.4086175196850395
0
LINE
8
BLACK
6
CONTINUOUS
10
5.3078705118110232
20
-4.4086175196850395
11
5.3041209842519681
21
-4.4161165748031497
0
LINE
8
BLACK
6
CONTINUOUS
10
5.3041209842519681
20
-4.4161165748031497
11
5.300371456692913
21
-4.4198661417322835
0
LINE
8
BLACK
6
CONTINUOUS
10
5.300371456692913
20
-4.4198661417322835
11
5.2928724015748028
21
-4.4236156692913386
0
LINE
8
BLACK
6
CONTINUOUS
10
5.2928724015748028
20
-4.4236156692913386
11
5.2778742519685036
21
-4.4236156692913386
0
LINE
8
BLACK
6
CONTINUOUS
10
5.2778742519685036
20
-4.4236156692913386
11
5.2703751968503934
21
-4.4198661417322835
0
LINE
8
BLACK
6
CONTINUOUS
10
5.341616299212598
20
-4.4161165748031497
11
5.3453658267716531
21
-4.4198661417322835
0
LINE
8
BLACK
6
CONTINUOUS
10
5.3453658267716531
20
-4.4198661417322835
11
5.341616299212598
21
-4.4236156692913386
0
LINE
8
BLACK
6
CONTINUOUS
10
5.341616299212598
20
-4.4236156692913386
11
5.3378667716535428
21
-4.4198661417322835
0
LINE
8
BLACK
6
CONTINUOUS
10
5.3378667716535428
20
-4.4198661417322835
11
5.341616299212598
21
-4.4161165748031497
0
LINE
8
BLACK
6
CONTINUOUS
10
5.341616299212598
20
-4.4161165748031497
11
5.341616299212598
21
-4.4236156692913386
0
LINE
8
BLACK
6
CONTINUOUS
10
5.341616299212598
20
-4.3748717322834647
11
5.3453658267716531
21
-4.3786212598425198
0
LINE
8
BLACK
6
CONTINUOUS
10
5.3453658267716531
20
-4.3786212598425198
11
5.341616299212598
21
-4.3823708267716537
0
LINE
8
BLACK
6
CONTINUOUS
10
5.341616299212598
20
-4.3823708267716537
11
5.3378667716535428
21
-4.3786212598425198
0
LINE
8
BLACK
6
CONTINUOUS
10
5.3378667716535428
20
-4.3786212598425198
11
5.341616299212598
21
-4.3748717322834647
0
LINE
8
BLACK
6
CONTINUOUS
10
5.341616299212598
20
-4.3748717322834647
11
5.341616299212598
21
-4.3823708267716537
0
LINE
8
BLACK
6
CONTINUOUS
10
4.6850157480314962
20
-4.5459527559055113
11
4.6990157480314956
21
-4.5599527559055115
0
LINE
8
BLACK
6
CONTINUOUS
10
4.6990157480314956
20
-4.5459527559055113
11
4.6850157480314962
21
-4.5599527559055115
0
LINE
8
BLACK
6
CONTINUOUS
10
4.8166818897637791
20
-4.510229842519685
11
4.8241809842519681
21
-4.510229842519685
0
LINE
8
BLACK
6
CONTINUOUS
10
4.8241809842519681
20
-4.510229842519685
11
4.8316800393700783
21
-4.5139793700787401
0
LINE
8
BLACK
6
CONTINUOUS
10
4.8316800393700783
20
-4.5139793700787401
11
4.8354295669291334
21
-4.5177288976377952
0
LINE
8
BLACK
6
CONTINUOUS
10
4.8354295669291334
20
-4.5177288976377952
11
4.8391790944881885
21
-4.5252279527559054
0
LINE
8
BLACK
6
CONTINUOUS
10
4.8391790944881885
20
-4.5252279527559054
11
4.8429286220472436
21
-4.5402260629921258
0
LINE
8
BLACK
6
CONTINUOUS
10
4.8429286220472436
20
-4.5402260629921258
11
4.8429286220472436
21
-4.5589737401574801
0
LINE
8
BLACK
6
CONTINUOUS
10
4.8429286220472436
20
-4.5589737401574801
11
4.8391790944881885
21
-4.5739718503937006
0
LINE
8
BLACK
6
CONTINUOUS
10
4.8391790944881885
20
-4.5739718503937006
11
4.8354295669291334
21
-4.5814709055118108
0
LINE
8
BLACK
6
CONTINUOUS
10
4.8354295669291334
20
-4.5814709055118108
11
4.8316800393700783
21
-4.5852204724409447
0
LINE
8
BLACK
6
CONTINUOUS
10
4.8316800393700783
20
-4.5852204724409447
11
4.8241809842519681
21
-4.5889699999999998
0
LINE
8
BLACK
6
CONTINUOUS
10
4.8241809842519681
20
-4.5889699999999998
11
4.8166818897637791
21
-4.5889699999999998
0
LINE
8
BLACK
6
CONTINUOUS
10
4.8166818897637791
20
-4.5889699999999998
11
4.8091828346456689
21
-4.5852204724409447
0
LINE
8
BLACK
6
CONTINUOUS
10
4.8091828346456689
20
-4.5852204724409447
11
4.8054333070866138
21
-4.5814709055118108
0
LINE
8
BLACK
6
CONTINUOUS
10
4.8054333070866138
20
-4.5814709055118108
11
4.8016837795275586
21
-4.5739718503937006
0
LINE
8
BLACK
6
CONTINUOUS
10
4.8016837795275586
20
-4.5739718503937006
11
4.7979342519685035
21
-4.5589737401574801
0
LINE
8
BLACK
6
CONTINUOUS
10
4.7979342519685035
20
-4.5589737401574801
11
4.7979342519685035
21
-4.5402260629921258
0
LINE
8
BLACK
6
CONTINUOUS
10
4.7979342519685035
20
-4.5402260629921258
11
4.8016837795275586
21
-4.5252279527559054
0
LINE
8
BLACK
6
CONTINUOUS
10
4.8016837795275586
20
-4.5252279527559054
11
4.8054333070866138
21
-4.5177288976377952
0
LINE
8
BLACK
6
CONTINUOUS
10
4.8054333070866138
20
-4.5177288976377952
11
4.8091828346456689
21
-4.5139793700787401
0
LINE
8
BLACK
6
CONTINUOUS
10
4.8091828346456689
20
-4.5139793700787401
11
4.8166818897637791
21
-4.510229842519685
0
LINE
8
BLACK
6
CONTINUOUS
10
4.8766744094488184
20
-4.5814709055118108
11
4.8804239370078735
21
-4.5852204724409447
0
LINE
8
BLACK
6
CONTINUOUS
10
4.8804239370078735
20
-4.5852204724409447
11
4.8766744094488184
21
-4.5889699999999998
0
LINE
8
BLACK
6
CONTINUOUS
10
4.8766744094488184
20
-4.5889699999999998
11
4.8729248818897632
21
-4.5852204724409447
0
LINE
8
BLACK
6
CONTINUOUS
10
4.8729248818897632
20
-4.5852204724409447
11
4.8766744094488184
21
-4.5814709055118108
0
LINE
8
BLACK
6
CONTINUOUS
10
4.8766744094488184
20
-4.5814709055118108
11
4.8766744094488184
21
-4.5889699999999998
0
LINE
8
BLACK
6
CONTINUOUS
10
4.9066706692913389
20
-4.510229842519685
11
4.9554145669291341
21
-4.510229842519685
0
LINE
8
BLACK
6
CONTINUOUS
10
4.9554145669291341
20
-4.510229842519685
11
4.9291678346456695
21
-4.5402260629921258
0
LINE
8
BLACK
6
CONTINUOUS
10
4.9291678346456695
20
-4.5402260629921258
11
4.9404164566929136
21
-4.5402260629921258
0
LINE
8
BLACK
6
CONTINUOUS
10
4.9404164566929136
20
-4.5402260629921258
11
4.9479155118110238
21
-4.5439755905511809
0
LINE
8
BLACK
6
CONTINUOUS
10
4.9479155118110238
20
-4.5439755905511809
11
4.951665039370079
21
-4.5477251574803148
0
LINE
8
BLACK
6
CONTINUOUS
10
4.951665039370079
20
-4.5477251574803148
11
4.9554145669291341
21
-4.555224212598425
0
LINE
8
BLACK
6
CONTINUOUS
10
4.9554145669291341
20
-4.555224212598425
11
4.9554145669291341
21
-4.5739718503937006
0
LINE
8
BLACK
6
CONTINUOUS
10
4.9554145669291341
20
-4.5739718503937006
11
4.951665039370079
21
-4.5814709055118108
0
LINE
8
BLACK
6
CONTINUOUS
10
4.951665039370079
20
-4.5814709055118108
11
4.9479155118110238
21
-4.5852204724409447
0
LINE
8
BLACK
6
CONTINUOUS
10
4.9479155118110238
20
-4.5852204724409447
11
4.9404164566929136
21
-4.5889699999999998
0
LINE
8
BLACK
6
CONTINUOUS
10
4.9404164566929136
20
-4.5889699999999998
11
4.9179192519685042
21
-4.5889699999999998
0
LINE
8
BLACK
6
CONTINUOUS
10
4.9179192519685042
20
-4.5889699999999998
11
4.910420196850394
21
-4.5852204724409447
0
LINE
8
BLACK
6
CONTINUOUS
10
4.910420196850394
20
-4.5852204724409447
11
4.9066706692913389
21
-4.5814709055118108
0
LINE
8
BLACK
6
CONTINUOUS
10
5.0266556692913387
20
-4.510229842519685
11
4.9891603543307088
21
-4.510229842519685
0
LINE
8
BLACK
6
CONTINUOUS
10
4.9891603543307088
20
-4.510229842519685
11
4.9854108267716537
21
-4.5477251574803148
0
LINE
8
BLACK
6
CONTINUOUS
10
4.9854108267716537
20
-4.5477251574803148
11
4.9891603543307088
21
-4.5439755905511809
0
LINE
8
BLACK
6
CONTINUOUS
10
4.9891603543307088
20
-4.5439755905511809
11
4.996659409448819
21
-4.5402260629921258
0
LINE
8
BLACK
6
CONTINUOUS
10
4.996659409448819
20
-4.5402260629921258
11
5.0154070866141733
21
-4.5402260629921258
0
LINE
8
BLACK
6
CONTINUOUS
10
5.0154070866141733
20
-4.5402260629921258
11
5.0229061417322836
21
-4.5439755905511809
0
LINE
8
BLACK
6
CONTINUOUS
10
5.0229061417322836
20
-4.5439755905511809
11
5.0266556692913387
21
-4.5477251574803148
0
LINE
8
BLACK
6
CONTINUOUS
10
5.0266556692913387
20
-4.5477251574803148
11
5.0304051968503938
21
-4.555224212598425
0
LINE
8
BLACK
6
CONTINUOUS
10
5.0304051968503938
20
-4.555224212598425
11
5.0304051968503938
21
-4.5739718503937006
0
LINE
8
BLACK
6
CONTINUOUS
10
5.0304051968503938
20
-4.5739718503937006
11
5.0266556692913387
21
-4.5814709055118108
0
LINE
8
BLACK
6
CONTINUOUS
10
5.0266556692913387
20
-4.5814709055118108
11
5.0229061417322836
21
-4.5852204724409447
0
LINE
8
BLACK
6
CONTINUOUS
10
5.0229061417322836
20
-4.5852204724409447
11
5.0154070866141733
21
-4.5889699999999998
0
LINE
8
BLACK
6
CONTINUOUS
10
5.0154070866141733
20
-4.5889699999999998
11
4.996659409448819
21
-4.5889699999999998
0
LINE
8
BLACK
6
CONTINUOUS
10
4.996659409448819
20
-4.5889699999999998
11
4.9891603543307088
21
-4.5852204724409447
0
LINE
8
BLACK
6
CONTINUOUS
10
4.9891603543307088
20
-4.5852204724409447
11
4.9854108267716537
21
-4.5814709055118108
0
LINE
8
BLACK
6
CONTINUOUS
10
5.0978967716535433
20
-4.510229842519685
11
5.0828986220472441
21
-4.510229842519685
0
LINE
8
BLACK
6
CONTINUOUS
10
5.0828986220472441
20
-4.510229842519685
11
5.0753995669291339
21
-4.5139793700787401
0
LINE
8
BLACK
6
CONTINUOUS
10
5.0753995669291339
20
-4.5139793700787401
11
5.0716500393700787
21
-4.5177288976377952
0
LINE
8
BLACK
6
CONTINUOUS
10
5.0716500393700787
20
-4.5177288976377952
11
5.0641509842519685
21
-4.5289774803149605
0
LINE
8
BLACK
6
CONTINUOUS
10
5.0641509842519685
20
-4.5289774803149605
11
5.0604014566929134
21
-4.5439755905511809
0
LINE
8
BLACK
6
CONTINUOUS
10
5.0604014566929134
20
-4.5439755905511809
11
5.0604014566929134
21
-4.5739718503937006
0
LINE
8
BLACK
6
CONTINUOUS
10
5.0604014566929134
20
-4.5739718503937006
11
5.0641509842519685
21
-4.5814709055118108
0
LINE
8
BLACK
6
CONTINUOUS
10
5.0641509842519685
20
-4.5814709055118108
11
5.0679005118110236
21
-4.5852204724409447
0
LINE
8
BLACK
6
CONTINUOUS
10
5.0679005118110236
20
-4.5852204724409447
11
5.0753995669291339
21
-4.5889699999999998
0
LINE
8
BLACK
6
CONTINUOUS
10
5.0753995669291339
20
-4.5889699999999998
11
5.090397716535433
21
-4.5889699999999998
0
LINE
8
BLACK
6
CONTINUOUS
10
5.090397716535433
20
-4.5889699999999998
11
5.0978967716535433
21
-4.5852204724409447
0
LINE
8
BLACK
6
CONTINUOUS
10
5.0978967716535433
20
-4.5852204724409447
11
5.1016462992125984
21
-4.5814709055118108
0
LINE
8
BLACK
6
CONTINUOUS
10
5.1016462992125984
20
-4.5814709055118108
11
5.1053958267716535
21
-4.5739718503937006
0
LINE
8
BLACK
6
CONTINUOUS
10
5.1053958267716535
20
-4.5739718503937006
11
5.1053958267716535
21
-4.555224212598425
0
LINE
8
BLACK
6
CONTINUOUS
10
5.1053958267716535
20
-4.555224212598425
11
5.1016462992125984
21
-4.5477251574803148
0
LINE
8
BLACK
6
CONTINUOUS
10
5.1016462992125984
20
-4.5477251574803148
11
5.0978967716535433
21
-4.5439755905511809
0
LINE
8
BLACK
6
CONTINUOUS
10
5.0978967716535433
20
-4.5439755905511809
11
5.090397716535433
21
-4.5402260629921258
0
LINE
8
BLACK
6
CONTINUOUS
10
5.090397716535433
20
-4.5402260629921258
11
5.0753995669291339
21
-4.5402260629921258
0
LINE
8
BLACK
6
CONTINUOUS
10
5.0753995669291339
20
-4.5402260629921258
11
5.0679005118110236
21
-4.5439755905511809
0
LINE
8
BLACK
6
CONTINUOUS
10
5.0679005118110236
20
-4.5439755905511809
11
5.0641509842519685
21
-4.5477251574803148
0
LINE
8
BLACK
6
CONTINUOUS
10
5.0641509842519685
20
-4.5477251574803148
11
5.0604014566929134
21
-4.555224212598425
0
LINE
8
BLACK
6
CONTINUOUS
10
5.1391416141732282
20
-4.5889699999999998
11
5.1391416141732282
21
-4.5364765354330707
0
LINE
8
BLACK
6
CONTINUOUS
10
5.1391416141732282
20
-4.5439755905511809
11
5.1428911417322833
21
-4.5402260629921258
0
LINE
8
BLACK
6
CONTINUOUS
10
5.1428911417322833
20
-4.5402260629921258
11
5.1503901968503936
21
-4.5364765354330707
0
LINE
8
BLACK
6
CONTINUOUS
10
5.1503901968503936
20
-4.5364765354330707
11
5.1616388188976376
21
-4.5364765354330707
0
LINE
8
BLACK
6
CONTINUOUS
10
5.1616388188976376
20
-4.5364765354330707
11
5.1691378740157479
21
-4.5402260629921258
0
LINE
8
BLACK
6
CONTINUOUS
10
5.1691378740157479
20
-4.5402260629921258
11
5.172887401574803
21
-4.5477251574803148
0
LINE
8
BLACK
6
CONTINUOUS
10
5.172887401574803
20
-4.5477251574803148
11
5.172887401574803
21
-4.5889699999999998
0
LINE
8
BLACK
6
CONTINUOUS
10
5.172887401574803
20
-4.5477251574803148
11
5.1766369291338581
21
-4.5402260629921258
0
LINE
8
BLACK
6
CONTINUOUS
10
5.1766369291338581
20
-4.5402260629921258
11
5.1841359842519683
21
-4.5364765354330707
0
LINE
8
BLACK
6
CONTINUOUS
10
5.1841359842519683
20
-4.5364765354330707
11
5.1953845669291336
21
-4.5364765354330707
0
LINE
8
BLACK
6
CONTINUOUS
10
5.1953845669291336
20
-4.5364765354330707
11
5.2028836614173226
21
-4.5402260629921258
0
LINE
8
BLACK
6
CONTINUOUS
10
5.2028836614173226
20
-4.5402260629921258
11
5.2066331889763777
21
-4.5477251574803148
0
LINE
8
BLACK
6
CONTINUOUS
10
5.2066331889763777
20
-4.5477251574803148
11
5.2066331889763777
21
-4.5889699999999998
0
LINE
8
BLACK
6
CONTINUOUS
10
5.2441285039370076
20
-4.5889699999999998
11
5.2441285039370076
21
-4.5364765354330707
0
LINE
8
BLACK
6
CONTINUOUS
10
5.2441285039370076
20
-4.5439755905511809
11
5.2478780314960627
21
-4.5402260629921258
0
LINE
8
BLACK
6
CONTINUOUS
10
5.2478780314960627
20
-4.5402260629921258
11
5.2553770866141729
21
-4.5364765354330707
0
LINE
8
BLACK
6
CONTINUOUS
10
5.2553770866141729
20
-4.5364765354330707
11
5.266625708661417
21
-4.5364765354330707
0
LINE
8
BLACK
6
CONTINUOUS
10
5.266625708661417
20
-4.5364765354330707
11
5.2741247637795272
21
-4.5402260629921258
0
LINE
8
BLACK
6
CONTINUOUS
10
5.2741247637795272
20
-4.5402260629921258
11
5.2778742913385823
21
-4.5477251574803148
0
LINE
8
BLACK
6
CONTINUOUS
10
5.2778742913385823
20
-4.5477251574803148
11
5.2778742913385823
21
-4.5889699999999998
0
LINE
8
BLACK
6
CONTINUOUS
10
5.2778742913385823
20
-4.5477251574803148
11
5.2816238188976374
21
-4.5402260629921258
0
LINE
8
BLACK
6
CONTINUOUS
10
5.2816238188976374
20
-4.5402260629921258
11
5.2891228740157477
21
-4.5364765354330707
0
LINE
8
BLACK
6
CONTINUOUS
10
5.2891228740157477
20
-4.5364765354330707
11
5.300371456692913
21
-4.5364765354330707
0
LINE
8
BLACK
6
CONTINUOUS
10
5.300371456692913
20
-4.5364765354330707
11
5.307870551181102
21
-4.5402260629921258
0
LINE
8
BLACK
6
CONTINUOUS
10
5.307870551181102
20
-4.5402260629921258
11
5.3116200787401571
21
-4.5477251574803148
0
LINE
8
BLACK
6
CONTINUOUS
10
5.3116200787401571
20
-4.5477251574803148
11
5.3116200787401571
21
-4.5889699999999998
0
LINE
8
BLACK
6
CONTINUOUS
10
5.4653508661417325
20
-4.5064803149606298
11
5.3978593307086609
21
-4.6077176377952753
0
LINE
8
BLACK
6
CONTINUOUS
10
5.5665882283464567
20
-4.510229842519685
11
5.5740873228346457
21
-4.510229842519685
0
LINE
8
BLACK
6
CONTINUOUS
10
5.5740873228346457
20
-4.510229842519685
11
5.5815863779527559
21
-4.5139793700787401
0
LINE
8
BLACK
6
CONTINUOUS
10
5.5815863779527559
20
-4.5139793700787401
11
5.585335905511811
21
-4.5177288976377952
0
LINE
8
BLACK
6
CONTINUOUS
10
5.585335905511811
20
-4.5177288976377952
11
5.5890854330708661
21
-4.5252279527559054
0
LINE
8
BLACK
6
CONTINUOUS
10
5.5890854330708661
20
-4.5252279527559054
11
5.5928349606299212
21
-4.5402260629921258
0
LINE
8
BLACK
6
CONTINUOUS
10
5.5928349606299212
20
-4.5402260629921258
11
5.5928349606299212
21
-4.5589737401574801
0
LINE
8
BLACK
6
CONTINUOUS
10
5.5928349606299212
20
-4.5589737401574801
11
5.5890854330708661
21
-4.5739718503937006
0
LINE
8
BLACK
6
CONTINUOUS
10
5.5890854330708661
20
-4.5739718503937006
11
5.585335905511811
21
-4.5814709055118108
0
LINE
8
BLACK
6
CONTINUOUS
10
5.585335905511811
20
-4.5814709055118108
11
5.5815863779527559
21
-4.5852204724409447
0
LINE
8
BLACK
6
CONTINUOUS
10
5.5815863779527559
20
-4.5852204724409447
11
5.5740873228346457
21
-4.5889699999999998
0
LINE
8
BLACK
6
CONTINUOUS
10
5.5740873228346457
20
-4.5889699999999998
11
5.5665882283464567
21
-4.5889699999999998
0
LINE
8
BLACK
6
CONTINUOUS
10
5.5665882283464567
20
-4.5889699999999998
11
5.5590891732283465
21
-4.5852204724409447
0
LINE
8
BLACK
6
CONTINUOUS
10
5.5590891732283465
20
-4.5852204724409447
11
5.5553396456692914
21
-4.5814709055118108
0
LINE
8
BLACK
6
CONTINUOUS
10
5.5553396456692914
20
-4.5814709055118108
11
5.5515901181102363
21
-4.5739718503937006
0
LINE
8
BLACK
6
CONTINUOUS
10
5.5515901181102363
20
-4.5739718503937006
11
5.5478405905511812
21
-4.5589737401574801
0
LINE
8
BLACK
6
CONTINUOUS
10
5.5478405905511812
20
-4.5589737401574801
11
5.5478405905511812
21
-4.5402260629921258
0
LINE
8
BLACK
6
CONTINUOUS
10
5.5478405905511812
20
-4.5402260629921258
11
5.5515901181102363
21
-4.5252279527559054
0
LINE
8
BLACK
6
CONTINUOUS
10
5.5515901181102363
20
-4.5252279527559054
11
5.5553396456692914
21
-4.5177288976377952
0
LINE
8
BLACK
6
CONTINUOUS
10
5.5553396456692914
20
-4.5177288976377952
11
5.5590891732283465
21
-4.5139793700787401
0
LINE
8
BLACK
6
CONTINUOUS
10
5.5590891732283465
20
-4.5139793700787401
11
5.5665882283464567
21
-4.510229842519685
0
LINE
8
BLACK
6
CONTINUOUS
10
5.626580748031496
20
-4.5814709055118108
11
5.6303302755905511
21
-4.5852204724409447
0
LINE
8
BLACK
6
CONTINUOUS
10
5.6303302755905511
20
-4.5852204724409447
11
5.626580748031496
21
-4.5889699999999998
0
LINE
8
BLACK
6
CONTINUOUS
10
5.626580748031496
20
-4.5889699999999998
11
5.6228312204724409
21
-4.5852204724409447
0
LINE
8
BLACK
6
CONTINUOUS
10
5.6228312204724409
20
-4.5852204724409447
11
5.626580748031496
21
-4.5814709055118108
0
LINE
8
BLACK
6
CONTINUOUS
10
5.626580748031496
20
-4.5814709055118108
11
5.626580748031496
21
-4.5889699999999998
0
LINE
8
BLACK
6
CONTINUOUS
10
5.6790741732283463
20
-4.510229842519685
11
5.6865732677165353
21
-4.510229842519685
0
LINE
8
BLACK
6
CONTINUOUS
10
5.6865732677165353
20
-4.510229842519685
11
5.6940723228346455
21
-4.5139793700787401
0
LINE
8
BLACK
6
CONTINUOUS
10
5.6940723228346455
20
-4.5139793700787401
11
5.6978218503937006
21
-4.5177288976377952
0
LINE
8
BLACK
6
CONTINUOUS
10
5.6978218503937006
20
-4.5177288976377952
11
5.7015713779527557
21
-4.5252279527559054
0
LINE
8
BLACK
6
CONTINUOUS
10
5.7015713779527557
20
-4.5252279527559054
11
5.7053209055118108
21
-4.5402260629921258
0
LINE
8
BLACK
6
CONTINUOUS
10
5.7053209055118108
20
-4.5402260629921258
11
5.7053209055118108
21
-4.5589737401574801
0
LINE
8
BLACK
6
CONTINUOUS
10
5.7053209055118108
20
-4.5589737401574801
11
5.7015713779527557
21
-4.5739718503937006
0
LINE
8
BLACK
6
CONTINUOUS
10
5.7015713779527557
20
-4.5739718503937006
11
5.6978218503937006
21
-4.5814709055118108
0
LINE
8
BLACK
6
CONTINUOUS
10
5.6978218503937006
20
-4.5814709055118108
11
5.6940723228346455
21
-4.5852204724409447
0
LINE
8
BLACK
6
CONTINUOUS
10
5.6940723228346455
20
-4.5852204724409447
11
5.6865732677165353
21
-4.5889699999999998
0
LINE
8
BLACK
6
CONTINUOUS
10
5.6865732677165353
20
-4.5889699999999998
11
5.6790741732283463
21
-4.5889699999999998
0
LINE
8
BLACK
6
CONTINUOUS
10
5.6790741732283463
20
-4.5889699999999998
11
5.6715751181102361
21
-4.5852204724409447
0
LINE
8
BLACK
6
CONTINUOUS
10
5.6715751181102361
20
-4.5852204724409447
11
5.667825590551181
21
-4.5814709055118108
0
LINE
8
BLACK
6
CONTINUOUS
10
5.667825590551181
20
-4.5814709055118108
11
5.6640760629921258
21
-4.5739718503937006
0
LINE
8
BLACK
6
CONTINUOUS
10
5.6640760629921258
20
-4.5739718503937006
11
5.6603265354330707
21
-4.5589737401574801
0
LINE
8
BLACK
6
CONTINUOUS
10
5.6603265354330707
20
-4.5589737401574801
11
5.6603265354330707
21
-4.5402260629921258
0
LINE
8
BLACK
6
CONTINUOUS
10
5.6603265354330707
20
-4.5402260629921258
11
5.6640760629921258
21
-4.5252279527559054
0
LINE
8
BLACK
6
CONTINUOUS
10
5.6640760629921258
20
-4.5252279527559054
11
5.667825590551181
21
-4.5177288976377952
0
LINE
8
BLACK
6
CONTINUOUS
10
5.667825590551181
20
-4.5177288976377952
11
5.6715751181102361
21
-4.5139793700787401
0
LINE
8
BLACK
6
CONTINUOUS
10
5.6715751181102361
20
-4.5139793700787401
11
5.6790741732283463
21
-4.510229842519685
0
LINE
8
BLACK
6
CONTINUOUS
10
5.7803115354330705
20
-4.5889699999999998
11
5.7353171653543304
21
-4.5889699999999998
0
LINE
8
BLACK
6
CONTINUOUS
10
5.7578143307086611
20
-4.5889699999999998
11
5.7578143307086611
21
-4.510229842519685
0
LINE
8
BLACK
6
CONTINUOUS
10
5.7578143307086611
20
-4.510229842519685
11
5.7503152755905509
21
-4.5214784251968503
0
LINE
8
BLACK
6
CONTINUOUS
10
5.7503152755905509
20
-4.5214784251968503
11
5.7428162204724407
21
-4.5289774803149605
0
LINE
8
BLACK
6
CONTINUOUS
10
5.7428162204724407
20
-4.5289774803149605
11
5.7353171653543304
21
-4.5327270078740156
0
LINE
8
BLACK
6
CONTINUOUS
10
5.84780311023622
20
-4.5364765354330707
11
5.84780311023622
21
-4.5889699999999998
0
LINE
8
BLACK
6
CONTINUOUS
10
5.8290554330708657
20
-4.5064803149606298
11
5.8103077952755902
21
-4.5627232677165352
0
LINE
8
BLACK
6
CONTINUOUS
10
5.8103077952755902
20
-4.5627232677165352
11
5.8590516929133853
21
-4.5627232677165352
0
LINE
8
BLACK
6
CONTINUOUS
10
5.9040460629921254
20
-4.510229842519685
11
5.9115451574803144
21
-4.510229842519685
0
LINE
8
BLACK
6
CONTINUOUS
10
5.9115451574803144
20
-4.510229842519685
11
5.9190442125984255
21
-4.5139793700787401
0
LINE
8
BLACK
6
CONTINUOUS
10
5.9190442125984255
20
-4.5139793700787401
11
5.9227937401574806
21
-4.5177288976377952
0
LINE
8
BLACK
6
CONTINUOUS
10
5.9227937401574806
20
-4.5177288976377952
11
5.9265432677165357
21
-4.5252279527559054
0
LINE
8
BLACK
6
CONTINUOUS
10
5.9265432677165357
20
-4.5252279527559054
11
5.9302927952755908
21
-4.5402260629921258
0
LINE
8
BLACK
6
CONTINUOUS
10
5.9302927952755908
20
-4.5402260629921258
11
5.9302927952755908
21
-4.5589737401574801
0
LINE
8
BLACK
6
CONTINUOUS
10
5.9302927952755908
20
-4.5589737401574801
11
5.9265432677165357
21
-4.5739718503937006
0
LINE
8
BLACK
6
CONTINUOUS
10
5.9265432677165357
20
-4.5739718503937006
11
5.9227937401574806
21
-4.5814709055118108
0
LINE
8
BLACK
6
CONTINUOUS
10
5.9227937401574806
20
-4.5814709055118108
11
5.9190442125984255
21
-4.5852204724409447
0
LINE
8
BLACK
6
CONTINUOUS
10
5.9190442125984255
20
-4.5852204724409447
11
5.9115451574803144
21
-4.5889699999999998
0
LINE
8
BLACK
6
CONTINUOUS
10
5.9115451574803144
20
-4.5889699999999998
11
5.9040460629921254
21
-4.5889699999999998
0
LINE
8
BLACK
6
CONTINUOUS
10
5.9040460629921254
20
-4.5889699999999998
11
5.8965470078740152
21
-4.5852204724409447
0
LINE
8
BLACK
6
CONTINUOUS
10
5.8965470078740152
20
-4.5852204724409447
11
5.8927974803149601
21
-4.5814709055118108
0
LINE
8
BLACK
6
CONTINUOUS
10
5.8927974803149601
20
-4.5814709055118108
11
5.889047952755905
21
-4.5739718503937006
0
LINE
8
BLACK
6
CONTINUOUS
10
5.889047952755905
20
-4.5739718503937006
11
5.8852984251968499
21
-4.5589737401574801
0
LINE
8
BLACK
6
CONTINUOUS
10
5.8852984251968499
20
-4.5589737401574801
11
5.8852984251968499
21
-4.5402260629921258
0
LINE
8
BLACK
6
CONTINUOUS
10
5.8852984251968499
20
-4.5402260629921258
11
5.889047952755905
21
-4.5252279527559054
0
LINE
8
BLACK
6
CONTINUOUS
10
5.889047952755905
20
-4.5252279527559054
11
5.8927974803149601
21
-4.5177288976377952
0
LINE
8
BLACK
6
CONTINUOUS
10
5.8927974803149601
20
-4.5177288976377952
11
5.8965470078740152
21
-4.5139793700787401
0
LINE
8
BLACK
6
CONTINUOUS
10
5.8965470078740152
20
-4.5139793700787401
11
5.9040460629921254
21
-4.510229842519685
0
LINE
8
BLACK
6
CONTINUOUS
10
5.9602890551181105
20
-4.510229842519685
11
5.9602890551181105
21
-4.5252279527559054
0
LINE
8
BLACK
6
CONTINUOUS
10
5.9902853149606301
20
-4.510229842519685
11
5.9902853149606301
21
-4.5252279527559054
0
LINE
8
BLACK
6
CONTINUOUS
10
6.1065208267716535
20
-4.6189662204724407
11
6.1027712598425197
21
-4.6152166929133855
0
LINE
8
BLACK
6
CONTINUOUS
10
6.1027712598425197
20
-4.6152166929133855
11
6.0952722047244094
21
-4.6039681102362202
0
LINE
8
BLACK
6
CONTINUOUS
10
6.0952722047244094
20
-4.6039681102362202
11
6.0915226771653543
21
-4.59646905511811
0
LINE
8
BLACK
6
CONTINUOUS
10
6.0915226771653543
20
-4.59646905511811
11
6.0877731496062992
21
-4.5852204724409447
0
LINE
8
BLACK
6
CONTINUOUS
10
6.0877731496062992
20
-4.5852204724409447
11
6.0840236220472441
21
-4.5664727952755904
0
LINE
8
BLACK
6
CONTINUOUS
10
6.0840236220472441
20
-4.5664727952755904
11
6.0840236220472441
21
-4.5514746850393699
0
LINE
8
BLACK
6
CONTINUOUS
10
6.0840236220472441
20
-4.5514746850393699
11
6.0877731496062992
21
-4.5327270078740156
0
LINE
8
BLACK
6
CONTINUOUS
10
6.0877731496062992
20
-4.5327270078740156
11
6.0915226771653543
21
-4.5214784251968503
0
LINE
8
BLACK
6
CONTINUOUS
10
6.0915226771653543
20
-4.5214784251968503
11
6.0952722047244094
21
-4.5139793700787401
0
LINE
8
BLACK
6
CONTINUOUS
10
6.0952722047244094
20
-4.5139793700787401
11
6.1027712598425197
21
-4.502730748031496
0
LINE
8
BLACK
6
CONTINUOUS
10
6.1027712598425197
20
-4.502730748031496
11
6.1065208267716535
21
-4.4989812204724409
0
LINE
8
BLACK
6
CONTINUOUS
10
6.1702628346456692
20
-4.510229842519685
11
6.15526468503937
21
-4.510229842519685
0
LINE
8
BLACK
6
CONTINUOUS
10
6.15526468503937
20
-4.510229842519685
11
6.1477656299212597
21
-4.5139793700787401
0
LINE
8
BLACK
6
CONTINUOUS
10
6.1477656299212597
20
-4.5139793700787401
11
6.1440161023622046
21
-4.5177288976377952
0
LINE
8
BLACK
6
CONTINUOUS
10
6.1440161023622046
20
-4.5177288976377952
11
6.1365170472440944
21
-4.5289774803149605
0
LINE
8
BLACK
6
CONTINUOUS
10
6.1365170472440944
20
-4.5289774803149605
11
6.1327675196850393
21
-4.5439755905511809
0
LINE
8
BLACK
6
CONTINUOUS
10
6.1327675196850393
20
-4.5439755905511809
11
6.1327675196850393
21
-4.5739718503937006
0
LINE
8
BLACK
6
CONTINUOUS
10
6.1327675196850393
20
-4.5739718503937006
11
6.1365170472440944
21
-4.5814709055118108
0
LINE
8
BLACK
6
CONTINUOUS
10
6.1365170472440944
20
-4.5814709055118108
11
6.1402665748031495
21
-4.5852204724409447
0
LINE
8
BLACK
6
CONTINUOUS
10
6.1402665748031495
20
-4.5852204724409447
11
6.1477656299212597
21
-4.5889699999999998
0
LINE
8
BLACK
6
CONTINUOUS
10
6.1477656299212597
20
-4.5889699999999998
11
6.1627637795275589
21
-4.5889699999999998
0
LINE
8
BLACK
6
CONTINUOUS
10
6.1627637795275589
20
-4.5889699999999998
11
6.1702628346456692
21
-4.5852204724409447
0
LINE
8
BLACK
6
CONTINUOUS
10
6.1702628346456692
20
-4.5852204724409447
11
6.1740123622047243
21
-4.5814709055118108
0
LINE
8
BLACK
6
CONTINUOUS
10
6.1740123622047243
20
-4.5814709055118108
11
6.1777618897637794
21
-4.5739718503937006
0
LINE
8
BLACK
6
CONTINUOUS
10
6.1777618897637794
20
-4.5739718503937006
11
6.1777618897637794
21
-4.555224212598425
0
LINE
8
BLACK
6
CONTINUOUS
10
6.1777618897637794
20
-4.555224212598425
11
6.1740123622047243
21
-4.5477251574803148
0
LINE
8
BLACK
6
CONTINUOUS
10
6.1740123622047243
20
-4.5477251574803148
11
6.1702628346456692
21
-4.5439755905511809
0
LINE
8
BLACK
6
CONTINUOUS
10
6.1702628346456692
20
-4.5439755905511809
11
6.1627637795275589
21
-4.5402260629921258
0
LINE
8
BLACK
6
CONTINUOUS
10
6.1627637795275589
20
-4.5402260629921258
11
6.1477656299212597
21
-4.5402260629921258
0
LINE
8
BLACK
6
CONTINUOUS
10
6.1477656299212597
20
-4.5402260629921258
11
6.1402665748031495
21
-4.5439755905511809
0
LINE
8
BLACK
6
CONTINUOUS
10
6.1402665748031495
20
-4.5439755905511809
11
6.1365170472440944
21
-4.5477251574803148
0
LINE
8
BLACK
6
CONTINUOUS
10
6.1365170472440944
20
-4.5477251574803148
11
6.1327675196850393
21
-4.555224212598425
0
LINE
8
BLACK
6
CONTINUOUS
10
6.2040086220472439
20
-4.510229842519685
11
6.2527525196850391
21
-4.510229842519685
0
LINE
8
BLACK
6
CONTINUOUS
10
6.2527525196850391
20
-4.510229842519685
11
6.2265057874015746
21
-4.5402260629921258
0
LINE
8
BLACK
6
CONTINUOUS
10
6.2265057874015746
20
-4.5402260629921258
11
6.2377544094488186
21
-4.5402260629921258
0
LINE
8
BLACK
6
CONTINUOUS
10
6.2377544094488186
20
-4.5402260629921258
11
6.2452534645669289
21
-4.5439755905511809
0
LINE
8
BLACK
6
CONTINUOUS
10
6.2452534645669289
20
-4.5439755905511809
11
6.249002992125984
21
-4.5477251574803148
0
LINE
8
BLACK
6
CONTINUOUS
10
6.249002992125984
20
-4.5477251574803148
11
6.2527525196850391
21
-4.555224212598425
0
LINE
8
BLACK
6
CONTINUOUS
10
6.2527525196850391
20
-4.555224212598425
11
6.2527525196850391
21
-4.5739718503937006
0
LINE
8
BLACK
6
CONTINUOUS
10
6.2527525196850391
20
-4.5739718503937006
11
6.249002992125984
21
-4.5814709055118108
0
LINE
8
BLACK
6
CONTINUOUS
10
6.249002992125984
20
-4.5814709055118108
11
6.2452534645669289
21
-4.5852204724409447
0
LINE
8
BLACK
6
CONTINUOUS
10
6.2452534645669289
20
-4.5852204724409447
11
6.2377544094488186
21
-4.5889699999999998
0
LINE
8
BLACK
6
CONTINUOUS
10
6.2377544094488186
20
-4.5889699999999998
11
6.2152572047244092
21
-4.5889699999999998
0
LINE
8
BLACK
6
CONTINUOUS
10
6.2152572047244092
20
-4.5889699999999998
11
6.207758149606299
21
-4.5852204724409447
0
LINE
8
BLACK
6
CONTINUOUS
10
6.207758149606299
20
-4.5852204724409447
11
6.2040086220472439
21
-4.5814709055118108
0
LINE
8
BLACK
6
CONTINUOUS
10
6.3464908267716531
20
-4.5889699999999998
11
6.3464908267716531
21
-4.510229842519685
0
LINE
8
BLACK
6
CONTINUOUS
10
6.3802366141732278
20
-4.5889699999999998
11
6.3802366141732278
21
-4.5477251574803148
0
LINE
8
BLACK
6
CONTINUOUS
10
6.3802366141732278
20
-4.5477251574803148
11
6.3764870866141727
21
-4.5402260629921258
0
LINE
8
BLACK
6
CONTINUOUS
10
6.3764870866141727
20
-4.5402260629921258
11
6.3689880314960625
21
-4.5364765354330707
0
LINE
8
BLACK
6
CONTINUOUS
10
6.3689880314960625
20
-4.5364765354330707
11
6.3577394094488184
21
-4.5364765354330707
0
LINE
8
BLACK
6
CONTINUOUS
10
6.3577394094488184
20
-4.5364765354330707
11
6.3502403543307082
21
-4.5402260629921258
0
LINE
8
BLACK
6
CONTINUOUS
10
6.3502403543307082
20
-4.5402260629921258
11
6.3464908267716531
21
-4.5439755905511809
0
LINE
8
BLACK
6
CONTINUOUS
10
6.428980511811023
20
-4.5889699999999998
11
6.4214814566929128
21
-4.5852204724409447
0
LINE
8
BLACK
6
CONTINUOUS
10
6.4214814566929128
20
-4.5852204724409447
11
6.4177319291338577
21
-4.5814709055118108
0
LINE
8
BLACK
6
CONTINUOUS
10
6.4177319291338577
20
-4.5814709055118108
11
6.4139824015748026
21
-4.5739718503937006
0
LINE
8
BLACK
6
CONTINUOUS
10
6.4139824015748026
20
-4.5739718503937006
11
6.4139824015748026
21
-4.5514746850393699
0
LINE
8
BLACK
6
CONTINUOUS
10
6.4139824015748026
20
-4.5514746850393699
11
6.4177319291338577
21
-4.5439755905511809
0
LINE
8
BLACK
6
CONTINUOUS
10
6.4177319291338577
20
-4.5439755905511809
11
6.4214814566929128
21
-4.5402260629921258
0
LINE
8
BLACK
6
CONTINUOUS
10
6.4214814566929128
20
-4.5402260629921258
11
6.428980511811023
21
-4.5364765354330707
0
LINE
8
BLACK
6
CONTINUOUS
10
6.428980511811023
20
-4.5364765354330707
11
6.440229133858268
21
-4.5364765354330707
0
LINE
8
BLACK
6
CONTINUOUS
10
6.440229133858268
20
-4.5364765354330707
11
6.4477281889763782
21
-4.5402260629921258
0
LINE
8
BLACK
6
CONTINUOUS
10
6.4477281889763782
20
-4.5402260629921258
11
6.4514777165354333
21
-4.5439755905511809
0
LINE
8
BLACK
6
CONTINUOUS
10
6.4514777165354333
20
-4.5439755905511809
11
6.4552272440944884
21
-4.5514746850393699
0
LINE
8
BLACK
6
CONTINUOUS
10
6.4552272440944884
20
-4.5514746850393699
11
6.4552272440944884
21
-4.5739718503937006
0
LINE
8
BLACK
6
CONTINUOUS
10
6.4552272440944884
20
-4.5739718503937006
11
6.4514777165354333
21
-4.5814709055118108
0
LINE
8
BLACK
6
CONTINUOUS
10
6.4514777165354333
20
-4.5814709055118108
11
6.4477281889763782
21
-4.5852204724409447
0
LINE
8
BLACK
6
CONTINUOUS
10
6.4477281889763782
20
-4.5852204724409447
11
6.440229133858268
21
-4.5889699999999998
0
LINE
8
BLACK
6
CONTINUOUS
10
6.440229133858268
20
-4.5889699999999998
11
6.428980511811023
21
-4.5889699999999998
0
LINE
8
BLACK
6
CONTINUOUS
10
6.5002216141732285
20
-4.5889699999999998
11
6.4927225590551183
21
-4.5852204724409447
0
LINE
8
BLACK
6
CONTINUOUS
10
6.4927225590551183
20
-4.5852204724409447
11
6.4889730314960632
21
-4.5777213779527557
0
LINE
8
BLACK
6
CONTINUOUS
10
6.4889730314960632
20
-4.5777213779527557
11
6.4889730314960632
21
-4.510229842519685
0
LINE
8
BLACK
6
CONTINUOUS
10
6.5602141338582678
20
-4.5852204724409447
11
6.5527150787401576
21
-4.5889699999999998
0
LINE
8
BLACK
6
CONTINUOUS
10
6.5527150787401576
20
-4.5889699999999998
11
6.5377169291338584
21
-4.5889699999999998
0
LINE
8
BLACK
6
CONTINUOUS
10
6.5377169291338584
20
-4.5889699999999998
11
6.5302178740157482
21
-4.5852204724409447
0
LINE
8
BLACK
6
CONTINUOUS
10
6.5302178740157482
20
-4.5852204724409447
11
6.526468346456693
21
-4.5777213779527557
0
LINE
8
BLACK
6
CONTINUOUS
10
6.526468346456693
20
-4.5777213779527557
11
6.526468346456693
21
-4.5477251574803148
0
LINE
8
BLACK
6
CONTINUOUS
10
6.526468346456693
20
-4.5477251574803148
11
6.5302178740157482
21
-4.5402260629921258
0
LINE
8
BLACK
6
CONTINUOUS
10
6.5302178740157482
20
-4.5402260629921258
11
6.5377169291338584
21
-4.5364765354330707
0
LINE
8
BLACK
6
CONTINUOUS
10
6.5377169291338584
20
-4.5364765354330707
11
6.5527150787401576
21
-4.5364765354330707
0
LINE
8
BLACK
6
CONTINUOUS
10
6.5527150787401576
20
-4.5364765354330707
11
6.5602141338582678
21
-4.5402260629921258
0
LINE
8
BLACK
6
CONTINUOUS
10
6.5602141338582678
20
-4.5402260629921258
11
6.5639636614173229
21
-4.5477251574803148
0
LINE
8
BLACK
6
CONTINUOUS
10
6.5639636614173229
20
-4.5477251574803148
11
6.5639636614173229
21
-4.555224212598425
0
LINE
8
BLACK
6
CONTINUOUS
10
6.5639636614173229
20
-4.555224212598425
11
6.526468346456693
21
-4.5627232677165352
0
LINE
8
BLACK
6
CONTINUOUS
10
6.5939599212598425
20
-4.5852204724409447
11
6.6014589763779528
21
-4.5889699999999998
0
LINE
8
BLACK
6
CONTINUOUS
10
6.6014589763779528
20
-4.5889699999999998
11
6.6164570866141732
21
-4.5889699999999998
0
LINE
8
BLACK
6
CONTINUOUS
10
6.6164570866141732
20
-4.5889699999999998
11
6.6239561811023622
21
-4.5852204724409447
0
LINE
8
BLACK
6
CONTINUOUS
10
6.6239561811023622
20
-4.5852204724409447
11
6.6277057086614173
21
-4.5777213779527557
0
LINE
8
BLACK
6
CONTINUOUS
10
6.6277057086614173
20
-4.5777213779527557
11
6.6277057086614173
21
-4.5739718503937006
0
LINE
8
BLACK
6
CONTINUOUS
10
6.6277057086614173
20
-4.5739718503937006
11
6.6239561811023622
21
-4.5664727952755904
0
LINE
8
BLACK
6
CONTINUOUS
10
6.6239561811023622
20
-4.5664727952755904
11
6.6164570866141732
21
-4.5627232677165352
0
LINE
8
BLACK
6
CONTINUOUS
10
6.6164570866141732
20
-4.5627232677165352
11
6.6052085039370079
21
-4.5627232677165352
0
LINE
8
BLACK
6
CONTINUOUS
10
6.6052085039370079
20
-4.5627232677165352
11
6.5977094488188976
21
-4.5589737401574801
0
LINE
8
BLACK
6
CONTINUOUS
10
6.5977094488188976
20
-4.5589737401574801
11
6.5939599212598425
21
-4.5514746850393699
0
LINE
8
BLACK
6
CONTINUOUS
10
6.5939599212598425
20
-4.5514746850393699
11
6.5939599212598425
21
-4.5477251574803148
0
LINE
8
BLACK
6
CONTINUOUS
10
6.5939599212598425
20
-4.5477251574803148
11
6.5977094488188976
21
-4.5402260629921258
0
LINE
8
BLACK
6
CONTINUOUS
10
6.5977094488188976
20
-4.5402260629921258
11
6.6052085039370079
21
-4.5364765354330707
0
LINE
8
BLACK
6
CONTINUOUS
10
6.6052085039370079
20
-4.5364765354330707
11
6.6164570866141732
21
-4.5364765354330707
0
LINE
8
BLACK
6
CONTINUOUS
10
6.6164570866141732
20
-4.5364765354330707
11
6.6239561811023622
21
-4.5402260629921258
0
LINE
8
BLACK
6
CONTINUOUS
10
6.6539524409448818
20
-4.6189662204724407
11
6.6577019685039369
21
-4.6152166929133855
0
LINE
8
BLACK
6
CONTINUOUS
10
6.6577019685039369
20
-4.6152166929133855
11
6.6652010236220471
21
-4.6039681102362202
0
LINE
8
BLACK
6
CONTINUOUS
10
6.6652010236220471
20
-4.6039681102362202
11
6.6689505511811022
21
-4.59646905511811
0
LINE
8
BLACK
6
CONTINUOUS
10
6.6689505511811022
20
-4.59646905511811
11
6.6727000787401574
21
-4.5852204724409447
0
LINE
8
BLACK
6
CONTINUOUS
10
6.6727000787401574
20
-4.5852204724409447
11
6.6764496062992125
21
-4.5664727952755904
0
LINE
8
BLACK
6
CONTINUOUS
10
6.6764496062992125
20
-4.5664727952755904
11
6.6764496062992125
21
-4.5514746850393699
0
LINE
8
BLACK
6
CONTINUOUS
10
6.6764496062992125
20
-4.5514746850393699
11
6.6727000787401574
21
-4.5327270078740156
0
LINE
8
BLACK
6
CONTINUOUS
10
6.6727000787401574
20
-4.5327270078740156
11
6.6689505511811022
21
-4.5214784251968503
0
LINE
8
BLACK
6
CONTINUOUS
10
6.6689505511811022
20
-4.5214784251968503
11
6.6652010236220471
21
-4.5139793700787401
0
LINE
8
BLACK
6
CONTINUOUS
10
6.6652010236220471
20
-4.5139793700787401
11
6.6577019685039369
21
-4.502730748031496
0
LINE
8
BLACK
6
CONTINUOUS
10
6.6577019685039369
20
-4.502730748031496
11
6.6539524409448818
21
-4.4989812204724409
0
CIRCLE
8
BLACK
10
4.6812992125984252
20
-4.6568897637795272
40
0.0177165354330709
0
LINE
8
BLACK
6
CONTINUOUS
10
4.8166818897637791
20
-4.6141668503937003
11
4.8241809842519681
21
-4.6141668503937003
0
LINE
8
BLACK
6
CONTINUOUS
10
4.8241809842519681
20
-4.6141668503937003
11
4.8316800393700783
21
-4.6179163779527554
0
LINE
8
BLACK
6
CONTINUOUS
10
4.8316800393700783
20
-4.6179163779527554
11
4.8354295669291334
21
-4.6216659055118106
0
LINE
8
BLACK
6
CONTINUOUS
10
4.8354295669291334
20
-4.6216659055118106
11
4.8391790944881885
21
-4.6291649606299208
0
LINE
8
BLACK
6
CONTINUOUS
10
4.8391790944881885
20
-4.6291649606299208
11
4.8429286220472436
21
-4.6441630708661412
0
LINE
8
BLACK
6
CONTINUOUS
10
4.8429286220472436
20
-4.6441630708661412
11
4.8429286220472436
21
-4.6629107480314955
0
LINE
8
BLACK
6
CONTINUOUS
10
4.8429286220472436
20
-4.6629107480314955
11
4.8391790944881885
21
-4.6779088582677169
0
LINE
8
BLACK
6
CONTINUOUS
10
4.8391790944881885
20
-4.6779088582677169
11
4.8354295669291334
21
-4.6854079133858271
0
LINE
8
BLACK
6
CONTINUOUS
10
4.8354295669291334
20
-4.6854079133858271
11
4.8316800393700783
21
-4.6891574803149609
0
LINE
8
BLACK
6
CONTINUOUS
10
4.8316800393700783
20
-4.6891574803149609
11
4.8241809842519681
21
-4.692907007874016
0
LINE
8
BLACK
6
CONTINUOUS
10
4.8241809842519681
20
-4.692907007874016
11
4.8166818897637791
21
-4.692907007874016
0
LINE
8
BLACK
6
CONTINUOUS
10
4.8166818897637791
20
-4.692907007874016
11
4.8091828346456689
21
-4.6891574803149609
0
LINE
8
BLACK
6
CONTINUOUS
10
4.8091828346456689
20
-4.6891574803149609
11
4.8054333070866138
21
-4.6854079133858271
0
LINE
8
BLACK
6
CONTINUOUS
10
4.8054333070866138
20
-4.6854079133858271
11
4.8016837795275586
21
-4.6779088582677169
0
LINE
8
BLACK
6
CONTINUOUS
10
4.8016837795275586
20
-4.6779088582677169
11
4.7979342519685035
21
-4.6629107480314955
0
LINE
8
BLACK
6
CONTINUOUS
10
4.7979342519685035
20
-4.6629107480314955
11
4.7979342519685035
21
-4.6441630708661412
0
LINE
8
BLACK
6
CONTINUOUS
10
4.7979342519685035
20
-4.6441630708661412
11
4.8016837795275586
21
-4.6291649606299208
0
LINE
8
BLACK
6
CONTINUOUS
10
4.8016837795275586
20
-4.6291649606299208
11
4.8054333070866138
21
-4.6216659055118106
0
LINE
8
BLACK
6
CONTINUOUS
10
4.8054333070866138
20
-4.6216659055118106
11
4.8091828346456689
21
-4.6179163779527554
0
LINE
8
BLACK
6
CONTINUOUS
10
4.8091828346456689
20
-4.6179163779527554
11
4.8166818897637791
21
-4.6141668503937003
0
LINE
8
BLACK
6
CONTINUOUS
10
4.8766744094488184
20
-4.6854079133858271
11
4.8804239370078735
21
-4.6891574803149609
0
LINE
8
BLACK
6
CONTINUOUS
10
4.8804239370078735
20
-4.6891574803149609
11
4.8766744094488184
21
-4.692907007874016
0
LINE
8
BLACK
6
CONTINUOUS
10
4.8766744094488184
20
-4.692907007874016
11
4.8729248818897632
21
-4.6891574803149609
0
LINE
8
BLACK
6
CONTINUOUS
10
4.8729248818897632
20
-4.6891574803149609
11
4.8766744094488184
21
-4.6854079133858271
0
LINE
8
BLACK
6
CONTINUOUS
10
4.8766744094488184
20
-4.6854079133858271
11
4.8766744094488184
21
-4.692907007874016
0
LINE
8
BLACK
6
CONTINUOUS
10
4.9179192519685042
20
-4.692907007874016
11
4.9329173622047247
21
-4.692907007874016
0
LINE
8
BLACK
6
CONTINUOUS
10
4.9329173622047247
20
-4.692907007874016
11
4.9404164566929136
21
-4.6891574803149609
0
LINE
8
BLACK
6
CONTINUOUS
10
4.9404164566929136
20
-4.6891574803149609
11
4.9441659842519687
21
-4.6854079133858271
0
LINE
8
BLACK
6
CONTINUOUS
10
4.9441659842519687
20
-4.6854079133858271
11
4.951665039370079
21
-4.6741593307086617
0
LINE
8
BLACK
6
CONTINUOUS
10
4.951665039370079
20
-4.6741593307086617
11
4.9554145669291341
21
-4.6591612204724404
0
LINE
8
BLACK
6
CONTINUOUS
10
4.9554145669291341
20
-4.6591612204724404
11
4.9554145669291341
21
-4.6291649606299208
0
LINE
8
BLACK
6
CONTINUOUS
10
4.9554145669291341
20
-4.6291649606299208
11
4.951665039370079
21
-4.6216659055118106
0
LINE
8
BLACK
6
CONTINUOUS
10
4.951665039370079
20
-4.6216659055118106
11
4.9479155118110238
21
-4.6179163779527554
0
LINE
8
BLACK
6
CONTINUOUS
10
4.9479155118110238
20
-4.6179163779527554
11
4.9404164566929136
21
-4.6141668503937003
0
LINE
8
BLACK
6
CONTINUOUS
10
4.9404164566929136
20
-4.6141668503937003
11
4.9254183070866144
21
-4.6141668503937003
0
LINE
8
BLACK
6
CONTINUOUS
10
4.9254183070866144
20
-4.6141668503937003
11
4.9179192519685042
21
-4.6179163779527554
0
LINE
8
BLACK
6
CONTINUOUS
10
4.9179192519685042
20
-4.6179163779527554
11
4.9141697244094491
21
-4.6216659055118106
0
LINE
8
BLACK
6
CONTINUOUS
10
4.9141697244094491
20
-4.6216659055118106
11
4.910420196850394
21
-4.6291649606299208
0
LINE
8
BLACK
6
CONTINUOUS
10
4.910420196850394
20
-4.6291649606299208
11
4.910420196850394
21
-4.6479125984251963
0
LINE
8
BLACK
6
CONTINUOUS
10
4.910420196850394
20
-4.6479125984251963
11
4.9141697244094491
21
-4.6554116929133853
0
LINE
8
BLACK
6
CONTINUOUS
10
4.9141697244094491
20
-4.6554116929133853
11
4.9179192519685042
21
-4.6591612204724404
0
LINE
8
BLACK
6
CONTINUOUS
10
4.9179192519685042
20
-4.6591612204724404
11
4.9254183070866144
21
-4.6629107480314955
0
LINE
8
BLACK
6
CONTINUOUS
10
4.9254183070866144
20
-4.6629107480314955
11
4.9404164566929136
21
-4.6629107480314955
0
LINE
8
BLACK
6
CONTINUOUS
10
4.9404164566929136
20
-4.6629107480314955
11
4.9479155118110238
21
-4.6591612204724404
0
LINE
8
BLACK
6
CONTINUOUS
10
4.9479155118110238
20
-4.6591612204724404
11
4.951665039370079
21
-4.6554116929133853
0
LINE
8
BLACK
6
CONTINUOUS
10
4.951665039370079
20
-4.6554116929133853
11
4.9554145669291341
21
-4.6479125984251963
0
LINE
8
BLACK
6
CONTINUOUS
10
5.0041584645669293
20
-4.6141668503937003
11
5.0116575590551182
21
-4.6141668503937003
0
LINE
8
BLACK
6
CONTINUOUS
10
5.0116575590551182
20
-4.6141668503937003
11
5.0191566141732284
21
-4.6179163779527554
0
LINE
8
BLACK
6
CONTINUOUS
10
5.0191566141732284
20
-4.6179163779527554
11
5.0229061417322836
21
-4.6216659055118106
0
LINE
8
BLACK
6
CONTINUOUS
10
5.0229061417322836
20
-4.6216659055118106
11
5.0266556692913387
21
-4.6291649606299208
0
LINE
8
BLACK
6
CONTINUOUS
10
5.0266556692913387
20
-4.6291649606299208
11
5.0304051968503938
21
-4.6441630708661412
0
LINE
8
BLACK
6
CONTINUOUS
10
5.0304051968503938
20
-4.6441630708661412
11
5.0304051968503938
21
-4.6629107480314955
0
LINE
8
BLACK
6
CONTINUOUS
10
5.0304051968503938
20
-4.6629107480314955
11
5.0266556692913387
21
-4.6779088582677169
0
LINE
8
BLACK
6
CONTINUOUS
10
5.0266556692913387
20
-4.6779088582677169
11
5.0229061417322836
21
-4.6854079133858271
0
LINE
8
BLACK
6
CONTINUOUS
10
5.0229061417322836
20
-4.6854079133858271
11
5.0191566141732284
21
-4.6891574803149609
0
LINE
8
BLACK
6
CONTINUOUS
10
5.0191566141732284
20
-4.6891574803149609
11
5.0116575590551182
21
-4.692907007874016
0
LINE
8
BLACK
6
CONTINUOUS
10
5.0116575590551182
20
-4.692907007874016
11
5.0041584645669293
21
-4.692907007874016
0
LINE
8
BLACK
6
CONTINUOUS
10
5.0041584645669293
20
-4.692907007874016
11
4.996659409448819
21
-4.6891574803149609
0
LINE
8
BLACK
6
CONTINUOUS
10
4.996659409448819
20
-4.6891574803149609
11
4.9929098818897639
21
-4.6854079133858271
0
LINE
8
BLACK
6
CONTINUOUS
10
4.9929098818897639
20
-4.6854079133858271
11
4.9891603543307088
21
-4.6779088582677169
0
LINE
8
BLACK
6
CONTINUOUS
10
4.9891603543307088
20
-4.6779088582677169
11
4.9854108267716537
21
-4.6629107480314955
0
LINE
8
BLACK
6
CONTINUOUS
10
4.9854108267716537
20
-4.6629107480314955
11
4.9854108267716537
21
-4.6441630708661412
0
LINE
8
BLACK
6
CONTINUOUS
10
4.9854108267716537
20
-4.6441630708661412
11
4.9891603543307088
21
-4.6291649606299208
0
LINE
8
BLACK
6
CONTINUOUS
10
4.9891603543307088
20
-4.6291649606299208
11
4.9929098818897639
21
-4.6216659055118106
0
LINE
8
BLACK
6
CONTINUOUS
10
4.9929098818897639
20
-4.6216659055118106
11
4.996659409448819
21
-4.6179163779527554
0
LINE
8
BLACK
6
CONTINUOUS
10
4.996659409448819
20
-4.6179163779527554
11
5.0041584645669293
21
-4.6141668503937003
0
LINE
8
BLACK
6
CONTINUOUS
10
5.079149094488189
20
-4.6141668503937003
11
5.0866481889763779
21
-4.6141668503937003
0
LINE
8
BLACK
6
CONTINUOUS
10
5.0866481889763779
20
-4.6141668503937003
11
5.0941472440944882
21
-4.6179163779527554
0
LINE
8
BLACK
6
CONTINUOUS
10
5.0941472440944882
20
-4.6179163779527554
11
5.0978967716535433
21
-4.6216659055118106
0
LINE
8
BLACK
6
CONTINUOUS
10
5.0978967716535433
20
-4.6216659055118106
11
5.1016462992125984
21
-4.6291649606299208
0
LINE
8
BLACK
6
CONTINUOUS
10
5.1016462992125984
20
-4.6291649606299208
11
5.1053958267716535
21
-4.6441630708661412
0
LINE
8
BLACK
6
CONTINUOUS
10
5.1053958267716535
20
-4.6441630708661412
11
5.1053958267716535
21
-4.6629107480314955
0
LINE
8
BLACK
6
CONTINUOUS
10
5.1053958267716535
20
-4.6629107480314955
11
5.1016462992125984
21
-4.6779088582677169
0
LINE
8
BLACK
6
CONTINUOUS
10
5.1016462992125984
20
-4.6779088582677169
11
5.0978967716535433
21
-4.6854079133858271
0
LINE
8
BLACK
6
CONTINUOUS
10
5.0978967716535433
20
-4.6854079133858271
11
5.0941472440944882
21
-4.6891574803149609
0
LINE
8
BLACK
6
CONTINUOUS
10
5.0941472440944882
20
-4.6891574803149609
11
5.0866481889763779
21
-4.692907007874016
0
LINE
8
BLACK
6
CONTINUOUS
10
5.0866481889763779
20
-4.692907007874016
11
5.079149094488189
21
-4.692907007874016
0
LINE
8
BLACK
6
CONTINUOUS
10
5.079149094488189
20
-4.692907007874016
11
5.0716500393700787
21
-4.6891574803149609
0
LINE
8
BLACK
6
CONTINUOUS
10
5.0716500393700787
20
-4.6891574803149609
11
5.0679005118110236
21
-4.6854079133858271
0
LINE
8
BLACK
6
CONTINUOUS
10
5.0679005118110236
20
-4.6854079133858271
11
5.0641509842519685
21
-4.6779088582677169
0
LINE
8
BLACK
6
CONTINUOUS
10
5.0641509842519685
20
-4.6779088582677169
11
5.0604014566929134
21
-4.6629107480314955
0
LINE
8
BLACK
6
CONTINUOUS
10
5.0604014566929134
20
-4.6629107480314955
11
5.0604014566929134
21
-4.6441630708661412
0
LINE
8
BLACK
6
CONTINUOUS
10
5.0604014566929134
20
-4.6441630708661412
11
5.0641509842519685
21
-4.6291649606299208
0
LINE
8
BLACK
6
CONTINUOUS
10
5.0641509842519685
20
-4.6291649606299208
11
5.0679005118110236
21
-4.6216659055118106
0
LINE
8
BLACK
6
CONTINUOUS
10
5.0679005118110236
20
-4.6216659055118106
11
5.0716500393700787
21
-4.6179163779527554
0
LINE
8
BLACK
6
CONTINUOUS
10
5.0716500393700787
20
-4.6179163779527554
11
5.079149094488189
21
-4.6141668503937003
0
LINE
8
BLACK
6
CONTINUOUS
10
5.1391416141732282
20
-4.692907007874016
11
5.1391416141732282
21
-4.6404135433070861
0
LINE
8
BLACK
6
CONTINUOUS
10
5.1391416141732282
20
-4.6479125984251963
11
5.1428911417322833
21
-4.6441630708661412
0
LINE
8
BLACK
6
CONTINUOUS
10
5.1428911417322833
20
-4.6441630708661412
11
5.1503901968503936
21
-4.6404135433070861
0
LINE
8
BLACK
6
CONTINUOUS
10
5.1503901968503936
20
-4.6404135433070861
11
5.1616388188976376
21
-4.6404135433070861
0
LINE
8
BLACK
6
CONTINUOUS
10
5.1616388188976376
20
-4.6404135433070861
11
5.1691378740157479
21
-4.6441630708661412
0
LINE
8
BLACK
6
CONTINUOUS
10
5.1691378740157479
20
-4.6441630708661412
11
5.172887401574803
21
-4.6516621653543302
0
LINE
8
BLACK
6
CONTINUOUS
10
5.172887401574803
20
-4.6516621653543302
11
5.172887401574803
21
-4.692907007874016
0
LINE
8
BLACK
6
CONTINUOUS
10
5.172887401574803
20
-4.6516621653543302
11
5.1766369291338581
21
-4.6441630708661412
0
LINE
8
BLACK
6
CONTINUOUS
10
5.1766369291338581
20
-4.6441630708661412
11
5.1841359842519683
21
-4.6404135433070861
0
LINE
8
BLACK
6
CONTINUOUS
10
5.1841359842519683
20
-4.6404135433070861
11
5.1953845669291336
21
-4.6404135433070861
0
LINE
8
BLACK
6
CONTINUOUS
10
5.1953845669291336
20
-4.6404135433070861
11
5.2028836614173226
21
-4.6441630708661412
0
LINE
8
BLACK
6
CONTINUOUS
10
5.2028836614173226
20
-4.6441630708661412
11
5.2066331889763777
21
-4.6516621653543302
0
LINE
8
BLACK
6
CONTINUOUS
10
5.2066331889763777
20
-4.6516621653543302
11
5.2066331889763777
21
-4.692907007874016
0
LINE
8
BLACK
6
CONTINUOUS
10
5.2441285039370076
20
-4.692907007874016
11
5.2441285039370076
21
-4.6404135433070861
0
LINE
8
BLACK
6
CONTINUOUS
10
5.2441285039370076
20
-4.6479125984251963
11
5.2478780314960627
21
-4.6441630708661412
0
LINE
8
BLACK
6
CONTINUOUS
10
5.2478780314960627
20
-4.6441630708661412
11
5.2553770866141729
21
-4.6404135433070861
0
LINE
8
BLACK
6
CONTINUOUS
10
5.2553770866141729
20
-4.6404135433070861
11
5.266625708661417
21
-4.6404135433070861
0
LINE
8
BLACK
6
CONTINUOUS
10
5.266625708661417
20
-4.6404135433070861
11
5.2741247637795272
21
-4.6441630708661412
0
LINE
8
BLACK
6
CONTINUOUS
10
5.2741247637795272
20
-4.6441630708661412
11
5.2778742913385823
21
-4.6516621653543302
0
LINE
8
BLACK
6
CONTINUOUS
10
5.2778742913385823
20
-4.6516621653543302
11
5.2778742913385823
21
-4.692907007874016
0
LINE
8
BLACK
6
CONTINUOUS
10
5.2778742913385823
20
-4.6516621653543302
11
5.2816238188976374
21
-4.6441630708661412
0
LINE
8
BLACK
6
CONTINUOUS
10
5.2816238188976374
20
-4.6441630708661412
11
5.2891228740157477
21
-4.6404135433070861
0
LINE
8
BLACK
6
CONTINUOUS
10
5.2891228740157477
20
-4.6404135433070861
11
5.300371456692913
21
-4.6404135433070861
0
LINE
8
BLACK
6
CONTINUOUS
10
5.300371456692913
20
-4.6404135433070861
11
5.307870551181102
21
-4.6441630708661412
0
LINE
8
BLACK
6
CONTINUOUS
10
5.307870551181102
20
-4.6441630708661412
11
5.3116200787401571
21
-4.6516621653543302
0
LINE
8
BLACK
6
CONTINUOUS
10
5.3116200787401571
20
-4.6516621653543302
11
5.3116200787401571
21
-4.692907007874016
0
LINE
8
BLACK
6
CONTINUOUS
10
5.4653508661417325
20
-4.6104173228346452
11
5.3978593307086609
21
-4.7116546456692916
0
LINE
8
BLACK
6
CONTINUOUS
10
5.5665882283464567
20
-4.6141668503937003
11
5.5740873228346457
21
-4.6141668503937003
0
LINE
8
BLACK
6
CONTINUOUS
10
5.5740873228346457
20
-4.6141668503937003
11
5.5815863779527559
21
-4.6179163779527554
0
LINE
8
BLACK
6
CONTINUOUS
10
5.5815863779527559
20
-4.6179163779527554
11
5.585335905511811
21
-4.6216659055118106
0
LINE
8
BLACK
6
CONTINUOUS
10
5.585335905511811
20
-4.6216659055118106
11
5.5890854330708661
21
-4.6291649606299208
0
LINE
8
BLACK
6
CONTINUOUS
10
5.5890854330708661
20
-4.6291649606299208
11
5.5928349606299212
21
-4.6441630708661412
0
LINE
8
BLACK
6
CONTINUOUS
10
5.5928349606299212
20
-4.6441630708661412
11
5.5928349606299212
21
-4.6629107480314955
0
LINE
8
BLACK
6
CONTINUOUS
10
5.5928349606299212
20
-4.6629107480314955
11
5.5890854330708661
21
-4.6779088582677169
0
LINE
8
BLACK
6
CONTINUOUS
10
5.5890854330708661
20
-4.6779088582677169
11
5.585335905511811
21
-4.6854079133858271
0
LINE
8
BLACK
6
CONTINUOUS
10
5.585335905511811
20
-4.6854079133858271
11
5.5815863779527559
21
-4.6891574803149609
0
LINE
8
BLACK
6
CONTINUOUS
10
5.5815863779527559
20
-4.6891574803149609
11
5.5740873228346457
21
-4.692907007874016
0
LINE
8
BLACK
6
CONTINUOUS
10
5.5740873228346457
20
-4.692907007874016
11
5.5665882283464567
21
-4.692907007874016
0
LINE
8
BLACK
6
CONTINUOUS
10
5.5665882283464567
20
-4.692907007874016
11
5.5590891732283465
21
-4.6891574803149609
0
LINE
8
BLACK
6
CONTINUOUS
10
5.5590891732283465
20
-4.6891574803149609
11
5.5553396456692914
21
-4.6854079133858271
0
LINE
8
BLACK
6
CONTINUOUS
10
5.5553396456692914
20
-4.6854079133858271
11
5.5515901181102363
21
-4.6779088582677169
0
LINE
8
BLACK
6
CONTINUOUS
10
5.5515901181102363
20
-4.6779088582677169
11
5.5478405905511812
21
-4.6629107480314955
0
LINE
8
BLACK
6
CONTINUOUS
10
5.5478405905511812
20
-4.6629107480314955
11
5.5478405905511812
21
-4.6441630708661412
0
LINE
8
BLACK
6
CONTINUOUS
10
5.5478405905511812
20
-4.6441630708661412
11
5.5515901181102363
21
-4.6291649606299208
0
LINE
8
BLACK
6
CONTINUOUS
10
5.5515901181102363
20
-4.6291649606299208
11
5.5553396456692914
21
-4.6216659055118106
0
LINE
8
BLACK
6
CONTINUOUS
10
5.5553396456692914
20
-4.6216659055118106
11
5.5590891732283465
21
-4.6179163779527554
0
LINE
8
BLACK
6
CONTINUOUS
10
5.5590891732283465
20
-4.6179163779527554
11
5.5665882283464567
21
-4.6141668503937003
0
LINE
8
BLACK
6
CONTINUOUS
10
5.626580748031496
20
-4.6854079133858271
11
5.6303302755905511
21
-4.6891574803149609
0
LINE
8
BLACK
6
CONTINUOUS
10
5.6303302755905511
20
-4.6891574803149609
11
5.626580748031496
21
-4.692907007874016
0
LINE
8
BLACK
6
CONTINUOUS
10
5.626580748031496
20
-4.692907007874016
11
5.6228312204724409
21
-4.6891574803149609
0
LINE
8
BLACK
6
CONTINUOUS
10
5.6228312204724409
20
-4.6891574803149609
11
5.626580748031496
21
-4.6854079133858271
0
LINE
8
BLACK
6
CONTINUOUS
10
5.626580748031496
20
-4.6854079133858271
11
5.626580748031496
21
-4.692907007874016
0
LINE
8
BLACK
6
CONTINUOUS
10
5.6790741732283463
20
-4.6141668503937003
11
5.6865732677165353
21
-4.6141668503937003
0
LINE
8
BLACK
6
CONTINUOUS
10
5.6865732677165353
20
-4.6141668503937003
11
5.6940723228346455
21
-4.6179163779527554
0
LINE
8
BLACK
6
CONTINUOUS
10
5.6940723228346455
20
-4.6179163779527554
11
5.6978218503937006
21
-4.6216659055118106
0
LINE
8
BLACK
6
CONTINUOUS
10
5.6978218503937006
20
-4.6216659055118106
11
5.7015713779527557
21
-4.6291649606299208
0
LINE
8
BLACK
6
CONTINUOUS
10
5.7015713779527557
20
-4.6291649606299208
11
5.7053209055118108
21
-4.6441630708661412
0
LINE
8
BLACK
6
CONTINUOUS
10
5.7053209055118108
20
-4.6441630708661412
11
5.7053209055118108
21
-4.6629107480314955
0
LINE
8
BLACK
6
CONTINUOUS
10
5.7053209055118108
20
-4.6629107480314955
11
5.7015713779527557
21
-4.6779088582677169
0
LINE
8
BLACK
6
CONTINUOUS
10
5.7015713779527557
20
-4.6779088582677169
11
5.6978218503937006
21
-4.6854079133858271
0
LINE
8
BLACK
6
CONTINUOUS
10
5.6978218503937006
20
-4.6854079133858271
11
5.6940723228346455
21
-4.6891574803149609
0
LINE
8
BLACK
6
CONTINUOUS
10
5.6940723228346455
20
-4.6891574803149609
11
5.6865732677165353
21
-4.692907007874016
0
LINE
8
BLACK
6
CONTINUOUS
10
5.6865732677165353
20
-4.692907007874016
11
5.6790741732283463
21
-4.692907007874016
0
LINE
8
BLACK
6
CONTINUOUS
10
5.6790741732283463
20
-4.692907007874016
11
5.6715751181102361
21
-4.6891574803149609
0
LINE
8
BLACK
6
CONTINUOUS
10
5.6715751181102361
20
-4.6891574803149609
11
5.667825590551181
21
-4.6854079133858271
0
LINE
8
BLACK
6
CONTINUOUS
10
5.667825590551181
20
-4.6854079133858271
11
5.6640760629921258
21
-4.6779088582677169
0
LINE
8
BLACK
6
CONTINUOUS
10
5.6640760629921258
20
-4.6779088582677169
11
5.6603265354330707
21
-4.6629107480314955
0
LINE
8
BLACK
6
CONTINUOUS
10
5.6603265354330707
20
-4.6629107480314955
11
5.6603265354330707
21
-4.6441630708661412
0
LINE
8
BLACK
6
CONTINUOUS
10
5.6603265354330707
20
-4.6441630708661412
11
5.6640760629921258
21
-4.6291649606299208
0
LINE
8
BLACK
6
CONTINUOUS
10
5.6640760629921258
20
-4.6291649606299208
11
5.667825590551181
21
-4.6216659055118106
0
LINE
8
BLACK
6
CONTINUOUS
10
5.667825590551181
20
-4.6216659055118106
11
5.6715751181102361
21
-4.6179163779527554
0
LINE
8
BLACK
6
CONTINUOUS
10
5.6715751181102361
20
-4.6179163779527554
11
5.6790741732283463
21
-4.6141668503937003
0
LINE
8
BLACK
6
CONTINUOUS
10
5.7315676377952753
20
-4.6141668503937003
11
5.7803115354330705
21
-4.6141668503937003
0
LINE
8
BLACK
6
CONTINUOUS
10
5.7803115354330705
20
-4.6141668503937003
11
5.754064803149606
21
-4.6441630708661412
0
LINE
8
BLACK
6
CONTINUOUS
10
5.754064803149606
20
-4.6441630708661412
11
5.7653134251968501
21
-4.6441630708661412
0
LINE
8
BLACK
6
CONTINUOUS
10
5.7653134251968501
20
-4.6441630708661412
11
5.7728124803149603
21
-4.6479125984251963
0
LINE
8
BLACK
6
CONTINUOUS
10
5.7728124803149603
20
-4.6479125984251963
11
5.7765620078740154
21
-4.6516621653543302
0
LINE
8
BLACK
6
CONTINUOUS
10
5.7765620078740154
20
-4.6516621653543302
11
5.7803115354330705
21
-4.6591612204724404
0
LINE
8
BLACK
6
CONTINUOUS
10
5.7803115354330705
20
-4.6591612204724404
11
5.7803115354330705
21
-4.6779088582677169
0
LINE
8
BLACK
6
CONTINUOUS
10
5.7803115354330705
20
-4.6779088582677169
11
5.7765620078740154
21
-4.6854079133858271
0
LINE
8
BLACK
6
CONTINUOUS
10
5.7765620078740154
20
-4.6854079133858271
11
5.7728124803149603
21
-4.6891574803149609
0
LINE
8
BLACK
6
CONTINUOUS
10
5.7728124803149603
20
-4.6891574803149609
11
5.7653134251968501
21
-4.692907007874016
0
LINE
8
BLACK
6
CONTINUOUS
10
5.7653134251968501
20
-4.692907007874016
11
5.7428162204724407
21
-4.692907007874016
0
LINE
8
BLACK
6
CONTINUOUS
10
5.7428162204724407
20
-4.692907007874016
11
5.7353171653543304
21
-4.6891574803149609
0
LINE
8
BLACK
6
CONTINUOUS
10
5.7353171653543304
20
-4.6891574803149609
11
5.7315676377952753
21
-4.6854079133858271
0
LINE
8
BLACK
6
CONTINUOUS
10
5.8515526377952751
20
-4.6141668503937003
11
5.8140573228346453
21
-4.6141668503937003
0
LINE
8
BLACK
6
CONTINUOUS
10
5.8140573228346453
20
-4.6141668503937003
11
5.8103077952755902
21
-4.6516621653543302
0
LINE
8
BLACK
6
CONTINUOUS
10
5.8103077952755902
20
-4.6516621653543302
11
5.8140573228346453
21
-4.6479125984251963
0
LINE
8
BLACK
6
CONTINUOUS
10
5.8140573228346453
20
-4.6479125984251963
11
5.8215563779527555
21
-4.6441630708661412
0
LINE
8
BLACK
6
CONTINUOUS
10
5.8215563779527555
20
-4.6441630708661412
11
5.8403040551181098
21
-4.6441630708661412
0
LINE
8
BLACK
6
CONTINUOUS
10
5.8403040551181098
20
-4.6441630708661412
11
5.84780311023622
21
-4.6479125984251963
0
LINE
8
BLACK
6
CONTINUOUS
10
5.84780311023622
20
-4.6479125984251963
11
5.8515526377952751
21
-4.6516621653543302
0
LINE
8
BLACK
6
CONTINUOUS
10
5.8515526377952751
20
-4.6516621653543302
11
5.8553021653543302
21
-4.6591612204724404
0
LINE
8
BLACK
6
CONTINUOUS
10
5.8553021653543302
20
-4.6591612204724404
11
5.8553021653543302
21
-4.6779088582677169
0
LINE
8
BLACK
6
CONTINUOUS
10
5.8553021653543302
20
-4.6779088582677169
11
5.8515526377952751
21
-4.6854079133858271
0
LINE
8
BLACK
6
CONTINUOUS
10
5.8515526377952751
20
-4.6854079133858271
11
5.84780311023622
21
-4.6891574803149609
0
LINE
8
BLACK
6
CONTINUOUS
10
5.84780311023622
20
-4.6891574803149609
11
5.8403040551181098
21
-4.692907007874016
0
LINE
8
BLACK
6
CONTINUOUS
10
5.8403040551181098
20
-4.692907007874016
11
5.8215563779527555
21
-4.692907007874016
0
LINE
8
BLACK
6
CONTINUOUS
10
5.8215563779527555
20
-4.692907007874016
11
5.8140573228346453
21
-4.6891574803149609
0
LINE
8
BLACK
6
CONTINUOUS
10
5.8140573228346453
20
-4.6891574803149609
11
5.8103077952755902
21
-4.6854079133858271
0
LINE
8
BLACK
6
CONTINUOUS
10
5.9227937401574806
20
-4.6404135433070861
11
5.9227937401574806
21
-4.692907007874016
0
LINE
8
BLACK
6
CONTINUOUS
10
5.9040460629921254
20
-4.6104173228346452
11
5.8852984251968499
21
-4.6666602755905506
0
LINE
8
BLACK
6
CONTINUOUS
10
5.8852984251968499
20
-4.6666602755905506
11
5.9340423228346459
21
-4.6666602755905506
0
LINE
8
BLACK
6
CONTINUOUS
10
5.9602890551181105
20
-4.6141668503937003
11
5.9602890551181105
21
-4.6291649606299208
0
LINE
8
BLACK
6
CONTINUOUS
10
5.9902853149606301
20
-4.6141668503937003
11
5.9902853149606301
21
-4.6291649606299208
0
LINE
8
BLACK
6
CONTINUOUS
10
6.1065208267716535
20
-4.7229032283464569
11
6.1027712598425197
21
-4.7191537007874018
0
LINE
8
BLACK
6
CONTINUOUS
10
6.1027712598425197
20
-4.7191537007874018
11
6.0952722047244094
21
-4.7079051181102365
0
LINE
8
BLACK
6
CONTINUOUS
10
6.0952722047244094
20
-4.7079051181102365
11
6.0915226771653543
21
-4.7004060629921263
0
LINE
8
BLACK
6
CONTINUOUS
10
6.0915226771653543
20
-4.7004060629921263
11
6.0877731496062992
21
-4.6891574803149609
0
LINE
8
BLACK
6
CONTINUOUS
10
6.0877731496062992
20
-4.6891574803149609
11
6.0840236220472441
21
-4.6704098031496066
0
LINE
8
BLACK
6
CONTINUOUS
10
6.0840236220472441
20
-4.6704098031496066
11
6.0840236220472441
21
-4.6554116929133853
0
LINE
8
BLACK
6
CONTINUOUS
10
6.0840236220472441
20
-4.6554116929133853
11
6.0877731496062992
21
-4.636664015748031
0
LINE
8
BLACK
6
CONTINUOUS
10
6.0877731496062992
20
-4.636664015748031
11
6.0915226771653543
21
-4.6254154330708657
0
LINE
8
BLACK
6
CONTINUOUS
10
6.0915226771653543
20
-4.6254154330708657
11
6.0952722047244094
21
-4.6179163779527554
0
LINE
8
BLACK
6
CONTINUOUS
10
6.0952722047244094
20
-4.6179163779527554
11
6.1027712598425197
21
-4.6066677559055114
0
LINE
8
BLACK
6
CONTINUOUS
10
6.1027712598425197
20
-4.6066677559055114
11
6.1065208267716535
21
-4.6029182283464563
0
LINE
8
BLACK
6
CONTINUOUS
10
6.1290179921259842
20
-4.6141668503937003
11
6.1777618897637794
21
-4.6141668503937003
0
LINE
8
BLACK
6
CONTINUOUS
10
6.1777618897637794
20
-4.6141668503937003
11
6.1515151574803149
21
-4.6441630708661412
0
LINE
8
BLACK
6
CONTINUOUS
10
6.1515151574803149
20
-4.6441630708661412
11
6.1627637795275589
21
-4.6441630708661412
0
LINE
8
BLACK
6
CONTINUOUS
10
6.1627637795275589
20
-4.6441630708661412
11
6.1702628346456692
21
-4.6479125984251963
0
LINE
8
BLACK
6
CONTINUOUS
10
6.1702628346456692
20
-4.6479125984251963
11
6.1740123622047243
21
-4.6516621653543302
0
LINE
8
BLACK
6
CONTINUOUS
10
6.1740123622047243
20
-4.6516621653543302
11
6.1777618897637794
21
-4.6591612204724404
0
LINE
8
BLACK
6
CONTINUOUS
10
6.1777618897637794
20
-4.6591612204724404
11
6.1777618897637794
21
-4.6779088582677169
0
LINE
8
BLACK
6
CONTINUOUS
10
6.1777618897637794
20
-4.6779088582677169
11
6.1740123622047243
21
-4.6854079133858271
0
LINE
8
BLACK
6
CONTINUOUS
10
6.1740123622047243
20
-4.6854079133858271
11
6.1702628346456692
21
-4.6891574803149609
0
LINE
8
BLACK
6
CONTINUOUS
10
6.1702628346456692
20
-4.6891574803149609
11
6.1627637795275589
21
-4.692907007874016
0
LINE
8
BLACK
6
CONTINUOUS
10
6.1627637795275589
20
-4.692907007874016
11
6.1402665748031495
21
-4.692907007874016
0
LINE
8
BLACK
6
CONTINUOUS
10
6.1402665748031495
20
-4.692907007874016
11
6.1327675196850393
21
-4.6891574803149609
0
LINE
8
BLACK
6
CONTINUOUS
10
6.1327675196850393
20
-4.6891574803149609
11
6.1290179921259842
21
-4.6854079133858271
0
LINE
8
BLACK
6
CONTINUOUS
10
6.2715001968503934
20
-4.692907007874016
11
6.2715001968503934
21
-4.6141668503937003
0
LINE
8
BLACK
6
CONTINUOUS
10
6.3052459842519681
20
-4.692907007874016
11
6.3052459842519681
21
-4.6516621653543302
0
LINE
8
BLACK
6
CONTINUOUS
10
6.3052459842519681
20
-4.6516621653543302
11
6.301496456692913
21
-4.6441630708661412
0
LINE
8
BLACK
6
CONTINUOUS
10
6.301496456692913
20
-4.6441630708661412
11
6.2939974015748028
21
-4.6404135433070861
0
LINE
8
BLACK
6
CONTINUOUS
10
6.2939974015748028
20
-4.6404135433070861
11
6.2827487795275587
21
-4.6404135433070861
0
LINE
8
BLACK
6
CONTINUOUS
10
6.2827487795275587
20
-4.6404135433070861
11
6.2752497244094485
21
-4.6441630708661412
0
LINE
8
BLACK
6
CONTINUOUS
10
6.2752497244094485
20
-4.6441630708661412
11
6.2715001968503934
21
-4.6479125984251963
0
LINE
8
BLACK
6
CONTINUOUS
10
6.3539898818897633
20
-4.692907007874016
11
6.3464908267716531
21
-4.6891574803149609
0
LINE
8
BLACK
6
CONTINUOUS
10
6.3464908267716531
20
-4.6891574803149609
11
6.342741299212598
21
-4.6854079133858271
0
LINE
8
BLACK
6
CONTINUOUS
10
6.342741299212598
20
-4.6854079133858271
11
6.3389917716535429
21
-4.6779088582677169
0
LINE
8
BLACK
6
CONTINUOUS
10
6.3389917716535429
20
-4.6779088582677169
11
6.3389917716535429
21
-4.6554116929133853
0
LINE
8
BLACK
6
CONTINUOUS
10
6.3389917716535429
20
-4.6554116929133853
11
6.342741299212598
21
-4.6479125984251963
0
LINE
8
BLACK
6
CONTINUOUS
10
6.342741299212598
20
-4.6479125984251963
11
6.3464908267716531
21
-4.6441630708661412
0
LINE
8
BLACK
6
CONTINUOUS
10
6.3464908267716531
20
-4.6441630708661412
11
6.3539898818897633
21
-4.6404135433070861
0
LINE
8
BLACK
6
CONTINUOUS
10
6.3539898818897633
20
-4.6404135433070861
11
6.3652385039370074
21
-4.6404135433070861
0
LINE
8
BLACK
6
CONTINUOUS
10
6.3652385039370074
20
-4.6404135433070861
11
6.3727375590551176
21
-4.6441630708661412
0
LINE
8
BLACK
6
CONTINUOUS
10
6.3727375590551176
20
-4.6441630708661412
11
6.3764870866141727
21
-4.6479125984251963
0
LINE
8
BLACK
6
CONTINUOUS
10
6.3764870866141727
20
-4.6479125984251963
11
6.3802366141732278
21
-4.6554116929133853
0
LINE
8
BLACK
6
CONTINUOUS
10
6.3802366141732278
20
-4.6554116929133853
11
6.3802366141732278
21
-4.6779088582677169
0
LINE
8
BLACK
6
CONTINUOUS
10
6.3802366141732278
20
-4.6779088582677169
11
6.3764870866141727
21
-4.6854079133858271
0
LINE
8
BLACK
6
CONTINUOUS
10
6.3764870866141727
20
-4.6854079133858271
11
6.3727375590551176
21
-4.6891574803149609
0
LINE
8
BLACK
6
CONTINUOUS
10
6.3727375590551176
20
-4.6891574803149609
11
6.3652385039370074
21
-4.692907007874016
0
LINE
8
BLACK
6
CONTINUOUS
10
6.3652385039370074
20
-4.692907007874016
11
6.3539898818897633
21
-4.692907007874016
0
LINE
8
BLACK
6
CONTINUOUS
10
6.4252309842519679
20
-4.692907007874016
11
6.4177319291338577
21
-4.6891574803149609
0
LINE
8
BLACK
6
CONTINUOUS
10
6.4177319291338577
20
-4.6891574803149609
11
6.4139824015748026
21
-4.681658385826772
0
LINE
8
BLACK
6
CONTINUOUS
10
6.4139824015748026
20
-4.681658385826772
11
6.4139824015748026
21
-4.6141668503937003
0
LINE
8
BLACK
6
CONTINUOUS
10
6.4852235039370081
20
-4.6891574803149609
11
6.4777244488188979
21
-4.692907007874016
0
LINE
8
BLACK
6
CONTINUOUS
10
6.4777244488188979
20
-4.692907007874016
11
6.4627262992125987
21
-4.692907007874016
0
LINE
8
BLACK
6
CONTINUOUS
10
6.4627262992125987
20
-4.692907007874016
11
6.4552272440944884
21
-4.6891574803149609
0
LINE
8
BLACK
6
CONTINUOUS
10
6.4552272440944884
20
-4.6891574803149609
11
6.4514777165354333
21
-4.681658385826772
0
LINE
8
BLACK
6
CONTINUOUS
10
6.4514777165354333
20
-4.681658385826772
11
6.4514777165354333
21
-4.6516621653543302
0
LINE
8
BLACK
6
CONTINUOUS
10
6.4514777165354333
20
-4.6516621653543302
11
6.4552272440944884
21
-4.6441630708661412
0
LINE
8
BLACK
6
CONTINUOUS
10
6.4552272440944884
20
-4.6441630708661412
11
6.4627262992125987
21
-4.6404135433070861
0
LINE
8
BLACK
6
CONTINUOUS
10
6.4627262992125987
20
-4.6404135433070861
11
6.4777244488188979
21
-4.6404135433070861
0
LINE
8
BLACK
6
CONTINUOUS
10
6.4777244488188979
20
-4.6404135433070861
11
6.4852235039370081
21
-4.6441630708661412
0
LINE
8
BLACK
6
CONTINUOUS
10
6.4852235039370081
20
-4.6441630708661412
11
6.4889730314960632
21
-4.6516621653543302
0
LINE
8
BLACK
6
CONTINUOUS
10
6.4889730314960632
20
-4.6516621653543302
11
6.4889730314960632
21
-4.6591612204724404
0
LINE
8
BLACK
6
CONTINUOUS
10
6.4889730314960632
20
-4.6591612204724404
11
6.4514777165354333
21
-4.6666602755905506
0
LINE
8
BLACK
6
CONTINUOUS
10
6.5189692913385828
20
-4.6891574803149609
11
6.526468346456693
21
-4.692907007874016
0
LINE
8
BLACK
6
CONTINUOUS
10
6.526468346456693
20
-4.692907007874016
11
6.5414664566929135
21
-4.692907007874016
0
LINE
8
BLACK
6
CONTINUOUS
10
6.5414664566929135
20
-4.692907007874016
11
6.5489655511811025
21
-4.6891574803149609
0
LINE
8
BLACK
6
CONTINUOUS
10
6.5489655511811025
20
-4.6891574803149609
11
6.5527150787401576
21
-4.681658385826772
0
LINE
8
BLACK
6
CONTINUOUS
10
6.5527150787401576
20
-4.681658385826772
11
6.5527150787401576
21
-4.6779088582677169
0
LINE
8
BLACK
6
CONTINUOUS
10
6.5527150787401576
20
-4.6779088582677169
11
6.5489655511811025
21
-4.6704098031496066
0
LINE
8
BLACK
6
CONTINUOUS
10
6.5489655511811025
20
-4.6704098031496066
11
6.5414664566929135
21
-4.6666602755905506
0
LINE
8
BLACK
6
CONTINUOUS
10
6.5414664566929135
20
-4.6666602755905506
11
6.5302178740157482
21
-4.6666602755905506
0
LINE
8
BLACK
6
CONTINUOUS
10
6.5302178740157482
20
-4.6666602755905506
11
6.5227188188976379
21
-4.6629107480314955
0
LINE
8
BLACK
6
CONTINUOUS
10
6.5227188188976379
20
-4.6629107480314955
11
6.5189692913385828
21
-4.6554116929133853
0
LINE
8
BLACK
6
CONTINUOUS
10
6.5189692913385828
20
-4.6554116929133853
11
6.5189692913385828
21
-4.6516621653543302
0
LINE
8
BLACK
6
CONTINUOUS
10
6.5189692913385828
20
-4.6516621653543302
11
6.5227188188976379
21
-4.6441630708661412
0
LINE
8
BLACK
6
CONTINUOUS
10
6.5227188188976379
20
-4.6441630708661412
11
6.5302178740157482
21
-4.6404135433070861
0
LINE
8
BLACK
6
CONTINUOUS
10
6.5302178740157482
20
-4.6404135433070861
11
6.5414664566929135
21
-4.6404135433070861
0
LINE
8
BLACK
6
CONTINUOUS
10
6.5414664566929135
20
-4.6404135433070861
11
6.5489655511811025
21
-4.6441630708661412
0
LINE
8
BLACK
6
CONTINUOUS
10
6.5789618110236221
20
-4.7229032283464569
11
6.5827113385826772
21
-4.7191537007874018
0
LINE
8
BLACK
6
CONTINUOUS
10
6.5827113385826772
20
-4.7191537007874018
11
6.5902103937007874
21
-4.7079051181102365
0
LINE
8
BLACK
6
CONTINUOUS
10
6.5902103937007874
20
-4.7079051181102365
11
6.5939599212598425
21
-4.7004060629921263
0
LINE
8
BLACK
6
CONTINUOUS
10
6.5939599212598425
20
-4.7004060629921263
11
6.5977094488188976
21
-4.6891574803149609
0
LINE
8
BLACK
6
CONTINUOUS
10
6.5977094488188976
20
-4.6891574803149609
11
6.6014589763779528
21
-4.6704098031496066
0
LINE
8
BLACK
6
CONTINUOUS
10
6.6014589763779528
20
-4.6704098031496066
11
6.6014589763779528
21
-4.6554116929133853
0
LINE
8
BLACK
6
CONTINUOUS
10
6.6014589763779528
20
-4.6554116929133853
11
6.5977094488188976
21
-4.636664015748031
0
LINE
8
BLACK
6
CONTINUOUS
10
6.5977094488188976
20
-4.636664015748031
11
6.5939599212598425
21
-4.6254154330708657
0
LINE
8
BLACK
6
CONTINUOUS
10
6.5939599212598425
20
-4.6254154330708657
11
6.5902103937007874
21
-4.6179163779527554
0
LINE
8
BLACK
6
CONTINUOUS
10
6.5902103937007874
20
-4.6179163779527554
11
6.5827113385826772
21
-4.6066677559055114
0
LINE
8
BLACK
6
CONTINUOUS
10
6.5827113385826772
20
-4.6066677559055114
11
6.5789618110236221
21
-4.6029182283464563
0
LINE
8
BLACK
6
CONTINUOUS
10
4.6793307086614169
20
-4.7411417322834648
11
4.6793307086614169
21
-4.7805118110236222
0
LINE
8
BLACK
6
CONTINUOUS
10
4.6596456692913382
20
-4.7608267716535435
11
4.6990157480314956
21
-4.7608267716535435
0
LINE
8
BLACK
6
CONTINUOUS
10
4.8429286220472436
20
-4.7968440157480314
11
4.7979342519685035
21
-4.7968440157480314
0
LINE
8
BLACK
6
CONTINUOUS
10
4.8204314173228342
20
-4.7968440157480314
11
4.8204314173228342
21
-4.7181038582677166
0
LINE
8
BLACK
6
CONTINUOUS
10
4.8204314173228342
20
-4.7181038582677166
11
4.812932362204724
21
-4.7293524409448819
0
LINE
8
BLACK
6
CONTINUOUS
10
4.812932362204724
20
-4.7293524409448819
11
4.8054333070866138
21
-4.7368514960629922
0
LINE
8
BLACK
6
CONTINUOUS
10
4.8054333070866138
20
-4.7368514960629922
11
4.7979342519685035
21
-4.7406010236220473
0
LINE
8
BLACK
6
CONTINUOUS
10
4.8766744094488184
20
-4.7893449212598425
11
4.8804239370078735
21
-4.7930944881889763
0
LINE
8
BLACK
6
CONTINUOUS
10
4.8804239370078735
20
-4.7930944881889763
11
4.8766744094488184
21
-4.7968440157480314
0
LINE
8
BLACK
6
CONTINUOUS
10
4.8766744094488184
20
-4.7968440157480314
11
4.8729248818897632
21
-4.7930944881889763
0
LINE
8
BLACK
6
CONTINUOUS
10
4.8729248818897632
20
-4.7930944881889763
11
4.8766744094488184
21
-4.7893449212598425
0
LINE
8
BLACK
6
CONTINUOUS
10
4.8766744094488184
20
-4.7893449212598425
11
4.8766744094488184
21
-4.7968440157480314
0
LINE
8
BLACK
6
CONTINUOUS
10
4.9291678346456695
20
-4.7181038582677166
11
4.9366669291338585
21
-4.7181038582677166
0
LINE
8
BLACK
6
CONTINUOUS
10
4.9366669291338585
20
-4.7181038582677166
11
4.9441659842519687
21
-4.7218533858267717
0
LINE
8
BLACK
6
CONTINUOUS
10
4.9441659842519687
20
-4.7218533858267717
11
4.9479155118110238
21
-4.7256029133858268
0
LINE
8
BLACK
6
CONTINUOUS
10
4.9479155118110238
20
-4.7256029133858268
11
4.951665039370079
21
-4.7331019685039371
0
LINE
8
BLACK
6
CONTINUOUS
10
4.951665039370079
20
-4.7331019685039371
11
4.9554145669291341
21
-4.7481000787401575
0
LINE
8
BLACK
6
CONTINUOUS
10
4.9554145669291341
20
-4.7481000787401575
11
4.9554145669291341
21
-4.7668477559055118
0
LINE
8
BLACK
6
CONTINUOUS
10
4.9554145669291341
20
-4.7668477559055118
11
4.951665039370079
21
-4.7818458661417322
0
LINE
8
BLACK
6
CONTINUOUS
10
4.951665039370079
20
-4.7818458661417322
11
4.9479155118110238
21
-4.7893449212598425
0
LINE
8
BLACK
6
CONTINUOUS
10
4.9479155118110238
20
-4.7893449212598425
11
4.9441659842519687
21
-4.7930944881889763
0
LINE
8
BLACK
6
CONTINUOUS
10
4.9441659842519687
20
-4.7930944881889763
11
4.9366669291338585
21
-4.7968440157480314
0
LINE
8
BLACK
6
CONTINUOUS
10
4.9366669291338585
20
-4.7968440157480314
11
4.9291678346456695
21
-4.7968440157480314
0
LINE
8
BLACK
6
CONTINUOUS
10
4.9291678346456695
20
-4.7968440157480314
11
4.9216687795275593
21
-4.7930944881889763
0
LINE
8
BLACK
6
CONTINUOUS
10
4.9216687795275593
20
-4.7930944881889763
11
4.9179192519685042
21
-4.7893449212598425
0
LINE
8
BLACK
6
CONTINUOUS
10
4.9179192519685042
20
-4.7893449212598425
11
4.9141697244094491
21
-4.7818458661417322
0
LINE
8
BLACK
6
CONTINUOUS
10
4.9141697244094491
20
-4.7818458661417322
11
4.910420196850394
21
-4.7668477559055118
0
LINE
8
BLACK
6
CONTINUOUS
10
4.910420196850394
20
-4.7668477559055118
11
4.910420196850394
21
-4.7481000787401575
0
LINE
8
BLACK
6
CONTINUOUS
10
4.910420196850394
20
-4.7481000787401575
11
4.9141697244094491
21
-4.7331019685039371
0
LINE
8
BLACK
6
CONTINUOUS
10
4.9141697244094491
20
-4.7331019685039371
11
4.9179192519685042
21
-4.7256029133858268
0
LINE
8
BLACK
6
CONTINUOUS
10
4.9179192519685042
20
-4.7256029133858268
11
4.9216687795275593
21
-4.7218533858267717
0
LINE
8
BLACK
6
CONTINUOUS
10
4.9216687795275593
20
-4.7218533858267717
11
4.9291678346456695
21
-4.7181038582677166
0
LINE
8
BLACK
6
CONTINUOUS
10
5.0041584645669293
20
-4.7181038582677166
11
5.0116575590551182
21
-4.7181038582677166
0
LINE
8
BLACK
6
CONTINUOUS
10
5.0116575590551182
20
-4.7181038582677166
11
5.0191566141732284
21
-4.7218533858267717
0
LINE
8
BLACK
6
CONTINUOUS
10
5.0191566141732284
20
-4.7218533858267717
11
5.0229061417322836
21
-4.7256029133858268
0
LINE
8
BLACK
6
CONTINUOUS
10
5.0229061417322836
20
-4.7256029133858268
11
5.0266556692913387
21
-4.7331019685039371
0
LINE
8
BLACK
6
CONTINUOUS
10
5.0266556692913387
20
-4.7331019685039371
11
5.0304051968503938
21
-4.7481000787401575
0
LINE
8
BLACK
6
CONTINUOUS
10
5.0304051968503938
20
-4.7481000787401575
11
5.0304051968503938
21
-4.7668477559055118
0
LINE
8
BLACK
6
CONTINUOUS
10
5.0304051968503938
20
-4.7668477559055118
11
5.0266556692913387
21
-4.7818458661417322
0
LINE
8
BLACK
6
CONTINUOUS
10
5.0266556692913387
20
-4.7818458661417322
11
5.0229061417322836
21
-4.7893449212598425
0
LINE
8
BLACK
6
CONTINUOUS
10
5.0229061417322836
20
-4.7893449212598425
11
5.0191566141732284
21
-4.7930944881889763
0
LINE
8
BLACK
6
CONTINUOUS
10
5.0191566141732284
20
-4.7930944881889763
11
5.0116575590551182
21
-4.7968440157480314
0
LINE
8
BLACK
6
CONTINUOUS
10
5.0116575590551182
20
-4.7968440157480314
11
5.0041584645669293
21
-4.7968440157480314
0
LINE
8
BLACK
6
CONTINUOUS
10
5.0041584645669293
20
-4.7968440157480314
11
4.996659409448819
21
-4.7930944881889763
0
LINE
8
BLACK
6
CONTINUOUS
10
4.996659409448819
20
-4.7930944881889763
11
4.9929098818897639
21
-4.7893449212598425
0
LINE
8
BLACK
6
CONTINUOUS
10
4.9929098818897639
20
-4.7893449212598425
11
4.9891603543307088
21
-4.7818458661417322
0
LINE
8
BLACK
6
CONTINUOUS
10
4.9891603543307088
20
-4.7818458661417322
11
4.9854108267716537
21
-4.7668477559055118
0
LINE
8
BLACK
6
CONTINUOUS
10
4.9854108267716537
20
-4.7668477559055118
11
4.9854108267716537
21
-4.7481000787401575
0
LINE
8
BLACK
6
CONTINUOUS
10
4.9854108267716537
20
-4.7481000787401575
11
4.9891603543307088
21
-4.7331019685039371
0
LINE
8
BLACK
6
CONTINUOUS
10
4.9891603543307088
20
-4.7331019685039371
11
4.9929098818897639
21
-4.7256029133858268
0
LINE
8
BLACK
6
CONTINUOUS
10
4.9929098818897639
20
-4.7256029133858268
11
4.996659409448819
21
-4.7218533858267717
0
LINE
8
BLACK
6
CONTINUOUS
10
4.996659409448819
20
-4.7218533858267717
11
5.0041584645669293
21
-4.7181038582677166
0
LINE
8
BLACK
6
CONTINUOUS
10
5.079149094488189
20
-4.7181038582677166
11
5.0866481889763779
21
-4.7181038582677166
0
LINE
8
BLACK
6
CONTINUOUS
10
5.0866481889763779
20
-4.7181038582677166
11
5.0941472440944882
21
-4.7218533858267717
0
LINE
8
BLACK
6
CONTINUOUS
10
5.0941472440944882
20
-4.7218533858267717
11
5.0978967716535433
21
-4.7256029133858268
0
LINE
8
BLACK
6
CONTINUOUS
10
5.0978967716535433
20
-4.7256029133858268
11
5.1016462992125984
21
-4.7331019685039371
0
LINE
8
BLACK
6
CONTINUOUS
10
5.1016462992125984
20
-4.7331019685039371
11
5.1053958267716535
21
-4.7481000787401575
0
LINE
8
BLACK
6
CONTINUOUS
10
5.1053958267716535
20
-4.7481000787401575
11
5.1053958267716535
21
-4.7668477559055118
0
LINE
8
BLACK
6
CONTINUOUS
10
5.1053958267716535
20
-4.7668477559055118
11
5.1016462992125984
21
-4.7818458661417322
0
LINE
8
BLACK
6
CONTINUOUS
10
5.1016462992125984
20
-4.7818458661417322
11
5.0978967716535433
21
-4.7893449212598425
0
LINE
8
BLACK
6
CONTINUOUS
10
5.0978967716535433
20
-4.7893449212598425
11
5.0941472440944882
21
-4.7930944881889763
0
LINE
8
BLACK
6
CONTINUOUS
10
5.0941472440944882
20
-4.7930944881889763
11
5.0866481889763779
21
-4.7968440157480314
0
LINE
8
BLACK
6
CONTINUOUS
10
5.0866481889763779
20
-4.7968440157480314
11
5.079149094488189
21
-4.7968440157480314
0
LINE
8
BLACK
6
CONTINUOUS
10
5.079149094488189
20
-4.7968440157480314
11
5.0716500393700787
21
-4.7930944881889763
0
LINE
8
BLACK
6
CONTINUOUS
10
5.0716500393700787
20
-4.7930944881889763
11
5.0679005118110236
21
-4.7893449212598425
0
LINE
8
BLACK
6
CONTINUOUS
10
5.0679005118110236
20
-4.7893449212598425
11
5.0641509842519685
21
-4.7818458661417322
0
LINE
8
BLACK
6
CONTINUOUS
10
5.0641509842519685
20
-4.7818458661417322
11
5.0604014566929134
21
-4.7668477559055118
0
LINE
8
BLACK
6
CONTINUOUS
10
5.0604014566929134
20
-4.7668477559055118
11
5.0604014566929134
21
-4.7481000787401575
0
LINE
8
BLACK
6
CONTINUOUS
10
5.0604014566929134
20
-4.7481000787401575
11
5.0641509842519685
21
-4.7331019685039371
0
LINE
8
BLACK
6
CONTINUOUS
10
5.0641509842519685
20
-4.7331019685039371
11
5.0679005118110236
21
-4.7256029133858268
0
LINE
8
BLACK
6
CONTINUOUS
10
5.0679005118110236
20
-4.7256029133858268
11
5.0716500393700787
21
-4.7218533858267717
0
LINE
8
BLACK
6
CONTINUOUS
10
5.0716500393700787
20
-4.7218533858267717
11
5.079149094488189
21
-4.7181038582677166
0
LINE
8
BLACK
6
CONTINUOUS
10
5.1391416141732282
20
-4.7968440157480314
11
5.1391416141732282
21
-4.7443505511811024
0
LINE
8
BLACK
6
CONTINUOUS
10
5.1391416141732282
20
-4.7518496062992126
11
5.1428911417322833
21
-4.7481000787401575
0
LINE
8
BLACK
6
CONTINUOUS
10
5.1428911417322833
20
-4.7481000787401575
11
5.1503901968503936
21
-4.7443505511811024
0
LINE
8
BLACK
6
CONTINUOUS
10
5.1503901968503936
20
-4.7443505511811024
11
5.1616388188976376
21
-4.7443505511811024
0
LINE
8
BLACK
6
CONTINUOUS
10
5.1616388188976376
20
-4.7443505511811024
11
5.1691378740157479
21
-4.7481000787401575
0
LINE
8
BLACK
6
CONTINUOUS
10
5.1691378740157479
20
-4.7481000787401575
11
5.172887401574803
21
-4.7555991732283465
0
LINE
8
BLACK
6
CONTINUOUS
10
5.172887401574803
20
-4.7555991732283465
11
5.172887401574803
21
-4.7968440157480314
0
LINE
8
BLACK
6
CONTINUOUS
10
5.172887401574803
20
-4.7555991732283465
11
5.1766369291338581
21
-4.7481000787401575
0
LINE
8
BLACK
6
CONTINUOUS
10
5.1766369291338581
20
-4.7481000787401575
11
5.1841359842519683
21
-4.7443505511811024
0
LINE
8
BLACK
6
CONTINUOUS
10
5.1841359842519683
20
-4.7443505511811024
11
5.1953845669291336
21
-4.7443505511811024
0
LINE
8
BLACK
6
CONTINUOUS
10
5.1953845669291336
20
-4.7443505511811024
11
5.2028836614173226
21
-4.7481000787401575
0
LINE
8
BLACK
6
CONTINUOUS
10
5.2028836614173226
20
-4.7481000787401575
11
5.2066331889763777
21
-4.7555991732283465
0
LINE
8
BLACK
6
CONTINUOUS
10
5.2066331889763777
20
-4.7555991732283465
11
5.2066331889763777
21
-4.7968440157480314
0
LINE
8
BLACK
6
CONTINUOUS
10
5.2441285039370076
20
-4.7968440157480314
11
5.2441285039370076
21
-4.7443505511811024
0
LINE
8
BLACK
6
CONTINUOUS
10
5.2441285039370076
20
-4.7518496062992126
11
5.2478780314960627
21
-4.7481000787401575
0
LINE
8
BLACK
6
CONTINUOUS
10
5.2478780314960627
20
-4.7481000787401575
11
5.2553770866141729
21
-4.7443505511811024
0
LINE
8
BLACK
6
CONTINUOUS
10
5.2553770866141729
20
-4.7443505511811024
11
5.266625708661417
21
-4.7443505511811024
0
LINE
8
BLACK
6
CONTINUOUS
10
5.266625708661417
20
-4.7443505511811024
11
5.2741247637795272
21
-4.7481000787401575
0
LINE
8
BLACK
6
CONTINUOUS
10
5.2741247637795272
20
-4.7481000787401575
11
5.2778742913385823
21
-4.7555991732283465
0
LINE
8
BLACK
6
CONTINUOUS
10
5.2778742913385823
20
-4.7555991732283465
11
5.2778742913385823
21
-4.7968440157480314
0
LINE
8
BLACK
6
CONTINUOUS
10
5.2778742913385823
20
-4.7555991732283465
11
5.2816238188976374
21
-4.7481000787401575
0
LINE
8
BLACK
6
CONTINUOUS
10
5.2816238188976374
20
-4.7481000787401575
11
5.2891228740157477
21
-4.7443505511811024
0
LINE
8
BLACK
6
CONTINUOUS
10
5.2891228740157477
20
-4.7443505511811024
11
5.300371456692913
21
-4.7443505511811024
0
LINE
8
BLACK
6
CONTINUOUS
10
5.300371456692913
20
-4.7443505511811024
11
5.307870551181102
21
-4.7481000787401575
0
LINE
8
BLACK
6
CONTINUOUS
10
5.307870551181102
20
-4.7481000787401575
11
5.3116200787401571
21
-4.7555991732283465
0
LINE
8
BLACK
6
CONTINUOUS
10
5.3116200787401571
20
-4.7555991732283465
11
5.3116200787401571
21
-4.7968440157480314
0
LINE
8
BLACK
6
CONTINUOUS
10
5.4653508661417325
20
-4.7143543307086615
11
5.3978593307086609
21
-4.815591653543307
0
LINE
8
BLACK
6
CONTINUOUS
10
5.5665882283464567
20
-4.7181038582677166
11
5.5740873228346457
21
-4.7181038582677166
0
LINE
8
BLACK
6
CONTINUOUS
10
5.5740873228346457
20
-4.7181038582677166
11
5.5815863779527559
21
-4.7218533858267717
0
LINE
8
BLACK
6
CONTINUOUS
10
5.5815863779527559
20
-4.7218533858267717
11
5.585335905511811
21
-4.7256029133858268
0
LINE
8
BLACK
6
CONTINUOUS
10
5.585335905511811
20
-4.7256029133858268
11
5.5890854330708661
21
-4.7331019685039371
0
LINE
8
BLACK
6
CONTINUOUS
10
5.5890854330708661
20
-4.7331019685039371
11
5.5928349606299212
21
-4.7481000787401575
0
LINE
8
BLACK
6
CONTINUOUS
10
5.5928349606299212
20
-4.7481000787401575
11
5.5928349606299212
21
-4.7668477559055118
0
LINE
8
BLACK
6
CONTINUOUS
10
5.5928349606299212
20
-4.7668477559055118
11
5.5890854330708661
21
-4.7818458661417322
0
LINE
8
BLACK
6
CONTINUOUS
10
5.5890854330708661
20
-4.7818458661417322
11
5.585335905511811
21
-4.7893449212598425
0
LINE
8
BLACK
6
CONTINUOUS
10
5.585335905511811
20
-4.7893449212598425
11
5.5815863779527559
21
-4.7930944881889763
0
LINE
8
BLACK
6
CONTINUOUS
10
5.5815863779527559
20
-4.7930944881889763
11
5.5740873228346457
21
-4.7968440157480314
0
LINE
8
BLACK
6
CONTINUOUS
10
5.5740873228346457
20
-4.7968440157480314
11
5.5665882283464567
21
-4.7968440157480314
0
LINE
8
BLACK
6
CONTINUOUS
10
5.5665882283464567
20
-4.7968440157480314
11
5.5590891732283465
21
-4.7930944881889763
0
LINE
8
BLACK
6
CONTINUOUS
10
5.5590891732283465
20
-4.7930944881889763
11
5.5553396456692914
21
-4.7893449212598425
0
LINE
8
BLACK
6
CONTINUOUS
10
5.5553396456692914
20
-4.7893449212598425
11
5.5515901181102363
21
-4.7818458661417322
0
LINE
8
BLACK
6
CONTINUOUS
10
5.5515901181102363
20
-4.7818458661417322
11
5.5478405905511812
21
-4.7668477559055118
0
LINE
8
BLACK
6
CONTINUOUS
10
5.5478405905511812
20
-4.7668477559055118
11
5.5478405905511812
21
-4.7481000787401575
0
LINE
8
BLACK
6
CONTINUOUS
10
5.5478405905511812
20
-4.7481000787401575
11
5.5515901181102363
21
-4.7331019685039371
0
LINE
8
BLACK
6
CONTINUOUS
10
5.5515901181102363
20
-4.7331019685039371
11
5.5553396456692914
21
-4.7256029133858268
0
LINE
8
BLACK
6
CONTINUOUS
10
5.5553396456692914
20
-4.7256029133858268
11
5.5590891732283465
21
-4.7218533858267717
0
LINE
8
BLACK
6
CONTINUOUS
10
5.5590891732283465
20
-4.7218533858267717
11
5.5665882283464567
21
-4.7181038582677166
0
LINE
8
BLACK
6
CONTINUOUS
10
5.626580748031496
20
-4.7893449212598425
11
5.6303302755905511
21
-4.7930944881889763
0
LINE
8
BLACK
6
CONTINUOUS
10
5.6303302755905511
20
-4.7930944881889763
11
5.626580748031496
21
-4.7968440157480314
0
LINE
8
BLACK
6
CONTINUOUS
10
5.626580748031496
20
-4.7968440157480314
11
5.6228312204724409
21
-4.7930944881889763
0
LINE
8
BLACK
6
CONTINUOUS
10
5.6228312204724409
20
-4.7930944881889763
11
5.626580748031496
21
-4.7893449212598425
0
LINE
8
BLACK
6
CONTINUOUS
10
5.626580748031496
20
-4.7893449212598425
11
5.626580748031496
21
-4.7968440157480314
0
LINE
8
BLACK
6
CONTINUOUS
10
5.6790741732283463
20
-4.7181038582677166
11
5.6865732677165353
21
-4.7181038582677166
0
LINE
8
BLACK
6
CONTINUOUS
10
5.6865732677165353
20
-4.7181038582677166
11
5.6940723228346455
21
-4.7218533858267717
0
LINE
8
BLACK
6
CONTINUOUS
10
5.6940723228346455
20
-4.7218533858267717
11
5.6978218503937006
21
-4.7256029133858268
0
LINE
8
BLACK
6
CONTINUOUS
10
5.6978218503937006
20
-4.7256029133858268
11
5.7015713779527557
21
-4.7331019685039371
0
LINE
8
BLACK
6
CONTINUOUS
10
5.7015713779527557
20
-4.7331019685039371
11
5.7053209055118108
21
-4.7481000787401575
0
LINE
8
BLACK
6
CONTINUOUS
10
5.7053209055118108
20
-4.7481000787401575
11
5.7053209055118108
21
-4.7668477559055118
0
LINE
8
BLACK
6
CONTINUOUS
10
5.7053209055118108
20
-4.7668477559055118
11
5.7015713779527557
21
-4.7818458661417322
0
LINE
8
BLACK
6
CONTINUOUS
10
5.7015713779527557
20
-4.7818458661417322
11
5.6978218503937006
21
-4.7893449212598425
0
LINE
8
BLACK
6
CONTINUOUS
10
5.6978218503937006
20
-4.7893449212598425
11
5.6940723228346455
21
-4.7930944881889763
0
LINE
8
BLACK
6
CONTINUOUS
10
5.6940723228346455
20
-4.7930944881889763
11
5.6865732677165353
21
-4.7968440157480314
0
LINE
8
BLACK
6
CONTINUOUS
10
5.6865732677165353
20
-4.7968440157480314
11
5.6790741732283463
21
-4.7968440157480314
0
LINE
8
BLACK
6
CONTINUOUS
10
5.6790741732283463
20
-4.7968440157480314
11
5.6715751181102361
21
-4.7930944881889763
0
LINE
8
BLACK
6
CONTINUOUS
10
5.6715751181102361
20
-4.7930944881889763
11
5.667825590551181
21
-4.7893449212598425
0
LINE
8
BLACK
6
CONTINUOUS
10
5.667825590551181
20
-4.7893449212598425
11
5.6640760629921258
21
-4.7818458661417322
0
LINE
8
BLACK
6
CONTINUOUS
10
5.6640760629921258
20
-4.7818458661417322
11
5.6603265354330707
21
-4.7668477559055118
0
LINE
8
BLACK
6
CONTINUOUS
10
5.6603265354330707
20
-4.7668477559055118
11
5.6603265354330707
21
-4.7481000787401575
0
LINE
8
BLACK
6
CONTINUOUS
10
5.6603265354330707
20
-4.7481000787401575
11
5.6640760629921258
21
-4.7331019685039371
0
LINE
8
BLACK
6
CONTINUOUS
10
5.6640760629921258
20
-4.7331019685039371
11
5.667825590551181
21
-4.7256029133858268
0
LINE
8
BLACK
6
CONTINUOUS
10
5.667825590551181
20
-4.7256029133858268
11
5.6715751181102361
21
-4.7218533858267717
0
LINE
8
BLACK
6
CONTINUOUS
10
5.6715751181102361
20
-4.7218533858267717
11
5.6790741732283463
21
-4.7181038582677166
0
LINE
8
BLACK
6
CONTINUOUS
10
5.7315676377952753
20
-4.7181038582677166
11
5.7803115354330705
21
-4.7181038582677166
0
LINE
8
BLACK
6
CONTINUOUS
10
5.7803115354330705
20
-4.7181038582677166
11
5.754064803149606
21
-4.7481000787401575
0
LINE
8
BLACK
6
CONTINUOUS
10
5.754064803149606
20
-4.7481000787401575
11
5.7653134251968501
21
-4.7481000787401575
0
LINE
8
BLACK
6
CONTINUOUS
10
5.7653134251968501
20
-4.7481000787401575
11
5.7728124803149603
21
-4.7518496062992126
0
LINE
8
BLACK
6
CONTINUOUS
10
5.7728124803149603
20
-4.7518496062992126
11
5.7765620078740154
21
-4.7555991732283465
0
LINE
8
BLACK
6
CONTINUOUS
10
5.7765620078740154
20
-4.7555991732283465
11
5.7803115354330705
21
-4.7630982283464567
0
LINE
8
BLACK
6
CONTINUOUS
10
5.7803115354330705
20
-4.7630982283464567
11
5.7803115354330705
21
-4.7818458661417322
0
LINE
8
BLACK
6
CONTINUOUS
10
5.7803115354330705
20
-4.7818458661417322
11
5.7765620078740154
21
-4.7893449212598425
0
LINE
8
BLACK
6
CONTINUOUS
10
5.7765620078740154
20
-4.7893449212598425
11
5.7728124803149603
21
-4.7930944881889763
0
LINE
8
BLACK
6
CONTINUOUS
10
5.7728124803149603
20
-4.7930944881889763
11
5.7653134251968501
21
-4.7968440157480314
0
LINE
8
BLACK
6
CONTINUOUS
10
5.7653134251968501
20
-4.7968440157480314
11
5.7428162204724407
21
-4.7968440157480314
0
LINE
8
BLACK
6
CONTINUOUS
10
5.7428162204724407
20
-4.7968440157480314
11
5.7353171653543304
21
-4.7930944881889763
0
LINE
8
BLACK
6
CONTINUOUS
10
5.7353171653543304
20
-4.7930944881889763
11
5.7315676377952753
21
-4.7893449212598425
0
LINE
8
BLACK
6
CONTINUOUS
10
5.8178068503937004
20
-4.7968440157480314
11
5.8328049606299208
21
-4.7968440157480314
0
LINE
8
BLACK
6
CONTINUOUS
10
5.8328049606299208
20
-4.7968440157480314
11
5.8403040551181098
21
-4.7930944881889763
0
LINE
8
BLACK
6
CONTINUOUS
10
5.8403040551181098
20
-4.7930944881889763
11
5.8440535826771649
21
-4.7893449212598425
0
LINE
8
BLACK
6
CONTINUOUS
10
5.8440535826771649
20
-4.7893449212598425
11
5.8515526377952751
21
-4.7780963385826771
0
LINE
8
BLACK
6
CONTINUOUS
10
5.8515526377952751
20
-4.7780963385826771
11
5.8553021653543302
21
-4.7630982283464567
0
LINE
8
BLACK
6
CONTINUOUS
10
5.8553021653543302
20
-4.7630982283464567
11
5.8553021653543302
21
-4.7331019685039371
0
LINE
8
BLACK
6
CONTINUOUS
10
5.8553021653543302
20
-4.7331019685039371
11
5.8515526377952751
21
-4.7256029133858268
0
LINE
8
BLACK
6
CONTINUOUS
10
5.8515526377952751
20
-4.7256029133858268
11
5.84780311023622
21
-4.7218533858267717
0
LINE
8
BLACK
6
CONTINUOUS
10
5.84780311023622
20
-4.7218533858267717
11
5.8403040551181098
21
-4.7181038582677166
0
LINE
8
BLACK
6
CONTINUOUS
10
5.8403040551181098
20
-4.7181038582677166
11
5.8253059055118106
21
-4.7181038582677166
0
LINE
8
BLACK
6
CONTINUOUS
10
5.8253059055118106
20
-4.7181038582677166
11
5.8178068503937004
21
-4.7218533858267717
0
LINE
8
BLACK
6
CONTINUOUS
10
5.8178068503937004
20
-4.7218533858267717
11
5.8140573228346453
21
-4.7256029133858268
0
LINE
8
BLACK
6
CONTINUOUS
10
5.8140573228346453
20
-4.7256029133858268
11
5.8103077952755902
21
-4.7331019685039371
0
LINE
8
BLACK
6
CONTINUOUS
10
5.8103077952755902
20
-4.7331019685039371
11
5.8103077952755902
21
-4.7518496062992126
0
LINE
8
BLACK
6
CONTINUOUS
10
5.8103077952755902
20
-4.7518496062992126
11
5.8140573228346453
21
-4.7593487007874016
0
LINE
8
BLACK
6
CONTINUOUS
10
5.8140573228346453
20
-4.7593487007874016
11
5.8178068503937004
21
-4.7630982283464567
0
LINE
8
BLACK
6
CONTINUOUS
10
5.8178068503937004
20
-4.7630982283464567
11
5.8253059055118106
21
-4.7668477559055118
0
LINE
8
BLACK
6
CONTINUOUS
10
5.8253059055118106
20
-4.7668477559055118
11
5.8403040551181098
21
-4.7668477559055118
0
LINE
8
BLACK
6
CONTINUOUS
10
5.8403040551181098
20
-4.7668477559055118
11
5.84780311023622
21
-4.7630982283464567
0
LINE
8
BLACK
6
CONTINUOUS
10
5.84780311023622
20
-4.7630982283464567
11
5.8515526377952751
21
-4.7593487007874016
0
LINE
8
BLACK
6
CONTINUOUS
10
5.8515526377952751
20
-4.7593487007874016
11
5.8553021653543302
21
-4.7518496062992126
0
LINE
8
BLACK
6
CONTINUOUS
10
5.9227937401574806
20
-4.7443505511811024
11
5.9227937401574806
21
-4.7968440157480314
0
LINE
8
BLACK
6
CONTINUOUS
10
5.9040460629921254
20
-4.7143543307086615
11
5.8852984251968499
21
-4.7705972834645669
0
LINE
8
BLACK
6
CONTINUOUS
10
5.8852984251968499
20
-4.7705972834645669
11
5.9340423228346459
21
-4.7705972834645669
0
LINE
8
BLACK
6
CONTINUOUS
10
5.9602890551181105
20
-4.7181038582677166
11
5.9602890551181105
21
-4.7331019685039371
0
LINE
8
BLACK
6
CONTINUOUS
10
5.9902853149606301
20
-4.7181038582677166
11
5.9902853149606301
21
-4.7331019685039371
0
LINE
8
BLACK
6
CONTINUOUS
10
6.1065208267716535
20
-4.8268402362204723
11
6.1027712598425197
21
-4.8230907086614172
0
LINE
8
BLACK
6
CONTINUOUS
10
6.1027712598425197
20
-4.8230907086614172
11
6.0952722047244094
21
-4.8118421259842519
0
LINE
8
BLACK
6
CONTINUOUS
10
6.0952722047244094
20
-4.8118421259842519
11
6.0915226771653543
21
-4.8043430708661417
0
LINE
8
BLACK
6
CONTINUOUS
10
6.0915226771653543
20
-4.8043430708661417
11
6.0877731496062992
21
-4.7930944881889763
0
LINE
8
BLACK
6
CONTINUOUS
10
6.0877731496062992
20
-4.7930944881889763
11
6.0840236220472441
21
-4.774346811023622
0
LINE
8
BLACK
6
CONTINUOUS
10
6.0840236220472441
20
-4.774346811023622
11
6.0840236220472441
21
-4.7593487007874016
0
LINE
8
BLACK
6
CONTINUOUS
10
6.0840236220472441
20
-4.7593487007874016
11
6.0877731496062992
21
-4.7406010236220473
0
LINE
8
BLACK
6
CONTINUOUS
10
6.0877731496062992
20
-4.7406010236220473
11
6.0915226771653543
21
-4.7293524409448819
0
LINE
8
BLACK
6
CONTINUOUS
10
6.0915226771653543
20
-4.7293524409448819
11
6.0952722047244094
21
-4.7218533858267717
0
LINE
8
BLACK
6
CONTINUOUS
10
6.0952722047244094
20
-4.7218533858267717
11
6.1027712598425197
21
-4.7106047637795276
0
LINE
8
BLACK
6
CONTINUOUS
10
6.1027712598425197
20
-4.7106047637795276
11
6.1065208267716535
21
-4.7068552362204725
0
LINE
8
BLACK
6
CONTINUOUS
10
6.1327675196850393
20
-4.7256029133858268
11
6.1365170472440944
21
-4.7218533858267717
0
LINE
8
BLACK
6
CONTINUOUS
10
6.1365170472440944
20
-4.7218533858267717
11
6.1440161023622046
21
-4.7181038582677166
0
LINE
8
BLACK
6
CONTINUOUS
10
6.1440161023622046
20
-4.7181038582677166
11
6.1627637795275589
21
-4.7181038582677166
0
LINE
8
BLACK
6
CONTINUOUS
10
6.1627637795275589
20
-4.7181038582677166
11
6.1702628346456692
21
-4.7218533858267717
0
LINE
8
BLACK
6
CONTINUOUS
10
6.1702628346456692
20
-4.7218533858267717
11
6.1740123622047243
21
-4.7256029133858268
0
LINE
8
BLACK
6
CONTINUOUS
10
6.1740123622047243
20
-4.7256029133858268
11
6.1777618897637794
21
-4.7331019685039371
0
LINE
8
BLACK
6
CONTINUOUS
10
6.1777618897637794
20
-4.7331019685039371
11
6.1777618897637794
21
-4.7406010236220473
0
LINE
8
BLACK
6
CONTINUOUS
10
6.1777618897637794
20
-4.7406010236220473
11
6.1740123622047243
21
-4.7518496062992126
0
LINE
8
BLACK
6
CONTINUOUS
10
6.1740123622047243
20
-4.7518496062992126
11
6.1290179921259842
21
-4.7968440157480314
0
LINE
8
BLACK
6
CONTINUOUS
10
6.1290179921259842
20
-4.7968440157480314
11
6.1777618897637794
21
-4.7968440157480314
0
LINE
8
BLACK
6
CONTINUOUS
10
6.2452534645669289
20
-4.7181038582677166
11
6.2302553149606297
21
-4.7181038582677166
0
LINE
8
BLACK
6
CONTINUOUS
10
6.2302553149606297
20
-4.7181038582677166
11
6.2227562598425195
21
-4.7218533858267717
0
LINE
8
BLACK
6
CONTINUOUS
10
6.2227562598425195
20
-4.7218533858267717
11
6.2190067322834643
21
-4.7256029133858268
0
LINE
8
BLACK
6
CONTINUOUS
10
6.2190067322834643
20
-4.7256029133858268
11
6.2115076771653541
21
-4.7368514960629922
0
LINE
8
BLACK
6
CONTINUOUS
10
6.2115076771653541
20
-4.7368514960629922
11
6.207758149606299
21
-4.7518496062992126
0
LINE
8
BLACK
6
CONTINUOUS
10
6.207758149606299
20
-4.7518496062992126
11
6.207758149606299
21
-4.7818458661417322
0
LINE
8
BLACK
6
CONTINUOUS
10
6.207758149606299
20
-4.7818458661417322
11
6.2115076771653541
21
-4.7893449212598425
0
LINE
8
BLACK
6
CONTINUOUS
10
6.2115076771653541
20
-4.7893449212598425
11
6.2152572047244092
21
-4.7930944881889763
0
LINE
8
BLACK
6
CONTINUOUS
10
6.2152572047244092
20
-4.7930944881889763
11
6.2227562598425195
21
-4.7968440157480314
0
LINE
8
BLACK
6
CONTINUOUS
10
6.2227562598425195
20
-4.7968440157480314
11
6.2377544094488186
21
-4.7968440157480314
0
LINE
8
BLACK
6
CONTINUOUS
10
6.2377544094488186
20
-4.7968440157480314
11
6.2452534645669289
21
-4.7930944881889763
0
LINE
8
BLACK
6
CONTINUOUS
10
6.2452534645669289
20
-4.7930944881889763
11
6.249002992125984
21
-4.7893449212598425
0
LINE
8
BLACK
6
CONTINUOUS
10
6.249002992125984
20
-4.7893449212598425
11
6.2527525196850391
21
-4.7818458661417322
0
LINE
8
BLACK
6
CONTINUOUS
10
6.2527525196850391
20
-4.7818458661417322
11
6.2527525196850391
21
-4.7630982283464567
0
LINE
8
BLACK
6
CONTINUOUS
10
6.2527525196850391
20
-4.7630982283464567
11
6.249002992125984
21
-4.7555991732283465
0
LINE
8
BLACK
6
CONTINUOUS
10
6.249002992125984
20
-4.7555991732283465
11
6.2452534645669289
21
-4.7518496062992126
0
LINE
8
BLACK
6
CONTINUOUS
10
6.2452534645669289
20
-4.7518496062992126
11
6.2377544094488186
21
-4.7481000787401575
0
LINE
8
BLACK
6
CONTINUOUS
10
6.2377544094488186
20
-4.7481000787401575
11
6.2227562598425195
21
-4.7481000787401575
0
LINE
8
BLACK
6
CONTINUOUS
10
6.2227562598425195
20
-4.7481000787401575
11
6.2152572047244092
21
-4.7518496062992126
0
LINE
8
BLACK
6
CONTINUOUS
10
6.2152572047244092
20
-4.7518496062992126
11
6.2115076771653541
21
-4.7555991732283465
0
LINE
8
BLACK
6
CONTINUOUS
10
6.2115076771653541
20
-4.7555991732283465
11
6.207758149606299
21
-4.7630982283464567
0
LINE
8
BLACK
6
CONTINUOUS
10
6.3464908267716531
20
-4.7968440157480314
11
6.3464908267716531
21
-4.7181038582677166
0
LINE
8
BLACK
6
CONTINUOUS
10
6.3802366141732278
20
-4.7968440157480314
11
6.3802366141732278
21
-4.7555991732283465
0
LINE
8
BLACK
6
CONTINUOUS
10
6.3802366141732278
20
-4.7555991732283465
11
6.3764870866141727
21
-4.7481000787401575
0
LINE
8
BLACK
6
CONTINUOUS
10
6.3764870866141727
20
-4.7481000787401575
11
6.3689880314960625
21
-4.7443505511811024
0
LINE
8
BLACK
6
CONTINUOUS
10
6.3689880314960625
20
-4.7443505511811024
11
6.3577394094488184
21
-4.7443505511811024
0
LINE
8
BLACK
6
CONTINUOUS
10
6.3577394094488184
20
-4.7443505511811024
11
6.3502403543307082
21
-4.7481000787401575
0
LINE
8
BLACK
6
CONTINUOUS
10
6.3502403543307082
20
-4.7481000787401575
11
6.3464908267716531
21
-4.7518496062992126
0
LINE
8
BLACK
6
CONTINUOUS
10
6.428980511811023
20
-4.7968440157480314
11
6.4214814566929128
21
-4.7930944881889763
0
LINE
8
BLACK
6
CONTINUOUS
10
6.4214814566929128
20
-4.7930944881889763
11
6.4177319291338577
21
-4.7893449212598425
0
LINE
8
BLACK
6
CONTINUOUS
10
6.4177319291338577
20
-4.7893449212598425
11
6.4139824015748026
21
-4.7818458661417322
0
LINE
8
BLACK
6
CONTINUOUS
10
6.4139824015748026
20
-4.7818458661417322
11
6.4139824015748026
21
-4.7593487007874016
0
LINE
8
BLACK
6
CONTINUOUS
10
6.4139824015748026
20
-4.7593487007874016
11
6.4177319291338577
21
-4.7518496062992126
0
LINE
8
BLACK
6
CONTINUOUS
10
6.4177319291338577
20
-4.7518496062992126
11
6.4214814566929128
21
-4.7481000787401575
0
LINE
8
BLACK
6
CONTINUOUS
10
6.4214814566929128
20
-4.7481000787401575
11
6.428980511811023
21
-4.7443505511811024
0
LINE
8
BLACK
6
CONTINUOUS
10
6.428980511811023
20
-4.7443505511811024
11
6.440229133858268
21
-4.7443505511811024
0
LINE
8
BLACK
6
CONTINUOUS
10
6.440229133858268
20
-4.7443505511811024
11
6.4477281889763782
21
-4.7481000787401575
0
LINE
8
BLACK
6
CONTINUOUS
10
6.4477281889763782
20
-4.7481000787401575
11
6.4514777165354333
21
-4.7518496062992126
0
LINE
8
BLACK
6
CONTINUOUS
10
6.4514777165354333
20
-4.7518496062992126
11
6.4552272440944884
21
-4.7593487007874016
0
LINE
8
BLACK
6
CONTINUOUS
10
6.4552272440944884
20
-4.7593487007874016
11
6.4552272440944884
21
-4.7818458661417322
0
LINE
8
BLACK
6
CONTINUOUS
10
6.4552272440944884
20
-4.7818458661417322
11
6.4514777165354333
21
-4.7893449212598425
0
LINE
8
BLACK
6
CONTINUOUS
10
6.4514777165354333
20
-4.7893449212598425
11
6.4477281889763782
21
-4.7930944881889763
0
LINE
8
BLACK
6
CONTINUOUS
10
6.4477281889763782
20
-4.7930944881889763
11
6.440229133858268
21
-4.7968440157480314
0
LINE
8
BLACK
6
CONTINUOUS
10
6.440229133858268
20
-4.7968440157480314
11
6.428980511811023
21
-4.7968440157480314
0
LINE
8
BLACK
6
CONTINUOUS
10
6.5002216141732285
20
-4.7968440157480314
11
6.4927225590551183
21
-4.7930944881889763
0
LINE
8
BLACK
6
CONTINUOUS
10
6.4927225590551183
20
-4.7930944881889763
11
6.4889730314960632
21
-4.7855953937007873
0
LINE
8
BLACK
6
CONTINUOUS
10
6.4889730314960632
20
-4.7855953937007873
11
6.4889730314960632
21
-4.7181038582677166
0
LINE
8
BLACK
6
CONTINUOUS
10
6.5602141338582678
20
-4.7930944881889763
11
6.5527150787401576
21
-4.7968440157480314
0
LINE
8
BLACK
6
CONTINUOUS
10
6.5527150787401576
20
-4.7968440157480314
11
6.5377169291338584
21
-4.7968440157480314
0
LINE
8
BLACK
6
CONTINUOUS
10
6.5377169291338584
20
-4.7968440157480314
11
6.5302178740157482
21
-4.7930944881889763
0
LINE
8
BLACK
6
CONTINUOUS
10
6.5302178740157482
20
-4.7930944881889763
11
6.526468346456693
21
-4.7855953937007873
0
LINE
8
BLACK
6
CONTINUOUS
10
6.526468346456693
20
-4.7855953937007873
11
6.526468346456693
21
-4.7555991732283465
0
LINE
8
BLACK
6
CONTINUOUS
10
6.526468346456693
20
-4.7555991732283465
11
6.5302178740157482
21
-4.7481000787401575
0
LINE
8
BLACK
6
CONTINUOUS
10
6.5302178740157482
20
-4.7481000787401575
11
6.5377169291338584
21
-4.7443505511811024
0
LINE
8
BLACK
6
CONTINUOUS
10
6.5377169291338584
20
-4.7443505511811024
11
6.5527150787401576
21
-4.7443505511811024
0
LINE
8
BLACK
6
CONTINUOUS
10
6.5527150787401576
20
-4.7443505511811024
11
6.5602141338582678
21
-4.7481000787401575
0
LINE
8
BLACK
6
CONTINUOUS
10
6.5602141338582678
20
-4.7481000787401575
11
6.5639636614173229
21
-4.7555991732283465
0
LINE
8
BLACK
6
CONTINUOUS
10
6.5639636614173229
20
-4.7555991732283465
11
6.5639636614173229
21
-4.7630982283464567
0
LINE
8
BLACK
6
CONTINUOUS
10
6.5639636614173229
20
-4.7630982283464567
11
6.526468346456693
21
-4.7705972834645669
0
LINE
8
BLACK
6
CONTINUOUS
10
6.5939599212598425
20
-4.7930944881889763
11
6.6014589763779528
21
-4.7968440157480314
0
LINE
8
BLACK
6
CONTINUOUS
10
6.6014589763779528
20
-4.7968440157480314
11
6.6164570866141732
21
-4.7968440157480314
0
LINE
8
BLACK
6
CONTINUOUS
10
6.6164570866141732
20
-4.7968440157480314
11
6.6239561811023622
21
-4.7930944881889763
0
LINE
8
BLACK
6
CONTINUOUS
10
6.6239561811023622
20
-4.7930944881889763
11
6.6277057086614173
21
-4.7855953937007873
0
LINE
8
BLACK
6
CONTINUOUS
10
6.6277057086614173
20
-4.7855953937007873
11
6.6277057086614173
21
-4.7818458661417322
0
LINE
8
BLACK
6
CONTINUOUS
10
6.6277057086614173
20
-4.7818458661417322
11
6.6239561811023622
21
-4.774346811023622
0
LINE
8
BLACK
6
CONTINUOUS
10
6.6239561811023622
20
-4.774346811023622
11
6.6164570866141732
21
-4.7705972834645669
0
LINE
8
BLACK
6
CONTINUOUS
10
6.6164570866141732
20
-4.7705972834645669
11
6.6052085039370079
21
-4.7705972834645669
0
LINE
8
BLACK
6
CONTINUOUS
10
6.6052085039370079
20
-4.7705972834645669
11
6.5977094488188976
21
-4.7668477559055118
0
LINE
8
BLACK
6
CONTINUOUS
10
6.5977094488188976
20
-4.7668477559055118
11
6.5939599212598425
21
-4.7593487007874016
0
LINE
8
BLACK
6
CONTINUOUS
10
6.5939599212598425
20
-4.7593487007874016
11
6.5939599212598425
21
-4.7555991732283465
0
LINE
8
BLACK
6
CONTINUOUS
10
6.5939599212598425
20
-4.7555991732283465
11
6.5977094488188976
21
-4.7481000787401575
0
LINE
8
BLACK
6
CONTINUOUS
10
6.5977094488188976
20
-4.7481000787401575
11
6.6052085039370079
21
-4.7443505511811024
0
LINE
8
BLACK
6
CONTINUOUS
10
6.6052085039370079
20
-4.7443505511811024
11
6.6164570866141732
21
-4.7443505511811024
0
LINE
8
BLACK
6
CONTINUOUS
10
6.6164570866141732
20
-4.7443505511811024
11
6.6239561811023622
21
-4.7481000787401575
0
LINE
8
BLACK
6
CONTINUOUS
10
6.6539524409448818
20
-4.8268402362204723
11
6.6577019685039369
21
-4.8230907086614172
0
LINE
8
BLACK
6
CONTINUOUS
10
6.6577019685039369
20
-4.8230907086614172
11
6.6652010236220471
21
-4.8118421259842519
0
LINE
8
BLACK
6
CONTINUOUS
10
6.6652010236220471
20
-4.8118421259842519
11
6.6689505511811022
21
-4.8043430708661417
0
LINE
8
BLACK
6
CONTINUOUS
10
6.6689505511811022
20
-4.8043430708661417
11
6.6727000787401574
21
-4.7930944881889763
0
LINE
8
BLACK
6
CONTINUOUS
10
6.6727000787401574
20
-4.7930944881889763
11
6.6764496062992125
21
-4.774346811023622
0
LINE
8
BLACK
6
CONTINUOUS
10
6.6764496062992125
20
-4.774346811023622
11
6.6764496062992125
21
-4.7593487007874016
0
LINE
8
BLACK
6
CONTINUOUS
10
6.6764496062992125
20
-4.7593487007874016
11
6.6727000787401574
21
-4.7406010236220473
0
LINE
8
BLACK
6
CONTINUOUS
10
6.6727000787401574
20
-4.7406010236220473
11
6.6689505511811022
21
-4.7293524409448819
0
LINE
8
BLACK
6
CONTINUOUS
10
6.6689505511811022
20
-4.7293524409448819
11
6.6652010236220471
21
-4.7218533858267717
0
LINE
8
BLACK
6
CONTINUOUS
10
6.6652010236220471
20
-4.7218533858267717
11
6.6577019685039369
21
-4.7106047637795276
0
LINE
8
BLACK
6
CONTINUOUS
10
6.6577019685039369
20
-4.7106047637795276
11
6.6539524409448818
21
-4.7068552362204725
0
LINE
8
BLACK
6
CONTINUOUS
10
4.6874848031496059
20
-4.8926029133858266
11
4.6874848031496059
21
-4.8369246456692911
0
LINE
8
BLACK
6
CONTINUOUS
10
4.6874848031496059
20
-4.8369246456692911
11
4.6318065354330704
21
-4.8369246456692911
0
LINE
8
BLACK
6
CONTINUOUS
10
4.6318065354330704
20
-4.8369246456692911
11
4.6318065354330704
21
-4.8926029133858266
0
LINE
8
BLACK
6
CONTINUOUS
10
4.6318065354330704
20
-4.8926029133858266
11
4.6874848031496059
21
-4.8926029133858266
0
LINE
8
BLACK
6
CONTINUOUS
10
4.7941847244094484
20
-4.822040866141732
11
4.8429286220472436
21
-4.822040866141732
0
LINE
8
BLACK
6
CONTINUOUS
10
4.8429286220472436
20
-4.822040866141732
11
4.8166818897637791
21
-4.8520370866141729
0
LINE
8
BLACK
6
CONTINUOUS
10
4.8166818897637791
20
-4.8520370866141729
11
4.8279305118110232
21
-4.8520370866141729
0
LINE
8
BLACK
6
CONTINUOUS
10
4.8279305118110232
20
-4.8520370866141729
11
4.8354295669291334
21
-4.855786614173228
0
LINE
8
BLACK
6
CONTINUOUS
10
4.8354295669291334
20
-4.855786614173228
11
4.8391790944881885
21
-4.8595361811023619
0
LINE
8
BLACK
6
CONTINUOUS
10
4.8391790944881885
20
-4.8595361811023619
11
4.8429286220472436
21
-4.8670352362204721
0
LINE
8
BLACK
6
CONTINUOUS
10
4.8429286220472436
20
-4.8670352362204721
11
4.8429286220472436
21
-4.8857828740157476
0
LINE
8
BLACK
6
CONTINUOUS
10
4.8429286220472436
20
-4.8857828740157476
11
4.8391790944881885
21
-4.8932819291338578
0
LINE
8
BLACK
6
CONTINUOUS
10
4.8391790944881885
20
-4.8932819291338578
11
4.8354295669291334
21
-4.8970314960629917
0
LINE
8
BLACK
6
CONTINUOUS
10
4.8354295669291334
20
-4.8970314960629917
11
4.8279305118110232
21
-4.9007810236220468
0
LINE
8
BLACK
6
CONTINUOUS
10
4.8279305118110232
20
-4.9007810236220468
11
4.8054333070866138
21
-4.9007810236220468
0
LINE
8
BLACK
6
CONTINUOUS
10
4.8054333070866138
20
-4.9007810236220468
11
4.7979342519685035
21
-4.8970314960629917
0
LINE
8
BLACK
6
CONTINUOUS
10
4.7979342519685035
20
-4.8970314960629917
11
4.7941847244094484
21
-4.8932819291338578
0
LINE
8
BLACK
6
CONTINUOUS
10
4.8766744094488184
20
-4.8932819291338578
11
4.8804239370078735
21
-4.8970314960629917
0
LINE
8
BLACK
6
CONTINUOUS
10
4.8804239370078735
20
-4.8970314960629917
11
4.8766744094488184
21
-4.9007810236220468
0
LINE
8
BLACK
6
CONTINUOUS
10
4.8766744094488184
20
-4.9007810236220468
11
4.8729248818897632
21
-4.8970314960629917
0
LINE
8
BLACK
6
CONTINUOUS
10
4.8729248818897632
20
-4.8970314960629917
11
4.8766744094488184
21
-4.8932819291338578
0
LINE
8
BLACK
6
CONTINUOUS
10
4.8766744094488184
20
-4.8932819291338578
11
4.8766744094488184
21
-4.9007810236220468
0
LINE
8
BLACK
6
CONTINUOUS
10
4.9254183070866144
20
-4.855786614173228
11
4.9179192519685042
21
-4.8520370866141729
0
LINE
8
BLACK
6
CONTINUOUS
10
4.9179192519685042
20
-4.8520370866141729
11
4.9141697244094491
21
-4.8482875590551178
0
LINE
8
BLACK
6
CONTINUOUS
10
4.9141697244094491
20
-4.8482875590551178
11
4.910420196850394
21
-4.8407885039370075
0
LINE
8
BLACK
6
CONTINUOUS
10
4.910420196850394
20
-4.8407885039370075
11
4.910420196850394
21
-4.8370389763779524
0
LINE
8
BLACK
6
CONTINUOUS
10
4.910420196850394
20
-4.8370389763779524
11
4.9141697244094491
21
-4.8295399212598422
0
LINE
8
BLACK
6
CONTINUOUS
10
4.9141697244094491
20
-4.8295399212598422
11
4.9179192519685042
21
-4.8257903937007871
0
LINE
8
BLACK
6
CONTINUOUS
10
4.9179192519685042
20
-4.8257903937007871
11
4.9254183070866144
21
-4.822040866141732
0
LINE
8
BLACK
6
CONTINUOUS
10
4.9254183070866144
20
-4.822040866141732
11
4.9404164566929136
21
-4.822040866141732
0
LINE
8
BLACK
6
CONTINUOUS
10
4.9404164566929136
20
-4.822040866141732
11
4.9479155118110238
21
-4.8257903937007871
0
LINE
8
BLACK
6
CONTINUOUS
10
4.9479155118110238
20
-4.8257903937007871
11
4.951665039370079
21
-4.8295399212598422
0
LINE
8
BLACK
6
CONTINUOUS
10
4.951665039370079
20
-4.8295399212598422
11
4.9554145669291341
21
-4.8370389763779524
0
LINE
8
BLACK
6
CONTINUOUS
10
4.9554145669291341
20
-4.8370389763779524
11
4.9554145669291341
21
-4.8407885039370075
0
LINE
8
BLACK
6
CONTINUOUS
10
4.9554145669291341
20
-4.8407885039370075
11
4.951665039370079
21
-4.8482875590551178
0
LINE
8
BLACK
6
CONTINUOUS
10
4.951665039370079
20
-4.8482875590551178
11
4.9479155118110238
21
-4.8520370866141729
0
LINE
8
BLACK
6
CONTINUOUS
10
4.9479155118110238
20
-4.8520370866141729
11
4.9404164566929136
21
-4.855786614173228
0
LINE
8
BLACK
6
CONTINUOUS
10
4.9404164566929136
20
-4.855786614173228
11
4.9254183070866144
21
-4.855786614173228
0
LINE
8
BLACK
6
CONTINUOUS
10
4.9254183070866144
20
-4.855786614173228
11
4.9179192519685042
21
-4.8595361811023619
0
LINE
8
BLACK
6
CONTINUOUS
10
4.9179192519685042
20
-4.8595361811023619
11
4.9141697244094491
21
-4.863285708661417
0
LINE
8
BLACK
6
CONTINUOUS
10
4.9141697244094491
20
-4.863285708661417
11
4.910420196850394
21
-4.8707847637795272
0
LINE
8
BLACK
6
CONTINUOUS
10
4.910420196850394
20
-4.8707847637795272
11
4.910420196850394
21
-4.8857828740157476
0
LINE
8
BLACK
6
CONTINUOUS
10
4.910420196850394
20
-4.8857828740157476
11
4.9141697244094491
21
-4.8932819291338578
0
LINE
8
BLACK
6
CONTINUOUS
10
4.9141697244094491
20
-4.8932819291338578
11
4.9179192519685042
21
-4.8970314960629917
0
LINE
8
BLACK
6
CONTINUOUS
10
4.9179192519685042
20
-4.8970314960629917
11
4.9254183070866144
21
-4.9007810236220468
0
LINE
8
BLACK
6
CONTINUOUS
10
4.9254183070866144
20
-4.9007810236220468
11
4.9404164566929136
21
-4.9007810236220468
0
LINE
8
BLACK
6
CONTINUOUS
10
4.9404164566929136
20
-4.9007810236220468
11
4.9479155118110238
21
-4.8970314960629917
0
LINE
8
BLACK
6
CONTINUOUS
10
4.9479155118110238
20
-4.8970314960629917
11
4.951665039370079
21
-4.8932819291338578
0
LINE
8
BLACK
6
CONTINUOUS
10
4.951665039370079
20
-4.8932819291338578
11
4.9554145669291341
21
-4.8857828740157476
0
LINE
8
BLACK
6
CONTINUOUS
10
4.9554145669291341
20
-4.8857828740157476
11
4.9554145669291341
21
-4.8707847637795272
0
LINE
8
BLACK
6
CONTINUOUS
10
4.9554145669291341
20
-4.8707847637795272
11
4.951665039370079
21
-4.863285708661417
0
LINE
8
BLACK
6
CONTINUOUS
10
4.951665039370079
20
-4.863285708661417
11
4.9479155118110238
21
-4.8595361811023619
0
LINE
8
BLACK
6
CONTINUOUS
10
4.9479155118110238
20
-4.8595361811023619
11
4.9404164566929136
21
-4.855786614173228
0
LINE
8
BLACK
6
CONTINUOUS
10
5.0304051968503938
20
-4.9007810236220468
11
4.9854108267716537
21
-4.9007810236220468
0
LINE
8
BLACK
6
CONTINUOUS
10
5.0079079921259844
20
-4.9007810236220468
11
5.0079079921259844
21
-4.822040866141732
0
LINE
8
BLACK
6
CONTINUOUS
10
5.0079079921259844
20
-4.822040866141732
11
5.0004089370078741
21
-4.8332894488188973
0
LINE
8
BLACK
6
CONTINUOUS
10
5.0004089370078741
20
-4.8332894488188973
11
4.9929098818897639
21
-4.8407885039370075
0
LINE
8
BLACK
6
CONTINUOUS
10
4.9929098818897639
20
-4.8407885039370075
11
4.9854108267716537
21
-4.8445380314960627
0
LINE
8
BLACK
6
CONTINUOUS
10
5.079149094488189
20
-4.822040866141732
11
5.0866481889763779
21
-4.822040866141732
0
LINE
8
BLACK
6
CONTINUOUS
10
5.0866481889763779
20
-4.822040866141732
11
5.0941472440944882
21
-4.8257903937007871
0
LINE
8
BLACK
6
CONTINUOUS
10
5.0941472440944882
20
-4.8257903937007871
11
5.0978967716535433
21
-4.8295399212598422
0
LINE
8
BLACK
6
CONTINUOUS
10
5.0978967716535433
20
-4.8295399212598422
11
5.1016462992125984
21
-4.8370389763779524
0
LINE
8
BLACK
6
CONTINUOUS
10
5.1016462992125984
20
-4.8370389763779524
11
5.1053958267716535
21
-4.8520370866141729
0
LINE
8
BLACK
6
CONTINUOUS
10
5.1053958267716535
20
-4.8520370866141729
11
5.1053958267716535
21
-4.8707847637795272
0
LINE
8
BLACK
6
CONTINUOUS
10
5.1053958267716535
20
-4.8707847637795272
11
5.1016462992125984
21
-4.8857828740157476
0
LINE
8
BLACK
6
CONTINUOUS
10
5.1016462992125984
20
-4.8857828740157476
11
5.0978967716535433
21
-4.8932819291338578
0
LINE
8
BLACK
6
CONTINUOUS
10
5.0978967716535433
20
-4.8932819291338578
11
5.0941472440944882
21
-4.8970314960629917
0
LINE
8
BLACK
6
CONTINUOUS
10
5.0941472440944882
20
-4.8970314960629917
11
5.0866481889763779
21
-4.9007810236220468
0
LINE
8
BLACK
6
CONTINUOUS
10
5.0866481889763779
20
-4.9007810236220468
11
5.079149094488189
21
-4.9007810236220468
0
LINE
8
BLACK
6
CONTINUOUS
10
5.079149094488189
20
-4.9007810236220468
11
5.0716500393700787
21
-4.8970314960629917
0
LINE
8
BLACK
6
CONTINUOUS
10
5.0716500393700787
20
-4.8970314960629917
11
5.0679005118110236
21
-4.8932819291338578
0
LINE
8
BLACK
6
CONTINUOUS
10
5.0679005118110236
20
-4.8932819291338578
11
5.0641509842519685
21
-4.8857828740157476
0
LINE
8
BLACK
6
CONTINUOUS
10
5.0641509842519685
20
-4.8857828740157476
11
5.0604014566929134
21
-4.8707847637795272
0
LINE
8
BLACK
6
CONTINUOUS
10
5.0604014566929134
20
-4.8707847637795272
11
5.0604014566929134
21
-4.8520370866141729
0
LINE
8
BLACK
6
CONTINUOUS
10
5.0604014566929134
20
-4.8520370866141729
11
5.0641509842519685
21
-4.8370389763779524
0
LINE
8
BLACK
6
CONTINUOUS
10
5.0641509842519685
20
-4.8370389763779524
11
5.0679005118110236
21
-4.8295399212598422
0
LINE
8
BLACK
6
CONTINUOUS
10
5.0679005118110236
20
-4.8295399212598422
11
5.0716500393700787
21
-4.8257903937007871
0
LINE
8
BLACK
6
CONTINUOUS
10
5.0716500393700787
20
-4.8257903937007871
11
5.079149094488189
21
-4.822040866141732
0
LINE
8
BLACK
6
CONTINUOUS
10
5.1391416141732282
20
-4.9007810236220468
11
5.1391416141732282
21
-4.8482875590551178
0
LINE
8
BLACK
6
CONTINUOUS
10
5.1391416141732282
20
-4.855786614173228
11
5.1428911417322833
21
-4.8520370866141729
0
LINE
8
BLACK
6
CONTINUOUS
10
5.1428911417322833
20
-4.8520370866141729
11
5.1503901968503936
21
-4.8482875590551178
0
LINE
8
BLACK
6
CONTINUOUS
10
5.1503901968503936
20
-4.8482875590551178
11
5.1616388188976376
21
-4.8482875590551178
0
LINE
8
BLACK
6
CONTINUOUS
10
5.1616388188976376
20
-4.8482875590551178
11
5.1691378740157479
21
-4.8520370866141729
0
LINE
8
BLACK
6
CONTINUOUS
10
5.1691378740157479
20
-4.8520370866141729
11
5.172887401574803
21
-4.8595361811023619
0
LINE
8
BLACK
6
CONTINUOUS
10
5.172887401574803
20
-4.8595361811023619
11
5.172887401574803
21
-4.9007810236220468
0
LINE
8
BLACK
6
CONTINUOUS
10
5.172887401574803
20
-4.8595361811023619
11
5.1766369291338581
21
-4.8520370866141729
0
LINE
8
BLACK
6
CONTINUOUS
10
5.1766369291338581
20
-4.8520370866141729
11
5.1841359842519683
21
-4.8482875590551178
0
LINE
8
BLACK
6
CONTINUOUS
10
5.1841359842519683
20
-4.8482875590551178
11
5.1953845669291336
21
-4.8482875590551178
0
LINE
8
BLACK
6
CONTINUOUS
10
5.1953845669291336
20
-4.8482875590551178
11
5.2028836614173226
21
-4.8520370866141729
0
LINE
8
BLACK
6
CONTINUOUS
10
5.2028836614173226
20
-4.8520370866141729
11
5.2066331889763777
21
-4.8595361811023619
0
LINE
8
BLACK
6
CONTINUOUS
10
5.2066331889763777
20
-4.8595361811023619
11
5.2066331889763777
21
-4.9007810236220468
0
LINE
8
BLACK
6
CONTINUOUS
10
5.2441285039370076
20
-4.9007810236220468
11
5.2441285039370076
21
-4.8482875590551178
0
LINE
8
BLACK
6
CONTINUOUS
10
5.2441285039370076
20
-4.855786614173228
11
5.2478780314960627
21
-4.8520370866141729
0
LINE
8
BLACK
6
CONTINUOUS
10
5.2478780314960627
20
-4.8520370866141729
11
5.2553770866141729
21
-4.8482875590551178
0
LINE
8
BLACK
6
CONTINUOUS
10
5.2553770866141729
20
-4.8482875590551178
11
5.266625708661417
21
-4.8482875590551178
0
LINE
8
BLACK
6
CONTINUOUS
10
5.266625708661417
20
-4.8482875590551178
11
5.2741247637795272
21
-4.8520370866141729
0
LINE
8
BLACK
6
CONTINUOUS
10
5.2741247637795272
20
-4.8520370866141729
11
5.2778742913385823
21
-4.8595361811023619
0
LINE
8
BLACK
6
CONTINUOUS
10
5.2778742913385823
20
-4.8595361811023619
11
5.2778742913385823
21
-4.9007810236220468
0
LINE
8
BLACK
6
CONTINUOUS
10
5.2778742913385823
20
-4.8595361811023619
11
5.2816238188976374
21
-4.8520370866141729
0
LINE
8
BLACK
6
CONTINUOUS
10
5.2816238188976374
20
-4.8520370866141729
11
5.2891228740157477
21
-4.8482875590551178
0
LINE
8
BLACK
6
CONTINUOUS
10
5.2891228740157477
20
-4.8482875590551178
11
5.300371456692913
21
-4.8482875590551178
0
LINE
8
BLACK
6
CONTINUOUS
10
5.300371456692913
20
-4.8482875590551178
11
5.307870551181102
21
-4.8520370866141729
0
LINE
8
BLACK
6
CONTINUOUS
10
5.307870551181102
20
-4.8520370866141729
11
5.3116200787401571
21
-4.8595361811023619
0
LINE
8
BLACK
6
CONTINUOUS
10
5.3116200787401571
20
-4.8595361811023619
11
5.3116200787401571
21
-4.9007810236220468
0
LINE
8
BLACK
6
CONTINUOUS
10
5.4653508661417325
20
-4.8182913385826769
11
5.3978593307086609
21
-4.9195286614173224
0
LINE
8
BLACK
6
CONTINUOUS
10
5.5665882283464567
20
-4.822040866141732
11
5.5740873228346457
21
-4.822040866141732
0
LINE
8
BLACK
6
CONTINUOUS
10
5.5740873228346457
20
-4.822040866141732
11
5.5815863779527559
21
-4.8257903937007871
0
LINE
8
BLACK
6
CONTINUOUS
10
5.5815863779527559
20
-4.8257903937007871
11
5.585335905511811
21
-4.8295399212598422
0
LINE
8
BLACK
6
CONTINUOUS
10
5.585335905511811
20
-4.8295399212598422
11
5.5890854330708661
21
-4.8370389763779524
0
LINE
8
BLACK
6
CONTINUOUS
10
5.5890854330708661
20
-4.8370389763779524
11
5.5928349606299212
21
-4.8520370866141729
0
LINE
8
BLACK
6
CONTINUOUS
10
5.5928349606299212
20
-4.8520370866141729
11
5.5928349606299212
21
-4.8707847637795272
0
LINE
8
BLACK
6
CONTINUOUS
10
5.5928349606299212
20
-4.8707847637795272
11
5.5890854330708661
21
-4.8857828740157476
0
LINE
8
BLACK
6
CONTINUOUS
10
5.5890854330708661
20
-4.8857828740157476
11
5.585335905511811
21
-4.8932819291338578
0
LINE
8
BLACK
6
CONTINUOUS
10
5.585335905511811
20
-4.8932819291338578
11
5.5815863779527559
21
-4.8970314960629917
0
LINE
8
BLACK
6
CONTINUOUS
10
5.5815863779527559
20
-4.8970314960629917
11
5.5740873228346457
21
-4.9007810236220468
0
LINE
8
BLACK
6
CONTINUOUS
10
5.5740873228346457
20
-4.9007810236220468
11
5.5665882283464567
21
-4.9007810236220468
0
LINE
8
BLACK
6
CONTINUOUS
10
5.5665882283464567
20
-4.9007810236220468
11
5.5590891732283465
21
-4.8970314960629917
0
LINE
8
BLACK
6
CONTINUOUS
10
5.5590891732283465
20
-4.8970314960629917
11
5.5553396456692914
21
-4.8932819291338578
0
LINE
8
BLACK
6
CONTINUOUS
10
5.5553396456692914
20
-4.8932819291338578
11
5.5515901181102363
21
-4.8857828740157476
0
LINE
8
BLACK
6
CONTINUOUS
10
5.5515901181102363
20
-4.8857828740157476
11
5.5478405905511812
21
-4.8707847637795272
0
LINE
8
BLACK
6
CONTINUOUS
10
5.5478405905511812
20
-4.8707847637795272
11
5.5478405905511812
21
-4.8520370866141729
0
LINE
8
BLACK
6
CONTINUOUS
10
5.5478405905511812
20
-4.8520370866141729
11
5.5515901181102363
21
-4.8370389763779524
0
LINE
8
BLACK
6
CONTINUOUS
10
5.5515901181102363
20
-4.8370389763779524
11
5.5553396456692914
21
-4.8295399212598422
0
LINE
8
BLACK
6
CONTINUOUS
10
5.5553396456692914
20
-4.8295399212598422
11
5.5590891732283465
21
-4.8257903937007871
0
LINE
8
BLACK
6
CONTINUOUS
10
5.5590891732283465
20
-4.8257903937007871
11
5.5665882283464567
21
-4.822040866141732
0
LINE
8
BLACK
6
CONTINUOUS
10
5.626580748031496
20
-4.8932819291338578
11
5.6303302755905511
21
-4.8970314960629917
0
LINE
8
BLACK
6
CONTINUOUS
10
5.6303302755905511
20
-4.8970314960629917
11
5.626580748031496
21
-4.9007810236220468
0
LINE
8
BLACK
6
CONTINUOUS
10
5.626580748031496
20
-4.9007810236220468
11
5.6228312204724409
21
-4.8970314960629917
0
LINE
8
BLACK
6
CONTINUOUS
10
5.6228312204724409
20
-4.8970314960629917
11
5.626580748031496
21
-4.8932819291338578
0
LINE
8
BLACK
6
CONTINUOUS
10
5.626580748031496
20
-4.8932819291338578
11
5.626580748031496
21
-4.9007810236220468
0
LINE
8
BLACK
6
CONTINUOUS
10
5.7053209055118108
20
-4.9007810236220468
11
5.6603265354330707
21
-4.9007810236220468
0
LINE
8
BLACK
6
CONTINUOUS
10
5.6828237007874014
20
-4.9007810236220468
11
5.6828237007874014
21
-4.822040866141732
0
LINE
8
BLACK
6
CONTINUOUS
10
5.6828237007874014
20
-4.822040866141732
11
5.6753246456692912
21
-4.8332894488188973
0
LINE
8
BLACK
6
CONTINUOUS
10
5.6753246456692912
20
-4.8332894488188973
11
5.667825590551181
21
-4.8407885039370075
0
LINE
8
BLACK
6
CONTINUOUS
10
5.667825590551181
20
-4.8407885039370075
11
5.6603265354330707
21
-4.8445380314960627
0
LINE
8
BLACK
6
CONTINUOUS
10
5.7765620078740154
20
-4.822040866141732
11
5.7390666929133856
21
-4.822040866141732
0
LINE
8
BLACK
6
CONTINUOUS
10
5.7390666929133856
20
-4.822040866141732
11
5.7353171653543304
21
-4.8595361811023619
0
LINE
8
BLACK
6
CONTINUOUS
10
5.7353171653543304
20
-4.8595361811023619
11
5.7390666929133856
21
-4.855786614173228
0
LINE
8
BLACK
6
CONTINUOUS
10
5.7390666929133856
20
-4.855786614173228
11
5.7465657480314958
21
-4.8520370866141729
0
LINE
8
BLACK
6
CONTINUOUS
10
5.7465657480314958
20
-4.8520370866141729
11
5.7653134251968501
21
-4.8520370866141729
0
LINE
8
BLACK
6
CONTINUOUS
10
5.7653134251968501
20
-4.8520370866141729
11
5.7728124803149603
21
-4.855786614173228
0
LINE
8
BLACK
6
CONTINUOUS
10
5.7728124803149603
20
-4.855786614173228
11
5.7765620078740154
21
-4.8595361811023619
0
LINE
8
BLACK
6
CONTINUOUS
10
5.7765620078740154
20
-4.8595361811023619
11
5.7803115354330705
21
-4.8670352362204721
0
LINE
8
BLACK
6
CONTINUOUS
10
5.7803115354330705
20
-4.8670352362204721
11
5.7803115354330705
21
-4.8857828740157476
0
LINE
8
BLACK
6
CONTINUOUS
10
5.7803115354330705
20
-4.8857828740157476
11
5.7765620078740154
21
-4.8932819291338578
0
LINE
8
BLACK
6
CONTINUOUS
10
5.7765620078740154
20
-4.8932819291338578
11
5.7728124803149603
21
-4.8970314960629917
0
LINE
8
BLACK
6
CONTINUOUS
10
5.7728124803149603
20
-4.8970314960629917
11
5.7653134251968501
21
-4.9007810236220468
0
LINE
8
BLACK
6
CONTINUOUS
10
5.7653134251968501
20
-4.9007810236220468
11
5.7465657480314958
21
-4.9007810236220468
0
LINE
8
BLACK
6
CONTINUOUS
10
5.7465657480314958
20
-4.9007810236220468
11
5.7390666929133856
21
-4.8970314960629917
0
LINE
8
BLACK
6
CONTINUOUS
10
5.7390666929133856
20
-4.8970314960629917
11
5.7353171653543304
21
-4.8932819291338578
0
LINE
8
BLACK
6
CONTINUOUS
10
5.8290554330708657
20
-4.822040866141732
11
5.8365545275590547
21
-4.822040866141732
0
LINE
8
BLACK
6
CONTINUOUS
10
5.8365545275590547
20
-4.822040866141732
11
5.8440535826771649
21
-4.8257903937007871
0
LINE
8
BLACK
6
CONTINUOUS
10
5.8440535826771649
20
-4.8257903937007871
11
5.84780311023622
21
-4.8295399212598422
0
LINE
8
BLACK
6
CONTINUOUS
10
5.84780311023622
20
-4.8295399212598422
11
5.8515526377952751
21
-4.8370389763779524
0
LINE
8
BLACK
6
CONTINUOUS
10
5.8515526377952751
20
-4.8370389763779524
11
5.8553021653543302
21
-4.8520370866141729
0
LINE
8
BLACK
6
CONTINUOUS
10
5.8553021653543302
20
-4.8520370866141729
11
5.8553021653543302
21
-4.8707847637795272
0
LINE
8
BLACK
6
CONTINUOUS
10
5.8553021653543302
20
-4.8707847637795272
11
5.8515526377952751
21
-4.8857828740157476
0
LINE
8
BLACK
6
CONTINUOUS
10
5.8515526377952751
20
-4.8857828740157476
11
5.84780311023622
21
-4.8932819291338578
0
LINE
8
BLACK
6
CONTINUOUS
10
5.84780311023622
20
-4.8932819291338578
11
5.8440535826771649
21
-4.8970314960629917
0
LINE
8
BLACK
6
CONTINUOUS
10
5.8440535826771649
20
-4.8970314960629917
11
5.8365545275590547
21
-4.9007810236220468
0
LINE
8
BLACK
6
CONTINUOUS
10
5.8365545275590547
20
-4.9007810236220468
11
5.8290554330708657
21
-4.9007810236220468
0
LINE
8
BLACK
6
CONTINUOUS
10
5.8290554330708657
20
-4.9007810236220468
11
5.8215563779527555
21
-4.8970314960629917
0
LINE
8
BLACK
6
CONTINUOUS
10
5.8215563779527555
20
-4.8970314960629917
11
5.8178068503937004
21
-4.8932819291338578
0
LINE
8
BLACK
6
CONTINUOUS
10
5.8178068503937004
20
-4.8932819291338578
11
5.8140573228346453
21
-4.8857828740157476
0
LINE
8
BLACK
6
CONTINUOUS
10
5.8140573228346453
20
-4.8857828740157476
11
5.8103077952755902
21
-4.8707847637795272
0
LINE
8
BLACK
6
CONTINUOUS
10
5.8103077952755902
20
-4.8707847637795272
11
5.8103077952755902
21
-4.8520370866141729
0
LINE
8
BLACK
6
CONTINUOUS
10
5.8103077952755902
20
-4.8520370866141729
11
5.8140573228346453
21
-4.8370389763779524
0
LINE
8
BLACK
6
CONTINUOUS
10
5.8140573228346453
20
-4.8370389763779524
11
5.8178068503937004
21
-4.8295399212598422
0
LINE
8
BLACK
6
CONTINUOUS
10
5.8178068503937004
20
-4.8295399212598422
11
5.8215563779527555
21
-4.8257903937007871
0
LINE
8
BLACK
6
CONTINUOUS
10
5.8215563779527555
20
-4.8257903937007871
11
5.8290554330708657
21
-4.822040866141732
0
LINE
8
BLACK
6
CONTINUOUS
10
5.9040460629921254
20
-4.822040866141732
11
5.9115451574803144
21
-4.822040866141732
0
LINE
8
BLACK
6
CONTINUOUS
10
5.9115451574803144
20
-4.822040866141732
11
5.9190442125984255
21
-4.8257903937007871
0
LINE
8
BLACK
6
CONTINUOUS
10
5.9190442125984255
20
-4.8257903937007871
11
5.9227937401574806
21
-4.8295399212598422
0
LINE
8
BLACK
6
CONTINUOUS
10
5.9227937401574806
20
-4.8295399212598422
11
5.9265432677165357
21
-4.8370389763779524
0
LINE
8
BLACK
6
CONTINUOUS
10
5.9265432677165357
20
-4.8370389763779524
11
5.9302927952755908
21
-4.8520370866141729
0
LINE
8
BLACK
6
CONTINUOUS
10
5.9302927952755908
20
-4.8520370866141729
11
5.9302927952755908
21
-4.8707847637795272
0
LINE
8
BLACK
6
CONTINUOUS
10
5.9302927952755908
20
-4.8707847637795272
11
5.9265432677165357
21
-4.8857828740157476
0
LINE
8
BLACK
6
CONTINUOUS
10
5.9265432677165357
20
-4.8857828740157476
11
5.9227937401574806
21
-4.8932819291338578
0
LINE
8
BLACK
6
CONTINUOUS
10
5.9227937401574806
20
-4.8932819291338578
11
5.9190442125984255
21
-4.8970314960629917
0
LINE
8
BLACK
6
CONTINUOUS
10
5.9190442125984255
20
-4.8970314960629917
11
5.9115451574803144
21
-4.9007810236220468
0
LINE
8
BLACK
6
CONTINUOUS
10
5.9115451574803144
20
-4.9007810236220468
11
5.9040460629921254
21
-4.9007810236220468
0
LINE
8
BLACK
6
CONTINUOUS
10
5.9040460629921254
20
-4.9007810236220468
11
5.8965470078740152
21
-4.8970314960629917
0
LINE
8
BLACK
6
CONTINUOUS
10
5.8965470078740152
20
-4.8970314960629917
11
5.8927974803149601
21
-4.8932819291338578
0
LINE
8
BLACK
6
CONTINUOUS
10
5.8927974803149601
20
-4.8932819291338578
11
5.889047952755905
21
-4.8857828740157476
0
LINE
8
BLACK
6
CONTINUOUS
10
5.889047952755905
20
-4.8857828740157476
11
5.8852984251968499
21
-4.8707847637795272
0
LINE
8
BLACK
6
CONTINUOUS
10
5.8852984251968499
20
-4.8707847637795272
11
5.8852984251968499
21
-4.8520370866141729
0
LINE
8
BLACK
6
CONTINUOUS
10
5.8852984251968499
20
-4.8520370866141729
11
5.889047952755905
21
-4.8370389763779524
0
LINE
8
BLACK
6
CONTINUOUS
10
5.889047952755905
20
-4.8370389763779524
11
5.8927974803149601
21
-4.8295399212598422
0
LINE
8
BLACK
6
CONTINUOUS
10
5.8927974803149601
20
-4.8295399212598422
11
5.8965470078740152
21
-4.8257903937007871
0
LINE
8
BLACK
6
CONTINUOUS
10
5.8965470078740152
20
-4.8257903937007871
11
5.9040460629921254
21
-4.822040866141732
0
LINE
8
BLACK
6
CONTINUOUS
10
5.9602890551181105
20
-4.822040866141732
11
5.9602890551181105
21
-4.8370389763779524
0
LINE
8
BLACK
6
CONTINUOUS
10
5.9902853149606301
20
-4.822040866141732
11
5.9902853149606301
21
-4.8370389763779524
0
LINE
8
BLACK
6
CONTINUOUS
10
6.1065208267716535
20
-4.9307772440944877
11
6.1027712598425197
21
-4.9270277165354326
0
LINE
8
BLACK
6
CONTINUOUS
10
6.1027712598425197
20
-4.9270277165354326
11
6.0952722047244094
21
-4.9157791338582673
0
LINE
8
BLACK
6
CONTINUOUS
10
6.0952722047244094
20
-4.9157791338582673
11
6.0915226771653543
21
-4.908280078740157
0
LINE
8
BLACK
6
CONTINUOUS
10
6.0915226771653543
20
-4.908280078740157
11
6.0877731496062992
21
-4.8970314960629917
0
LINE
8
BLACK
6
CONTINUOUS
10
6.0877731496062992
20
-4.8970314960629917
11
6.0840236220472441
21
-4.8782838188976374
0
LINE
8
BLACK
6
CONTINUOUS
10
6.0840236220472441
20
-4.8782838188976374
11
6.0840236220472441
21
-4.863285708661417
0
LINE
8
BLACK
6
CONTINUOUS
10
6.0840236220472441
20
-4.863285708661417
11
6.0877731496062992
21
-4.8445380314960627
0
LINE
8
BLACK
6
CONTINUOUS
10
6.0877731496062992
20
-4.8445380314960627
11
6.0915226771653543
21
-4.8332894488188973
0
LINE
8
BLACK
6
CONTINUOUS
10
6.0915226771653543
20
-4.8332894488188973
11
6.0952722047244094
21
-4.8257903937007871
0
LINE
8
BLACK
6
CONTINUOUS
10
6.0952722047244094
20
-4.8257903937007871
11
6.1027712598425197
21
-4.814541771653543
0
LINE
8
BLACK
6
CONTINUOUS
10
6.1027712598425197
20
-4.814541771653543
11
6.1065208267716535
21
-4.8107922440944879
0
LINE
8
BLACK
6
CONTINUOUS
10
6.1702628346456692
20
-4.8482875590551178
11
6.1702628346456692
21
-4.9007810236220468
0
LINE
8
BLACK
6
CONTINUOUS
10
6.1515151574803149
20
-4.8182913385826769
11
6.1327675196850393
21
-4.8745342913385823
0
LINE
8
BLACK
6
CONTINUOUS
10
6.1327675196850393
20
-4.8745342913385823
11
6.1815114173228345
21
-4.8745342913385823
0
LINE
8
BLACK
6
CONTINUOUS
10
6.2715001968503934
20
-4.9007810236220468
11
6.2715001968503934
21
-4.822040866141732
0
LINE
8
BLACK
6
CONTINUOUS
10
6.3052459842519681
20
-4.9007810236220468
11
6.3052459842519681
21
-4.8595361811023619
0
LINE
8
BLACK
6
CONTINUOUS
10
6.3052459842519681
20
-4.8595361811023619
11
6.301496456692913
21
-4.8520370866141729
0
LINE
8
BLACK
6
CONTINUOUS
10
6.301496456692913
20
-4.8520370866141729
11
6.2939974015748028
21
-4.8482875590551178
0
LINE
8
BLACK
6
CONTINUOUS
10
6.2939974015748028
20
-4.8482875590551178
11
6.2827487795275587
21
-4.8482875590551178
0
LINE
8
BLACK
6
CONTINUOUS
10
6.2827487795275587
20
-4.8482875590551178
11
6.2752497244094485
21
-4.8520370866141729
0
LINE
8
BLACK
6
CONTINUOUS
10
6.2752497244094485
20
-4.8520370866141729
11
6.2715001968503934
21
-4.855786614173228
0
LINE
8
BLACK
6
CONTINUOUS
10
6.3539898818897633
20
-4.9007810236220468
11
6.3464908267716531
21
-4.8970314960629917
0
LINE
8
BLACK
6
CONTINUOUS
10
6.3464908267716531
20
-4.8970314960629917
11
6.342741299212598
21
-4.8932819291338578
0
LINE
8
BLACK
6
CONTINUOUS
10
6.342741299212598
20
-4.8932819291338578
11
6.3389917716535429
21
-4.8857828740157476
0
LINE
8
BLACK
6
CONTINUOUS
10
6.3389917716535429
20
-4.8857828740157476
11
6.3389917716535429
21
-4.863285708661417
0
LINE
8
BLACK
6
CONTINUOUS
10
6.3389917716535429
20
-4.863285708661417
11
6.342741299212598
21
-4.855786614173228
0
LINE
8
BLACK
6
CONTINUOUS
10
6.342741299212598
20
-4.855786614173228
11
6.3464908267716531
21
-4.8520370866141729
0
LINE
8
BLACK
6
CONTINUOUS
10
6.3464908267716531
20
-4.8520370866141729
11
6.3539898818897633
21
-4.8482875590551178
0
LINE
8
BLACK
6
CONTINUOUS
10
6.3539898818897633
20
-4.8482875590551178
11
6.3652385039370074
21
-4.8482875590551178
0
LINE
8
BLACK
6
CONTINUOUS
10
6.3652385039370074
20
-4.8482875590551178
11
6.3727375590551176
21
-4.8520370866141729
0
LINE
8
BLACK
6
CONTINUOUS
10
6.3727375590551176
20
-4.8520370866141729
11
6.3764870866141727
21
-4.855786614173228
0
LINE
8
BLACK
6
CONTINUOUS
10
6.3764870866141727
20
-4.855786614173228
11
6.3802366141732278
21
-4.863285708661417
0
LINE
8
BLACK
6
CONTINUOUS
10
6.3802366141732278
20
-4.863285708661417
11
6.3802366141732278
21
-4.8857828740157476
0
LINE
8
BLACK
6
CONTINUOUS
10
6.3802366141732278
20
-4.8857828740157476
11
6.3764870866141727
21
-4.8932819291338578
0
LINE
8
BLACK
6
CONTINUOUS
10
6.3764870866141727
20
-4.8932819291338578
11
6.3727375590551176
21
-4.8970314960629917
0
LINE
8
BLACK
6
CONTINUOUS
10
6.3727375590551176
20
-4.8970314960629917
11
6.3652385039370074
21
-4.9007810236220468
0
LINE
8
BLACK
6
CONTINUOUS
10
6.3652385039370074
20
-4.9007810236220468
11
6.3539898818897633
21
-4.9007810236220468
0
LINE
8
BLACK
6
CONTINUOUS
10
6.4252309842519679
20
-4.9007810236220468
11
6.4177319291338577
21
-4.8970314960629917
0
LINE
8
BLACK
6
CONTINUOUS
10
6.4177319291338577
20
-4.8970314960629917
11
6.4139824015748026
21
-4.8895324015748027
0
LINE
8
BLACK
6
CONTINUOUS
10
6.4139824015748026
20
-4.8895324015748027
11
6.4139824015748026
21
-4.822040866141732
0
LINE
8
BLACK
6
CONTINUOUS
10
6.4852235039370081
20
-4.8970314960629917
11
6.4777244488188979
21
-4.9007810236220468
0
LINE
8
BLACK
6
CONTINUOUS
10
6.4777244488188979
20
-4.9007810236220468
11
6.4627262992125987
21
-4.9007810236220468
0
LINE
8
BLACK
6
CONTINUOUS
10
6.4627262992125987
20
-4.9007810236220468
11
6.4552272440944884
21
-4.8970314960629917
0
LINE
8
BLACK
6
CONTINUOUS
10
6.4552272440944884
20
-4.8970314960629917
11
6.4514777165354333
21
-4.8895324015748027
0
LINE
8
BLACK
6
CONTINUOUS
10
6.4514777165354333
20
-4.8895324015748027
11
6.4514777165354333
21
-4.8595361811023619
0
LINE
8
BLACK
6
CONTINUOUS
10
6.4514777165354333
20
-4.8595361811023619
11
6.4552272440944884
21
-4.8520370866141729
0
LINE
8
BLACK
6
CONTINUOUS
10
6.4552272440944884
20
-4.8520370866141729
11
6.4627262992125987
21
-4.8482875590551178
0
LINE
8
BLACK
6
CONTINUOUS
10
6.4627262992125987
20
-4.8482875590551178
11
6.4777244488188979
21
-4.8482875590551178
0
LINE
8
BLACK
6
CONTINUOUS
10
6.4777244488188979
20
-4.8482875590551178
11
6.4852235039370081
21
-4.8520370866141729
0
LINE
8
BLACK
6
CONTINUOUS
10
6.4852235039370081
20
-4.8520370866141729
11
6.4889730314960632
21
-4.8595361811023619
0
LINE
8
BLACK
6
CONTINUOUS
10
6.4889730314960632
20
-4.8595361811023619
11
6.4889730314960632
21
-4.8670352362204721
0
LINE
8
BLACK
6
CONTINUOUS
10
6.4889730314960632
20
-4.8670352362204721
11
6.4514777165354333
21
-4.8745342913385823
0
LINE
8
BLACK
6
CONTINUOUS
10
6.5189692913385828
20
-4.8970314960629917
11
6.526468346456693
21
-4.9007810236220468
0
LINE
8
BLACK
6
CONTINUOUS
10
6.526468346456693
20
-4.9007810236220468
11
6.5414664566929135
21
-4.9007810236220468
0
LINE
8
BLACK
6
CONTINUOUS
10
6.5414664566929135
20
-4.9007810236220468
11
6.5489655511811025
21
-4.8970314960629917
0
LINE
8
BLACK
6
CONTINUOUS
10
6.5489655511811025
20
-4.8970314960629917
11
6.5527150787401576
21
-4.8895324015748027
0
LINE
8
BLACK
6
CONTINUOUS
10
6.5527150787401576
20
-4.8895324015748027
11
6.5527150787401576
21
-4.8857828740157476
0
LINE
8
BLACK
6
CONTINUOUS
10
6.5527150787401576
20
-4.8857828740157476
11
6.5489655511811025
21
-4.8782838188976374
0
LINE
8
BLACK
6
CONTINUOUS
10
6.5489655511811025
20
-4.8782838188976374
11
6.5414664566929135
21
-4.8745342913385823
0
LINE
8
BLACK
6
CONTINUOUS
10
6.5414664566929135
20
-4.8745342913385823
11
6.5302178740157482
21
-4.8745342913385823
0
LINE
8
BLACK
6
CONTINUOUS
10
6.5302178740157482
20
-4.8745342913385823
11
6.5227188188976379
21
-4.8707847637795272
0
LINE
8
BLACK
6
CONTINUOUS
10
6.5227188188976379
20
-4.8707847637795272
11
6.5189692913385828
21
-4.863285708661417
0
LINE
8
BLACK
6
CONTINUOUS
10
6.5189692913385828
20
-4.863285708661417
11
6.5189692913385828
21
-4.8595361811023619
0
LINE
8
BLACK
6
CONTINUOUS
10
6.5189692913385828
20
-4.8595361811023619
11
6.5227188188976379
21
-4.8520370866141729
0
LINE
8
BLACK
6
CONTINUOUS
10
6.5227188188976379
20
-4.8520370866141729
11
6.5302178740157482
21
-4.8482875590551178
0
LINE
8
BLACK
6
CONTINUOUS
10
6.5302178740157482
20
-4.8482875590551178
11
6.5414664566929135
21
-4.8482875590551178
0
LINE
8
BLACK
6
CONTINUOUS
10
6.5414664566929135
20
-4.8482875590551178
11
6.5489655511811025
21
-4.8520370866141729
0
LINE
8
BLACK
6
CONTINUOUS
10
6.5789618110236221
20
-4.9307772440944877
11
6.5827113385826772
21
-4.9270277165354326
0
LINE
8
BLACK
6
CONTINUOUS
10
6.5827113385826772
20
-4.9270277165354326
11
6.5902103937007874
21
-4.9157791338582673
0
LINE
8
BLACK
6
CONTINUOUS
10
6.5902103937007874
20
-4.9157791338582673
11
6.5939599212598425
21
-4.908280078740157
0
LINE
8
BLACK
6
CONTINUOUS
10
6.5939599212598425
20
-4.908280078740157
11
6.5977094488188976
21
-4.8970314960629917
0
LINE
8
BLACK
6
CONTINUOUS
10
6.5977094488188976
20
-4.8970314960629917
11
6.6014589763779528
21
-4.8782838188976374
0
LINE
8
BLACK
6
CONTINUOUS
10
6.6014589763779528
20
-4.8782838188976374
11
6.6014589763779528
21
-4.863285708661417
0
LINE
8
BLACK
6
CONTINUOUS
10
6.6014589763779528
20
-4.863285708661417
11
6.5977094488188976
21
-4.8445380314960627
0
LINE
8
BLACK
6
CONTINUOUS
10
6.5977094488188976
20
-4.8445380314960627
11
6.5939599212598425
21
-4.8332894488188973
0
LINE
8
BLACK
6
CONTINUOUS
10
6.5939599212598425
20
-4.8332894488188973
11
6.5902103937007874
21
-4.8257903937007871
0
LINE
8
BLACK
6
CONTINUOUS
10
6.5902103937007874
20
-4.8257903937007871
11
6.5827113385826772
21
-4.814541771653543
0
LINE
8
BLACK
6
CONTINUOUS
10
6.5827113385826772
20
-4.814541771653543
11
6.5789618110236221
21
-4.8107922440944879
  0
ENDSEC
  0
EOF
